<svg width="24" height="24" viewBox="0 0 24 24" fill="none" xmlns="http://www.w3.org/2000/svg">
<path d="M11.3326 20.3318C11.702 20.7139 12.298 20.7139 12.6674 20.3318C14.3715 18.5688 18.75 13.6588 18.75 9.75C18.75 7.95979 18.0388 6.2429 16.773 4.97703C15.5071 3.71116 13.7902 3 12 3C10.2098 3 8.4929 3.71116 7.22703 4.97703C5.96116 6.2429 5.25 7.95979 5.25 9.75C5.25 13.6588 9.62852 18.5688 11.3326 20.3318ZM12 13.125C11.1049 13.125 10.2464 12.7694 9.61351 12.1365C8.98058 11.5036 8.625 10.6451 8.625 9.75C8.625 8.85489 8.98058 7.99645 9.61351 7.36351C10.2464 6.73058 11.1049 6.375 12 6.375C12.8951 6.375 13.7536 6.73058 14.3865 7.36351C15.0194 7.99645 15.375 8.85489 15.375 9.75C15.375 10.6451 15.0194 11.5036 14.3865 12.1365C13.7536 12.7694 12.8951 13.125 12 13.125Z" fill="white"/>
</svg>
