<svg width="38" height="24" viewBox="0 0 38 24" fill="none" xmlns="http://www.w3.org/2000/svg">
<path fill-rule="evenodd" clip-rule="evenodd" d="M3.4451 0C1.72688 0 0.333984 1.34315 0.333984 3V21C0.333984 22.6569 1.72688 24 3.44509 24H34.5562C36.2744 24 37.6673 22.6569 37.6673 21V3C37.6673 1.34315 36.2744 0 34.5562 0H3.4451ZM24.9448 20.9809C30.0457 20.964 34.1029 16.912 34.0169 11.9204C33.9313 6.95392 29.7344 2.90405 24.6336 2.9209C22.4805 2.92801 20.5193 3.66195 18.9765 4.87111L19.0249 4.90836L18.7503 4.90927C17.1709 3.72394 15.1961 3.0121 13.0565 3.01917C7.95563 3.03601 3.89841 7.08805 3.98444 12.0796C4.07046 17.0712 8.26687 21.096 13.3677 21.0792C15.5208 21.072 17.482 20.3381 19.0248 19.1289L18.9757 19.0917L19.251 19.0908C20.8304 20.2761 22.8052 20.9879 24.9448 20.9809Z" fill="white"/>
</svg>
