<svg width="25" height="24" viewBox="0 0 25 24" fill="none" xmlns="http://www.w3.org/2000/svg">
<g id="phone">
<path id="Vector" fill-rule="evenodd" clip-rule="evenodd" d="M5.62125 3.57397C5.81811 3.37741 6.05449 3.22493 6.31473 3.12664C6.57497 3.02834 6.85313 2.98648 7.13078 3.00382C7.40842 3.02116 7.67921 3.0973 7.9252 3.22721C8.17119 3.35712 8.38677 3.53783 8.55764 3.75735L10.5771 6.35172C10.9472 6.82762 11.0778 7.44752 10.9315 8.03255L10.3161 10.4964C10.2843 10.624 10.286 10.7577 10.3211 10.8845C10.3562 11.0112 10.4234 11.1267 10.5164 11.2198L13.2806 13.9841C13.3738 14.0772 13.4895 14.1446 13.6165 14.1796C13.7435 14.2147 13.8774 14.2164 14.0051 14.1843L16.4679 13.5689C16.7566 13.4967 17.0579 13.4911 17.3491 13.5525C17.6403 13.6139 17.9137 13.7407 18.1487 13.9233L20.7431 15.9417C21.6757 16.6673 21.7612 18.0455 20.9265 18.8792L19.7631 20.0425C18.9306 20.875 17.6863 21.2407 16.5264 20.8323C13.5576 19.7877 10.862 18.0881 8.63977 15.8595C6.41136 13.6376 4.71177 10.9424 3.66704 7.97404C3.25977 6.81524 3.62541 5.56981 4.45795 4.73727L5.62125 3.57397Z" fill="white"/>
</g>
</svg>
