<svg width="25" height="24" viewBox="0 0 25 24" fill="none" xmlns="http://www.w3.org/2000/svg">
<g id="telegram">
<path id="tg_icon" fill-rule="evenodd" clip-rule="evenodd" d="M4.73741 10.9217C9.56923 8.81657 12.7912 7.42873 14.4033 6.75819C19.0063 4.84367 19.9627 4.5111 20.5861 4.50012C20.7232 4.4977 21.0298 4.53168 21.2284 4.69282C21.3961 4.82888 21.4422 5.01268 21.4643 5.14168C21.4864 5.27068 21.5139 5.56455 21.492 5.79416C21.2426 8.41499 20.1633 14.7751 19.6142 17.7104C19.3818 18.9525 18.9244 19.369 18.4815 19.4097C17.5189 19.4983 16.788 18.7736 15.8558 18.1625C14.397 17.2063 13.5729 16.611 12.1569 15.6779C10.5205 14.5995 11.5813 14.0068 12.5139 13.0382C12.758 12.7847 16.9988 8.92728 17.0809 8.57735C17.0912 8.53359 17.1007 8.37046 17.0038 8.28432C16.9069 8.19818 16.7639 8.22763 16.6606 8.25106C16.5143 8.28427 14.1839 9.82459 9.66938 12.872C9.0079 13.3262 8.40875 13.5476 7.87193 13.536C7.28013 13.5232 6.14175 13.2013 5.29548 12.9263C4.25749 12.5888 3.43252 12.4105 3.50436 11.8374C3.54178 11.539 3.95279 11.2337 4.73741 10.9217Z" fill="white"/>
</g>
</svg>
