<svg width="48" height="48" viewBox="0 0 48 48" fill="none" xmlns="http://www.w3.org/2000/svg">
<path d="M23.279 2.23821C23.5674 2.08883 23.9105 2.08883 24.1989 2.23821L27.9023 4.1564C27.9995 4.20672 28.1042 4.24076 28.2124 4.25715L32.336 4.88213C32.6572 4.93081 32.9347 5.13242 33.0802 5.4228L34.9489 9.15148C34.9979 9.24929 35.0626 9.3384 35.1405 9.41524L38.1092 12.3447C38.3404 12.5728 38.4464 12.899 38.3935 13.2195L37.7136 17.3344C37.6957 17.4424 37.6957 17.5525 37.7136 17.6605L38.3935 21.7754C38.4464 22.0959 38.3404 22.4221 38.1092 22.6502L35.1405 25.5797C35.0626 25.6565 34.9979 25.7456 34.9489 25.8434L33.0802 29.5721C32.9347 29.8625 32.6572 30.0641 32.336 30.1128L28.2124 30.7377C28.1042 30.7541 27.9995 30.7882 27.9023 30.8385L24.1989 32.7567C23.9104 32.9061 23.5674 32.9061 23.279 32.7567L19.5756 30.8385C19.4784 30.7882 19.3737 30.7541 19.2655 30.7377L15.1419 30.1128C14.8207 30.0641 14.5432 29.8625 14.3977 29.5721L12.529 25.8434C12.48 25.7456 12.4153 25.6565 12.3374 25.5797L9.36868 22.6502C9.13748 22.4221 9.03148 22.0959 9.08443 21.7754L9.76431 17.6605C9.78215 17.5525 9.78215 17.4424 9.76431 17.3344L9.08443 13.2195C9.03148 12.899 9.13748 12.5728 9.36868 12.3447L12.3374 9.41524C12.4153 9.3384 12.48 9.24929 12.529 9.15148L14.3977 5.4228C14.5432 5.13242 14.8207 4.93081 15.1419 4.88213L19.2655 4.25715C19.3737 4.24076 19.4784 4.20672 19.5756 4.1564L23.279 2.23821Z" stroke="#1A1A1D" stroke-width="2"/>
<path d="M14.5572 35.3101C13.9521 35.2184 13.4073 35.6868 13.4073 36.2988V44.7192C13.4073 45.3698 14.0187 45.8472 14.6499 45.6894L23.4964 43.4777C23.6557 43.4379 23.8222 43.4379 23.9815 43.4777L32.828 45.6894C33.4592 45.8472 34.0706 45.3698 34.0706 44.7192V36.2988C34.0706 35.6868 33.5258 35.2183 32.9207 35.3101L29.0213 35.901C28.9132 35.9174 28.8084 35.9515 28.7113 36.0018L24.1988 38.339C23.9104 38.4884 23.5674 38.4884 23.279 38.339L18.7666 36.0018C18.6694 35.9515 18.5647 35.9174 18.4565 35.901L14.5572 35.3101Z" stroke="#1A1A1D" stroke-width="2"/>
</svg>
