<svg width="48" height="48" viewBox="0 0 48 48" fill="none" xmlns="http://www.w3.org/2000/svg">
<path d="M4.75606 34.5H2.5C1.94772 34.5 1.5 34.0523 1.5 33.5V8.5C1.5 7.94771 1.94772 7.5 2.5 7.5H33.5C34.0523 7.5 34.5 7.94772 34.5 8.5V31.7561M13.2439 34.5H31.7561M34.5 16.5H39.0581C39.9695 16.5 40.8314 16.9143 41.4007 17.6259L45.8426 23.1783C46.2682 23.7102 46.5 24.3711 46.5 25.0523V31.5C46.5 33.1569 45.1569 34.5 43.5 34.5H40.2439M13.5 36C13.5 38.4853 11.4853 40.5 9 40.5C6.51472 40.5 4.5 38.4853 4.5 36C4.5 33.5147 6.51472 31.5 9 31.5C11.4853 31.5 13.5 33.5147 13.5 36ZM40.5 36C40.5 38.4853 38.4853 40.5 36 40.5C33.5147 40.5 31.5 38.4853 31.5 36C31.5 33.5147 33.5147 31.5 36 31.5C38.4853 31.5 40.5 33.5147 40.5 36Z" stroke="#1A1A1D" stroke-width="2"/>
</svg>
