<svg width="48" height="48" viewBox="0 0 48 48" fill="none" xmlns="http://www.w3.org/2000/svg">
<path d="M22.6 7.92224C12.7551 8.67115 5 16.8966 5 26.9333C5 37.4636 13.5364 46 24.0667 46C34.5969 46 43.1333 37.4636 43.1333 26.9333C43.1333 16.8966 35.3783 8.67115 25.5333 7.92224M22.6 7.92224C23.0841 7.88541 23.5732 7.86667 24.0667 7.86667C24.5602 7.86667 25.0493 7.88541 25.5333 7.92224M22.6 7.92224V2M22.6 2H25.5333M22.6 2H28.4667H25.5333M22.6 2H19.6667M25.5333 2V7.92224M13.8 26.9333H24.0667L24.0666 16.9599" stroke="#1A1A1D" stroke-width="2" stroke-linecap="round" stroke-linejoin="round"/>
</svg>
