<svg width="38" height="24" viewBox="0 0 38 24" fill="none" xmlns="http://www.w3.org/2000/svg">
<path d="M29.037 13.2719C29.2645 12.7456 30.0377 10.7719 30.0377 10.7719C30.0377 10.8157 30.2651 10.2456 30.3561 9.93855L30.538 10.728C30.538 10.728 31.0383 12.8771 31.1293 13.3157H29.037V13.2719Z" fill="white"/>
<path fill-rule="evenodd" clip-rule="evenodd" d="M3.11111 0C1.39289 0 0 1.34315 0 3V21C0 22.6569 1.39289 24 3.11111 24H34.2222C35.9404 24 37.3333 22.6569 37.3333 21V3C37.3333 1.34315 35.9404 0 34.2222 0H3.11111ZM25.3073 13.5351C25.3073 15.3772 23.5789 16.6052 20.8954 16.6052C19.7583 16.6052 18.6667 16.3859 18.0754 16.1228L18.4392 14.1052L18.7576 14.2368C19.5763 14.5877 20.1222 14.7193 21.1228 14.7193C21.8506 14.7193 22.6238 14.4561 22.6238 13.8421C22.6238 13.4473 22.3054 13.1842 21.3047 12.7456C20.3496 12.307 19.076 11.6052 19.076 10.3333C19.076 8.57892 20.8499 7.39471 23.3515 7.39471C24.3067 7.39471 25.1254 7.57015 25.6257 7.78945L25.2619 9.71928L25.0799 9.54384C24.6251 9.3684 24.0338 9.19296 23.1696 9.19296C22.2144 9.23682 21.7596 9.63156 21.7596 9.98243C21.7596 10.3772 22.3054 10.6842 23.1696 11.0789C24.6251 11.7368 25.3073 12.4824 25.3073 13.5351ZM32.13 7.52626H30.1741C29.5828 7.52626 29.128 7.7017 28.8551 8.27188L25.1254 16.4736H27.7635C27.7635 16.4736 28.2183 15.3771 28.3093 15.114H31.5387C31.6296 15.421 31.857 16.4298 31.857 16.4298H34.2222L32.13 7.52626ZM3.15659 7.4386L3.11111 7.61404C6.15854 8.3158 8.15984 10.0263 9.02404 12.1316L8.15984 8.18422C8.02339 7.61404 7.61403 7.4386 7.06823 7.4386H3.15659ZM14.5276 7.52629L10.5705 16.4298H7.88694L5.61273 8.97366C7.25016 9.98243 8.61468 11.5614 9.11501 12.6579L9.38791 13.5789L11.8441 7.48243H14.5276V7.52629ZM18.0754 7.48243H15.5738L13.9818 16.4298H16.4834L18.0754 7.48243Z" fill="white"/>
</svg>
