<svg width="40" height="41" viewBox="0 0 40 41" fill="none" xmlns="http://www.w3.org/2000/svg">
<path fill-rule="evenodd" clip-rule="evenodd" d="M40 19.9958C40.0064 31.0523 31.034 39.9967 20.0142 40.002C9.03142 40.0073 0.0126861 31.1347 1.27543e-05 20.0222C-0.0123271 8.95671 8.93104 0.00901148 19.9882 6.75617e-06C31.0817 -0.00899797 40.0037 8.98439 40.0003 19.9958H40ZM37.5984 20.0001C37.5934 10.2997 29.7523 2.40594 20.0069 2.40527C10.2471 2.4046 2.40127 10.3007 2.40361 20.0048C2.40594 29.7473 10.2984 37.6047 20.0115 37.5997C29.7312 37.5947 37.5966 29.7191 37.5984 20.0001ZM10.041 21.5232C9.479 23.3238 9.06178 25.2225 9.20219 27.1205C9.24421 27.7542 9.32125 28.3842 9.48767 28.9992C9.50751 29.0708 9.53307 29.1439 9.55885 29.2177C9.66441 29.5198 9.77359 29.8323 9.50768 30.0907C9.30258 30.3295 8.81765 30.3345 8.60421 30.0397C7.94653 29.2866 7.35255 28.4876 6.84896 27.6231C5.96849 26.128 5.40453 24.4638 5.07436 22.7646C4.95429 22.3587 4.92261 21.8337 5.41787 21.6853C5.63966 21.6497 5.81286 21.7016 5.9652 21.7473C6.25474 21.8341 6.46894 21.8983 6.79826 21.2958C6.93967 20.934 7.07677 20.5702 7.2139 20.2063L7.21393 20.2062C7.70259 18.9095 8.19159 17.612 8.87702 16.4002C10.9038 12.6122 13.892 9.36085 17.4449 6.95292C18.5794 6.18385 19.7674 5.49349 21.0254 4.94587C21.3936 4.7481 21.9189 4.96154 21.9205 5.48448C21.9222 5.69226 21.8118 5.86301 21.6484 5.98408C20.4197 6.93858 19.5623 8.27962 18.9036 9.67101C15.8584 16.5079 15.4701 27.7045 21.4099 33.104C21.7765 33.4175 22.1823 33.6716 22.6102 33.8931C23.0761 34.1539 22.9537 34.9169 22.4095 34.9976C22.2627 35.0243 22.1146 35.045 21.9666 35.0633C19.1044 35.3748 15.9301 35.071 13.4037 33.6263C13.0911 33.0657 13.3176 32.9093 13.6398 32.6868C14.1461 32.3372 14.8889 31.8244 14.1485 29.324C13.6579 27.5948 13.3053 25.8275 13.1579 24.0352C13.1518 23.9541 13.0857 23.9123 13.0213 23.8717C12.9978 23.8568 12.9745 23.8422 12.9545 23.8258C11.9373 23.1438 11.0096 22.3508 10.0822 21.5581L10.041 21.5229V21.5232ZM13.0829 20.6411C13.2406 17.8206 13.8493 15.0508 14.8335 12.4048C13.1473 14.3538 11.8339 16.698 10.8731 19.099C11.1369 19.3708 12.8294 20.5671 13.0829 20.6411ZM23.1966 7.94274C20.0036 10.6181 19.3079 15.8609 19.1618 19.7636L19.1611 19.7639C19.2328 23.8318 19.7901 29.0215 23.3347 31.4978C26.4463 33.4818 30.248 31.9964 32.2043 29.1215C32.2848 28.9941 32.3913 28.84 32.509 28.6697C32.9606 28.0164 33.578 27.1231 33.5333 26.5665C33.461 26.2057 33.0591 25.9902 32.6969 26.1636C32.5228 26.2628 32.3999 26.4216 32.277 26.5807C32.196 26.6854 32.115 26.7902 32.0192 26.878C30.7269 28.2507 28.6761 28.7967 26.8598 28.3214C23.5761 27.3249 22.8487 23.3328 22.7754 20.3363C22.8077 17.2623 22.9468 11.7901 25.7563 9.94313C26.7184 9.35849 27.9587 9.43052 28.8642 10.0915C29.7566 10.6654 29.9885 11.4027 30.1628 11.957C30.3183 12.4516 30.4281 12.8006 30.9203 12.7579C31.6895 12.6363 31.4347 11.6276 31.2703 10.9766C31.2427 10.8675 31.2177 10.7684 31.2005 10.6852C30.334 7.40013 25.8817 5.77327 23.1966 7.94274Z" fill="#F6F6F3"/>
</svg>
