<svg width="40" height="40" viewBox="0 0 40 40" fill="none" xmlns="http://www.w3.org/2000/svg">
<path d="M39.9616 18.1251C39.6035 11.4806 37.3571 6.6123 34.2968 3.94795C30.976 1.08619 24.7903 -0.0322083 20.0045 0.000703917C15.2187 -0.0322083 9.03302 1.08619 5.71222 3.94795C2.65194 6.61238 0.4055 11.4806 0.0474055 18.1251C-0.27819 24.3749 1.05662 31.1839 4.57271 35.0324C7.95851 38.8152 14.7302 39.9994 19.9718 39.9994C25.2134 40.0323 31.985 38.8152 35.3709 35.0324C38.8871 31.1509 40.2544 24.3419 39.9616 18.1251ZM18.8649 1.67823C19.516 1.64532 19.6787 1.64532 19.9718 1.64532C20.2648 1.64532 20.3951 1.64532 21.0787 1.67823L21.1113 16.2172C20.9159 16.2172 19.0278 16.2172 18.8324 16.2172C18.8324 16.2172 18.8324 1.67823 18.8649 1.67823ZM2.68452 24.2431C2.48914 21.7433 1.74038 12.6317 5.32155 7.4345C6.85172 5.16486 9.09809 3.65174 11.377 2.8623C14.535 1.74398 18.3115 1.67815 18.3115 1.67815C16.8465 5.32942 13.8188 13.1581 13.2327 14.9014C12.5165 17.0394 11.8979 18.2565 11.2794 22.1051C10.8886 25.2629 10.205 33.1245 10.0096 36.5454C5.77729 34.5061 3.23791 30.6247 2.68452 24.2431ZM19.9393 38.3217C16.9767 38.2889 13.3304 37.9929 10.4329 36.7429C11.4096 34.1114 16.0651 22.796 18.6371 18.3882C18.8324 18.3882 21.0787 18.3882 21.2741 18.3882C23.8135 22.796 28.5016 34.1114 29.4784 36.7429C26.5482 38.0257 22.9344 38.2889 19.9393 38.3217ZM37.2267 24.2105C36.6733 30.6248 34.1338 34.4733 29.9016 36.5456C29.7063 33.1247 29.0226 25.2631 28.6319 22.1053C28.0133 18.2238 27.3947 17.0397 26.6785 14.9016C26.0925 13.1582 23.0647 5.32949 21.5997 1.67831C21.5997 1.67831 25.3762 1.74405 28.5342 2.86246C30.8131 3.65189 33.0595 5.19785 34.5897 7.43465C38.1708 12.6319 37.422 21.7433 37.2267 24.2105Z" fill="#F6F6F3"/>
</svg>
