<svg width="40" height="40" viewBox="0 0 40 40" fill="none" xmlns="http://www.w3.org/2000/svg">
<path fill-rule="evenodd" clip-rule="evenodd" d="M2.6803 10.0002C6.38888 3.57677 13.1312 -0.0109939 20.0558 2.53075e-05C23.4376 0.00540685 26.8628 0.868629 29.9998 2.67979C39.5603 8.19954 42.8399 20.4388 37.3202 29.9993C31.8005 39.5598 19.5612 42.8394 10.0007 37.3197C0.440251 31.8 -2.83944 19.5607 2.6803 10.0002ZM39.0357 19.9997C39.0357 9.49225 30.5077 0.964266 20.0003 0.964266C9.49275 0.964266 0.964771 9.49225 0.964771 19.9997C0.964771 30.5072 9.49275 39.0352 20.0003 39.0352C30.5077 39.0352 39.0357 30.5072 39.0357 19.9997ZM18.8541 5.57648V1.6309L20.6265 1.65206C21.1962 1.65206 22.1033 1.97396 22.1033 2.98137C22.1033 3.65427 21.5391 3.97367 21.2383 4.03621L22.6093 5.80795L21.0273 5.57648L20.0565 4.24718V5.57648H18.8541ZM20.9427 2.9602C20.9321 2.71759 20.7003 2.49594 20.3732 2.49594L20.0148 2.5171L20.0353 3.46613H20.4156C20.7854 3.46613 20.9532 3.20282 20.9427 2.9602ZM25.9768 2.7208C25.998 2.72036 26.0196 2.72001 26.041 2.72014C26.1903 2.72105 26.3419 2.73599 26.4947 2.76511C27.7358 3.00178 28.5717 4.11845 28.3497 5.25573C28.0905 6.58384 26.9405 7.16893 25.7083 6.88925C24.5726 6.63148 23.6435 5.42095 23.8526 4.39797C24.0625 3.37083 24.9396 2.74191 25.9768 2.7208ZM10.4154 4.33117L11.4914 3.76175L15.0355 6.42036L13.7274 6.94745L13.158 6.52551L11.9133 7.26423L12.0608 7.93881L10.9213 8.78268L10.4154 4.33117ZM26.291 3.83186C26.2161 3.81758 26.1419 3.8109 26.0687 3.81069C25.5568 3.80928 25.2133 4.09797 25.1217 4.57851C25.017 5.12771 25.3125 5.70765 25.9113 5.82184C26.5102 5.93604 27.0605 5.56221 27.1653 5.01302C27.27 4.46382 26.8898 3.94605 26.291 3.83186ZM12.4404 5.87144L11.5337 5.17505L11.7864 6.25105L12.4404 5.87144ZM28.2214 8.08695L31.5969 5.74513L32.4831 6.46202L31.7021 8.42423L33.6431 7.64385L34.403 8.55055L32.0189 11.9684L31.2596 10.8924L32.5043 9.20462L30.4363 10.0485L30.0143 9.64772L30.8377 7.60152L29.2128 8.86733L28.2214 8.08695ZM6.24362 20.0004C6.24362 12.41 12.4099 6.24378 20.0003 6.24378C27.5907 6.24378 33.7569 12.41 33.7569 20.0004C33.7569 27.5908 27.5907 33.7564 20.0003 33.7564C12.4098 33.7564 6.24362 27.5908 6.24362 20.0004ZM5.75291 8.59288L7.39833 6.69416L8.09473 7.3059L7.22969 8.25559L7.63046 8.6352L8.43201 7.749L9.12841 8.38191L8.32686 9.24695L9.42403 10.2178L8.62182 11.1457L5.75291 8.59288ZM19.7344 17.6917V6.77418C18.2334 6.80379 16.7935 7.08371 15.4548 7.57374V17.6917H19.7344ZM31.796 14.0119C29.6483 9.78933 25.3008 6.87267 20.2635 6.77418V14.9299C20.304 14.8485 20.3553 14.7698 20.4182 14.6964C20.5978 14.4869 20.8846 14.3294 21.2337 14.3294C21.4319 14.3294 21.586 14.3654 21.7059 14.4107C21.7593 14.4309 21.8043 14.4507 21.8467 14.4693C21.8995 14.4925 21.9484 14.5139 22.0048 14.5324C22.0529 14.5482 22.076 14.5509 22.0881 14.5509C22.0883 14.5502 22.0885 14.5495 22.0887 14.5488C22.0893 14.5464 22.0901 14.5436 22.0901 14.537V14.5351V14.5331L22.1007 13.8354C22.1007 13.8138 22.0504 13.7355 21.9598 13.6707L21.9565 13.6687L21.9532 13.6661L21.5227 13.3367C21.131 13.0567 21.0843 12.5627 21.2879 12.2501C21.3897 12.0938 21.5473 11.9715 21.7409 11.9241C21.7893 11.9122 21.8397 11.9053 21.891 11.9042C22.0452 11.9009 22.2085 11.9466 22.3546 12.0431L22.356 12.0438L22.3573 12.0451L23.2752 12.6674L23.2785 12.6694L23.2825 12.6727C23.5341 12.8562 23.6972 13.1466 23.6972 13.4663V13.4676V13.4696L23.6952 13.6449H25.795C25.8472 13.6449 25.8941 13.6255 25.918 13.6072C25.9284 13.5992 25.9306 13.5949 25.9319 13.5933V13.3155C25.9319 13.162 26.0208 13.0322 26.121 12.9597C26.2212 12.8872 26.3373 12.8539 26.4596 12.8539H28.8967C29.2201 12.8539 29.4682 12.7026 29.5997 12.5206C29.6478 12.4538 29.7243 12.4132 29.8067 12.4108C29.86 12.4092 29.9125 12.4237 29.9575 12.4525C30.5222 12.8156 31.1851 13.2492 31.7113 13.9028C31.7401 13.9385 31.7682 13.9749 31.796 14.0119ZM23.5014 10.2059C23.5014 9.98978 23.6768 9.81438 23.8929 9.81438C24.109 9.81438 24.2844 9.98978 24.2844 10.2059C24.2844 10.422 24.109 10.5974 23.8929 10.5974C23.6768 10.5974 23.5014 10.422 23.5014 10.2059ZM24.4987 10.2059C24.4987 9.98978 24.6741 9.81438 24.8902 9.81438C25.1063 9.81438 25.2817 9.98978 25.2817 10.2059C25.2817 10.422 25.1063 10.5974 24.8902 10.5974C24.6741 10.5974 24.4987 10.422 24.4987 10.2059ZM25.4954 10.2059C25.4954 9.98978 25.6708 9.81438 25.8869 9.81438C26.103 9.81438 26.2784 9.98978 26.2784 10.2059C26.2784 10.422 26.103 10.5974 25.8869 10.5974C25.6708 10.5974 25.4954 10.422 25.4954 10.2059ZM26.492 10.2059C26.492 9.98978 26.6674 9.81438 26.8835 9.81438C27.0996 9.81438 27.275 9.98978 27.275 10.2059C27.275 10.422 27.0996 10.5974 26.8835 10.5974C26.6674 10.5974 26.492 10.422 26.492 10.2059ZM27.4893 10.2059C27.4893 9.98978 27.6647 9.81438 27.8808 9.81438C28.097 9.81438 28.2723 9.98978 28.2723 10.2059C28.2723 10.422 28.097 10.5974 27.8808 10.5974C27.6647 10.5974 27.4893 10.422 27.4893 10.2059ZM11.3155 17.6917V10.0227C9.08231 11.9684 7.5079 14.6515 6.97242 17.6917H11.3155ZM23.6119 11.228V10.8375H28.1619V11.4724H28.1618V11.6919H28.1619V12.3268H23.6119V11.8629H23.6117V11.228H23.6119ZM32.6941 13.1502L36.2806 11.6946L37.2719 14.0364L36.3857 14.3949L35.8798 13.1925L35.4579 13.3823L35.9426 14.5L35.0782 14.8591L34.5717 13.6985L34.1286 13.9094L34.6556 15.1124L33.7066 15.5132L32.6941 13.1502ZM3.01031 13.2554L3.51624 12.1377L6.09019 13.34L6.76542 12.1582L7.63046 12.6013L6.51213 14.8803L3.01031 13.2554ZM22.063 12.4842C21.9967 12.4405 21.948 12.4296 21.9062 12.432C21.8923 12.4328 21.8794 12.4348 21.8666 12.4379C21.8153 12.4505 21.765 12.4869 21.731 12.5391C21.6629 12.6436 21.6333 12.7654 21.8302 12.9062L21.8335 12.9088L21.8368 12.9115L22.268 13.2408C22.4161 13.3467 22.6298 13.5294 22.6298 13.8354V13.8373V13.8393L22.6192 14.537C22.6192 14.6867 22.5654 14.8597 22.4142 14.9742C22.2629 15.0887 22.0469 15.1028 21.8401 15.035C21.7445 15.0037 21.6704 14.9708 21.609 14.9436C21.5756 14.9288 21.5459 14.9157 21.5187 14.9054C21.4414 14.8762 21.3759 14.8585 21.2337 14.8585C21.0343 14.8585 20.9119 14.9334 20.8197 15.041C20.7274 15.1486 20.6801 15.2984 20.6801 15.3968V15.4497C20.6801 15.5481 20.7274 15.6979 20.8197 15.8055C20.9119 15.9131 21.0343 15.988 21.2337 15.988C21.3759 15.988 21.4414 15.9703 21.5187 15.9411C21.5459 15.9308 21.5756 15.9177 21.609 15.9028C21.6704 15.8756 21.7445 15.8428 21.8401 15.8115C22.0469 15.7437 22.2629 15.7578 22.4142 15.8723C22.5654 15.9868 22.6192 16.1558 22.6192 16.3055L22.6298 17.0072V17.0091V17.0111C22.6298 17.3171 22.4227 17.4951 22.2746 17.6011L21.8368 17.935L21.8335 17.9377L21.8302 17.9403C21.6333 18.0811 21.6629 18.2029 21.731 18.3074C21.765 18.3596 21.8153 18.396 21.8666 18.4086C21.9178 18.4211 21.9719 18.4219 22.0603 18.3636L22.9703 17.7465C23.0844 17.6634 23.1681 17.5076 23.1681 17.3835L23.1575 16.5224V16.5211V16.5191C23.1575 16.1813 23.3284 15.8934 23.549 15.6924C23.6791 15.5739 23.8281 15.4804 23.9875 15.4232C23.8281 15.3661 23.6791 15.2726 23.549 15.1541C23.3284 14.9531 23.1575 14.6652 23.1575 14.3274V14.3254V14.3241L23.1681 13.4663C23.1681 13.3422 23.0924 13.1884 22.9783 13.1052L22.063 12.4842ZM31.2993 14.2348C30.8885 13.7245 30.3633 13.3509 29.8569 13.0199C29.6171 13.2393 29.2822 13.383 28.8967 13.383H27.4106V13.6098C27.4106 13.7902 27.3113 13.9332 27.1897 14.0265C27.0682 14.1197 26.9138 14.174 26.7446 14.174H23.6886L23.6866 14.3274C23.6866 14.4821 23.7706 14.6404 23.9055 14.7632C24.0403 14.8861 24.2217 14.9563 24.3327 14.9563H26.8366C26.9334 14.9563 27.0293 14.9787 27.1236 15.0436C27.2519 15.1522 27.3055 15.2432 27.3055 15.4232C27.3055 15.598 27.2178 15.7379 27.1236 15.8029C27.0293 15.8678 26.9334 15.8902 26.8366 15.8902H24.3327C24.2217 15.8902 24.0403 15.9604 23.9055 16.0833C23.7706 16.2061 23.6866 16.3617 23.6866 16.5164L23.6899 16.7671H28.1579C28.3878 16.7671 28.5941 16.8695 28.7201 17.0204C28.846 17.1713 28.9003 17.3577 28.8993 17.5395C28.8983 17.7214 28.8424 17.9062 28.7168 18.0561C28.5912 18.206 28.3863 18.3087 28.1579 18.3087H23.9703C22.5085 18.3087 21.52 19.5476 21.52 20.7557C21.52 22.2019 22.5418 23.1597 23.8334 23.1597H28.4536C28.5773 23.1597 28.7029 23.218 28.7776 23.3045C28.8524 23.391 28.8834 23.4937 28.8841 23.5935C28.8848 23.6933 28.8551 23.7979 28.7796 23.8858C28.7041 23.9737 28.577 24.0313 28.4536 24.0313H23.9174C22.881 24.0313 22.1972 24.9776 22.1972 25.7759C22.1972 26.6708 22.8504 27.5007 24.0232 27.5007H27.0713C27.1592 27.5007 27.2442 27.5153 27.326 27.5649C27.4077 27.6145 27.4925 27.7191 27.4926 27.8492C27.4927 27.9794 27.4085 28.084 27.3266 28.1336C27.2448 28.1833 27.1592 28.1984 27.0713 28.1984H25.1257C24.912 28.1984 24.6219 28.2969 24.4035 28.4855C24.1851 28.674 24.0311 28.9366 24.0311 29.3049C24.0311 29.7054 24.1852 29.9835 24.4101 30.1798C24.6349 30.3761 24.9392 30.4801 25.215 30.4801H26.0066C26.1496 30.4801 26.3179 30.5777 26.3783 30.7003C26.4291 30.8036 26.4278 30.8899 26.4206 30.9662C26.5686 30.9545 26.6765 30.9064 26.7546 30.8372C26.8749 30.7305 26.943 30.56 26.943 30.3756C26.943 30.2275 26.8798 30.0422 26.7711 29.91C26.6623 29.7778 26.5247 29.6964 26.3386 29.6964H25.0192C24.9396 29.6964 24.8574 29.6774 24.7838 29.625C24.7101 29.5725 24.6468 29.4783 24.6436 29.3684C24.6403 29.2584 24.7031 29.1526 24.7798 29.0972C24.8565 29.0418 24.9399 29.0245 25.0192 29.0245H27.0085C27.5775 29.0245 27.9158 28.8605 28.1275 28.6343C28.3393 28.4081 28.435 28.097 28.435 27.76C28.435 27.0954 27.8277 26.3996 27.1137 26.3996H23.7964C23.688 26.3996 23.5735 26.3502 23.5034 26.2726C23.4332 26.195 23.4034 26.1009 23.4029 26.0094C23.4023 25.9179 23.4319 25.8222 23.5027 25.7435C23.5736 25.6648 23.6884 25.6159 23.7964 25.6159H28.2532C29.7655 25.6159 30.6267 24.5333 30.6267 23.3819C30.6267 22.2003 29.7976 21.1994 28.2426 21.1994H23.9174C23.7913 21.1994 23.6645 21.1409 23.5874 21.0533C23.5103 20.9656 23.4771 20.8605 23.4763 20.7576C23.4754 20.6548 23.5067 20.5472 23.5847 20.4581C23.6627 20.3689 23.7915 20.3112 23.9174 20.3112H28.3477C30.181 20.3112 32.087 18.6719 32.087 16.6309C32.087 15.5445 31.7605 14.8076 31.2993 14.2348ZM33.2265 20.0004C33.2265 18.5407 32.99 17.1359 32.5532 15.8227C32.5938 16.0747 32.6161 16.3435 32.6161 16.6309C32.6161 18.73 30.9397 20.4179 29.064 20.7702C30.3704 21.0926 31.1558 22.1744 31.1558 23.3819C31.1558 24.806 30.0256 26.145 28.2532 26.145H28.0521C28.6014 26.4888 28.9641 27.1121 28.9641 27.76C28.9641 28.1985 28.8364 28.6514 28.5137 28.996C28.2153 29.3149 27.7571 29.5185 27.1553 29.5476C27.1588 29.5515 27.1625 29.5554 27.1662 29.5592C27.1709 29.564 27.1756 29.5689 27.1798 29.574C27.3706 29.806 27.4721 30.0928 27.4721 30.3756C27.4721 30.613 27.4066 30.8534 27.2664 31.0528C30.857 28.6879 33.2265 24.621 33.2265 20.0004ZM20.4182 16.1501C20.3553 16.0766 20.304 15.998 20.2635 15.9166V33.2233C22.5557 33.1785 24.7051 32.5503 26.5694 31.4814C26.4073 31.5089 26.2283 31.5063 26.039 31.4688C25.9602 31.4531 25.8928 31.4025 25.8558 31.3312C25.8188 31.26 25.8161 31.1759 25.8485 31.1024C25.8485 31.1024 25.8639 31.0575 25.8776 31.0092H25.215C24.8107 31.0092 24.391 30.8662 24.0616 30.5786C23.7321 30.291 23.5021 29.8489 23.5021 29.3049C23.5021 28.7815 23.7402 28.3588 24.0576 28.0847C24.0739 28.0706 24.0908 28.0576 24.1077 28.0447C24.1142 28.0397 24.1206 28.0348 24.127 28.0298H24.0232C22.5906 28.0298 21.6682 26.9406 21.6682 25.7759C21.6682 24.8877 22.2612 23.9421 23.2078 23.6186C21.9439 23.3392 20.9909 22.2252 20.9909 20.7557C20.9909 20.0894 21.2332 19.4265 21.6569 18.896C21.5017 18.8374 21.3745 18.7293 21.2879 18.5964C21.0843 18.2838 21.1244 17.7951 21.5161 17.5151L21.9532 17.1804L21.9565 17.1778L21.9598 17.1758C22.0504 17.111 22.1007 17.0367 22.1007 17.0151L22.0901 16.3134V16.3114V16.3094C22.0901 16.3031 22.0893 16.3002 22.0887 16.2977C22.0885 16.297 22.0883 16.2963 22.0881 16.2956C22.076 16.2956 22.0529 16.2983 22.0048 16.3141C21.9484 16.3326 21.8995 16.354 21.8467 16.3772C21.8043 16.3958 21.7593 16.4156 21.7059 16.4358C21.586 16.481 21.4319 16.5171 21.2337 16.5171C20.8846 16.5171 20.5978 16.3596 20.4182 16.1501ZM1.89198 17.728L6.0062 16.3776L5.81639 17.7492L5.12529 17.9218L5.03667 19.3748L5.62659 19.6479L5.64775 21.0612L1.7445 18.9515L1.89198 17.728ZM34.192 18.7617C34.192 17.633 34.8823 16.5045 36.2594 16.5045C37.6154 16.5045 38.3479 17.5486 38.3479 18.7617C38.3479 19.9959 37.5096 21.0195 36.2594 21.0195C35.0087 21.0195 34.192 19.8904 34.192 18.7617ZM28.1579 17.2962H23.6958L23.6972 17.3769V17.3788V17.3802C23.6972 17.5303 23.6608 17.6736 23.5966 17.8028C23.7182 17.7878 23.8428 17.7796 23.9703 17.7796H28.1579C28.2445 17.7796 28.2779 17.7561 28.3114 17.7161C28.3449 17.6762 28.3699 17.6082 28.3702 17.5369C28.3706 17.4656 28.3465 17.3986 28.314 17.3597C28.2815 17.3207 28.2483 17.2962 28.1579 17.2962ZM37.2468 18.7617C37.2468 18.2948 36.8928 17.728 36.2859 17.728C35.6789 17.728 35.3461 18.229 35.3461 18.7617C35.3461 19.2944 35.6917 19.7954 36.2859 19.7954C36.8798 19.7954 37.2468 19.218 37.2468 18.7617ZM4.14915 18.9628L4.19941 18.1533L3.03147 18.4449L4.14915 18.9628ZM11.3155 21.8317H6.89703C7.34559 25.0678 8.96613 27.93 11.3155 29.9761V21.8317ZM19.7344 21.8317H15.4548V32.4238C16.7935 32.9136 18.2333 33.1937 19.7344 33.2233V21.8317Z" fill="#F6F6F3"/>
</svg>
