<svg width="41" height="40" viewBox="0 0 41 40" fill="none" xmlns="http://www.w3.org/2000/svg">
<path fill-rule="evenodd" clip-rule="evenodd" d="M37.842 10.9083L38.3871 12.0595C40.0795 15.9528 40.5467 20.9852 39.2838 25.2135C38.2595 28.8471 36.2663 32.2441 33.2026 34.8772C30.2704 37.433 26.8819 38.9795 23.1259 39.6379C16.0955 40.6329 9.66243 38.2385 4.99506 33.1085C0.194829 27.8252 -1.38987 19.5338 1.32158 12.8018C2.94503 8.16464 7.16368 3.64522 11.7594 1.7512C15.8058 -0.107094 21.146 -0.575948 25.5509 0.784812C30.5492 2.12057 35.4962 6.09499 37.842 10.9083ZM29.0891 36.5269C33.3642 34.2388 36.836 29.9103 38.1307 25.4069C39.4924 21.2 39.1123 16.0241 37.2881 12.1313C35.4506 7.8211 31.2626 3.91932 26.9331 2.29437C22.1074 0.286938 15.7441 0.662696 11.2392 3.11699C6.66732 5.35188 2.94469 10.0994 1.69532 14.8334C0.498116 19.0286 0.888626 24.0502 2.73417 27.8329C4.77195 32.5709 9.48831 36.6017 14.3221 38.0153C19.0581 39.5832 24.9357 38.9354 29.0891 36.5269ZM16.1946 6.60797C20.5302 5.35289 25.2739 6.40415 28.6639 9.13389V9.13406C29.89 10.1607 31.0511 11.4297 31.8499 12.7554C34.145 16.2936 34.4934 21.6674 32.6678 25.5361C31.5817 27.9606 29.6378 30.302 27.249 31.7112C27.13 31.6931 27.0685 31.7635 27.0052 31.8359C26.9573 31.8908 26.9084 31.9469 26.8326 31.9663C25.0901 32.9322 23.1915 33.5802 21.1036 33.7128C15.5763 34.1497 10.405 31.3309 7.7617 26.4425C5.76351 22.9136 5.55902 17.7039 7.4299 14.0658C9.05955 10.5389 12.5057 7.51866 16.1946 6.60797ZM7.16066 19.994C7.16066 27.0635 12.8919 32.7945 19.9614 32.7945C27.0309 32.7945 32.7619 27.0635 32.7619 19.994C32.7619 12.9245 27.0311 7.1934 19.9614 7.1934C12.8917 7.1934 7.16066 12.9245 7.16066 19.994ZM25.0872 2.43662C24.6356 2.29604 24.1733 2.18869 23.711 2.08133C23.4561 2.99292 23.2628 3.93152 23.0716 4.85964L23.0716 4.85986C23.054 4.94503 23.0365 5.0301 23.0189 5.11507C23.0027 5.19378 22.9864 5.27239 22.97 5.35087C22.9525 5.43524 22.9348 5.51945 22.9171 5.60351L24.227 5.92625C24.3195 5.55448 24.4176 5.18378 24.5156 4.81348C24.7252 4.02155 24.9343 3.23147 25.0872 2.43662ZM15.3888 6.04065L14.248 6.4647V6.46454L14.1705 6.38788L12.9323 3.12957C14.4459 2.4398 16.1145 2.03469 17.8392 1.81646C18.7949 1.70138 19.7843 1.67388 20.752 1.72353L21.1484 1.85336C21.634 2.16956 21.659 2.75215 21.6508 3.27971L21.6481 3.29949L21.6447 3.32452L21.6402 3.35802C21.5699 3.88386 21.485 4.5188 20.889 4.65808C18.8766 4.54837 17.0091 4.80033 15.2645 5.40371C15.2402 5.5222 15.2795 5.63693 15.3203 5.7561C15.3514 5.84713 15.3835 5.94076 15.3888 6.04065ZM20.0538 2.68404C18.1845 2.60637 16.3616 2.9573 14.6824 3.48301L14.6059 3.56051C14.6379 3.63916 14.6629 3.72353 14.6879 3.808C14.7325 3.95898 14.7773 4.11025 14.8626 4.22966C16.5197 3.72575 18.2878 3.3864 20.1348 3.40921L20.2769 3.26545C20.342 3.08932 20.2749 2.91368 20.1863 2.78234L20.0538 2.68404ZM27.9171 5.26834C27.9445 5.25897 27.9645 5.28028 27.9832 5.30027L27.9833 5.30042C27.9852 5.30246 27.9871 5.30449 27.989 5.30648C27.9908 5.30829 27.9925 5.31008 27.9943 5.31179L30.2929 9.52071C30.4681 9.7123 30.6415 9.91153 30.8146 10.1104C31.0566 10.3885 31.298 10.6659 31.5431 10.9209L34.0915 8.54325L34.1459 8.45502C34.0681 8.36328 33.9944 8.27072 33.9214 8.17911L33.9213 8.17906L33.9213 8.17901L33.9212 8.17896L33.9212 8.17891L33.9211 8.17886C33.7242 7.9317 33.5327 7.69138 33.2831 7.49232L31.577 9.09582C31.5223 9.13993 31.4128 9.19562 31.3683 9.09699L28.7674 3.98844C28.2933 3.71619 27.8304 3.45484 27.3343 3.27065C27.0859 3.79122 26.8428 4.31449 26.5998 4.83779L26.5997 4.83806L26.5995 4.83833L26.5994 4.8386L26.5993 4.83887L26.5992 4.83914L26.5984 4.84076L26.5976 4.84238L26.5969 4.844L26.5961 4.84562L26.5954 4.84725C26.351 5.37336 26.1066 5.89951 25.8567 6.42294L25.8464 6.54388L26.9707 7.07648C27.1491 6.77746 27.3014 6.46707 27.4543 6.15551L27.4544 6.15544L27.4544 6.15536L27.4545 6.15529L27.4545 6.15522L27.4546 6.15514C27.6006 5.85771 27.7471 5.55921 27.9173 5.26851L27.9171 5.26834ZM12.6629 6.09952C12.8731 6.3513 13.0616 6.65811 13.2171 6.94295H13.2173C11.5402 7.8206 9.95331 9.1156 8.64254 10.6508C7.72547 9.85352 6.86409 9.09966 5.969 8.28005L6.00138 8.17002C6.05873 8.10531 6.11564 8.04015 6.17246 7.97508L6.17261 7.97491C6.39713 7.71786 6.62037 7.46227 6.86476 7.2417L8.765 8.94618L8.8747 8.91263C10.0115 7.74108 11.3037 6.8215 12.6629 6.09952ZM5.33911 19.7167C5.23413 19.5611 5.09407 19.4358 4.94598 19.3034L4.94588 19.3033C4.87512 19.24 4.80251 19.1751 4.73103 19.1044L4.70855 19.0056C4.86154 16.817 5.42181 14.7911 6.41218 12.95L7.13719 12.825C7.29249 12.6191 7.43444 12.3975 7.57741 12.1743L7.57756 12.1741C7.72594 11.9424 7.87545 11.7091 8.04217 11.4897L8.05275 11.4018L8.00879 11.4022L3.58197 12.0421L3.49424 12.0866C2.58102 13.9715 2.02059 15.9974 1.81275 18.1642L5.28074 21.0803L5.35773 21.1018C5.34386 20.8513 5.34417 20.5864 5.34449 20.3194V20.3193V20.3192V20.3191C5.34472 20.1177 5.34495 19.9152 5.33911 19.7168V19.7167ZM3.48266 17.9568L2.88599 17.4105C3.08695 16.0023 3.44224 14.6591 3.98522 13.3918C4.14807 13.32 4.33413 13.2984 4.51952 13.2769C4.62118 13.2651 4.72263 13.2533 4.81993 13.2333L4.84207 13.2551C4.21235 14.7427 3.77035 16.3062 3.54876 17.9565L3.48283 17.9568H3.48266ZM32.7514 12.7832L31.8865 11.3918H31.8866L36.4416 12.1033C37.3644 13.9559 37.9472 15.9756 38.1238 18.1404L35.203 20.751L34.5793 21.2821C34.5857 21.1114 34.5883 20.9296 34.5909 20.744V20.7438C34.5961 20.3794 34.6016 20.0009 34.6363 19.6657L35.2268 19.1237C35.1486 16.8814 34.5436 14.8399 33.5769 12.9545C33.4242 12.911 33.2643 12.8821 33.1035 12.853L33.1032 12.853L33.1031 12.853L33.103 12.8529C32.9855 12.8317 32.8675 12.8104 32.7514 12.7832ZM35.1179 13.2979C35.7747 14.7895 36.1791 16.3812 36.4301 18.0397H36.4302C36.6131 17.9471 36.783 17.785 36.9403 17.6348C36.9905 17.587 37.0393 17.5403 37.0869 17.4975C36.914 16.0363 36.5543 14.6313 35.9536 13.3373L35.1505 13.2098L35.1179 13.2979ZM14.6318 12.2889C13.7742 12.2937 12.9165 12.2765 12.2544 11.8183C12.2249 11.846 12.1955 11.8735 12.1664 11.9007C11.7531 12.2872 11.3797 12.6363 11.0742 13.1001C11.3838 13.4502 11.5182 13.8672 11.5647 14.3287L11.5734 23.9368C11.5464 25.0143 11.739 26.0355 12.1837 26.9346C13.1514 28.7832 14.9085 29.2599 16.6776 29.7398C17.7723 30.0368 18.8716 30.335 19.7911 30.9604L19.7915 12.9862L19.7547 12.3048L14.6318 12.2889ZM27.5516 11.9899C27.6192 11.9627 27.687 11.9354 27.7555 11.9091C28.142 12.2478 28.5071 12.6634 28.8392 13.0902C28.4353 13.6092 28.3841 14.28 28.3878 14.9726L28.421 24.9874C28.3091 26.604 27.2731 28.1598 25.771 28.8716C24.9762 29.2882 24.1008 29.5211 23.2253 29.754C22.3499 29.9869 21.4744 30.2199 20.6797 30.6364L20.2199 30.9688L20.1857 30.7713L20.1726 12.3244C20.2492 12.2801 20.392 12.2793 20.5131 12.3008L26.5043 12.2679C26.8882 12.2565 27.2181 12.1239 27.5516 11.9899ZM27.7555 11.9091C27.7555 11.9091 27.7555 11.9091 27.7556 11.9091L27.7552 11.9089C27.7553 11.909 27.7554 11.9091 27.7555 11.9091Z" fill="#F6F6F3"/>
</svg>
