<svg width="40" height="40" viewBox="0 0 40 40" fill="none" xmlns="http://www.w3.org/2000/svg">
<path fill-rule="evenodd" clip-rule="evenodd" d="M40 20.0615C40 14.5047 31.0457 10 19.9999 10C8.95432 10 0 14.5047 0 20.0615C0 25.6182 8.95432 30.123 19.9999 30.123C31.0457 30.123 40 25.6182 40 20.0615ZM38.6833 20.0615C38.6833 15.6938 30.1821 12.1531 19.9999 12.1531C9.81783 12.1531 1.31659 15.6938 1.31659 20.0615C1.31659 24.4292 9.81783 27.9699 19.9999 27.9699C30.1821 27.9699 38.6833 24.4292 38.6833 20.0615ZM14.7477 16.9928C14.3296 17.892 14.489 19.0273 15.5138 19.9005C16.0922 20.3933 16.6978 20.6454 17.2929 20.8932C17.8015 21.1049 18.3024 21.3135 18.7721 21.6664C19.9074 22.5197 18.8272 23.4483 18.1388 23.5665C16.66 23.8204 15.8269 23.4064 14.7846 22.6679L15.3752 24.4161C17.5361 25.1977 21.5843 25.0778 21.5476 21.7553C21.5357 20.6779 20.8175 20.0141 18.8682 19.0475C18.8065 19.0169 18.7462 18.9871 18.6871 18.958C17.6755 18.4587 17.0541 18.152 17.0021 17.4002C16.9269 16.3139 19.4135 15.8681 20.6146 17.0708L20.8262 15.6675C19.2229 14.8815 15.6712 15.0067 14.7477 16.9928ZM11.8652 22.744H8.59234L7.89813 24.5548H6.08594L9.47042 15.5484H11.5268L14.9134 24.5548H12.526L11.8652 22.744ZM11.2697 21.12L10.2635 18.4736L9.2116 21.12H11.2697ZM31.0104 22.744H27.7374L27.0433 24.5548H25.2311L28.6156 15.5484H30.6719L34.0585 24.5548H31.6712L31.0104 22.744ZM30.4149 21.12L29.4086 18.4736L28.3568 21.12H30.4149ZM24.6974 15.5484H22.5377V24.5548H24.6974V15.5484Z" fill="#F6F6F3"/>
</svg>
