<svg width="40" height="40" viewBox="0 0 40 40" fill="none" xmlns="http://www.w3.org/2000/svg">
<path fill-rule="evenodd" clip-rule="evenodd" d="M22.407 16.3301C22.2493 16.4879 22.1395 16.6965 22.082 16.9509C22.0821 16.9509 22.0721 16.9963 22.0554 17.0256H30.1209C30.2347 16.8387 30.3435 16.6487 30.4471 16.4559L30.4473 16.4557C30.4573 16.4376 30.5934 16.1933 30.8516 16.0001H23.3092C22.9294 16.0001 22.6253 16.1114 22.407 16.3301ZM39.6464 16.8784L39.9409 16.3887C39.9862 16.3054 40 16.2436 40 16.2002C40 16.1543 39.9852 16.1275 39.9775 16.1135L39.976 16.1109C39.917 16.0135 39.8055 16.0039 39.7197 16.0002L31.5369 16.001C30.9751 16.001 30.6587 16.5649 30.6562 16.5695C30.5735 16.7234 30.4877 16.8755 30.3987 17.0259L39.3311 17.0246C39.5574 17.0103 39.5914 16.9692 39.6464 16.8784ZM38.5366 17.907L38.8485 17.3595C38.8692 17.323 38.8914 17.2917 38.9141 17.2629H30.254C30.1712 17.3959 30.08 17.536 29.9818 17.6816L37.5793 18.1864C37.6994 18.201 38.0459 18.2287 38.2201 18.1851C38.4283 18.1132 38.494 17.9882 38.5365 17.9072L38.5366 17.907ZM37.1956 19.2029C37.2581 19.093 37.5589 18.5634 37.5569 18.5657C37.5807 18.5206 37.6097 18.4784 37.6433 18.44C37.5968 18.4359 37.5643 18.4323 37.5529 18.4309L29.8192 17.9178C29.7305 18.0429 29.636 18.1724 29.5362 18.3029L36.8165 19.2795C37.0947 19.3164 37.1803 19.2235 37.1956 19.2029ZM34.0567 19.9306C34.2429 19.9693 34.7789 20.0515 35.053 19.9789L36.6796 19.5013L29.3684 18.52C29.2687 18.6462 29.1636 18.7737 29.0541 18.9023L34.0567 19.9306ZM31.7592 20.6476C31.7862 20.6562 32.2306 20.7983 32.5732 20.7066L34.2728 20.2073C34.1528 20.1905 34.0609 20.173 34.0246 20.1661C34.0163 20.1645 34.0109 20.1635 34.0088 20.1631L28.8751 19.1079C28.7221 19.2801 28.5647 19.4481 28.4029 19.612L31.7512 20.6448C31.7518 20.6448 31.7525 20.6454 31.7525 20.6454L31.758 20.6472L31.7592 20.6476ZM29.2532 21.3436C29.3695 21.4022 29.7199 21.5394 29.9576 21.4748L31.8509 20.9182C31.7542 20.8964 31.6911 20.8759 31.6843 20.8734L28.212 19.8018C27.9636 20.0433 27.7051 20.2741 27.4371 20.4937C28.3572 20.9241 29.2532 21.3436 29.2532 21.3436ZM28.5026 22.7927C29.2148 22.5251 29.3205 22.258 29.4216 21.9988C29.4309 21.9722 29.4828 21.8374 29.5973 21.7069C29.3576 21.6622 29.1598 21.5623 29.1492 21.5569L27.2305 20.6588C26.8874 20.9277 26.5295 21.1772 26.1586 21.4063C27.0616 22.0524 27.8546 22.62 27.8558 22.6212C27.8588 22.6241 28.2085 22.8841 28.5026 22.7927ZM26.4705 23.3684L26.7379 23.2959C26.7379 23.2958 27.5777 23.0667 27.9727 22.9592C27.8235 22.8944 27.722 22.8183 27.7147 22.8123L25.9364 21.5401C25.5995 21.7375 25.2524 21.9173 24.8967 22.0785C25.4513 22.6575 25.8828 23.1065 25.8828 23.1065C25.9706 23.1992 26.2453 23.4223 26.4705 23.3684ZM23.9181 23.5437C23.9813 23.6586 24.1991 23.9667 24.3868 23.9371L26.0034 23.496C25.8434 23.4055 25.7308 23.2922 25.7125 23.2738C25.7116 23.2729 25.7109 23.2722 25.7105 23.2718L24.6644 22.1802C24.2467 22.3584 23.8183 22.5106 23.3818 22.6359L23.9181 23.5437ZM22.2817 24.3833C22.3734 24.4387 22.4801 24.4514 22.6064 24.4223L24.0191 24.0376C23.8465 23.8973 23.7314 23.6966 23.7119 23.6623L23.1445 22.7018C22.6832 22.8237 22.2149 22.9175 21.7423 22.9827L22.0158 23.9698C22.0195 23.986 22.085 24.2629 22.2817 24.3833ZM20.4338 23.0927C20.6918 23.3382 21.4526 24.0641 21.4526 24.0641C21.7235 24.3294 21.7885 24.3929 22.0029 24.4539C21.8475 24.278 21.7917 24.0567 21.7837 24.0216L21.504 23.0123C21.1531 23.0535 20.7958 23.0801 20.4338 23.0927ZM20.1189 19.7867V22.8617C20.5675 22.8576 21.0077 22.8304 21.4396 22.7809L20.6097 19.7867H20.1189ZM19.3903 19.7867L18.56 22.7809C18.9917 22.8299 19.4318 22.8576 19.8813 22.8614V19.7867H19.3903ZM17.9966 24.454C18.1266 24.42 18.2456 24.3529 18.342 24.2593C18.342 24.2593 19.2757 23.3682 19.5655 23.0928C19.2036 23.0807 18.8463 23.0541 18.4955 23.0137L18.2156 24.0212C18.2074 24.0557 18.153 24.2775 17.9966 24.454ZM17.7174 24.3833C17.9192 24.2599 17.9837 23.9709 17.9837 23.968L18.2572 22.9826C17.7842 22.918 17.3156 22.8244 16.854 22.7023C16.6687 23.0164 16.5112 23.2832 16.41 23.4546C16.3334 23.5842 16.289 23.6593 16.2893 23.6591C16.2693 23.6959 16.1529 23.8965 15.9804 24.0374L17.3931 24.4223C17.5195 24.4515 17.6258 24.4387 17.7174 24.3833ZM13.9961 23.4959L15.6126 23.9371C15.8002 23.9667 16.018 23.6584 16.083 23.5413L16.6171 22.6364C16.1808 22.5106 15.7526 22.3582 15.3349 22.1801C14.751 22.7886 14.2889 23.2712 14.2889 23.2712L14.2881 23.272C14.2746 23.2857 14.1599 23.4027 13.9961 23.4959ZM12.0266 22.9592L13.5285 23.3684C13.754 23.4223 14.0288 23.1992 14.1165 23.1065L15.1032 22.0785C14.7474 21.9171 14.4001 21.7375 14.0629 21.5402C13.7353 21.7745 13.4195 22.0004 13.1474 22.1951C12.6414 22.5572 12.2863 22.8113 12.2871 22.8105C12.2061 22.8697 12.1187 22.9196 12.0266 22.9592ZM10.5787 22.0002C10.6795 22.2588 10.7858 22.5251 11.4951 22.7929C11.7892 22.8854 12.1405 22.6243 12.146 22.6188L13.8405 21.4063C13.4696 21.1777 13.112 20.9281 12.7694 20.6588C12.1645 20.9422 11.5574 21.2261 11.1936 21.3962C10.9824 21.495 10.8531 21.5554 10.8539 21.5552C10.7104 21.625 10.5586 21.676 10.4021 21.707C10.4779 21.7935 10.5377 21.8927 10.5787 22.0002ZM8.921 21.1451C9.55241 21.3306 9.99021 21.4593 10.0425 21.4748C10.2801 21.5394 10.6298 21.4022 10.7497 21.3418L12.5627 20.4932C12.2948 20.2737 12.0363 20.043 11.7878 19.8018C11.1318 20.0043 8.31507 20.8734 8.31807 20.8721C8.26243 20.8904 8.20588 20.9058 8.14865 20.9182C8.42619 20.9997 8.6869 21.0763 8.921 21.1451ZM5.72625 20.2073C6.29349 20.3741 6.8608 20.5407 7.42818 20.7071C7.76973 20.7976 8.21072 20.657 8.24282 20.6467C8.24378 20.6464 8.24437 20.6462 8.24459 20.6462L11.5967 19.6121C11.4354 19.4479 11.2781 19.2799 11.125 19.1081C10.525 19.2312 9.59087 19.4232 8.68301 19.6098C7.30677 19.8926 5.99093 20.163 5.99123 20.1625C5.90342 20.1803 5.81504 20.1953 5.72625 20.2073ZM3.32007 19.5013C3.86322 19.66 4.40616 19.8195 4.94889 19.9796C5.22348 20.0515 5.75719 19.9693 5.94283 19.9307L10.9461 18.902C10.8367 18.7731 10.7321 18.6456 10.6323 18.52L3.32007 19.5013ZM2.80445 19.2035C2.82042 19.2252 2.90725 19.3165 3.18384 19.2796L10.4641 18.3029C10.3678 18.1762 10.2737 18.0478 10.1818 17.9179C10.1818 17.9179 2.40286 18.436 2.3562 18.4402C2.38907 18.4776 2.41738 18.5187 2.44054 18.5627L2.80445 19.2035ZM1.46269 17.9069C1.50536 17.988 1.57148 18.1131 1.78008 18.185C1.95411 18.2285 2.30081 18.2008 2.42008 18.1861L10.0188 17.6813C9.92537 17.5435 9.83458 17.4039 9.74641 17.2627H1.08493C1.1393 17.3308 1.23076 17.4949 1.32331 17.6609C1.37114 17.7467 1.41926 17.833 1.46269 17.9069ZM0.352361 16.8775C0.417983 16.9853 0.462397 17.01 0.67099 17.0256H9.60181C9.51259 16.8754 9.42653 16.7233 9.34369 16.5694C9.34369 16.5694 9.01708 16.0007 8.46316 16.0007L0.280002 16C0.080891 16.0031 0.00516376 16.0888 0.0001735 16.2001C-0.00182261 16.2436 0.0131482 16.3054 0.0584348 16.3887C0.0801425 16.4245 0.35311 16.8783 0.352361 16.8775ZM17.5925 16.3301C17.3739 16.1113 17.0706 16 16.6901 16L9.1482 16.0002C9.40757 16.1942 9.54393 16.4398 9.55278 16.456C9.55278 16.456 9.75601 16.8234 9.87927 17.0257H17.9447C17.9297 16.9944 17.918 16.9509 17.918 16.9509C17.8597 16.6964 17.7503 16.4878 17.5925 16.3301ZM28.3694 17.2627V17.5752L29.707 17.6634C29.7981 17.5314 29.8868 17.3978 29.9731 17.2627H28.3694ZM28.3694 17.8218V18.1468L29.2649 18.2672C29.3614 18.1419 29.454 18.0193 29.5404 17.8992L28.3694 17.8218ZM28.3694 18.3862V18.7622C28.4044 18.7694 28.4483 18.7784 28.5004 18.789C28.5788 18.805 28.6756 18.8248 28.7879 18.8479C28.8943 18.7253 28.9965 18.6039 29.0937 18.4835L28.3694 18.3862ZM28.6059 19.0528L28.3694 19.0046V19.3062C28.4496 19.223 28.5285 19.1386 28.6059 19.0528ZM27.8836 19.7867H25.9265C26.0512 19.8452 26.1948 19.9122 26.3507 19.9851C26.609 20.1058 26.9011 20.2423 27.1979 20.3815C27.1989 20.3806 27.2018 20.3782 27.2064 20.3745C27.2731 20.3198 27.6971 19.9722 27.8836 19.7867ZM25.3661 19.7867H23.8952C24.3404 20.1052 25.1653 20.6957 25.9483 21.2565C26.3077 21.0387 26.6549 20.8015 26.9884 20.5459L25.3661 19.7867ZM23.4876 19.7867H22.6985C22.9095 20.0065 23.2563 20.3681 23.6451 20.7735C23.9928 21.136 24.3741 21.5336 24.7218 21.896C25.0645 21.7442 25.399 21.5748 25.7241 21.3884L23.4876 19.7867ZM22.369 19.7867H21.699L23.2567 22.4243C23.6753 22.3062 24.0865 22.1633 24.4881 21.9964L22.369 19.7867ZM23.0193 22.4882L21.4229 19.7867V19.7866H20.8561L21.678 22.7512C22.1299 22.6903 22.5778 22.6025 23.0193 22.4882ZM19.1434 19.7867H18.5767C18.533 19.8607 18.4608 19.9829 18.3685 20.1393C18.0376 20.6994 17.4479 21.6981 16.9803 22.489C17.4218 22.6027 17.8697 22.6903 18.3215 22.7513L19.1434 19.7867ZM18.3007 19.7867H17.6304L17.4656 19.9586C17.074 20.3668 16.2306 21.246 15.5112 21.9957C15.9127 22.1634 16.324 22.3065 16.7429 22.4243L18.3007 19.7867ZM17.301 19.7867H16.512C16.3428 19.9077 15.8385 20.2689 15.2341 20.7017C14.9298 20.9196 14.6002 21.1556 14.2752 21.3884C14.6007 21.5747 14.9356 21.7441 15.2785 21.896L17.301 19.7867ZM12.1158 19.7867C12.3149 19.973 12.7837 20.367 12.8016 20.3815L14.0727 19.7867H12.1158ZM16.104 19.7867H14.6335C14.5843 19.8098 14.4616 19.8672 14.2892 19.9478C13.9787 20.0931 13.5067 20.3138 13.0113 20.5459C13.3445 20.8016 13.6916 21.0386 14.051 21.256L16.104 19.7867ZM11.6281 19.3037V19.0046C11.6094 19.0085 11.5892 19.0126 11.5673 19.0171C11.5175 19.0272 11.4595 19.039 11.3942 19.0527C11.4708 19.1376 11.5488 19.2213 11.6281 19.3037ZM11.6281 18.7621V18.3862L10.9066 18.4835C11.0063 18.6067 11.108 18.7282 11.2117 18.8479L11.6281 18.7621ZM11.6281 18.1468V17.8218L10.4604 17.8992C10.5499 18.0233 10.6415 18.146 10.7351 18.2672L11.6281 18.1468ZM10.294 17.6634L11.6281 17.5752V17.2627H10.0276C10.1137 17.398 10.2025 17.5316 10.294 17.6634ZM12.8789 17.6283H12.9468L13.616 19.1834H13.3561L13.353 19.1749C13.2849 18.9782 13.2092 18.7841 13.1263 18.5931H12.5887L12.5741 18.63C12.5038 18.8039 12.4313 18.9852 12.375 19.1744L12.372 19.1834H12.1838L12.8789 17.6283ZM12.8597 17.9621C12.838 18.0127 12.6556 18.4401 12.6414 18.4744H13.0818C13.0755 18.4597 13.0378 18.3728 12.995 18.2743C12.938 18.143 12.872 17.991 12.8597 17.9621ZM13.6966 19.0787L13.6908 19.0728L13.7359 18.862H13.7773L13.781 18.868C13.8772 19.0251 13.9759 19.0892 14.1247 19.0892C14.2872 19.0892 14.4147 18.9545 14.4147 18.7834C14.4147 18.5991 14.2652 18.5398 14.1059 18.4782L14.1021 18.4767C13.9269 18.4068 13.7296 18.3282 13.7296 18.0617C13.7296 17.7981 13.9258 17.6283 14.2298 17.6283C14.3268 17.6283 14.4632 17.6566 14.5518 17.7365L14.559 17.7432L14.494 17.9395H14.4526L14.4495 17.9311C14.4031 17.814 14.3115 17.75 14.1902 17.75C14.0385 17.75 13.9279 17.8514 13.9279 17.9917C13.9279 18.1749 14.0796 18.2352 14.2406 18.2993L14.2453 18.3011L14.248 18.3022C14.4303 18.3744 14.6179 18.4486 14.6179 18.6977C14.6179 18.9997 14.3895 19.2101 14.0634 19.2101C13.9638 19.2101 13.7787 19.1683 13.6966 19.0787ZM14.7017 17.6604H15.8453H15.8589V17.8211L15.8434 17.8193C15.7047 17.8022 15.5563 17.7934 15.401 17.7934V19.1883H15.1813V17.7926C15.026 17.7927 14.8708 17.8016 14.7165 17.8193L14.7017 17.8206V17.6604ZM15.8087 18.4225C15.8087 17.9553 16.148 17.6283 16.6331 17.6283C17.0528 17.6283 17.4768 17.8634 17.4767 18.3892C17.4767 18.8799 17.1356 19.21 16.6289 19.21C16.1387 19.21 15.8087 18.8939 15.8087 18.4225ZM16.6348 19.1109C16.7959 19.1109 16.9313 19.0528 17.0392 18.9386C17.1764 18.7918 17.2359 18.5845 17.2359 18.4384C17.2359 18.428 17.2353 18.4172 17.2347 18.4074C17.2347 18.2279 17.2117 18.078 17.0991 17.9341C16.9965 17.8049 16.8306 17.7275 16.6548 17.7275C16.2822 17.7275 16.0501 18.0038 16.0501 18.4492C16.0501 18.8512 16.2798 19.1109 16.6348 19.1109ZM18.8636 17.6604H18.9999H19.0135V19.1835H18.9267L18.8097 19.0469C18.8097 19.0469 17.8765 18.014 17.8686 18.0048H17.8654V19.1834H17.7156V17.6604H17.8207C17.8207 17.6604 18.8533 18.7785 18.8611 18.7876H18.8636V17.6604ZM21.4069 17.6604H21.4608V17.6605H21.473L21.4744 17.6732C21.5416 18.3101 21.5992 18.799 21.6518 19.1684L21.6538 19.1835H21.4205L21.4191 19.1713C21.3936 18.871 21.3474 18.3471 21.3126 18.0847C21.0664 18.5247 20.8865 18.8588 20.7592 19.1515L20.7557 19.16H20.7143L20.5904 18.9048C20.4921 18.7036 20.2511 18.2444 20.1842 18.1168C20.1766 18.1023 20.1712 18.0921 20.1686 18.0871L20.1442 18.2968C20.1038 18.6359 20.0658 18.9557 20.0658 19.1703V19.1834H19.8811L19.8841 19.1683C19.9414 18.8148 20.0724 17.8981 20.0941 17.6731L20.0953 17.6604H20.1728L20.1764 17.6676C20.3508 18.014 20.5558 18.4134 20.7834 18.7931C20.8046 18.7549 21.038 18.3293 21.038 18.3293L21.4069 17.6604ZM22.4369 17.6283H22.5053L23.1738 19.1833H22.9137L22.9107 19.1748C22.8427 18.9781 22.7672 18.784 22.6844 18.5929H22.1465C22.1422 18.6044 22.1335 18.6261 22.1335 18.6261C22.0628 18.8015 21.9899 18.9834 21.9334 19.1744L21.9309 19.1834H21.7415L22.4369 17.6283ZM22.4181 17.9621C22.3962 18.0127 22.2137 18.4401 22.1995 18.4744H22.6401L22.4181 17.9621ZM24.2819 18.0073C24.2819 18.2189 24.1175 18.3755 23.8427 18.431C23.8687 18.4631 24.4455 19.1834 24.4455 19.1835H24.1584L24.0167 18.9889C24.0167 18.9889 23.7578 18.654 23.7586 18.6547C23.7016 18.5877 23.6447 18.5207 23.588 18.4535H23.524V19.1835H23.3048V17.6605H23.7821C24.1186 17.6605 24.2819 17.7748 24.2819 18.0073ZM23.524 17.7687V18.3441C23.5798 18.3477 23.6948 18.3512 23.79 18.3321C23.9593 18.298 24.0597 18.1864 24.0597 18.0333C24.0597 17.8841 23.9825 17.7953 23.8304 17.7707C23.7545 17.7584 23.6144 17.7644 23.524 17.7687ZM24.4058 17.6604H25.5498H25.5635V17.8211L25.5482 17.8193C25.4093 17.8022 25.2606 17.7934 25.1059 17.7934V19.1883H24.8851V17.7926C24.73 17.7927 24.5749 17.8016 24.4208 17.8193L24.4058 17.8206V17.6604ZM25.9513 19.1834H25.7441V17.6604H25.9513V19.1834ZM27.4224 18.7876V17.6604H27.5723V19.1835H27.4868L27.3698 19.0469C27.3698 19.0469 26.4353 18.014 26.4274 18.0048H26.4247V19.1834H26.2748V17.6604H26.3801C26.3801 17.6604 27.4124 18.7785 27.4205 18.7876H27.4224Z" fill="#F6F6F3"/>
</svg>
