<svg width="40" height="40" viewBox="0 0 40 40" fill="none" xmlns="http://www.w3.org/2000/svg">
<path fill-rule="evenodd" clip-rule="evenodd" d="M6.72366 13.0693H7.16235L7.17444 13.0697C8.68561 13.1201 10.1301 13.6618 11.2953 14.5994C12.4606 13.6618 13.9051 13.1201 15.4162 13.0697L15.4283 13.0693H15.867L15.8791 13.0697C17.3903 13.1201 18.8348 13.6618 20 14.5994C21.1652 13.6618 22.6097 13.1201 24.1209 13.0697L24.133 13.0693H24.5717L24.5838 13.0697C26.0949 13.1201 27.5394 13.6618 28.7047 14.5994C29.8699 13.6618 31.3144 13.1201 32.8256 13.0697L32.8376 13.0693H33.2763L33.2884 13.0697C35.1088 13.1305 36.8324 13.904 38.0877 15.2237C39.3429 16.5434 40.0294 18.3035 39.999 20.1246C39.9687 21.9457 39.2239 23.682 37.9254 24.9591C36.6268 26.2362 34.8783 26.9519 33.057 26.9519C31.4671 26.9519 29.9327 26.4065 28.7047 25.4184C27.4766 26.4065 25.9423 26.9519 24.3523 26.9519C22.7624 26.9519 21.2281 26.4065 20 25.4184C18.7719 26.4065 17.2376 26.9519 15.6477 26.9519C14.0577 26.9519 12.5234 26.4065 11.2953 25.4184C10.0673 26.4065 8.53293 26.9519 6.94301 26.9519C5.12165 26.9519 3.37323 26.2362 2.07465 24.9591C0.776068 23.682 0.031326 21.9457 0.00096582 20.1246C-0.0293943 18.3035 0.657059 16.5434 1.91235 15.2237C3.16764 13.904 4.89123 13.1305 6.71157 13.0697L6.72366 13.0693ZM12.3316 24.3871C13.2808 25.1061 14.4441 25.5011 15.6477 25.5011C16.8512 25.5011 18.0145 25.1061 18.9637 24.3871C17.9879 23.1861 17.4363 21.6866 17.4103 20.1246C17.383 18.4849 17.9368 16.8946 18.9637 15.6307C18.0681 14.9523 16.9794 14.5605 15.8425 14.5201H15.4529C14.316 14.5605 13.2273 14.9523 12.3316 15.6307C13.3586 16.8946 13.9124 18.4849 13.885 20.1246C13.859 21.6866 13.3074 23.1861 12.3316 24.3871ZM11.2953 16.659C12.0502 17.6396 12.4553 18.8519 12.4345 20.1004C12.4147 21.2873 12.0113 22.4286 11.2953 23.3588C10.5794 22.4286 10.176 21.2873 10.1562 20.1004C10.1354 18.8519 10.5405 17.6396 11.2953 16.659ZM10.2591 15.6307C9.23211 16.8946 8.67829 18.4849 8.70563 20.1246C8.73167 21.6866 9.28325 23.1861 10.2591 24.3871C9.30983 25.1061 8.14655 25.5011 6.94301 25.5011C5.50223 25.5011 4.11915 24.935 3.09192 23.9247C2.06468 22.9145 1.47556 21.541 1.45154 20.1004C1.42753 18.6599 1.97054 17.2675 2.96353 16.2236C3.95383 15.1825 5.31257 14.5711 6.74822 14.5201H7.13779C8.27472 14.5605 9.3634 14.9523 10.2591 15.6307ZM20 16.659C19.2452 17.6396 18.8401 18.8519 18.8609 20.1004C18.8807 21.2873 19.284 22.4286 20 23.3588C20.716 22.4286 21.1193 21.2873 21.1391 20.1004C21.16 18.8519 20.7548 17.6396 20 16.659ZM21.0363 24.3871C21.9855 25.1061 23.1488 25.5011 24.3523 25.5011C25.5559 25.5011 26.7192 25.1061 27.6684 24.3871C26.6926 23.1861 26.141 21.6866 26.115 20.1246C26.0876 18.4849 26.6414 16.8946 27.6684 15.6307C26.7727 14.9523 25.684 14.5605 24.5471 14.5201H24.1575C23.0206 14.5605 21.9319 14.9523 21.0363 15.6307C22.0632 16.8946 22.617 18.4849 22.5897 20.1246C22.5637 21.6866 22.0121 23.1861 21.0363 24.3871ZM28.7047 16.659C27.9498 17.6396 27.5447 18.8519 27.5655 20.1004C27.5853 21.2873 27.9887 22.4286 28.7047 23.3588C29.4206 22.4286 29.824 21.2873 29.8438 20.1004C29.8646 18.8519 29.4595 17.6396 28.7047 16.659ZM29.7409 24.3871C30.6902 25.1061 31.8535 25.5011 33.057 25.5011C34.4978 25.5011 35.8808 24.935 36.9081 23.9247C37.9353 22.9145 38.5244 21.541 38.5485 20.1004C38.5725 18.6599 38.0295 17.2675 37.0365 16.2236C36.0462 15.1825 34.6874 14.5711 33.2518 14.5201H32.8622C31.7253 14.5605 30.6366 14.9523 29.7409 15.6307C30.7679 16.8946 31.3217 18.4849 31.2944 20.1246C31.2683 21.6866 30.7168 23.1861 29.7409 24.3871Z" fill="#F6F6F3"/>
</svg>
