<svg width="40" height="40" viewBox="0 0 40 40" fill="none" xmlns="http://www.w3.org/2000/svg">
<path fill-rule="evenodd" clip-rule="evenodd" d="M14.7968 18.8708C14.6911 19.1 14.612 19.3386 14.5626 19.5842C14.3375 19.8043 13.8878 19.6563 14.1424 19.2887C14.6035 18.6223 14.7907 18.8618 14.7968 18.8708ZM14.3084 20.9856C14.3833 20.9026 14.4645 20.8127 14.5477 20.716C14.5969 20.994 14.6826 21.2643 14.8026 21.5198C14.4563 21.959 13.8136 21.5782 14.0607 21.2693C14.127 21.1864 14.2126 21.0917 14.3084 20.9856ZM23.7258 14.8147C23.6148 14.8518 23.5076 14.8995 23.4058 14.9572C21.2906 14.0359 18.7277 14.0277 16.5938 14.9572C16.5012 14.9034 16.3937 14.8561 16.274 14.8147C18.5782 13.7284 21.4214 13.7284 23.7258 14.8147ZM8.88112 14.84C8.38403 14.8144 7.91145 14.7901 7.68956 14.7901C7.56341 14.808 7.56341 14.8979 7.74358 14.9169C7.97215 14.9466 8.67567 15.1003 9.34761 15.2471L9.34763 15.2471C9.89204 15.3661 10.4157 15.4805 10.6493 15.5207C11.0301 15.5863 11.9525 15.6083 12.8358 15.6293L12.8358 15.6293C13.1634 15.6371 13.4856 15.6447 13.7728 15.6545C14.117 15.6661 14.3988 15.7064 14.6274 15.7681C15.8473 16.0973 15.4406 16.7998 15.0564 17.4637L15.0564 17.4637C14.984 17.5888 14.9124 17.7126 14.8526 17.8322C14.6593 18.2346 14.8836 18.3203 15.0876 18.3983C15.1117 18.4075 15.1355 18.4166 15.1583 18.4261C15.1916 17.2587 15.9049 16.7558 16.2241 16.5308L16.2242 16.5308L16.2244 16.5306C16.2496 16.5128 16.2724 16.4968 16.2921 16.4823L16.3001 16.4764C16.529 16.3087 16.8455 16.0769 16.8455 15.6939C16.8455 15.396 16.7082 15.1189 15.7513 14.9224C14.6958 14.7056 13.3111 14.7747 12.0114 14.8396C11.4155 14.8693 10.8375 14.8982 10.3173 14.8982C10.0143 14.8982 9.4326 14.8683 8.88112 14.84ZM16.5765 25.6995C14.711 24.9117 13.3397 23.5335 12.7718 21.8813C12.8655 21.9018 12.9628 21.9097 13.06 21.9079C13.6163 23.4108 14.9008 24.688 16.6381 25.4463C16.6032 25.5265 16.5823 25.6122 16.5765 25.6995ZM17.5527 25.7436C17.5524 25.7445 17.5522 25.7454 17.5518 25.7462C17.2753 26.4266 16.4551 26.033 16.8262 25.3906L17.7101 23.8926C17.8721 23.9475 18.0383 23.9966 18.2082 24.0404C18.2107 24.0564 17.8993 24.854 17.7048 25.3521L17.7046 25.3524L17.7036 25.3551L17.7036 25.3552C17.6182 25.5739 17.5556 25.7341 17.5527 25.7436ZM18.4874 25.9553C18.3163 26.6359 17.4957 26.4283 17.6888 25.7912L18.3913 24.0842C18.5583 24.1221 18.7286 24.1542 18.9017 24.1802C18.9035 24.1867 18.4874 25.9553 18.4874 25.9553ZM19.4507 26.0627C19.3897 26.7951 18.4906 26.6681 18.6518 25.9387C18.6518 25.9388 18.6897 25.775 18.7424 25.5479L18.7453 25.5351L18.7518 25.5072L18.7522 25.5056C18.8712 24.992 19.0537 24.2044 19.0547 24.2018C19.2235 24.2232 19.3946 24.2395 19.5684 24.2494C19.5733 24.2622 19.4939 25.427 19.4629 25.8828C19.4555 25.9916 19.4508 26.0599 19.4507 26.0627ZM19.6072 26.0517L19.61 26.0001L19.6101 25.9987L19.6102 25.9969L19.6105 25.9905C19.6274 25.6784 19.7031 24.2784 19.7044 24.2746C19.8726 24.2816 20.1211 24.2865 20.2943 24.269C20.3004 24.2804 20.3643 25.2608 20.3969 25.761C20.4079 25.9298 20.4153 26.044 20.4157 26.0476C20.47 26.7644 19.5643 26.779 19.6072 26.0517ZM0.0748171 14.9326C0.142347 14.881 0.275074 14.8749 0.445339 14.8671L0.445352 14.8671C0.47828 14.8655 0.512611 14.864 0.548147 14.862C1.21541 14.862 2.4106 14.8878 3.37142 14.9085C4.01718 14.9224 4.55707 14.9341 4.75964 14.9341C5.26363 14.9341 8.82718 15.33 9.3849 15.5102C9.6369 15.5823 9.69092 15.834 9.3849 15.8521C9.07889 15.8702 5.27473 15.9246 4.73482 15.9246C4.3161 15.9246 2.13808 15.9173 0.879273 15.6676C0.198333 15.5324 -0.16725 15.1172 0.0748171 14.9326ZM1.30034 16.2656C1.94828 16.2837 5.18771 16.3018 5.56585 16.2837C5.82025 16.2715 7.23324 16.1942 8.23374 16.1395L8.23397 16.1395L8.23573 16.1394C8.72031 16.1128 9.10778 16.0916 9.21934 16.0857C9.95897 16.0469 10.1984 16.3763 9.41731 16.5538C9.02136 16.644 5.36788 17.0578 2.59623 17.0038C2.07413 17.0219 1.37246 16.7518 1.1923 16.4998C1.02302 16.2626 1.18838 16.2644 1.28341 16.2655C1.28936 16.2656 1.29504 16.2656 1.30034 16.2656ZM2.56031 17.4538C3.01028 17.4538 8.3194 17.0578 9.43542 16.8239C10.406 16.6762 10.187 17.1749 9.79516 17.2558C9.46579 17.3238 5.52964 18.0836 3.53208 18.1195C2.86603 18.1017 2.09224 17.4716 2.56031 17.4538ZM3.90993 18.5695C4.54006 18.4974 8.73345 17.8316 9.86728 17.5256C10.8928 17.2599 10.6858 17.9414 10.3173 18.0477C9.98905 18.1423 6.41528 19.0122 5.60177 19.0557C5.25683 19.0738 4.91097 19.0505 4.5716 18.9862C3.42229 18.7564 3.90993 18.5695 3.90993 18.5695ZM5.60177 19.5053C6.05174 19.4154 9.70522 18.5873 10.7491 18.1916C11.2578 18.0144 11.4108 18.514 11.0911 18.6594C10.8931 18.7494 8.08551 19.9191 6.7537 19.9912C6.26782 19.9912 5.36904 19.7296 5.60177 19.5053ZM11.5588 18.7494C11.1451 18.9473 8.62541 20.0093 7.65335 20.2254C7.51845 20.2613 7.37595 20.3209 7.38734 20.3959C7.47377 20.9706 9.26255 20.4818 9.38665 20.4421C10.0746 20.2216 11.4771 19.7068 12.0719 19.1272C11.9279 19.0554 11.595 18.8215 11.5588 18.7494ZM12.3148 19.3614C12.045 19.5413 10.281 20.4596 9.47133 20.7113C9.04823 20.8523 9.49352 21.2874 10.3199 21.0518C11.2333 20.9101 12.5668 19.8295 12.7829 19.6315C12.7117 19.5959 12.586 19.5213 12.4723 19.4539L12.4723 19.4539L12.4719 19.4536L12.4717 19.4535C12.4131 19.4188 12.3577 19.3859 12.3148 19.3614ZM13.1429 19.8476C12.8826 20.0256 12.4302 20.3271 12.0555 20.5769C11.9607 20.64 11.8709 20.6999 11.7904 20.7536C11.7656 20.7702 11.7357 20.7891 11.7028 20.81L11.7027 20.81C11.5169 20.9278 11.2348 21.1065 11.242 21.2538C11.2461 21.3368 11.4038 21.4941 12.1241 21.2325C12.5721 21.0491 13.1143 20.6763 13.5748 20.0096C13.4849 19.9822 13.2507 19.9013 13.1429 19.8476ZM13.9526 20.1174C13.8759 20.1941 13.789 20.2836 13.6969 20.3785C13.5865 20.4922 13.4687 20.6135 13.3523 20.7294C13.2911 20.8083 13.2065 20.8804 13.1235 20.951C12.9401 21.1072 12.7647 21.2565 12.8684 21.4582C13.0317 21.7753 13.5456 21.3189 13.7307 21.1443C13.9923 20.897 14.2449 20.5703 14.3398 20.2432C14.3193 20.2374 14.2984 20.2316 14.2772 20.2256L14.2772 20.2256L14.2771 20.2256C14.1676 20.1952 14.0507 20.1626 13.9526 20.1174ZM13.7728 21.7371C13.9845 22.2209 14.6534 22.1202 15.0541 21.9692C15.5884 22.7821 16.4773 23.4438 17.5717 23.8436L16.7024 25.317C15.0126 24.5809 13.7617 23.3486 13.2104 21.8977C13.4055 21.8761 13.5956 21.8218 13.7728 21.7371ZM11.8503 15.8846C11.9222 15.8846 12.0223 15.8843 12.14 15.8839C12.6407 15.8825 13.4591 15.8802 13.7734 15.8951C14.8467 15.9462 15.6132 16.4691 14.838 17.4505C14.6861 17.6424 14.2803 18.0445 14.1182 18.1884C13.9742 18.2965 13.7042 18.1163 13.938 17.8465C13.632 18.0264 13.2542 17.9905 13.4341 17.5767C13.164 17.7928 12.7143 17.8106 12.9841 17.2529C12.8042 17.3968 12.3002 17.379 12.624 16.9468C12.3542 17.0368 12.0482 16.8747 12.2462 16.6049C11.9043 16.6592 11.7063 16.4069 12.0663 16.2093C11.7244 16.2983 11.6345 15.9024 11.8503 15.8846ZM10.7944 15.6933C10.7787 15.6923 10.7574 15.6902 10.7319 15.6877C10.5202 15.667 10.0181 15.6178 10.0317 15.9219C10.0469 16.263 10.7491 16.1342 10.8934 16.1074C11.1591 16.058 11.3714 15.9768 11.3652 15.8667C11.3591 15.7537 11.0823 15.7114 10.7944 15.6933ZM10.8201 16.2776C10.8007 16.2791 10.7749 16.2799 10.7449 16.2809C10.5372 16.2878 10.1252 16.3015 10.2005 16.574C10.2276 16.6721 10.4306 16.8706 11.1095 16.7057C11.407 16.6332 11.5612 16.4738 11.5612 16.3471C11.5612 16.2364 11.1611 16.2516 10.8201 16.2776ZM11.256 16.7839C11.245 16.7857 11.2286 16.7878 11.2082 16.7904C11.0265 16.8136 10.5245 16.8775 10.6198 17.1644C10.676 17.3332 10.7552 17.3334 10.8744 17.3338C10.9123 17.3339 10.9542 17.334 11.0008 17.3396C11.1281 17.3548 12.0713 17.0891 11.9238 16.7865C11.88 16.6966 11.6026 16.727 11.256 16.7839ZM11.5691 17.2362C10.9413 17.4911 10.9494 17.6637 10.9781 17.7569C11.0064 17.8503 11.2943 17.9656 11.89 17.6745C12.1916 17.5271 12.1954 17.3594 12.1212 17.2409C12.0287 17.0923 11.7945 17.1445 11.5691 17.2362ZM12.0085 17.6649C11.355 17.8926 11.3924 18.1005 11.4441 18.2226C11.501 18.3575 11.7075 18.5012 12.2529 18.1537C12.5823 17.944 12.7966 17.7682 12.7379 17.6287C12.6848 17.5019 12.3732 17.5349 12.0085 17.6649ZM12.2643 18.3195C12.0929 18.4235 12.0149 18.5642 12.123 18.7245C12.3163 19.0119 12.8863 18.505 13.0293 18.3499C13.1356 18.2349 13.2037 18.114 13.1435 18.0255C13.0813 17.9344 12.888 17.9414 12.2643 18.3195ZM13.2962 18.3683C12.5353 18.7564 12.6083 18.9444 12.7143 19.0247C12.8314 19.1135 13.1073 19.2066 13.5687 18.6734C13.771 18.4398 13.6598 18.184 13.2962 18.3683ZM13.5791 18.8748L13.5791 18.8748C13.4062 19.0456 13.189 19.2602 13.4305 19.4274C13.6528 19.5812 13.7918 19.443 13.9058 19.3296C13.9178 19.3177 13.9295 19.3061 13.941 19.2951C14.64 18.6226 14.4087 18.1969 13.6761 18.7753C13.6487 18.8061 13.6149 18.8394 13.5792 18.8747L13.5792 18.8747L13.5792 18.8747L13.5791 18.8748ZM23.3068 21.3423C23.3068 20.7682 22.7155 20.1942 22.0588 19.9962C21.8833 19.9565 21.9111 19.8005 22.0477 19.7389C22.1791 19.6794 22.9456 19.145 22.9348 18.472C22.9348 17.8188 22.168 16.8289 19.9342 16.8289C18.6202 16.8289 17.5252 17.1258 16.8682 17.6803C17.0213 17.7992 17.1967 17.9773 17.1967 18.1753V21.7981C17.1748 22.0159 17.0653 22.1941 16.8899 22.392C17.4797 22.8108 18.5359 23.2102 20.0522 23.2053C21.6728 23.1655 23.3068 22.6884 23.3068 21.3423ZM20.0452 19.5985C20.7422 19.5985 21.3072 19.1472 21.3072 18.5905C21.3072 18.0338 20.7422 17.5825 20.0452 17.5825C19.3482 17.5825 18.7832 18.0338 18.7832 18.5905C18.7832 19.1472 19.3482 19.5985 20.0452 19.5985ZM21.6226 21.3224C21.6226 21.9101 20.9892 22.3865 20.2078 22.3865C19.4265 22.3865 18.7931 21.9101 18.7931 21.3224C18.7931 20.7348 19.4265 20.2584 20.2078 20.2584C20.9892 20.2584 21.6226 20.7348 21.6226 21.3224ZM24.4666 17.815C24.2303 16.9929 23.6709 16.6162 23.3849 16.4236C23.3578 16.4054 23.3332 16.3888 23.3115 16.3737C22.8078 16.0218 22.8352 15.5017 23.2656 15.0535C21.2091 14.1866 18.7665 14.1965 16.7342 15.0535C17.1646 15.5017 17.1918 16.0218 16.6884 16.3737C16.6667 16.3888 16.642 16.4054 16.6149 16.4237L16.6149 16.4237C16.3288 16.6163 15.7693 16.993 15.5332 17.815C17.7299 15.5511 22.2699 15.5508 24.4666 17.815ZM26.2271 21.7371C26.0151 22.2209 25.3461 22.1202 24.9458 21.9692C24.4114 22.7821 23.5226 23.4438 22.4279 23.8436L23.2975 25.317C24.9873 24.5809 26.2379 23.3486 26.7898 21.8977C26.5945 21.8762 26.4043 21.8219 26.2271 21.7371ZM27.2281 21.8813C26.6604 23.5335 25.2889 24.9117 23.4233 25.6995C23.4175 25.6122 23.3967 25.5265 23.3617 25.4463C25.0991 24.688 26.3836 23.4108 26.9399 21.9079C27.0366 21.9102 27.1333 21.9013 27.2281 21.8813ZM22.448 25.7462L22.4469 25.7436C22.4439 25.7337 22.3759 25.5596 22.2848 25.3261C22.09 24.8268 21.7892 24.0561 21.7916 24.0404C21.9619 23.9966 22.1277 23.9475 22.2898 23.8926L23.1737 25.3906C23.5448 26.033 22.7246 26.4266 22.448 25.7462ZM22.3108 25.7912C22.5038 26.4283 21.6836 26.6359 21.5122 25.9553C21.5122 25.9553 21.0964 24.1867 21.0981 24.1802C21.2713 24.1542 21.4415 24.1221 21.6083 24.0842C21.6451 24.1726 22.3108 25.7912 22.3108 25.7912ZM21.3478 25.9387C21.509 26.6681 20.6102 26.7951 20.5492 26.0627C20.5491 26.0599 20.5442 25.9889 20.5366 25.8766C20.5052 25.4164 20.4265 24.2621 20.4312 24.2494C20.6047 24.2395 20.7761 24.2232 20.9448 24.2018C20.9466 24.2056 21.3481 25.9392 21.3478 25.9387ZM39.5545 14.8671C39.7248 14.8749 39.8575 14.881 39.925 14.9326C40.1674 15.1172 39.8018 15.5324 39.1203 15.6676C37.8618 15.9173 35.6838 15.9246 35.2647 15.9246C34.7248 15.9246 30.921 15.8702 30.615 15.8521C30.3089 15.834 30.363 15.5823 30.615 15.5102C31.1727 15.33 34.7362 14.9341 35.2402 14.9341C35.4428 14.9341 35.9827 14.9224 36.6284 14.9085C37.5893 14.8878 38.7845 14.862 39.4517 14.862C39.4873 14.864 39.5216 14.8655 39.5545 14.8671ZM34.434 16.2837C34.8121 16.3018 38.0513 16.2837 38.6992 16.2656C38.7045 16.2656 38.7102 16.2656 38.7162 16.2655C38.8115 16.2644 38.9768 16.2627 38.8073 16.4998C38.6271 16.7518 37.9251 17.0219 37.4033 17.0038C34.632 17.0578 30.9782 16.644 30.5825 16.5538C29.8012 16.3763 30.0409 16.0469 30.7805 16.0857C30.8922 16.0917 31.2805 16.1129 31.7659 16.1395C32.7664 16.1942 34.1796 16.2715 34.434 16.2837ZM30.5644 16.8239C31.6805 17.0578 36.9896 17.4538 37.4395 17.4538C37.9073 17.4716 37.1335 18.1017 36.4678 18.1195C34.4699 18.0836 30.5341 17.3238 30.2047 17.2558C29.8128 17.1749 29.5938 16.6762 30.5644 16.8239ZM30.1329 17.5256C31.2664 17.8316 35.4601 18.4974 36.0899 18.5695C36.0899 18.5695 36.5776 18.7564 35.4283 18.9862C35.0889 19.0505 34.743 19.0738 34.3981 19.0557C33.5846 19.0122 30.0108 18.1423 29.6829 18.0477C29.3141 17.9414 29.1074 17.2599 30.1329 17.5256ZM29.2507 18.1916C30.2946 18.5873 33.9481 19.4154 34.3981 19.5053C34.6308 19.7296 33.732 19.9912 33.2462 19.9912C31.9143 19.9191 29.1068 18.7494 28.9088 18.6594C28.5891 18.514 28.7424 18.0144 29.2507 18.1916ZM32.3462 20.2254C31.3744 20.0093 28.8545 18.9473 28.4407 18.7494C28.4048 18.8215 28.0719 19.0554 27.9277 19.1272C28.5225 19.7068 29.9253 20.2216 30.6129 20.4421C30.737 20.4818 32.5258 20.9706 32.6122 20.3959C32.6236 20.3209 32.4811 20.2613 32.3462 20.2254ZM30.5282 20.7113C29.7185 20.4596 27.9546 19.5413 27.6847 19.3614C27.6428 19.3854 27.589 19.4174 27.5317 19.4513L27.5315 19.4515C27.4169 19.5195 27.2889 19.5955 27.2167 19.6315C27.4328 19.8295 28.7663 20.9101 29.6797 21.0518C30.506 21.2874 30.9513 20.8523 30.5282 20.7113ZM27.9355 20.5708C27.5626 20.3223 27.1152 20.0242 26.8572 19.8476C26.7489 19.9013 26.515 19.9822 26.4254 20.0096C26.8858 20.6763 27.4281 21.0491 27.876 21.2325C28.5964 21.4941 28.754 21.3368 28.7581 21.2538C28.7653 21.1065 28.4833 20.9278 28.2974 20.81C28.2645 20.7891 28.2345 20.7702 28.2098 20.7536C28.1267 20.6982 28.0337 20.6362 27.9355 20.5708ZM26.3025 20.3782L26.3025 20.3781L26.3019 20.3776L26.3018 20.3774L26.3014 20.377C26.2098 20.2827 26.1233 20.1937 26.0469 20.1174C25.949 20.1626 25.8321 20.1952 25.7225 20.2257L25.7222 20.2258C25.7085 20.2296 25.6949 20.2334 25.6815 20.2371C25.6743 20.2392 25.6671 20.2412 25.66 20.2432C25.7549 20.5703 26.0078 20.897 26.2694 21.1443C26.4543 21.3189 26.9682 21.7753 27.1314 21.4582C27.2354 21.2565 27.0599 21.1071 26.8763 20.9508C26.7934 20.8802 26.7088 20.8082 26.6476 20.7294C26.5311 20.6134 26.4131 20.492 26.3025 20.3782ZM32.3103 14.7901C32.0884 14.7901 31.6158 14.8144 31.1187 14.84C30.5673 14.8683 29.9856 14.8982 29.6826 14.8982C29.1622 14.8982 28.5841 14.8693 27.9882 14.8396C26.6884 14.7747 25.3038 14.7056 24.2485 14.9224C23.2916 15.1189 23.1544 15.396 23.1544 15.6939C23.1544 16.0771 23.4709 16.309 23.6998 16.4767L23.7074 16.4823C23.7272 16.4968 23.75 16.5128 23.7752 16.5306C24.0945 16.7555 24.8083 17.2584 24.8416 18.4261C24.8643 18.4166 24.888 18.4076 24.912 18.3984L24.9123 18.3983L24.9123 18.3983C25.1162 18.3203 25.3405 18.2346 25.1476 17.8322C25.0878 17.7127 25.0163 17.5892 24.9439 17.4642L24.9439 17.4642L24.9439 17.4642L24.9439 17.4641C24.5595 16.8001 24.1526 16.0973 25.3727 15.7681C25.6013 15.7064 25.8831 15.6661 26.2277 15.6545C26.5149 15.6447 26.837 15.6371 27.1646 15.6293C28.0479 15.6083 28.9702 15.5863 29.3509 15.5207C29.5844 15.4805 30.1081 15.3661 30.6525 15.2471L30.6525 15.2471C31.3245 15.1003 32.028 14.9466 32.2566 14.9169C32.4364 14.8979 32.4364 14.808 32.3103 14.7901ZM27.8596 15.8839C27.9773 15.8843 28.0774 15.8846 28.1493 15.8846C28.3654 15.9024 28.2755 16.2983 27.9329 16.2093C28.2933 16.4069 28.0953 16.6592 27.7531 16.6049C27.9513 16.8747 27.6453 17.0368 27.3752 16.9468C27.6994 17.379 27.1954 17.3968 27.0155 17.2529C27.2853 17.8106 26.8353 17.7928 26.5655 17.5767C26.7454 17.9905 26.3675 18.0264 26.0612 17.8465C26.2954 18.1163 26.0253 18.2965 25.8814 18.1884C25.7193 18.0445 25.3134 17.6424 25.1616 17.4505C24.3863 16.4691 25.1528 15.9462 26.2262 15.8951C26.5404 15.8802 27.3589 15.8825 27.8596 15.8839ZM29.2679 15.6877C29.2424 15.6902 29.2211 15.6923 29.2055 15.6933C28.9176 15.7114 28.6408 15.7537 28.6346 15.8667C28.6285 15.9768 28.8408 16.058 29.1065 16.1074C29.2507 16.1342 29.953 16.263 29.9682 15.9219C29.9817 15.6178 29.4797 15.667 29.2679 15.6877ZM29.2552 16.2809C29.2252 16.2799 29.1994 16.2791 29.1801 16.2776C28.8387 16.2516 28.439 16.2364 28.439 16.3471C28.439 16.4738 28.5929 16.6332 28.8907 16.7057C29.5696 16.8706 29.7722 16.6721 29.7994 16.574C29.8749 16.3015 29.4628 16.2878 29.2552 16.2809ZM28.7914 16.7904L28.7913 16.7904C28.7709 16.7878 28.7546 16.7857 28.7435 16.7839C28.3972 16.727 28.1198 16.6966 28.0757 16.7865C27.9283 17.0891 28.8714 17.3548 28.9987 17.3396C29.0453 17.334 29.0873 17.3339 29.1252 17.3338C29.2444 17.3334 29.3235 17.3332 29.3798 17.1644C29.4751 16.8775 28.9731 16.8136 28.7914 16.7904ZM29.0218 17.7569C29.0501 17.6637 29.0583 17.4911 28.4308 17.2362C28.2054 17.1445 27.9712 17.0923 27.8783 17.2409C27.8042 17.3594 27.8083 17.5271 28.1099 17.6745C28.7056 17.9656 28.9932 17.8503 29.0218 17.7569ZM28.5555 18.2226C28.6072 18.1005 28.6446 17.8926 27.9911 17.6649C27.6264 17.5349 27.3151 17.5019 27.2616 17.6287C27.2027 17.7682 27.417 17.944 27.7464 18.1537C28.2921 18.5012 28.4986 18.3575 28.5555 18.2226ZM27.8766 18.7245C27.9846 18.5642 27.9067 18.4235 27.7353 18.3195C27.1118 17.9414 26.9183 17.9344 26.8561 18.0255C26.7959 18.114 26.8642 18.2349 26.9702 18.3499C27.1133 18.505 27.6836 19.0119 27.8766 18.7245ZM27.2856 19.0247C27.3916 18.9444 27.4646 18.7564 26.7036 18.3683C26.3401 18.184 26.2288 18.4398 26.4312 18.6734C26.8926 19.2066 27.1685 19.1135 27.2856 19.0247ZM26.4205 18.8749C26.3848 18.8395 26.351 18.8061 26.3235 18.7753C25.5911 18.1969 25.3599 18.6226 26.0589 19.2951C26.0703 19.306 26.0819 19.3175 26.0937 19.3293C26.2076 19.4428 26.3466 19.5813 26.5693 19.4274C26.8106 19.2602 26.5934 19.0456 26.4205 18.8749ZM25.2028 18.8708C25.3088 19.1 25.3876 19.3386 25.4372 19.5842C25.6624 19.8043 26.112 19.6563 25.8571 19.2887C25.3961 18.6223 25.2089 18.8618 25.2028 18.8708ZM25.692 20.9863C25.6168 20.9032 25.5354 20.813 25.4518 20.716C25.4037 20.9934 25.3172 21.2626 25.1972 21.5198C25.5435 21.959 26.1862 21.5782 25.9392 21.2693C25.873 21.1866 25.7876 21.0921 25.692 20.9863Z" fill="#F6F6F3"/>
</svg>
