<svg width="40" height="40" viewBox="0 0 40 40" fill="none" xmlns="http://www.w3.org/2000/svg">
<path d="M0 26.5634V13.1866H9.16978C10.5131 13.1866 11.5672 13.4851 12.3321 14.0821C13.1032 14.6729 13.4888 15.4969 13.4888 16.5541C13.4888 17.2817 13.2898 17.9223 12.8918 18.4757C12.5 19.0292 11.9341 19.421 11.194 19.6511C12.1269 19.8688 12.842 20.2668 13.3396 20.8451C13.8433 21.4173 14.0951 22.1325 14.0951 22.9907C14.0951 24.1163 13.694 24.9932 12.8918 25.6213C12.0958 26.2494 10.9515 26.5634 9.45896 26.5634H0ZM8.80597 14.7164H1.98694V18.9981H8.84328C9.62065 18.9981 10.2519 18.8022 10.7369 18.4104C11.222 18.0187 11.4646 17.49 11.4646 16.8246C11.4646 16.1405 11.2345 15.6182 10.7743 15.2575C10.3141 14.8968 9.65796 14.7164 8.80597 14.7164ZM9.03918 20.5466H1.98694V25.0336H9.11381C10.084 25.0336 10.8053 24.8439 11.278 24.4646C11.7568 24.0852 11.9963 23.5442 11.9963 22.8414C11.9963 22.1014 11.7351 21.5354 11.2127 21.1437C10.6903 20.7456 9.9658 20.5466 9.03918 20.5466Z" fill="#F6F6F3"/>
<path d="M17.8358 26.5634V13.1866H19.8601V26.5634H17.8358Z" fill="#F6F6F3"/>
<path d="M31.791 26.75C29.1978 26.75 27.1797 26.1374 25.7369 24.9123C24.2942 23.681 23.5728 22.0081 23.5728 19.8937C23.5728 17.773 24.2942 16.0939 25.7369 14.8563C27.1859 13.6188 29.204 13 31.791 13C34.3719 13 36.3837 13.6188 37.8265 14.8563C39.2755 16.0877 40 17.7668 40 19.8937C40 21.9956 39.2755 23.6654 37.8265 24.903C36.3837 26.1343 34.3719 26.75 31.791 26.75ZM31.791 25.1269C33.7749 25.1269 35.2923 24.6667 36.3433 23.7463C37.3943 22.8197 37.9198 21.5354 37.9198 19.8937C37.9198 18.2456 37.3943 16.9552 36.3433 16.0224C35.2923 15.0896 33.7749 14.6231 31.791 14.6231C29.7948 14.6231 28.268 15.0896 27.2108 16.0224C26.1598 16.9552 25.6343 18.2456 25.6343 19.8937C25.6343 21.5354 26.1598 22.8197 27.2108 23.7463C28.268 24.6667 29.7948 25.1269 31.791 25.1269Z" fill="#F6F6F3"/>
</svg>
