<svg width="40" height="40" viewBox="0 0 40 40" fill="none" xmlns="http://www.w3.org/2000/svg">
<path fill-rule="evenodd" clip-rule="evenodd" d="M20 8.14819V8.14815C26.5452 8.14815 31.8519 13.4548 31.8519 20H31.202C31.202 13.8226 26.1762 8.79799 20 8.79797V20H8.79797C8.79799 26.1774 13.8238 31.202 20 31.202V31.8519C13.4548 31.8519 8.14815 26.5452 8.14815 20H8.14819C8.14822 13.4501 13.4501 8.14822 20 8.14819ZM20 20H31.8519C31.8519 26.5499 26.5499 31.8519 20 31.8519V20ZM0 20C0 8.95461 8.95461 0 20 0C31.0454 0 40 8.95461 40 20C40 31.0454 31.0454 40 20 40C8.95461 40 0 31.0454 0 20ZM20 38.6994C30.3281 38.6994 38.6994 30.3269 38.6994 20C38.6994 9.67309 30.3269 1.30056 20 1.30056C9.6731 1.30056 1.30056 9.67309 1.30056 20C1.30056 30.3269 9.67192 38.6994 20 38.6994ZM11.4531 10.3517C12.0922 9.68316 12.4541 8.91078 11.8149 8.1734C11.4672 7.77321 10.8833 7.68571 10.3993 7.88289L10.3511 7.90155L10.3664 7.85955C10.438 7.66937 10.4839 7.06267 9.96341 6.64381C9.70965 6.43964 9.39127 6.3638 9.06936 6.39647C8.46903 6.45714 8.00732 6.86433 6.75025 8.25624C6.37078 8.67627 5.81861 9.33897 5.4873 9.76833L8.94013 13.0212C9.84476 12.0269 10.3257 11.5262 10.9333 10.8938L10.9336 10.8935C11.0945 10.726 11.2642 10.5493 11.4531 10.3517ZM6.94762 9.55598C7.64312 8.71127 8.38209 7.94472 8.71691 7.64137C8.82265 7.5457 8.93778 7.45003 9.07759 7.41269C9.30433 7.35086 9.53812 7.5107 9.59099 7.74171C9.64386 7.97389 9.497 8.1944 9.3337 8.37642C8.96598 8.78827 7.61727 10.1895 7.61727 10.1895L6.94762 9.55598ZM8.29985 10.8301C8.29985 10.8301 9.61331 9.45098 10.0421 9.00995C10.2125 8.83494 10.3217 8.72877 10.4392 8.6716C10.5908 8.59809 10.7564 8.58293 10.9044 8.68093C11.0501 8.77777 11.1171 8.94461 11.0807 9.11029C11.0372 9.30747 10.8751 9.49531 10.7411 9.63882C10.5602 9.83133 9.0024 11.4869 9.00005 11.4893L8.29985 10.8301ZM20.3947 6.4723L21.5002 4.01283L21.5707 3.79465L21.5508 4.02216L21.6671 7.30885C22.0548 7.34502 22.4554 7.39869 22.8501 7.46403L22.6704 2.59641C22.1182 2.53574 21.5684 2.49257 21.0186 2.46924L19.9295 5.15389L19.8907 5.35341L19.852 5.15389L18.7641 2.46924C18.2142 2.49257 17.6644 2.53574 17.1123 2.59641L16.9325 7.46403C17.3272 7.39869 17.7279 7.34619 18.1156 7.30885L18.2319 4.02216L18.2119 3.79465L18.2824 4.01283L19.3879 6.4723H20.3947ZM29.576 11.5604C29.8474 11.8498 30.2386 12.3165 30.4583 12.6L34.5044 10.0495C34.3024 9.787 33.9805 9.38797 33.7396 9.10679L31.1773 10.7892L31.0023 10.9386L31.1327 10.7496L32.264 8.50709L31.464 7.71254L29.2048 8.83611L29.0145 8.96562L29.166 8.79177L30.8613 6.24829C30.5629 5.99628 30.2762 5.76526 29.9109 5.48525L27.3427 9.49998C27.6681 9.7485 28.0969 10.1137 28.3707 10.3622L30.7885 9.11612L30.9435 9.00295L30.8296 9.15696L29.576 11.5604Z" fill="#F6F6F3"/>
</svg>
