<svg width="40" height="40" viewBox="0 0 40 40" fill="none" xmlns="http://www.w3.org/2000/svg">
<path d="M20.0958 38C-3.42608 37.8927 -8.02567 7.56873 15.5751 2.40242C44.3152 -2.34091 50.0184 36.3816 20.0958 38ZM3.3798 19.4053C3.53492 24.2693 5.51428 28.7989 9.1406 32.0586C11.4719 34.3359 17.5305 37.6887 18.9718 32.9578C19.1943 31.1435 19.5746 29.0108 17.3452 28.4433C9.36752 26.3904 9.95167 22.2723 8.29142 15.4495C8.07956 14.6052 7.61774 13.8728 6.85986 13.3842C4.00118 11.7428 3.40462 17.6291 3.3798 19.4053ZM36.5786 19.6359C36.3242 17.4997 36.5272 15.5168 35.2153 13.7859C33.8689 12.0265 31.8487 14.1291 31.5988 15.6765C29.8304 23.3736 30.582 26.1599 22.0902 28.6969C20.547 29.2183 20.8625 30.9839 20.874 32.2874C22.521 40.9299 37.1131 29.9082 36.5786 19.6368V19.6359ZM19.158 20.2735C19.1482 20.2735 19.1385 20.2735 19.1287 20.2735C19.1287 18.6782 19.1748 17.0802 19.1127 15.4876C19.0684 14.3632 18.3637 13.7371 17.2398 13.7176C15.7337 13.691 14.226 13.6981 12.7199 13.7149C11.4852 13.6662 10.8851 14.8065 10.8523 15.9123C10.7618 20.2744 12.5666 26.7442 18.0038 26.2166C18.8867 26.1909 19.2067 25.2997 19.1544 24.53C19.1606 23.1111 19.1571 21.6923 19.1571 20.2735H19.158ZM20.8749 20.2283C20.8749 21.75 20.8687 23.2725 20.8776 24.7942C20.882 25.6012 21.2898 26.1554 21.9404 26.1998C25.5969 26.7212 27.9361 23.4472 28.6257 20.222C29.0955 18.2543 30.2957 13.7752 27.1233 13.7025C25.7644 13.699 24.4046 13.6981 23.0458 13.7025C21.5761 13.707 20.8803 14.4057 20.8749 15.8831C20.8705 17.3312 20.874 18.7793 20.8749 20.2283ZM32.5242 9.25892C31.16 6.99233 21.7915 1.11039 20.8847 5.70297C20.804 7.09963 20.8173 8.50605 20.8847 9.9036C20.929 10.8232 21.624 11.3978 22.5503 11.4049C24.7494 11.4209 26.9486 11.412 29.1478 11.4084C29.6735 11.4084 30.1371 11.2187 30.5032 10.8471C31.0908 10.2486 31.4578 9.40346 32.5242 9.25803V9.25892ZM7.48035 9.25271C8.34903 9.43272 8.81263 9.94439 9.23101 10.5332C9.6822 11.1672 10.324 11.4297 11.1067 11.4235C13.1587 11.4084 15.2108 11.4244 17.2619 11.4164C19.8706 11.4812 19.0879 8.43245 19.1934 6.71389C19.47 0.416054 9.11932 6.73695 7.47946 9.25271H7.48035Z" fill="#F6F6F3"/>
</svg>
