<svg width="40" height="40" viewBox="0 0 40 40" fill="none" xmlns="http://www.w3.org/2000/svg">
<path fill-rule="evenodd" clip-rule="evenodd" d="M30.824 30.2069C33.2451 30.2069 34.6937 28.4745 34.6937 26.3372C34.6937 24.2002 33.2451 22.4681 30.824 22.4681H22.9745V30.2069H30.824ZM30.824 16.7189C32.9546 16.7189 34.2514 15.1847 34.2514 13.2918C34.2514 11.3989 32.9546 9.86445 30.824 9.86445H22.9745V16.7189H30.824ZM11.9181 22.4678V24.3842H7.05492V14.8028H11.9181V16.7192H16.5624V9.86445H4.8647V12.2968H0L0.000748942 9.86445V5H30.824C35.6478 5 39.5579 8.91039 39.5579 13.7341C39.5611 15.852 38.7916 17.8983 37.3937 19.4893C39.0065 21.1428 40 23.4031 40 25.8952C40 30.9633 35.8919 35.0716 30.8238 35.0716H0.00099843L0.000249488 30.2072V27.7748H4.8647V30.2072H16.5624V22.4683L11.9181 22.4678Z" fill="#F6F6F3"/>
</svg>
