<svg width="40" height="40" viewBox="0 0 40 40" fill="none" xmlns="http://www.w3.org/2000/svg">
<path fill-rule="evenodd" clip-rule="evenodd" d="M20 0C31.0408 0 39.9999 8.95932 39.9999 20C39.9999 31.0407 31.0408 40 20 40C8.95932 40 0 31.0407 0 20C0 8.95932 8.95932 0 20 0ZM20 2.11563C10.1242 2.11563 2.1242 10.1242 2.1242 20C2.1242 29.8758 10.1242 37.8759 20 37.8759C29.8758 37.8759 37.8758 29.8759 37.8758 20.0001C37.8758 10.1243 29.8758 2.11563 20 2.11563ZM24.4453 23.6231C23.4346 28.3426 20.3083 32.4454 20.1285 32.7196H20.137C20.0514 32.5226 18.0128 29.8501 16.668 26.3726C15.6573 31.1006 12.5309 35.2033 12.3511 35.4775H12.3596C12.2311 35.1776 7.72579 29.379 7.72579 23.5889V13.5846H15.5117V10.8351H23.289V8.07709H32.5395V18.0728C32.5395 23.863 28.1284 29.636 27.9141 29.9615H27.9227C27.8374 29.7645 25.7901 27.1006 24.4453 23.6231ZM9.19058 15.0578V23.743C9.19058 28.1199 12.1713 32.1199 12.3597 32.4283C12.5396 32.1198 15.5118 28.1199 15.5118 23.743V15.0578H9.19058ZM16.9764 12.2998V20.985C16.9764 25.3704 19.9572 29.3704 20.137 29.6702C20.3169 29.3704 23.2891 25.3704 23.2891 20.985V12.2998H16.9764ZM24.7539 9.54175V18.227C24.7539 22.621 27.7345 26.6124 27.9142 26.9122C28.1027 26.6123 31.0748 22.621 31.0748 18.227V9.54175H24.7539ZM25.0791 9.86724H30.7493V16.8308C30.7493 18.3469 30.698 19.2548 30.6467 19.7687L25.0791 9.86724ZM25.0791 13.9615L29.9101 22.4582C29.2677 24.1799 28.5311 25.3533 27.9228 26.3298C26.5696 24.3083 25.0791 21.1821 25.0791 18.3726V13.9615ZM17.3019 12.6253H22.9636V19.5889C22.9636 21.1049 22.9122 22.0128 22.8609 22.5268L17.3019 12.6253ZM17.3019 16.7109L22.1242 25.2077C21.4818 26.9293 20.7452 28.1113 20.1372 29.0878C18.801 27.0578 17.3019 23.94 17.3019 21.1306V16.7109ZM9.51606 15.3833H15.1863V22.3469C15.1863 23.863 15.1349 24.7709 15.0835 25.2762L9.51606 15.3833ZM9.51606 19.4689L14.3469 27.9657C13.7045 29.6875 12.9679 30.8694 12.3597 31.8458C11.015 29.816 9.51606 26.6895 9.51606 23.8886V19.4689Z" fill="#F6F6F3"/>
</svg>
