<svg width="40" height="40" viewBox="0 0 40 40" fill="none" xmlns="http://www.w3.org/2000/svg">
<path fill-rule="evenodd" clip-rule="evenodd" d="M20.016 8C8.97739 8 0 13.5302 0 20.3619C0 27.1411 8.97739 32.6918 20.016 32.6918C31.1161 32.6918 40 27.1411 40 20.3619C40 13.5301 31.1161 8 20.016 8ZM20.016 10.3699C30.3386 10.3699 38.687 14.8061 38.687 20.3619C38.687 25.8665 30.3386 30.3219 20.016 30.3219C9.76268 30.3219 1.40914 25.8665 1.40914 20.3619C1.40914 14.8061 9.76268 10.3699 20.016 10.3699ZM5.70054 15.7502V24.9415H8.07045V21.0665H12.0737V22.6997H8.58286V24.9415H13.0665L14.4116 24.0128V20.9384L13.803 20.3619L14.4116 19.8175V17.1914L13.1945 15.7502L5.70054 15.7502ZM15.3723 15.7502V20.2658L16.3651 21.2266L18.5749 21.1946V19.0169L18.1586 18.6326V15.7503H15.3723V15.7502ZM22.1617 15.7502V18.6325L21.7454 19.0168H19.0873V24.9416H21.8415V21.1945L23.9231 21.2265L24.9159 20.2978V15.7502H22.1617ZM25.8767 15.7502V24.9415H28.3747V18.0561H31.0969L31.8334 18.8888V22.6678H28.8872V24.9416H34.2995V17.3836L32.9224 15.7502L25.8767 15.7502ZM8.07045 17.992H12.0416V19.6253H8.07045V17.992Z" fill="#F6F6F3"/>
</svg>
