<svg width="40" height="40" viewBox="0 0 40 40" fill="none" xmlns="http://www.w3.org/2000/svg">
<path fill-rule="evenodd" clip-rule="evenodd" d="M25.7071 35.3021C26.1484 35.2495 26.6259 35.3948 27.1402 35.5513C28.0917 35.841 29.169 36.1689 30.3753 35.3523C30.5056 35.2654 30.8074 35.1106 31.126 34.9471L31.1261 34.947L31.1262 34.947L31.1262 34.947L31.1262 34.947L31.1263 34.9469C31.4043 34.8044 31.695 34.6552 31.8962 34.5387C31.6075 34.5638 31.2715 34.5456 30.8891 34.5249H30.8891H30.8891H30.889H30.889H30.8889H30.8889H30.8888C30.3178 34.494 29.6431 34.4575 28.8674 34.5511C27.9475 34.6576 26.7835 34.8202 25.7071 35.3021ZM24.7812 35.0204C26.7957 34.5321 28.6107 32.8799 29.2118 31.1969C28.8202 31.4747 28.4991 31.6078 28.1759 31.7417C27.6982 31.9397 27.216 32.1395 26.4955 32.8113C26.3176 32.9741 26.1271 33.2724 25.9125 33.6087C25.5992 34.0996 25.2343 34.6713 24.7812 35.0204ZM11.9588 2.59832C12.4844 2.59832 13.0039 2.57333 13.4106 2.50441C14.4971 2.31831 15.2603 1.7196 15.7909 1.30337L15.7909 1.30336L15.7909 1.30335C15.9203 1.20184 16.0359 1.11118 16.1389 1.04001C13.9425 0.81509 12.8035 1.5661 11.9588 2.59832ZM10.0062 4.22554C10.4379 4.25685 10.8635 4.26947 11.1949 4.23185C12.3152 4.11296 13.1662 3.48085 13.5103 3.16808C12.0901 2.90503 10.8259 3.34327 10.0062 4.22554ZM5.64454 6.80371C5.71951 6.7098 6.30164 6.19684 6.63334 5.91512C7.73151 4.98549 8.18238 3.86693 8.40653 3.31086L8.40657 3.31075C8.42381 3.268 8.4397 3.22857 8.45444 3.19281C6.71463 4.01274 5.94469 5.17673 5.64454 6.80371ZM7.27782 5.9651C7.69081 5.9651 8.09774 5.94642 8.41683 5.89013C9.48061 5.70231 10.2566 5.0389 10.5633 4.71982C9.18651 4.56356 8.07881 4.98892 7.27782 5.9651ZM5.07504 8.54983C5.32893 8.4268 5.57269 8.3642 5.80483 8.30458L5.80484 8.30458C5.93899 8.27013 6.06926 8.23668 6.19536 8.19313C7.15659 7.87272 7.81808 7.24349 8.29809 6.78689C8.38989 6.69957 8.47505 6.61856 8.55441 6.54723C6.6394 6.61589 5.87603 7.21064 5.07504 8.54983ZM8.77352 4.20055C10.5133 3.64998 11.1891 2.74246 11.8899 1.43458C9.99987 2.04144 9.33041 2.72353 8.77352 4.20055ZM2.33405 16.2217C2.35401 16.1958 2.38858 16.1375 2.43432 16.0603C2.53211 15.8953 2.68096 15.6442 2.84726 15.4394C3.67955 14.4195 4.26774 13.0927 4.56814 11.9976C3.11005 12.8426 2.19647 14.1378 2.33405 16.2217ZM3.07269 25.7212C2.60946 24.1445 1.40811 22.6427 0 21.3657C0.0562939 21.5535 0.175193 22.0667 0.244108 22.586C0.415535 23.9831 1.58912 24.7387 2.4537 25.2954L2.45375 25.2955C2.69298 25.4495 2.90856 25.5883 3.07269 25.7212ZM7.55399 30.0571L7.55398 30.0571C7.40629 29.5882 7.23373 29.0403 6.97742 28.5496C6.70378 28.0314 6.45777 27.7196 6.19847 27.3908C6.01307 27.1558 5.82088 26.9121 5.60693 26.5783C5.24392 28.719 6.77698 30.0205 7.84101 30.865C7.74442 30.6617 7.65502 30.3779 7.55399 30.0571ZM10.4875 31.9971L10.4875 31.9971C10.2473 31.5306 10.0092 31.0681 9.75602 30.8023C9.30369 30.3202 9.01549 30.093 8.75418 29.8869C8.46598 29.6597 8.2105 29.4582 7.80365 28.9691C8.1914 31.0406 9.31778 32.5109 11.2515 33.2371C10.9823 32.9582 10.7338 32.4755 10.4875 31.9971ZM5.10634 29.1191C4.33665 27.6297 2.79097 26.3783 1.13269 25.3646C1.14853 25.3952 1.16987 25.4355 1.19543 25.4839L1.19554 25.4841L1.19592 25.4848L1.19606 25.4851C1.32226 25.7238 1.55055 26.1557 1.72719 26.5662C2.31537 27.8925 3.72954 28.6374 5.10634 29.1191ZM10.9387 33.9255C9.24822 32.7306 7.52226 32.4628 6.21528 32.2601L6.21517 32.26C5.8724 32.2069 5.55846 32.1582 5.28153 32.0984C5.44436 32.2173 5.91364 32.6239 6.31426 32.9804C7.21117 33.7809 8.28795 33.7954 9.36577 33.8099C9.89696 33.8171 10.4284 33.8243 10.9387 33.9255ZM8.17903 31.9916C6.60776 30.2051 4.59084 29.5633 3.30976 29.1556C3.28473 29.1476 3.25998 29.1398 3.23551 29.132C3.3094 29.2125 3.4523 29.4099 3.61773 29.6384L3.61777 29.6384C3.74679 29.8166 3.8895 30.0138 4.02388 30.1892C4.88583 31.3161 6.10541 31.5444 7.11638 31.7337C7.51447 31.8082 7.88021 31.8767 8.17903 31.9916ZM5.03111 27.8112C5.01614 27.6569 4.99303 27.5047 4.97013 27.3539C4.92626 27.0649 4.88317 26.7811 4.89959 26.4972C4.97055 25.2825 4.58415 24.5549 4.2527 23.9307C4.05825 23.5646 3.8827 23.234 3.8295 22.8616C3.38546 24.4633 3.60433 25.9025 5.03111 27.8112ZM3.0222 23.7494L3.02221 23.7493C3.06682 23.3258 3.10661 22.948 3.19159 22.5923C3.45096 21.5263 3.38229 20.8398 3.29672 19.9843C3.27077 19.7249 3.24327 19.45 3.22289 19.1442C2.01497 20.9653 2.1528 22.3358 2.99746 23.9817C3.00606 23.9027 3.01421 23.8253 3.0222 23.7494ZM1.67089 22.2921C1.65196 20.5523 1.29527 18.5936 0.00605858 16.9417C0.0702738 17.3718 0.0515841 17.834 0.0326027 18.3033C-0.00945395 19.3433 -0.0529426 20.4188 0.800737 21.2594C0.94858 21.4037 1.11082 21.6095 1.27107 21.8127C1.40935 21.9881 1.54613 22.1616 1.67089 22.2921ZM2.06495 19.6574C2.08277 19.6325 2.11121 19.5817 2.14856 19.5151C2.24247 19.3475 2.39269 19.0794 2.57185 18.8688C3.35059 17.9683 3.50326 17.1556 3.65011 16.3738C3.71453 16.0309 3.77783 15.6939 3.89236 15.3581C2.71574 16.4721 1.91475 17.3796 2.06495 19.6574ZM1.92106 14.1444C2.72205 12.4298 3.11005 10.9904 2.74704 9.21299C2.64467 9.46605 2.4952 9.72743 2.3373 10.0036C1.98358 10.6222 1.58749 11.3149 1.5833 12.1542C1.5833 12.4965 1.71736 13.1141 1.81687 13.5725C1.88105 13.8682 1.93086 14.0977 1.92106 14.1444ZM1.39548 18.1554C1.4299 17.907 1.46545 17.6741 1.49935 17.4519C1.73026 15.9388 1.88459 14.9274 1.08246 12.9741C1.03377 13.2017 0.947391 13.4612 0.853103 13.7444C0.535319 14.6989 0.127642 15.9234 0.769687 17.1105C0.858037 17.2743 0.965883 17.4317 1.06806 17.5808C1.21171 17.7903 1.34415 17.9835 1.39548 18.1554ZM3.27893 11.9603C3.36653 11.879 3.99864 11.4284 4.35533 11.1906C5.53783 10.389 6.10886 9.33197 6.39679 8.79899C6.42124 8.75373 6.44364 8.71226 6.46421 8.67504C4.64337 9.30058 3.75453 10.377 3.27893 11.9603ZM3.35416 10.1642C4.32403 9.00018 5.01874 7.30429 5.05005 5.79622C4.9011 6.02526 4.68693 6.24969 4.47722 6.46946C4.34322 6.60988 4.21104 6.7484 4.09886 6.88499C3.81082 7.23538 3.31024 7.96139 3.26656 9.03148C3.26084 9.21323 3.28733 9.37566 3.3139 9.53861C3.3459 9.73482 3.37802 9.9318 3.35416 10.1642ZM28.0412 2.59832C27.1965 1.56584 26.0578 0.81509 23.8611 1.04027C23.9641 1.11143 24.0796 1.20206 24.209 1.30354C24.7395 1.71972 25.5027 2.31836 26.5897 2.50467C26.99 2.57333 27.5156 2.59832 28.0412 2.59832ZM29.9878 4.22554C29.1678 3.34327 27.9102 2.90529 26.4892 3.16808C26.8275 3.4811 27.6848 4.11296 28.7985 4.23185C29.1363 4.26947 29.5619 4.25685 29.9878 4.22554ZM34.3494 6.80371C34.0493 5.17673 33.2854 4.01274 31.5395 3.19281C31.5577 3.23546 31.5774 3.28333 31.599 3.33584C31.8315 3.89973 32.2847 4.99901 33.3667 5.91512C33.692 6.19684 34.2744 6.7098 34.3494 6.80371ZM32.7222 5.9651C31.9209 4.98892 30.8135 4.56331 29.4364 4.71982C29.7431 5.03916 30.5191 5.70231 31.5832 5.89013C31.9023 5.94642 32.3089 5.9651 32.7222 5.9651ZM34.9187 8.54983C34.1174 7.21064 33.3606 6.61614 31.4456 6.54723C31.5259 6.61943 31.612 6.70154 31.7048 6.79008C32.1831 7.24636 32.8402 7.87326 33.8049 8.19313C33.9298 8.23616 34.0587 8.26936 34.1911 8.30346C34.4238 8.36339 34.6673 8.4261 34.9187 8.54983ZM31.2267 4.20055C30.6696 2.72378 30.0001 2.04169 28.1101 1.43458C28.8109 2.74246 29.4869 3.64973 31.2267 4.20055ZM37.6596 16.2217C37.7972 14.1378 36.8836 12.8426 35.4255 11.9979C35.7257 13.093 36.3204 14.4198 37.1527 15.4397C37.3319 15.6601 37.4908 15.9345 37.5849 16.097L37.585 16.097C37.6191 16.1559 37.6447 16.2001 37.6596 16.2217ZM36.921 25.7212C37.085 25.5895 37.299 25.452 37.5361 25.2996C38.4029 24.7425 39.5791 23.9866 39.7559 22.586C39.8185 22.0667 39.9437 21.5535 40 21.3657C38.5919 22.6425 37.3903 24.1443 36.921 25.7212ZM32.1592 30.865C33.2167 30.0203 34.7561 28.7187 34.3868 26.5785C34.174 26.9146 33.981 27.1594 33.7945 27.3959L33.7945 27.396L33.7944 27.396C33.5367 27.723 33.2912 28.0343 33.0226 28.5498C32.7606 29.044 32.5882 29.5961 32.4411 30.0672C32.3422 30.3838 32.2547 30.6638 32.1592 30.865ZM28.7483 33.2371C30.6762 32.5109 31.8086 31.0406 32.1966 28.9694C31.7882 29.46 31.5323 29.6612 31.2419 29.8894C30.9806 30.0949 30.6913 30.3223 30.2377 30.8026C29.9893 31.0664 29.7543 31.5243 29.5167 31.9874C29.2695 32.469 29.0194 32.9563 28.7483 33.2371ZM34.8937 29.1191C36.2707 28.6374 37.6849 27.8925 38.2665 26.5662C38.4532 26.1453 38.6849 25.7019 38.8075 25.4673L38.8075 25.4672L38.8076 25.4671C38.829 25.4262 38.8471 25.3915 38.861 25.3646C37.209 26.3783 35.6633 27.6297 34.8937 29.1191ZM30.6339 33.8099H30.6339C31.7112 33.7954 32.7867 33.7809 33.6797 32.9804C34.0801 32.6239 34.5559 32.2173 34.7185 32.0984C34.4413 32.158 34.1278 32.2065 33.7861 32.2595C32.4772 32.4623 30.7534 32.7295 29.0613 33.9255C29.5716 33.8243 30.103 33.8171 30.6339 33.8099ZM31.821 31.9916C32.1197 31.8767 32.4854 31.8082 32.8835 31.7337C33.8945 31.5444 35.1142 31.316 35.9764 30.1889C36.1112 30.013 36.2544 29.8152 36.3838 29.6366L36.384 29.6364L36.3842 29.6361L36.3844 29.6359L36.3845 29.6358L36.3846 29.6356L36.3846 29.6355L36.3849 29.6351L36.3852 29.6348C36.5496 29.4078 36.6915 29.212 36.7647 29.1317C36.738 29.1402 36.7109 29.1489 36.6835 29.1576C35.4016 29.5659 33.3835 30.2086 31.821 31.9916ZM34.9626 27.8112C36.3894 25.9025 36.6143 24.4633 36.17 22.8616C36.1148 23.2322 35.9402 23.5613 35.7471 23.9253C35.4154 24.5507 35.029 25.2791 35.1002 26.4972C35.1172 26.7893 35.071 27.0814 35.024 27.3791C35.0014 27.5216 34.9787 27.6655 34.9626 27.8112ZM36.9965 23.9817C37.8475 22.3358 37.985 20.9653 36.7776 19.1442C36.757 19.4521 36.7293 19.7287 36.7031 19.9897L36.7031 19.9898C36.6174 20.8427 36.5486 21.5286 36.8024 22.5923C36.9023 23.0118 36.9462 23.4619 36.9965 23.9817ZM38.698 21.846L38.6981 21.8459C38.8662 21.6322 39.0397 21.4117 39.1993 21.2594C40.0497 20.4216 40.0065 19.3505 39.9648 18.3138C39.9457 17.8408 39.9269 17.3749 39.9934 16.9417C38.6984 18.5936 38.3478 20.5523 38.3291 22.2921C38.4432 22.1699 38.569 22.01 38.698 21.846ZM37.9353 19.6574C38.0852 17.3796 37.2845 16.4721 36.1081 15.3581C36.2228 15.6948 36.2861 16.0326 36.3505 16.3764C36.4967 17.1574 36.6488 17.9693 37.4221 18.8688C37.6017 19.0803 37.7559 19.3499 37.8516 19.5173L37.8517 19.5173L37.8518 19.5176L37.8518 19.5176C37.8892 19.583 37.9177 19.6328 37.9353 19.6574ZM38.0729 14.1444C38.066 14.1004 38.1113 13.8937 38.1708 13.6221C38.2721 13.1596 38.4146 12.5092 38.4106 12.1544C38.4066 11.3132 38.0117 10.6191 37.659 9.9994L37.659 9.99936C37.5028 9.72482 37.3549 9.46489 37.253 9.21324C36.8899 10.9904 37.2779 12.4296 38.0729 14.1444ZM38.6048 18.1554C38.6562 17.9821 38.7882 17.7871 38.9314 17.5755L38.9314 17.5755C39.0313 17.428 39.1367 17.2723 39.224 17.1103C39.869 15.9173 39.458 14.6867 39.1385 13.7301L39.1385 13.73C39.0458 13.4523 38.9607 13.1977 38.9115 12.9738C38.1148 14.9264 38.2694 15.9378 38.5004 17.4495L38.5005 17.4499C38.5345 17.6726 38.5702 17.9063 38.6048 18.1554ZM36.715 11.9603C36.2457 10.3772 35.3566 9.30058 33.5358 8.67504C33.5563 8.71222 33.5787 8.75365 33.6031 8.79886L33.6034 8.79927C33.8913 9.33235 34.4622 10.3891 35.6447 11.1906C36.0014 11.4284 36.6335 11.879 36.715 11.9603ZM36.6458 10.1642C36.6222 9.9352 36.6529 9.7407 36.6835 9.54748C36.7097 9.38155 36.7358 9.21657 36.7271 9.03148C36.6898 7.96139 36.1892 7.23538 35.9014 6.88499C35.787 6.74568 35.6517 6.60438 35.5145 6.4611C35.3067 6.244 35.0944 6.02235 34.9439 5.79622C34.9813 7.30429 35.6697 9.00018 36.6458 10.1642ZM26.1638 39.5574C26.4019 39.6072 26.5331 39.5388 26.6646 39.4385C26.7583 39.3759 26.9398 39.1255 27.065 38.9503C23.2731 38.7186 21.1829 37.4667 19.5994 36.0902C19.3057 35.8344 18.9907 35.5439 18.6788 35.2562L18.6788 35.2561C18.1133 34.7345 17.5581 34.2223 17.1588 33.944C16.5397 33.512 15.8648 33.341 15.2935 33.1962L15.2935 33.1962C14.8715 33.0892 14.506 32.9965 14.2613 32.8236C14.9497 34.0066 16.0011 35.0951 17.3466 35.7711C17.6094 35.9024 17.7344 36.2404 17.2777 36.0649C16.0198 35.5767 13.5229 35.7835 12.0025 36.591C12.4174 36.6779 12.8679 36.8477 13.3491 37.029C14.08 37.3045 14.8818 37.6067 15.7383 37.6861C16.3385 37.7452 16.8908 37.6326 17.4744 37.5137C18.065 37.3933 18.6876 37.2665 19.4242 37.3044C20.3103 37.3511 20.8565 37.6107 21.6377 37.9819C22.5391 38.4103 23.7533 38.9874 26.1638 39.5574ZM14.2302 35.3021C13.1541 34.8204 11.9898 34.6576 11.07 34.5511C10.2941 34.4575 9.61938 34.494 9.04834 34.5249H9.04829H9.04825H9.0482H9.04816H9.04813H9.04809H9.04805C8.66568 34.5456 8.32981 34.5638 8.04119 34.5387C8.24199 34.6549 8.5322 34.8039 8.80977 34.9463C9.12891 35.11 9.43133 35.2652 9.56189 35.3523C10.7682 36.1687 11.8455 35.8409 12.7969 35.5513C13.3113 35.3948 13.7889 35.2495 14.2302 35.3021ZM15.1564 35.0203C14.7034 34.6713 14.3385 34.0997 14.0252 33.6088C13.8105 33.2724 13.6199 32.974 13.4419 32.811C12.7181 32.1397 12.2367 31.9397 11.7606 31.7419C11.4379 31.6078 11.1176 31.4747 10.7259 31.1967C11.3267 32.8802 13.1412 34.5324 15.1564 35.0203ZM19.9874 11.6536C22.409 11.6536 24.8685 12.1855 26.5897 13.149H13.3727C15.2188 12.1855 17.5594 11.6536 19.9874 11.6536ZM26.1017 7.45475C27.009 7.45475 27.7534 8.13659 27.8663 9.0128C28.1664 8.78132 28.5423 8.64348 28.9487 8.64348C29.931 8.64348 30.7256 9.44447 30.7256 10.427C30.7256 11.228 30.1877 11.91 29.4556 12.1292V13.7185H32.7156L29.5679 17.1042V25.4837C29.5679 26.8979 29.0358 27.9306 27.221 28.156C25.9337 28.3192 24.4934 28.4788 23.4574 28.5936L23.4566 28.5937C23.103 28.6329 22.7965 28.6669 22.5592 28.694C21.3452 28.8316 20.6881 29.0259 19.9934 30.0332C19.2927 29.0257 18.6293 28.8316 17.4153 28.694C17.1637 28.665 16.8322 28.6283 16.4483 28.5857L16.4468 28.5855C15.4173 28.4714 14.0107 28.3154 12.7532 28.156C10.9448 27.9306 10.4129 26.8979 10.4129 25.4837V17.0919L7.2339 13.719H10.5255V12.1357C9.78707 11.9166 9.24887 11.2345 9.24887 10.4272C9.24874 10.1938 9.29462 9.9626 9.3839 9.74691C9.47318 9.53122 9.6041 9.33524 9.76918 9.17018C9.93426 9.00513 10.1303 8.87423 10.346 8.78498C10.5617 8.69574 10.7929 8.64988 11.0263 8.65005C11.4456 8.65005 11.8273 8.78763 12.1277 9.03174C12.2342 8.14315 12.985 7.45475 13.8988 7.45475C14.1416 7.45564 14.3817 7.50602 14.6044 7.60281C14.8271 7.6996 15.0277 7.84076 15.1941 8.01769C15.4003 7.27299 16.089 6.72242 16.9086 6.72242C17.2006 6.72255 17.4881 6.79456 17.7456 6.9321C18.0032 7.06963 18.2229 7.26847 18.3854 7.51104C18.6671 6.89787 19.2866 6.47226 20 6.47226C20.7131 6.47226 21.3266 6.89762 21.608 7.50473C21.772 7.26396 21.9923 7.06685 22.2497 6.93052C22.5072 6.79418 22.794 6.72275 23.0853 6.72242C23.4733 6.72154 23.851 6.84767 24.1606 7.08154C24.4703 7.31542 24.6949 7.6442 24.8001 8.01769C24.9673 7.8401 25.1689 7.69856 25.3928 7.60175C25.6166 7.50494 25.8578 7.45492 26.1017 7.45475ZM23.2229 37.5798C22.6158 37.5548 21.7146 37.292 20.5884 36.153C21.1092 35.7846 21.4673 35.3291 21.8082 34.8953C22.139 34.4745 22.4536 34.0743 22.8849 33.794C23.3306 33.5029 23.7443 33.388 24.1842 33.2659C24.6334 33.1412 25.1098 33.009 25.6756 32.6737C24.762 34.257 23.8237 35.0077 22.5092 35.6966C22.253 35.8342 22.2588 36.1157 22.7036 35.9465C23.8737 35.4836 25.8197 35.6527 27.9728 36.4474C27.4296 36.5197 26.8969 36.7253 26.33 36.944C25.819 37.1412 25.2801 37.3492 24.6807 37.4799C24.168 37.5922 23.7045 37.6051 23.2229 37.5798ZM17.8974 37.8174C18.1352 37.7548 18.5419 37.7237 18.9988 37.78C18.2889 37.9829 17.6172 38.2405 16.9338 38.5026C15.888 38.9036 14.8149 39.3152 13.5355 39.5572C13.4293 39.5759 13.304 39.5822 13.2165 39.5133C13.1225 39.4507 13.0352 39.3444 12.7409 38.9503C14.1903 38.9122 15.6471 38.477 16.8451 38.1192C17.2247 38.0058 17.5783 37.9002 17.8974 37.8174ZM19.9876 11.0028C16.6708 11.0028 13.3606 11.9603 11.1139 13.7251H28.8737C26.6959 11.9413 23.2918 11.0028 19.9876 11.0028ZM12.3089 10.8276L12.0961 12.4922L10.4066 11.5973C10.1651 11.4695 9.96859 11.2707 9.84361 11.0278C9.51191 10.377 9.76233 9.57599 10.4131 9.24429C11.0639 8.90652 11.8649 9.163 12.2027 9.81379C12.2653 9.939 12.3089 10.0703 12.3342 10.2018C12.4911 10.1312 12.6496 10.0645 12.8098 10.0016C12.7333 9.88925 12.6723 9.76716 12.6283 9.6386C12.5728 9.47303 12.5506 9.29811 12.5631 9.12394C12.5756 8.94977 12.6225 8.7798 12.7011 8.62385C12.7796 8.4679 12.8883 8.32906 13.0208 8.21536C13.1534 8.10165 13.3071 8.01534 13.4732 7.96139C14.1676 7.73596 14.9187 8.11159 15.1438 8.80605C15.1878 8.94363 15.2127 9.07515 15.2127 9.21273C15.2453 9.20432 15.2776 9.1959 15.3097 9.18752L15.3097 9.18751L15.3097 9.18751L15.3098 9.18751L15.3098 9.1875L15.3098 9.1875L15.3098 9.1875C15.4445 9.15236 15.5768 9.11788 15.7131 9.08752C15.6547 8.96415 15.6126 8.83373 15.5879 8.69952C15.534 8.35208 15.6194 7.99741 15.8257 7.71266C16.032 7.42792 16.3423 7.23615 16.6893 7.17908C17.0369 7.124 17.3922 7.20901 17.6773 7.41547C17.9623 7.62193 18.1539 7.933 18.21 8.28048C18.2286 8.41805 18.2286 8.55563 18.21 8.69347C18.3828 8.67577 18.556 8.66121 18.7295 8.64979C18.6859 8.51872 18.6647 8.38123 18.6669 8.24311C18.6669 7.51104 19.2614 6.91655 19.9934 6.91655C20.7192 6.91655 21.3137 7.51079 21.3137 8.24311C21.3137 8.387 21.2885 8.52484 21.2511 8.64979L21.284 8.65225C21.4429 8.66408 21.6061 8.67623 21.7643 8.69347C21.7456 8.55644 21.7456 8.4175 21.7643 8.28048C21.8212 7.93345 22.0129 7.62296 22.2977 7.41666C22.5825 7.21036 22.9373 7.12497 23.2847 7.17908C23.6322 7.2351 23.9433 7.42661 24.1497 7.71163C24.3562 7.99665 24.4412 8.35192 24.3861 8.69952C24.3609 8.8371 24.3235 8.96862 24.2609 9.08752C24.359 9.1092 24.457 9.13308 24.5537 9.15666L24.5538 9.15669C24.6238 9.17375 24.693 9.19064 24.7613 9.20642C24.7676 9.07515 24.7865 8.94363 24.8302 8.80605C24.9415 8.47225 25.1804 8.19607 25.4947 8.03782C25.809 7.87956 26.1732 7.85209 26.5076 7.96139C27.2018 8.19288 27.5775 8.93757 27.3523 9.6386C27.3086 9.76849 27.2453 9.89091 27.1645 10.0016C27.289 10.0495 27.41 10.1011 27.5328 10.1534L27.5329 10.1535L27.533 10.1535L27.533 10.1535L27.5353 10.1545C27.5722 10.1702 27.6093 10.186 27.6466 10.2018C27.6668 10.0665 27.709 9.93548 27.7713 9.81379C28.1096 9.163 28.9103 8.90652 29.5611 9.24429C29.7161 9.32351 29.8538 9.43262 29.9664 9.56531C30.079 9.69801 30.1642 9.85168 30.2172 10.0175C30.2701 10.1833 30.2897 10.3579 30.2749 10.5313C30.26 10.7047 30.211 10.8734 30.1306 11.0278C30.0057 11.2708 29.8092 11.4696 29.5677 11.5973L27.8844 12.4922L27.6651 10.8276C27.3484 10.6818 27.0271 10.5462 26.7018 10.4209L25.3626 11.4347L24.8867 9.82641C24.5498 9.73248 24.2095 9.65106 23.8666 9.5823L22.7089 10.7965L21.9832 9.28215C21.6355 9.2454 21.2869 9.2183 20.9378 9.20087L19.9932 10.5777L19.042 9.20087C18.6908 9.21832 18.3402 9.24542 17.9906 9.28215L17.2709 10.7965L16.1069 9.5823C15.7628 9.65122 15.4248 9.73882 15.0868 9.82641L14.6112 11.4347L13.272 10.4209C12.9476 10.5522 12.6283 10.6837 12.3089 10.8276ZM11.1389 24.3071H15.3253V21.2468H11.1389V24.3071ZM17.9224 28.0427C18.7423 28.1305 19.4994 28.5056 19.8374 28.7937V24.6383H15.657V27.7862C15.8188 27.8044 15.9921 27.8238 16.1701 27.8437L16.1717 27.8438C16.7922 27.9133 17.4706 27.9892 17.9224 28.0427ZM28.8677 25.2078V23.7499H20.1628V25.2078H28.8677ZM28.8677 23.4246V21.2407H20.1628V23.4246H28.8677ZM19.8374 18.7249V20.9151H11.1389V18.7249H19.8374ZM19.8374 16.9477L11.1389 16.9414V18.4058H19.8374V16.9477ZM20.1628 25.5274V28.7816C20.5006 28.4998 21.2392 28.1305 22.0776 28.0364C22.7271 27.9621 23.841 27.8384 24.8926 27.7216L24.8962 27.7212L24.8967 27.7212L24.9046 27.7203L24.909 27.7198L24.9202 27.7185C25.8039 27.6204 26.6402 27.5275 27.1155 27.4734C28.4668 27.3172 28.8298 26.6477 28.8677 25.5274H20.1628ZM28.8677 20.9151H24.6807V17.8363H28.8677V20.9151ZM19.8374 23.2372H15.657V22.3295H19.8374V23.2372ZM24.3553 19.8263H20.1628V18.9316H24.3553V19.8263ZM29.2365 16.4345H24.6807V15.5396H30.0751L29.2365 16.4345ZM11.1389 25.7276H15.3253V26.6348H11.3577C11.2015 26.3847 11.1639 26.0716 11.1389 25.7276ZM20.1502 17.5046H24.3364V14.4319H20.1502V17.5046ZM19.8248 16.616V14.4319H8.8798L10.945 16.616H19.8248ZM11.9212 15.2205C11.821 15.2329 11.7773 15.1516 11.8586 15.0953L11.8662 15.0899L11.8755 15.0833L11.8837 15.0774L11.8947 15.0696L11.9053 15.0621C11.9751 15.0125 12.0398 14.9665 12.0961 14.9201C12.1774 14.8515 12.3339 14.8139 12.4152 14.8701C12.5028 14.9264 12.5028 15.1016 12.4528 15.2455C12.4341 15.2894 12.4215 15.3334 12.4152 15.377C12.3902 15.4709 12.4341 15.5023 12.5467 15.4646C12.5897 15.4541 12.6644 15.4251 12.736 15.3973L12.7369 15.397L12.7378 15.3967C12.7494 15.3922 12.7609 15.3877 12.7722 15.3834C12.9698 15.3009 13.0905 15.3198 13.2355 15.3426L13.2357 15.3426L13.2359 15.3427C13.2559 15.3458 13.2765 15.349 13.2977 15.3521C13.3853 15.3707 13.4666 15.3707 13.5169 15.3457C13.5321 15.3365 13.5532 15.3274 13.5759 15.3176L13.576 15.3175L13.576 15.3175L13.576 15.3175C13.6 15.3071 13.6258 15.296 13.6484 15.2831C13.7297 15.2329 13.8549 15.2892 13.7673 15.4207C13.759 15.4373 13.7453 15.4627 13.7297 15.4915C13.6981 15.5501 13.6588 15.6229 13.6421 15.6648C13.5355 15.8963 13.398 16.0904 12.96 16.1467C12.8411 16.1657 12.4591 16.1657 12.2589 16.1467C12.0648 16.1344 11.9399 15.9778 11.9898 15.7524C11.9917 15.7461 11.9935 15.7398 11.9953 15.7337C11.9979 15.725 12.0005 15.7165 12.003 15.7081L12.0033 15.7073L12.0034 15.7071C12.0237 15.6401 12.0423 15.5786 12.0525 15.4709C12.0651 15.3521 12.0588 15.2016 11.9212 15.2205ZM16.6019 15.2205C16.4956 15.2329 16.452 15.1516 16.5332 15.0953C16.5382 15.0918 16.5432 15.0882 16.5481 15.0847C16.5602 15.0761 16.5721 15.0676 16.5839 15.0592L16.5845 15.0588C16.6524 15.0105 16.7157 14.9655 16.7705 14.9201C16.8518 14.8515 17.0083 14.8139 17.0959 14.8701C17.1775 14.9264 17.1838 15.1016 17.1272 15.2455L17.0899 15.377C17.0712 15.4709 17.1088 15.5023 17.2214 15.4646C17.2643 15.4541 17.3391 15.4251 17.4106 15.3974L17.4107 15.3973L17.4107 15.3973L17.414 15.3961L17.4292 15.3902C17.4351 15.3879 17.441 15.3856 17.4468 15.3834C17.6438 15.3013 17.764 15.3197 17.9123 15.3423L17.9125 15.3423L17.9127 15.3423C17.934 15.3456 17.9559 15.3489 17.9787 15.3521C18.0663 15.3707 18.1413 15.3707 18.1915 15.3457C18.2086 15.3354 18.233 15.3252 18.2599 15.314L18.2599 15.314C18.2823 15.3046 18.3064 15.2945 18.3291 15.2831C18.4106 15.2329 18.5293 15.2892 18.448 15.4207C18.4167 15.471 18.348 15.6022 18.3167 15.6648C18.2105 15.8963 18.0726 16.0904 17.6346 16.1467C17.5157 16.1657 17.1341 16.1657 16.9339 16.1467C16.7461 16.1344 16.6145 15.9778 16.6708 15.7524C16.6772 15.723 16.6849 15.6965 16.6929 15.6692C16.7086 15.6151 16.7252 15.5582 16.7334 15.4709C16.7395 15.3521 16.7395 15.2016 16.6019 15.2205ZM19.9937 8.9565C20.3817 8.9565 20.7008 8.63742 20.7008 8.24311C20.7008 7.8488 20.3817 7.52972 19.9937 7.52972C19.9 7.52969 19.8072 7.54811 19.7206 7.58395C19.6341 7.61979 19.5554 7.67234 19.4892 7.73859C19.4229 7.80484 19.3704 7.8835 19.3345 7.97007C19.2987 8.05664 19.2803 8.14942 19.2803 8.24311C19.2802 8.33681 19.2986 8.42961 19.3345 8.51619C19.3703 8.60278 19.4228 8.68145 19.4891 8.7477C19.5554 8.81396 19.634 8.86651 19.7206 8.90234C19.8072 8.93816 19.9 8.95657 19.9937 8.9565ZM17.0152 9.20061C17.2032 9.16933 17.3713 9.06492 17.4827 8.91018C17.5941 8.75543 17.6397 8.56291 17.6097 8.37463C17.5784 8.18654 17.474 8.01845 17.3193 7.9071C17.1645 7.79575 16.9719 7.7502 16.7837 7.78039C16.5956 7.81167 16.4275 7.91608 16.3162 8.07083C16.2048 8.22557 16.1591 8.41809 16.1892 8.60637C16.2515 8.99387 16.6206 9.26297 17.0152 9.20061ZM14.1114 9.90138C14.2003 9.87209 14.2826 9.82549 14.3535 9.76425C14.4243 9.70302 14.4824 9.62836 14.5243 9.54459C14.5662 9.46082 14.5911 9.36959 14.5975 9.27615C14.604 9.18271 14.5919 9.08892 14.562 9.00018C14.5333 8.91072 14.4871 8.82784 14.4261 8.75634C14.3652 8.68484 14.2906 8.62615 14.2069 8.58365C14.1231 8.54116 14.0317 8.51571 13.938 8.50877C13.8443 8.50184 13.7501 8.51356 13.661 8.54326C13.4815 8.60296 13.3327 8.73112 13.2472 8.89988C13.1616 9.06864 13.1461 9.26435 13.2041 9.44447C13.329 9.8201 13.736 10.0266 14.1114 9.90138ZM11.3517 11.053C11.5181 10.9655 11.6431 10.8156 11.6994 10.6362C11.7557 10.4568 11.7387 10.2624 11.6521 10.0955C11.4769 9.75144 11.045 9.6136 10.7009 9.79511C10.6176 9.83666 10.5434 9.89443 10.4828 9.96503C10.4221 10.0356 10.3761 10.1176 10.3476 10.2062C10.319 10.2948 10.3084 10.3882 10.3164 10.481C10.3244 10.5737 10.3509 10.6639 10.3942 10.7463C10.5757 11.0967 11.0013 11.228 11.3517 11.053ZM22.9664 9.18799C23.3481 9.2506 23.7109 8.98781 23.7735 8.59981C23.8027 8.41568 23.7579 8.22747 23.6489 8.07623C23.5399 7.92498 23.3755 7.82299 23.1916 7.79251C23.0995 7.77757 23.0054 7.78094 22.9146 7.80245C22.8238 7.82395 22.7382 7.86316 22.6626 7.91783C22.587 7.9725 22.523 8.04155 22.4741 8.12102C22.4253 8.20049 22.3926 8.28882 22.378 8.38094C22.3156 8.76238 22.5784 9.12539 22.9664 9.18799ZM25.8634 9.90744C25.9538 9.93734 26.0492 9.94906 26.1441 9.94195C26.239 9.93484 26.3316 9.90902 26.4165 9.866C26.5014 9.82297 26.577 9.76357 26.6388 9.69123C26.7007 9.61889 26.7477 9.53503 26.777 9.44447C26.9022 9.06909 26.6957 8.66216 26.314 8.53695C25.9389 8.41174 25.5319 8.61824 25.4067 8.99387C25.3466 9.17558 25.3609 9.3737 25.4465 9.5449C25.5321 9.7161 25.682 9.84645 25.8634 9.90744ZM28.6236 11.0591C28.7931 11.1435 28.989 11.158 29.1691 11.0995C29.3493 11.0411 29.4993 10.9142 29.5869 10.7463C29.7684 10.3957 29.6308 9.9703 29.2802 9.7888C29.1968 9.74568 29.1057 9.71942 29.0121 9.71151C28.9186 9.7036 28.8244 9.71419 28.7349 9.74268C28.6454 9.77118 28.5625 9.81701 28.4907 9.87757C28.419 9.93813 28.3598 10.0122 28.3167 10.0956C28.2736 10.179 28.2474 10.2701 28.2394 10.3637C28.2315 10.4572 28.2421 10.5514 28.2706 10.6409C28.2991 10.7304 28.3449 10.8133 28.4055 10.8851C28.4661 10.9568 28.5402 11.016 28.6236 11.0591ZM21.4891 22.0351C21.3831 22.0538 21.3458 21.9667 21.4265 21.9104C21.5144 21.8478 21.5894 21.7915 21.6643 21.7352C21.7393 21.6726 21.8956 21.635 21.9834 21.6913C22.0647 21.7481 22.0713 21.9167 22.0145 22.0606C22.0099 22.0773 22.0052 22.0949 22.0005 22.1128L22.0005 22.1128L22.0005 22.1128C21.9929 22.1418 21.9851 22.1713 21.9771 22.1982C21.9584 22.2924 21.9958 22.3174 22.1152 22.28C22.1586 22.2671 22.2586 22.2361 22.3341 22.1982C22.5373 22.1137 22.6591 22.1359 22.8144 22.1642L22.8145 22.1642C22.8312 22.1673 22.8483 22.1704 22.8659 22.1735C22.9533 22.1858 23.0288 22.1858 23.0785 22.1606C23.0837 22.1585 23.0896 22.1563 23.096 22.1539C23.1285 22.1417 23.1746 22.1243 23.2166 22.098C23.2976 22.048 23.4168 22.1043 23.3355 22.2419C23.3039 22.2855 23.2355 22.4231 23.2103 22.4799C23.0972 22.7112 22.9662 22.9055 22.5219 22.9681C22.4027 22.9805 22.0273 22.9868 21.8208 22.9681C21.633 22.9495 21.5018 22.7927 21.5581 22.5673C21.5646 22.5367 21.5726 22.5092 21.5809 22.481C21.5962 22.4285 21.6123 22.3736 21.6207 22.2921C21.6272 22.1666 21.6272 22.0164 21.4891 22.0351ZM25.9073 22.0351C25.8074 22.0538 25.7634 21.9667 25.8447 21.9104C25.8575 21.9013 25.8702 21.8923 25.8827 21.8834C25.956 21.8314 26.0237 21.7833 26.0815 21.7352C26.163 21.6726 26.3198 21.635 26.4011 21.6913C26.4882 21.7481 26.4948 21.9167 26.4385 22.0606C26.4349 22.073 26.4308 22.0859 26.4267 22.0991C26.4162 22.1324 26.4053 22.167 26.4011 22.1982C26.3761 22.2924 26.42 22.3174 26.5324 22.28C26.5829 22.2671 26.6765 22.2361 26.7578 22.1982C26.9625 22.1132 27.0846 22.1362 27.2363 22.1647C27.2516 22.1676 27.2673 22.1706 27.2834 22.1735C27.3775 22.1858 27.4525 22.1858 27.5027 22.1606C27.5074 22.1587 27.5127 22.1567 27.5184 22.1546L27.5184 22.1546L27.5184 22.1546C27.5506 22.1423 27.5967 22.1248 27.634 22.098C27.7153 22.048 27.8405 22.1043 27.7592 22.2419C27.7277 22.2855 27.6529 22.4231 27.6277 22.4799C27.5217 22.7112 27.3841 22.9055 26.9459 22.9681C26.8272 22.9805 26.4455 22.9868 26.2448 22.9681C26.0575 22.9495 25.9258 22.7927 25.982 22.5673C25.9878 22.5406 25.9942 22.5162 26.0006 22.4917C26.0151 22.4358 26.0299 22.3791 26.0388 22.2921C26.0512 22.1666 26.0449 22.0164 25.9073 22.0351ZM14.4367 19.3883C14.3555 19.4446 14.3991 19.5322 14.4994 19.5198C14.6369 19.5009 14.6432 19.6513 14.6309 19.77C14.6207 19.8709 14.6025 19.9311 14.5828 19.9965C14.578 20.0123 14.5731 20.0284 14.5683 20.0454C14.5183 20.2769 14.6432 20.4271 14.8374 20.446C15.0376 20.4647 15.4132 20.4584 15.5318 20.446C15.9761 20.3834 16.1076 20.1893 16.2202 19.9578C16.2452 19.9013 16.3204 19.7637 16.3454 19.72C16.433 19.5824 16.3081 19.5261 16.2265 19.5761C16.1897 19.6024 16.1443 19.6197 16.1121 19.6321L16.112 19.6321C16.1058 19.6345 16.1001 19.6367 16.095 19.6387C16.045 19.664 15.9635 19.664 15.8759 19.6513C15.8483 19.6476 15.8222 19.6433 15.7969 19.6392C15.6558 19.6164 15.5413 19.5979 15.3501 19.6826C15.2997 19.702 15.2445 19.7214 15.1978 19.7378L15.1978 19.7379C15.1692 19.7479 15.1437 19.7568 15.1246 19.7639C15.0057 19.7952 14.9681 19.77 14.9931 19.6763C14.999 19.6309 15.0116 19.5865 15.0307 19.5448C15.0807 19.3946 15.0807 19.2257 14.9931 19.1694C14.9118 19.1131 14.7553 19.1508 14.674 19.2134C14.6056 19.2692 14.5243 19.3318 14.4367 19.3883ZM23.4731 26.3344C23.3665 26.3531 23.3292 26.2655 23.4105 26.2092C23.4983 26.1466 23.5733 26.0903 23.6422 26.0343C23.7235 25.9717 23.8797 25.9277 23.9676 25.984C24.0489 26.0466 24.0549 26.2158 23.9986 26.3597C23.9934 26.3786 23.988 26.3986 23.9826 26.4188C23.9755 26.4454 23.9683 26.4723 23.9613 26.4972C23.9426 26.5848 23.98 26.6159 24.0989 26.5785C24.1739 26.5575 24.2471 26.5303 24.3177 26.4972C24.5205 26.4129 24.6422 26.4348 24.797 26.4627C24.8141 26.4658 24.8316 26.4689 24.8496 26.472C24.9375 26.4849 25.0124 26.4849 25.0627 26.4596C25.0693 26.4569 25.077 26.4539 25.0856 26.4506C25.1174 26.4383 25.1607 26.4215 25.2002 26.397C25.2818 26.3468 25.4004 26.4033 25.3191 26.5346C25.2992 26.5666 25.2641 26.6339 25.2332 26.6931C25.2155 26.727 25.1992 26.7582 25.1879 26.7787C25.0813 27.0105 24.9498 27.2041 24.5055 27.2604C24.3869 27.2796 24.0052 27.2796 23.805 27.2667C23.6172 27.248 23.4854 27.0917 23.5417 26.8663C23.5481 26.8366 23.5559 26.8097 23.5639 26.782C23.5796 26.7283 23.5962 26.6715 23.6043 26.5848C23.6106 26.4659 23.6106 26.3157 23.4731 26.3344Z" fill="#F6F6F3"/>
</svg>
