<svg width="40" height="40" viewBox="0 0 40 40" fill="none" xmlns="http://www.w3.org/2000/svg">
<path fill-rule="evenodd" clip-rule="evenodd" d="M7.34946 11.0569C4.15514 13.3498 2.31214 16.4147 2.31214 19.6821C2.31214 21.6892 3.00761 23.6199 4.28456 25.3422L18.8886 7.33631C14.3489 7.53442 10.3029 8.93697 7.34946 11.0569ZM7.34946 28.3072C6.50952 27.7043 5.76301 27.0481 5.11888 26.3487H34.8811C34.237 27.0481 33.4905 27.7043 32.6505 28.3072C29.4581 30.5987 24.9892 32.052 20 32.052C15.0108 32.052 10.5419 30.5987 7.34946 28.3072ZM37.6879 19.6821C37.6879 21.693 36.9898 23.6273 35.7082 25.352L28.2839 16.3674C28.2227 19.081 26.0038 21.262 23.2755 21.262C20.5088 21.262 18.2659 19.0191 18.2659 16.2524C18.2659 13.4857 20.5088 11.2428 23.2755 11.2428C23.5584 11.2428 23.8357 11.2662 24.1058 11.3113L20.8118 7.32502C25.473 7.4732 29.6323 8.89045 32.6505 11.0569C35.8449 13.3498 37.6879 16.4147 37.6879 19.6821ZM6.0012 9.17857C9.62895 6.57461 14.582 5 20 5C25.418 5 30.3711 6.57461 33.9988 9.17857C37.6246 11.7812 40 15.4792 40 19.6821C40 23.8849 37.6246 27.583 33.9988 30.1856C30.3711 32.7896 25.418 34.3642 20 34.3642C14.582 34.3642 9.62895 32.7896 6.0012 30.1856C2.37536 27.583 0 23.8849 0 19.6821C0 15.4792 2.37536 11.7812 6.0012 9.17857ZM11.7148 23.1888C11.7148 24.0401 11.0247 24.7303 10.1734 24.7303C9.32209 24.7303 8.63198 24.0401 8.63198 23.1888C8.63198 22.3375 9.32209 21.6474 10.1734 21.6474C11.0247 21.6474 11.7148 22.3375 11.7148 23.1888Z" fill="#F6F6F3"/>
</svg>
