<svg width="40" height="40" viewBox="0 0 40 40" fill="none" xmlns="http://www.w3.org/2000/svg">
<path fill-rule="evenodd" clip-rule="evenodd" d="M22.2 9.53467C14 9.53467 7.4 13.7973 7.4 18.9813C7.4 24.1653 14 28.428 22.2 28.428C24.8 28.428 27.2 27.968 29.4 27.1613L28.6 30.9627C26 31.6533 23.2 32.1147 20 32.1147C9 32.1147 0 26.4693 0 19.5573C0 12.6453 9 7 20 7C25 7 29.6 8.15199 33 9.99466L32.6 12.184C30 10.572 26.2 9.53467 22.2 9.53467ZM33.2 16.6773L34.4 10.9187C38 13.108 40 16.2174 40 19.5587C40 24.0507 36.2 28.0827 30.4 30.272L32.4 21.4013H19.4L17.8 27.276C15 26.7 12.6 25.548 10.8 24.0507L14.2 11.724C16.4 10.6867 19.2 10.1107 22.2 10.1107H22.4L20.6 16.6773H33.2Z" fill="#F6F6F3"/>
</svg>
