<svg width="41" height="40" viewBox="0 0 41 40" fill="none" xmlns="http://www.w3.org/2000/svg">
<path d="M23.3214 12.0659C23.8425 12.1002 24.3564 12.1062 24.8623 12.1729C26.6034 12.404 28.3557 12.587 30.0783 12.9173C32.47 13.3756 34.7963 14.0797 36.9356 15.2858C37.9858 15.8776 38.9587 16.5705 39.5796 17.6491C40.2196 18.7607 40.1093 19.8373 39.3967 20.8631C38.6952 21.8737 37.6926 22.5282 36.6285 23.0969C34.6926 24.1319 32.606 24.7363 30.4792 25.2217C30.4072 25.2383 30.3359 25.2594 30.2031 25.2951C30.8649 26.373 31.5083 27.4212 32.1793 28.5143C32.0644 28.5282 31.9753 28.5487 31.8861 28.5487C30.5208 28.5507 29.1562 28.5467 27.791 28.5533C27.5783 28.5546 27.4554 28.4945 27.3616 28.2871C26.6727 26.77 25.9686 25.2587 25.2705 23.7455C24.0948 21.1966 22.9198 18.6478 21.7454 16.0982C21.3874 15.3215 21.036 14.5414 20.676 13.766C20.6338 13.6755 20.5545 13.6029 20.464 13.4859C19.324 16.7145 18.2051 19.8849 17.0657 23.1121C17.3405 23.1346 17.5849 23.1702 17.8286 23.1709C19.5439 23.1762 21.2593 23.1801 22.9746 23.1663C23.1787 23.1649 23.2593 23.2099 23.3299 23.3968C23.6358 24.2079 23.9568 25.0124 24.2791 25.8169C24.3663 26.0342 24.2982 26.1286 24.0743 26.1319C21.9865 26.163 19.8986 26.2006 17.8108 26.2198C17.3068 26.2244 16.8015 26.1748 16.2982 26.1339C16.0684 26.1154 15.9607 26.2099 15.8907 26.4179C15.6741 27.0626 15.4521 27.7059 15.2111 28.3413C15.1714 28.4457 15.0228 28.5797 14.9237 28.5811C13.4488 28.5956 11.9739 28.5903 10.499 28.5877C10.4488 28.5877 10.3986 28.5619 10.3114 28.5388C10.4726 28.2145 10.6159 27.912 10.7718 27.6161C11.0737 27.0447 11.3775 26.4741 11.6912 25.9093C11.8075 25.7006 11.7196 25.6398 11.5281 25.6015C10.6661 25.4278 9.80286 25.2587 8.94421 25.0685C7.13575 24.6689 5.37617 24.1174 3.71435 23.2904C2.74804 22.8096 1.84315 22.2356 1.07499 21.4589C-0.351038 20.0163 -0.360946 18.2475 1.06112 16.7924C2.05583 15.7746 3.27512 15.1048 4.56574 14.5579C7.68463 13.2363 10.966 12.585 14.3174 12.2442C15.4211 12.1319 16.5307 12.0804 17.6377 12.0031C17.7328 11.9965 17.8286 12.0025 18.0334 12.0025C17.8055 12.2931 17.6027 12.4906 17.4739 12.7283C17.1655 13.299 16.6635 13.4021 16.0743 13.4424C13.2718 13.6359 10.4937 14.0011 7.80154 14.8433C6.66746 15.198 5.54526 15.6075 4.58291 16.3235C4.16812 16.6326 3.77842 17.0163 3.4878 17.4417C3.08291 18.0355 3.20312 18.7059 3.68529 19.297C4.20378 19.9331 4.87882 20.3638 5.59942 20.7224C6.86495 21.3519 8.20444 21.7818 9.58159 22.083C10.7177 22.332 11.8669 22.521 13.0076 22.7508C13.2513 22.7997 13.3616 22.7178 13.4706 22.5097C14.6549 20.2455 15.8478 17.9859 17.0393 15.725C17.6272 14.6101 18.2196 13.4985 18.8009 12.3803C18.8993 12.1907 19.0169 12.118 19.2361 12.122C20.1054 12.1359 20.9753 12.1187 21.8445 12.1372C21.9772 12.1398 22.1609 12.2389 22.2295 12.3499C23.6358 14.6141 25.0281 16.8862 26.4244 19.157C27.0737 20.2132 27.7196 21.2713 28.3815 22.3188C28.4383 22.4093 28.6153 22.4932 28.7177 22.4754C30.9257 22.0896 33.069 21.4959 35.036 20.3875C35.6305 20.052 36.1787 19.6425 36.536 19.0322C36.9013 18.4073 36.8854 17.8069 36.4416 17.2244C35.8577 16.4562 35.0585 15.976 34.2011 15.5916C31.9006 14.5612 29.466 14.0381 26.9733 13.7574C26.143 13.6636 25.3114 13.5857 24.4812 13.4952C24.3993 13.4859 24.293 13.4595 24.248 13.4021C23.9356 13.0051 23.6364 12.5989 23.3359 12.1933C23.32 12.1715 23.3286 12.1319 23.3227 12.0659H23.3214Z" fill="#F6F6F3"/>
</svg>
