<svg width="40" height="40" viewBox="0 0 40 40" fill="none" xmlns="http://www.w3.org/2000/svg">
<path fill-rule="evenodd" clip-rule="evenodd" d="M2.72142 19.6841L2.76599 19.6992C2.76599 19.6992 2.82542 19.7586 2.91458 19.7881L2.91479 19.7881C3.6584 20.0853 6.12677 20.3832 14.9892 20.3832C15.6711 20.3832 15.9866 20.322 16.1654 20.2873C16.2361 20.2736 16.2854 20.2641 16.3276 20.2641C16.4762 20.2641 16.5059 20.3829 16.4465 20.5016C16.3868 20.591 16.3276 20.7396 16.2977 20.8289C16.3211 20.6649 16.2155 20.6671 15.8063 20.6754C15.6959 20.6777 15.5635 20.6804 15.4055 20.6804C9.10058 20.6804 7.73266 20.5615 5.82916 20.353C6.63221 20.8884 11.2418 20.9185 14.8998 20.9185C15.3161 20.9482 15.7621 20.9482 16.0892 20.9482C16.2083 20.9482 16.2677 20.9778 16.238 21.0968C16.238 21.123 16.2354 21.157 16.2326 21.1949C16.2257 21.2858 16.217 21.3996 16.238 21.4836C16.2225 21.4642 16.2096 21.4454 16.1971 21.4272C16.1138 21.3057 16.0522 21.2159 15.4052 21.2159C11.6579 21.2159 9.99257 21.0968 9.30861 21.0075C9.90341 21.3346 10.8253 21.4836 15.0187 21.4836C15.8043 21.4836 16.2844 21.864 16.8218 22.2899C17.5052 22.8314 18.2813 23.4463 19.896 23.4463C21.5107 23.4463 22.2868 22.8314 22.9701 22.2899C23.5076 21.864 23.9877 21.4836 24.7733 21.4836C28.9666 21.4836 29.8888 21.3344 30.4834 21.0075C29.7992 21.0968 28.1339 21.2159 24.3865 21.2159C23.7399 21.2159 23.6782 21.3057 23.5947 21.4271C23.5822 21.4453 23.5693 21.4642 23.5537 21.4836C23.5747 21.3996 23.5661 21.2858 23.5592 21.1949C23.5563 21.157 23.5537 21.123 23.5537 21.0968C23.524 20.978 23.5833 20.9482 23.7023 20.9482C24.0297 20.9482 24.4757 20.9482 24.8919 20.9185C28.5501 20.9185 33.1598 20.8884 33.9628 20.353C32.0591 20.5613 30.6914 20.6804 24.3863 20.6804C24.2281 20.6804 24.0954 20.6776 23.9849 20.6754H23.9849C23.5763 20.667 23.4706 20.6649 23.4943 20.8289C23.4644 20.7396 23.4049 20.591 23.3457 20.5016C23.2861 20.3832 23.3158 20.2641 23.4644 20.2641C23.5067 20.2641 23.5561 20.2737 23.627 20.2874C23.8058 20.3221 24.1211 20.3832 24.8028 20.3832C33.6357 20.3832 36.1336 20.0855 36.8774 19.7881L36.8776 19.7881C36.9668 19.7586 37.0262 19.6992 37.0262 19.6992L37.0708 19.6842C35.3301 19.8071 28.959 20.0263 24.5058 20.0263C23.7339 20.0263 23.1664 19.8027 22.5576 19.5627C21.8529 19.2849 21.0929 18.9853 19.8962 18.9853C18.6947 18.9853 17.9246 19.2874 17.2142 19.5661C16.6058 19.8048 16.0411 20.0263 15.2866 20.0263C10.8331 20.0263 4.46134 19.807 2.72142 19.6841ZM2.68362 19.6814C2.62621 19.6773 2.57433 19.6732 2.52824 19.6693C2.73648 20.0263 3.30157 20.4723 5.59141 20.532C6.1565 21.0372 7.4947 21.2754 9.1008 21.2456C9.81448 21.8105 11.7178 21.9296 13.8293 21.9296C15.4725 21.9296 16.1853 22.4248 16.8949 22.9177C17.5979 23.4062 18.2977 23.8923 19.8962 23.8923C21.4911 23.8923 22.1841 23.4083 22.8818 22.921C23.5891 22.427 24.3014 21.9296 25.9631 21.9296C28.0744 21.9296 29.9777 21.8107 30.6918 21.2456C32.2975 21.2754 33.6357 21.0372 34.2008 20.532C36.4908 20.4721 37.0557 20.0261 37.2644 19.6693C37.2182 19.6732 37.1662 19.6773 37.1087 19.6814C37.0967 19.702 37.0691 19.7451 37.0262 19.7881L37.0264 19.7881C36.6694 20.0263 36.045 20.2046 34.112 20.3532C33.6359 20.7997 32.3869 20.9187 30.6619 21.0077C30.0673 21.5431 28.5803 21.6324 25.3089 21.6324C24.1352 21.6324 23.533 22.0828 22.9012 22.5554C22.2044 23.0766 21.4716 23.6246 19.8962 23.6246C18.3207 23.6246 17.5879 23.0765 16.8911 22.5553C16.2594 22.0828 15.6572 21.6324 14.4835 21.6324C11.2121 21.6324 9.69538 21.5431 9.1303 21.0077C7.37582 20.9187 6.15649 20.7997 5.68056 20.3532C3.74756 20.2044 3.12304 20.0261 2.7662 19.7881L2.76599 19.7881C2.72295 19.7451 2.69549 19.702 2.68362 19.6814ZM29.6508 17.2009H26.0521V15.0894H27.1527V16.8143H29.6508V17.2009ZM5.26408 17.2009V15.0894H6.36431V15.9519H8.29753V15.0894H9.39777V17.2009H8.29753V16.3384H6.36431V17.2009H5.26408ZM18.0224 15.9816L19.0634 15.0894H19.8066C19.8066 15.0894 18.3793 16.3087 18.3495 16.3384V17.2009H17.2491V16.3384L15.7026 15.0894H16.9814L18.0224 15.9816ZM34.5281 17.2009H30.8701V15.0894H34.4982V15.4462H31.9704V15.9519H34.4387V16.3087H31.9704V16.8441H34.5281V17.2009ZM22.0965 16.3384C21.2941 16.2493 20.7285 16.1302 20.7285 15.6545C20.7285 15.0894 21.7103 15.0002 22.4537 15C23.3756 15 24.0596 15.1191 24.1787 15.1488L24.0891 15.5352C24.0654 15.5352 24.006 15.5247 23.9189 15.5093C23.6777 15.4666 23.2236 15.3863 22.7212 15.3863C22.0075 15.3863 21.8884 15.446 21.8884 15.5946C21.8884 15.7485 22.2641 15.7918 22.6725 15.8389C22.7379 15.8464 22.8041 15.8541 22.8698 15.8623C24.0596 15.9811 24.4759 16.1894 24.4759 16.576C24.4759 17.1413 23.4646 17.3196 22.3943 17.3196C21.4426 17.3196 20.7882 17.171 20.6988 17.1412C20.6988 17.1412 20.7882 16.725 20.7882 16.6953C20.8776 16.7252 21.5615 16.9035 22.3641 16.9035C23.0481 16.9035 23.2861 16.8141 23.2861 16.6655C23.2861 16.5097 22.9915 16.4674 22.3826 16.38C22.2939 16.3672 22.1985 16.3536 22.0965 16.3384ZM2.29006 17.3198C0.743611 17.3198 0 16.8441 0 16.1601C0 15.4462 0.743611 15.0002 2.31956 15.0002C2.91458 15.0002 3.47966 15.0594 3.62826 15.0894L3.71742 15.5354C3.59854 15.5056 3.03345 15.4462 2.52781 15.4462C1.63582 15.4462 1.07073 15.6545 1.07073 16.1601C1.07073 16.6358 1.66554 16.8441 2.52781 16.8441C3.06296 16.8441 3.59833 16.7846 3.71742 16.7549L3.62826 17.2009C3.50938 17.2306 2.88486 17.3198 2.29006 17.3198ZM12.1933 17.2009H11.093L11.0928 15.0894C11.1152 15.0894 11.1822 15.0875 11.2826 15.0847C11.5838 15.0763 12.1859 15.0594 12.7881 15.0594C13.3529 15.0594 13.7991 15.0894 14.1263 15.1488C14.7508 15.2974 14.9291 15.5056 14.9291 15.7733C14.8996 15.9519 14.7508 16.1302 14.4237 16.2193C14.1969 16.2949 14.0982 16.3064 13.9287 16.3262C13.8981 16.3298 13.8652 16.3337 13.8289 16.3382L15.0779 17.2007H13.6801L12.431 16.1004C12.5796 16.1302 12.6688 16.1302 12.7878 16.1302C12.9195 16.1302 13.0348 16.1141 13.1817 16.0937C13.2341 16.0864 13.2904 16.0786 13.3529 16.0707C13.6803 16.041 13.8289 15.8922 13.8289 15.7733C13.8289 15.6247 13.71 15.5056 13.3829 15.4759C13.2341 15.4462 13.0258 15.4462 12.7583 15.4462C12.5204 15.4462 12.3419 15.4462 12.1933 15.4759V17.2009ZM37.0854 17.2009H35.9852H35.985V15.0894C36.0076 15.0894 36.0782 15.0874 36.1834 15.0846C36.4931 15.0761 37.1033 15.0594 37.6804 15.0594C38.275 15.0594 38.6913 15.0894 39.0484 15.1488C39.6727 15.2974 39.8213 15.5056 39.8213 15.7733C39.8213 15.9519 39.6429 16.1302 39.316 16.2193C39.1087 16.297 39.0142 16.307 38.8162 16.3279C38.787 16.331 38.7555 16.3344 38.721 16.3382L40 17.2007H38.6024L37.3529 16.1004C37.4718 16.1302 37.5611 16.1302 37.6802 16.1302C37.8502 16.1302 37.9805 16.1105 38.1361 16.0869C38.171 16.0817 38.2072 16.0762 38.2453 16.0707C38.5724 16.041 38.721 15.8922 38.721 15.7733C38.7512 15.6247 38.6321 15.5056 38.3047 15.4759C38.1264 15.4462 37.9481 15.4462 37.6804 15.4462C37.4128 15.4462 37.2642 15.4462 37.0854 15.4759V17.2009ZM37.234 19.5502C35.8661 19.6396 29.2046 19.8775 24.5056 19.8775C23.7622 19.8775 23.1973 19.6691 22.6023 19.4313C21.9184 19.1638 21.1153 18.8662 19.896 18.8662C18.6767 18.8662 17.8738 19.1636 17.1897 19.4313C16.5949 19.6691 16.03 19.8775 15.2864 19.8775C10.5874 19.8775 3.92588 19.6396 2.55774 19.5502L2.31978 19.5205L2.40894 19.7289C2.61718 20.1157 3.15255 20.5912 5.53155 20.6506C6.30488 21.3051 8.05957 21.3945 9.04093 21.3647C9.69517 21.8405 11.1227 22.0487 13.8291 22.0487C15.4352 22.0487 16.1191 22.5244 16.8031 23.0301L16.8226 23.0431C17.5304 23.5149 18.2751 24.0114 19.896 24.0114C21.5316 24.0114 22.2752 23.5058 22.9594 23.0301C23.6731 22.5244 24.357 22.0487 25.9631 22.0487C28.6395 22.0487 30.0968 21.8402 30.7215 21.3647C31.7326 21.3945 33.4873 21.3051 34.2606 20.6506C36.6396 20.5914 37.175 20.1157 37.3533 19.7289L37.4724 19.5205L37.234 19.5502ZM21.9091 22.5388C22.429 22.2151 22.7509 21.7676 22.7509 21.2752C22.7509 20.3235 21.4724 19.5205 19.896 19.5205C18.3198 19.5205 17.0708 20.3235 17.0708 21.2752C17.0708 21.7433 17.355 22.1709 17.8234 22.4901L17.8238 22.4906C18.3371 22.8406 19.072 23.0598 19.896 23.0598C20.6811 23.0598 21.3922 22.8609 21.9087 22.5394L21.9091 22.5388ZM22.1405 22.073C22.3571 21.8364 22.4832 21.56 22.4832 21.2752C22.4832 20.9831 22.3505 20.7089 22.1237 20.4765L22.124 20.4774C21.935 20.2839 21.681 20.1185 21.3835 19.9971C21.7105 20.324 21.8886 20.7999 21.8886 21.2752C21.8886 21.7808 21.7103 22.2565 21.383 22.5839C21.5399 22.5197 21.6849 22.4418 21.8146 22.3531C21.8877 22.3031 21.9559 22.2497 22.0187 22.1933C22.062 22.1545 22.1026 22.1143 22.1405 22.0729L22.1405 22.073ZM17.5998 20.5869C17.4332 20.7939 17.3382 21.0282 17.3382 21.2752C17.3382 21.8103 17.7842 22.3162 18.4387 22.5839C18.1116 22.2565 17.933 21.781 17.933 21.2752C17.933 20.7997 18.1114 20.324 18.4382 19.9971C18.0859 20.1412 17.7939 20.3461 17.5995 20.5878L17.5998 20.5869ZM18.3225 20.9599C18.4713 20.2456 19.1153 19.6992 19.896 19.6992C20.8179 19.6992 21.5316 20.4129 21.5316 21.2752C21.5316 22.1676 20.8179 22.8515 19.896 22.8515C19.2082 22.8515 18.6264 22.445 18.396 21.8499C18.377 21.8006 18.3605 21.7504 18.3465 21.6996C18.3097 21.5653 18.2901 21.4231 18.2901 21.2752C18.2901 21.1674 18.3013 21.0619 18.3225 20.9599ZM18.7062 21.5129L18.7064 21.5133L20.7583 20.3832C20.6791 20.3236 20.5998 20.3037 20.5029 20.2795C20.4544 20.2673 20.4015 20.2541 20.342 20.2341C20.2784 20.2131 20.2262 20.1882 20.1772 20.1649L20.1772 20.1649C20.0886 20.1226 20.0108 20.0855 19.8958 20.0855C19.7808 20.0855 19.7028 20.1227 19.614 20.165C19.5652 20.1883 19.5131 20.2131 19.4498 20.2341C19.3766 20.2708 19.3135 20.2874 19.2562 20.3025C19.1738 20.3242 19.1036 20.3426 19.0335 20.4129C18.9196 20.5267 18.8929 20.6231 18.8599 20.7421C18.8498 20.7786 18.8392 20.8171 18.8253 20.8589C18.8018 20.9292 18.7691 20.9857 18.7381 21.0392C18.6906 21.1215 18.6469 21.1969 18.6469 21.3049C18.6469 21.394 18.6765 21.4534 18.7062 21.5129ZM19.6414 22.421C19.726 22.4608 19.7978 22.4945 19.9257 22.4945C20.0489 22.4945 20.1296 22.4519 20.2166 22.4061C20.2557 22.3855 20.296 22.3642 20.342 22.3459H20.3717C20.3717 22.3162 20.4012 22.3162 20.4309 22.3162C20.473 22.2993 20.5128 22.2872 20.5501 22.2758C20.6446 22.247 20.7239 22.2228 20.788 22.1374C20.8769 22.0785 20.9066 21.9897 20.9361 21.9012L20.9361 21.9012L20.9366 21.8999C20.9366 21.8999 20.9366 21.87 20.9663 21.8402C20.9663 21.8105 20.9663 21.7808 20.996 21.7211C20.996 21.7063 21.0035 21.6915 21.0111 21.6767C21.0186 21.6619 21.0262 21.6471 21.0262 21.6322C21.0426 21.5991 21.0614 21.5683 21.0799 21.5379C21.1281 21.4589 21.1748 21.3825 21.1748 21.2752C21.1748 21.2027 21.1356 21.1306 21.1049 21.0741C21.0977 21.0609 21.091 21.0485 21.0854 21.0372L19.0632 22.1676C19.1469 22.2513 19.2305 22.2762 19.3244 22.3041C19.3641 22.3159 19.4056 22.3283 19.4498 22.3459C19.5301 22.3687 19.5883 22.3961 19.6414 22.421Z" fill="#F6F6F3"/>
</svg>
