<svg width="40" height="40" viewBox="0 0 40 40" fill="none" xmlns="http://www.w3.org/2000/svg">
<path fill-rule="evenodd" clip-rule="evenodd" d="M4.02711 0H35.566V16.1446L35.5659 16.1521C35.4603 23.8785 31.4573 34.5822 20.3245 39.7918L19.8795 40L19.4276 39.8072C13.4338 37.2495 4.58012 29.6356 4.00106 16.1843L4 16.1598L4.02711 0ZM19.8588 38.7966C14.1624 36.3658 5.65573 29.0744 5.09879 16.137L5.12402 1.09875H34.4673V16.137C34.3659 23.5555 30.5176 33.8089 19.8588 38.7966ZM10.7191 7.75726C10.469 7.69477 10.198 7.69954 9.9349 7.70416H9.93488C9.8665 7.70537 9.79866 7.70656 9.73186 7.70656V10.0864C9.80851 10.0864 9.88595 10.0876 9.96376 10.0887C10.2163 10.0925 10.4727 10.0963 10.7191 10.0609C10.9724 10.0102 11.1751 9.90909 11.3267 9.78247C11.58 9.60515 11.6814 9.30122 11.6814 8.89636C11.6814 8.49151 11.5548 8.18758 11.3015 7.98503C11.1497 7.88387 10.9471 7.78249 10.7191 7.75726ZM30.2136 10.1116L30.6439 10.7193H32.2391L29.5303 7.0737L27.9606 7.09893L28.4921 7.73179L26.2891 10.7193H27.6562L28.0363 10.1116H30.2136ZM29.9354 9.75747H28.2641L29.0995 8.51674L29.9354 9.75747ZM18.8207 10.7193L16.0864 7.0737L14.5168 7.09893L15.0482 7.73179L12.9723 10.5929L12.8712 10.7195H14.2383L14.6179 10.1119H16.7698L17.2258 10.7195L18.8207 10.7193ZM18.6943 9.52923C18.8209 9.8077 19.0487 10.0609 19.3526 10.2637C19.8589 10.6181 20.5931 10.77 21.5554 10.77C21.7964 10.77 22.038 10.751 22.3119 10.7296L22.3125 10.7295C22.3545 10.7262 22.3973 10.7229 22.441 10.7195C22.7449 10.6688 23.0236 10.6181 23.2262 10.5424V9.88409C23.0255 9.93432 22.7498 9.98455 22.4741 10.0348L22.4665 10.0362C22.436 10.0387 22.4057 10.0412 22.3758 10.0437L22.3753 10.0438C22.1069 10.0663 21.8613 10.0869 21.6561 10.0869C21.0993 10.0869 20.669 9.98548 20.4158 9.7577C20.1626 9.52946 20.0107 9.25123 20.0107 8.8716C20.0107 8.51697 20.1878 8.2385 20.5172 8.01049C20.8461 7.80795 21.2514 7.70679 21.7067 7.70679H21.7068C22.0107 7.70679 22.2387 7.70679 22.3908 7.75749C22.4474 7.78008 22.5091 7.79762 22.5691 7.81467C22.643 7.8357 22.7144 7.85599 22.7704 7.88411V8.26373H23.125L23.3276 7.30147C23.0715 7.18675 22.7971 7.11826 22.5172 7.09916C22.1882 7.04847 21.9093 7.02324 21.6311 7.02324C20.6693 7.02324 19.9093 7.22578 19.4031 7.58017C19.0484 7.80795 18.8207 8.06119 18.694 8.36489C18.6181 8.51674 18.5927 8.71952 18.5927 8.8966C18.5929 9.12437 18.6184 9.32692 18.6943 9.52923ZM23.9097 7.0737L24.3908 7.6561V10.7195H25.834V7.0737H23.9097ZM14.8462 9.75747L15.6816 8.51674L16.517 9.75747H14.8462ZM12.9726 9.50423C13.0233 9.32692 13.074 9.12437 13.074 8.89636C13.074 8.66859 13.0233 8.46604 12.9726 8.28873C12.8459 7.98503 12.6434 7.73179 12.3145 7.52925C11.9346 7.30124 11.4029 7.14962 10.7193 7.09893C10.0744 7.01802 9.39392 7.02973 8.72472 7.04125C8.42388 7.04643 8.12531 7.05157 7.83326 7.04823L8.33974 7.70656V10.7193C8.56967 10.7193 8.80418 10.7255 9.04042 10.7318H9.04044C9.60301 10.7468 10.1754 10.7621 10.7193 10.6938C11.4538 10.6433 12.0108 10.5167 12.3652 10.2635C12.6686 10.0612 12.8459 9.80793 12.9726 9.50423ZM30.2895 16.5931H33.1759V13.6053L30.2895 16.5931ZM14.9466 33.7827C14.7188 33.5802 14.4913 33.3779 14.289 33.1755L16.5929 30.7962V33.7834H14.9473L14.9466 33.7827ZM16.3426 34.9376C16.2594 34.8736 16.1761 34.8096 16.0864 34.7457L16.5929 34.2392V35.1253C16.5053 35.0626 16.4239 35.0001 16.3426 34.9376ZM11.3391 29.7306C11.2844 29.6554 11.2298 29.5801 11.1751 29.505L13.251 27.3527V30.3404H11.7828C11.6348 30.1373 11.4869 29.9339 11.3391 29.7306ZM9.93439 26.8971V23.9094L8.79505 25.0995C8.84597 25.2513 8.92166 25.4034 8.99759 25.5552L8.99761 25.5553C9.20014 26.0111 9.40268 26.4668 9.63045 26.8971H9.93439ZM8.02437 23.028C7.97965 22.8809 7.93493 22.7338 7.88371 22.5932L9.93439 20.4664V23.4543H8.16195C8.11201 23.3163 8.06819 23.1722 8.02437 23.028ZM7.24121 19.9587C7.23404 19.9269 7.22538 19.8886 7.22538 19.859L9.93439 17.0486V20.0108H7.25061C7.25061 20.0004 7.24628 19.9812 7.24121 19.9587ZM13.251 32.1126C13.0482 31.8851 12.8459 31.6568 12.6434 31.4036L13.251 30.7707V32.1126ZM19.8843 33.7834V30.7962L17.0232 33.7834H19.8843ZM23.2007 33.7834V30.7962L20.3146 33.7834H23.2007ZM19.8843 30.3404V27.3527L17.0232 30.3404H19.8843ZM13.6813 30.3404H16.5929V27.3527L13.6813 30.3404ZM23.2007 30.3404V27.3527L20.3146 30.3404H23.2007ZM23.631 30.3404H26.5423H26.5426V27.3527L23.631 30.3404ZM19.8843 26.8971V23.9094L17.0232 26.8971H19.8843ZM13.6813 26.8971H16.5929V23.9094L13.6813 26.8971ZM10.3647 26.8971H13.2508V23.9094L10.3647 26.8971ZM23.2007 26.8971V23.9094L20.3146 26.8971H23.2007ZM26.9477 26.8971H29.8592V23.9094L26.9477 26.8971ZM23.631 26.8971H26.5423H26.5426V23.9094L23.631 26.8971ZM19.8843 23.4541V20.4664L17.0232 23.4541H19.8843ZM13.6813 23.4541H16.5929V20.4664L13.6813 23.4541ZM10.3647 23.4541H13.2508V20.4664L10.3647 23.4541ZM23.2007 23.4541V20.4664L20.3146 23.4541H23.2007ZM29.8592 23.4541V20.4664L26.9477 23.4541H29.8592ZM23.631 23.4541H26.5423H26.5426V20.4664L23.631 23.4541ZM19.8843 20.0108V17.0486L17.0232 20.0108H19.8843ZM13.6813 20.0108H16.5929V17.0486L13.6813 20.0108ZM10.3647 20.0108H13.2508V17.0486L10.3647 20.0108ZM23.2007 20.0108V17.0486L20.3146 20.0108H23.2007ZM29.8592 20.0108V17.0486L26.9477 20.0108H29.8592ZM26.5426 32.3406C26.0612 32.8471 25.5542 33.3287 25.0236 33.7834H23.631L26.5426 30.7962V32.3406ZM19.732 37.151C19.1686 36.8329 18.6117 36.5037 18.0614 36.1635L19.8841 34.2394V37.2267C19.8336 37.2017 19.7829 37.176 19.732 37.151ZM23.2007 35.2267C22.441 35.7582 21.6313 36.2896 20.7702 36.7711L23.2007 34.2392V35.2267ZM29.8592 27.9353C29.3782 28.7453 28.8467 29.5557 28.2389 30.3404H26.9477L29.8592 27.3527V27.9353ZM30.4928 26.757C30.4674 26.8015 30.4419 26.8461 30.4164 26.8971H30.2895L30.5682 26.6189C30.5431 26.6689 30.518 26.7129 30.4928 26.757ZM32.543 21.0993C32.3556 21.8928 32.136 22.6784 31.8847 23.4541H30.2895L32.543 21.0993ZM33.1759 17.2007C33.1002 18.0613 32.9988 19.0234 32.7962 20.0108H30.2895L33.1759 17.0486V17.2007ZM23.631 20.0108H26.5423H26.5426V17.0486L23.631 20.0108ZM19.8843 16.5931V13.6053L17.0232 16.5931H19.8843ZM13.6813 16.5931H16.5929V13.6053L13.6813 16.5931ZM10.3647 16.5931H13.2508V13.6053L10.3647 16.5931ZM9.93439 16.5931V13.6053L7.0483 16.5931H9.93439ZM23.2007 16.5931V13.6053L20.3146 16.5931H23.2007ZM26.5423 16.5931V13.6053L23.631 16.5931H26.5423ZM29.8592 16.5931V13.6053L26.9477 16.5931H29.8592Z" fill="#F6F6F3"/>
</svg>
