<svg width="40" height="40" viewBox="0 0 40 40" fill="none" xmlns="http://www.w3.org/2000/svg">
<path fill-rule="evenodd" clip-rule="evenodd" d="M20 0C8.9543 0 0 8.9543 0 20C0 31.0457 8.9543 40 20 40C31.0457 40 40 31.0457 40 20C40 8.9543 31.0457 0 20 0ZM17.568 14.7255C17.568 15.753 16.7351 16.586 15.7076 16.586H5.36231C6.72818 10.7054 11.5488 6.14802 17.568 5.16871V14.7255ZM24.4016 16.586C23.3741 16.586 22.5411 15.753 22.5411 14.7255V5.18687C28.5093 6.20316 33.2801 10.741 34.6377 16.586H24.4016ZM9.48061 30.7309C7.0458 28.344 5.42157 25.1377 5.0529 21.559H12.0288C13.5063 21.559 14.3943 23.1985 13.587 24.436L9.48061 30.7309ZM30.8059 30.4424L26.7364 24.4667C25.8953 23.2316 26.7799 21.559 28.2741 21.559H34.9471C34.5931 24.9955 33.0814 28.0884 30.8059 30.4424ZM13.5591 33.5809L18.5741 25.8931C19.2995 24.781 20.9228 24.7649 21.6701 25.8623L26.8046 33.4019C24.7625 34.441 22.4511 35.0269 20 35.0269C17.6931 35.0269 15.5102 34.508 13.5591 33.5809Z" fill="#F6F6F3"/>
</svg>
