<svg width="40" height="40" viewBox="0 0 40 40" fill="none" xmlns="http://www.w3.org/2000/svg">
<path fill-rule="evenodd" clip-rule="evenodd" d="M14.8717 34.0661C6.39268 32.4108 0 26.8668 0 20.2849C0 18.6975 0.363149 17.1708 1.03184 15.7429C11.1219 17.4146 15.1093 27.0119 14.8717 34.0661ZM20.001 34.5712C20.178 34.5712 20.3549 34.5691 20.5308 34.5671C20.1039 23.7528 21.5956 10.8224 22.4495 6.10658C20.8199 5.96447 19.1811 5.96447 17.5516 6.10658C18.4054 10.8224 19.8971 23.7528 19.4702 34.5671C19.6461 34.5691 19.8231 34.5712 20.001 34.5712ZM21.4896 34.5424C21.8806 34.5238 21.9762 34.4981 22.361 34.4662C21.9299 20.8939 27.2311 12.311 30.2299 8.00772C28.9477 7.46453 27.6212 7.03224 26.2651 6.7156C23.615 11.3543 21.5956 22.6253 21.4896 34.5424ZM23.2756 34.3634C23.4288 34.3736 23.828 34.3469 24.1376 34.2646C24.1284 19.6409 33.0786 14.7563 36.8479 12.5857C35.9496 11.5938 34.9352 10.7137 33.8265 9.96441C24.0409 18.2665 23.0688 26.3267 23.2756 34.3634ZM25.1294 34.0661C33.6084 32.4108 40 26.8668 40 20.2849C40 18.6975 39.6379 17.1708 38.9682 15.7429C28.8792 17.4146 24.8917 27.0119 25.1294 34.0661ZM18.5114 34.5424C18.1205 34.5238 18.0248 34.4981 17.64 34.4662C18.0711 20.8939 12.7699 12.311 9.7711 8.00772C11.0533 7.46423 12.3797 7.03193 13.7359 6.7156C16.385 11.3543 18.4054 22.6253 18.5114 34.5424ZM16.7255 34.3634C16.5712 34.3736 16.173 34.3469 15.8624 34.2646C15.8716 19.6409 6.92248 14.7563 3.1521 12.5857C4.05063 11.5941 5.06505 10.714 6.17355 9.96441C15.9601 18.2665 16.9323 26.3267 16.7255 34.3634Z" fill="#F6F6F3"/>
</svg>
