<svg width="40" height="40" viewBox="0 0 40 40" fill="none" xmlns="http://www.w3.org/2000/svg">
<path fill-rule="evenodd" clip-rule="evenodd" d="M2.49143 12.03C1.98076 12.0474 1.43004 12.0722 0 12.1355C1.37025 13.505 8.60331 20.7462 10.8025 22.9454C10.8873 23.031 10.8093 23.1101 10.7122 23.2412C10.5771 23.4244 8.8733 25.8256 7.96156 27.3129C18.5566 25.7182 26.9225 23.7063 31.476 22.2024C34.7305 21.1281 38.1681 20.0087 39.5038 18.6291C39.816 18.3079 40 17.8461 40 17.4649C40 16.4125 38.164 15.7339 36.9207 15.3361C33.2294 14.1555 31.1867 13.8578 26.9985 13.234C25.4878 13.0087 15.7639 12.0556 7.50459 12.0046C5.89052 11.9942 5.14894 12.0046 3.36529 12.0046C5.17647 13.8158 11.3214 19.9902 13.1925 21.8608L18.6455 21.3528C18.6455 21.3528 11.9678 14.6277 10.8715 13.5304C19.9681 13.3463 31.0054 14.6801 34.6504 15.6875C36.4431 16.1838 38.9015 16.7904 38.9015 17.5009C38.9015 17.9985 37.9925 18.3679 36.6429 18.7745C27.6104 21.496 17.3807 22.1874 13.0415 22.5602C11.8707 21.3886 4.7086 14.2471 2.49143 12.03Z" fill="#F6F6F3"/>
</svg>
