<svg width="40" height="40" viewBox="0 0 40 40" fill="none" xmlns="http://www.w3.org/2000/svg">
<path d="M0 22.224V17H2.87432C3.81421 17 4.53916 17.2332 5.04918 17.6995C5.56163 18.1633 5.81785 18.8033 5.81785 19.6193C5.81785 20.4329 5.56163 21.0704 5.04918 21.5319C4.53916 21.9933 3.81421 22.224 2.87432 22.224H0ZM2.89617 21.5829C3.58348 21.5829 4.10686 21.4104 4.4663 21.0656C4.82574 20.7207 5.00546 20.2386 5.00546 19.6193C5.00546 18.9976 4.82574 18.5131 4.4663 18.1658C4.10686 17.8185 3.58348 17.6448 2.89617 17.6448H0.790528V21.5829H2.89617Z" fill="#F6F6F3"/>
<path d="M9.40619 22.2969C8.58288 22.2969 7.94414 22.1075 7.48998 21.7286C7.03582 21.3497 6.80874 20.8336 6.80874 20.1803C6.80874 19.544 7.03461 19.0352 7.48634 18.6539C7.93807 18.2726 8.56709 18.082 9.37341 18.082C10.1457 18.082 10.7577 18.2665 11.2095 18.6357C11.6636 19.0049 11.8907 19.4942 11.8907 20.1038C11.8907 20.1621 11.8798 20.2593 11.8579 20.3953H7.55556C7.6017 20.8154 7.78021 21.1421 8.09107 21.3752C8.40194 21.6084 8.84032 21.725 9.40619 21.725C10.3777 21.725 10.9545 21.4614 11.1366 20.9344L11.8689 21.0619C11.7231 21.4772 11.4523 21.7869 11.0565 21.9909C10.663 22.1949 10.1129 22.2969 9.40619 22.2969ZM9.37341 18.6503C8.84882 18.6503 8.43473 18.7535 8.13115 18.9599C7.82999 19.1639 7.64542 19.4566 7.57741 19.8379H11.1366C11.0856 19.4687 10.9083 19.1785 10.6047 18.9672C10.3012 18.7559 9.89071 18.6503 9.37341 18.6503Z" fill="#F6F6F3"/>
<path d="M13.1111 22.224V18.1658H13.7814L13.8434 19.255C14.0522 18.898 14.3424 18.6151 14.714 18.4062C15.0856 18.1949 15.4961 18.0893 15.9454 18.0893C16.0425 18.0893 16.1056 18.0917 16.1348 18.0965L16.102 18.8652C16.0316 18.8409 15.9247 18.8288 15.7814 18.8288C15.5216 18.8288 15.2775 18.8652 15.0492 18.9381C14.8233 19.0109 14.6217 19.1178 14.4444 19.2587C14.2672 19.3995 14.1263 19.5829 14.0219 19.8087C13.9174 20.0346 13.8628 20.2896 13.8579 20.5738V22.224H13.1111Z" fill="#F6F6F3"/>
<path d="M18.3024 22.224L16.5792 18.1658H17.3625L18.674 21.4044L20.0619 18.1658H20.6958L22.0838 21.3898L23.4135 18.1658H24.1603L22.4189 22.224H21.7923L20.3679 18.9199L18.9217 22.224H18.3024Z" fill="#F6F6F3"/>
<path d="M24.7104 19.3607C24.8027 18.9381 25.0407 18.6199 25.4244 18.4062C25.8081 18.19 26.3242 18.082 26.9727 18.082C27.7256 18.082 28.2769 18.2083 28.6266 18.4608C28.9763 18.711 29.1512 19.1069 29.1512 19.6485V21.3497C29.1512 21.4809 29.1767 21.578 29.2277 21.6412C29.2787 21.7019 29.3649 21.7322 29.4863 21.7322C29.5373 21.7322 29.592 21.7274 29.6503 21.7177L29.6284 22.2386C29.5094 22.2678 29.3819 22.2823 29.2459 22.2823C28.9739 22.2823 28.7723 22.2155 28.6412 22.082C28.5124 21.946 28.4481 21.7444 28.4481 21.4772V21.3971C28.2271 21.6812 27.9223 21.9022 27.5337 22.0601C27.1475 22.218 26.7189 22.2969 26.2477 22.2969C25.6988 22.2969 25.275 22.1949 24.9763 21.9909C24.68 21.7869 24.5319 21.4967 24.5319 21.1202C24.5319 20.7462 24.6703 20.4584 24.9472 20.2568C25.224 20.0528 25.6551 19.9302 26.2404 19.8889L28.4408 19.7541V19.7031C28.4408 19.3364 28.323 19.0704 28.0874 18.9053C27.8543 18.7401 27.4766 18.6576 26.9545 18.6576C26.034 18.6576 25.5325 18.9308 25.4499 19.4772L24.7104 19.3607ZM25.2714 21.0838C25.2714 21.5112 25.6284 21.725 26.3424 21.725C26.7189 21.725 27.0674 21.6703 27.388 21.561C27.7086 21.4517 27.9648 21.2975 28.1566 21.0984C28.3509 20.8992 28.4481 20.677 28.4481 20.4317V20.2678L26.2842 20.4171C25.9417 20.4438 25.6867 20.5118 25.5191 20.6211C25.354 20.728 25.2714 20.8822 25.2714 21.0838Z" fill="#F6F6F3"/>
<path d="M34.0801 18.1658H34.8707L32.6412 22.5446C32.4032 23.0061 32.1603 23.3291 31.9126 23.5137C31.6648 23.6982 31.3406 23.7905 30.9399 23.7905C30.7067 23.7905 30.5052 23.7662 30.3352 23.7177L30.306 23.1421C30.4663 23.1761 30.6327 23.1931 30.8051 23.1931C31.1014 23.1931 31.3358 23.1263 31.5082 22.9927C31.6831 22.8591 31.8689 22.6126 32.0656 22.2532L32.1056 22.1803L29.9199 18.1658H30.7541L32.4772 21.4408L34.0801 18.1658Z" fill="#F6F6F3"/>
<path d="M37.6211 18.6503C37.1451 18.6503 36.7832 18.7013 36.5355 18.8033C36.2902 18.9029 36.1676 19.0461 36.1676 19.2332C36.1676 19.4177 36.2501 19.5537 36.4153 19.6412C36.5829 19.7262 36.878 19.7869 37.3005 19.8233L38.2623 19.8743C38.8889 19.9302 39.3345 20.0455 39.5993 20.2204C39.8664 20.3953 40 20.6624 40 21.0219C40 21.4323 39.8045 21.748 39.4135 21.969C39.0249 22.1876 38.4554 22.2969 37.7049 22.2969C36.9739 22.2969 36.4141 22.19 36.0255 21.9763C35.6393 21.7626 35.4001 21.4274 35.3078 20.9709L36.0255 20.8579C36.1202 21.4457 36.6776 21.7395 37.6976 21.7395C38.2246 21.7395 38.6169 21.6849 38.8743 21.5756C39.1342 21.4663 39.2641 21.3097 39.2641 21.1056C39.2641 20.9065 39.184 20.762 39.0237 20.6721C38.8634 20.5798 38.578 20.5179 38.1676 20.4863L37.1949 20.4244C36.5756 20.371 36.1299 20.2568 35.8579 20.082C35.5859 19.9071 35.4499 19.6436 35.4499 19.2914C35.4499 18.9126 35.6381 18.6163 36.0146 18.4025C36.3934 18.1888 36.929 18.082 37.6211 18.082C38.3133 18.082 38.8464 18.1852 39.2204 18.3916C39.5968 18.5956 39.8276 18.9126 39.9126 19.3424L39.2022 19.4481C39.1536 19.1736 39.0018 18.9721 38.7468 18.8434C38.4918 18.7146 38.1166 18.6503 37.6211 18.6503Z" fill="#F6F6F3"/>
</svg>
