<svg width="40" height="40" viewBox="0 0 40 40" fill="none" xmlns="http://www.w3.org/2000/svg">
<path fill-rule="evenodd" clip-rule="evenodd" d="M36.6171 0.944293C34.9453 0.572887 27.2873 0 20.5369 0C13.6904 0 5.95985 0.572887 4.28803 0.944293L4.28757 0.944396C3.47389 1.12535 1 1.67551 1 4.54741C1 8.24327 1.09637 26.8123 2.99855 29.4156C6.28246 33.9094 19.5873 39.6936 20.1519 39.9378C20.2452 39.9782 20.3457 39.9993 20.4474 40C20.5491 40.0006 20.6499 39.9808 20.7437 39.9417C21.3307 39.697 35.1489 33.9009 37.9401 29.3656C39.7587 26.4104 39.9054 4.76395 39.9054 4.54766C39.9056 1.67584 37.4316 1.12547 36.6178 0.944458L36.6171 0.944293ZM36.6494 28.5713C34.3209 32.3553 22.4874 37.5469 20.458 38.4165C18.4701 37.5346 7.01167 32.3383 4.22249 28.521C2.97913 26.8199 2.51597 12.9135 2.51597 4.54741C2.51597 3.33998 3.08545 2.76442 4.6172 2.42385C6.05282 2.10487 13.5839 1.51572 20.5372 1.51572C27.3914 1.51572 34.853 2.10487 36.2886 2.42385C37.8201 2.76442 38.3894 3.33974 38.3894 4.54741C38.3894 8.86155 37.935 26.4812 36.6494 28.5713ZM23.0749 9.02006C22.8421 8.80037 21.2778 9.83157 21.0673 10.5472C20.8569 11.2631 21.5477 14.9895 21.5477 14.9893C21.8842 16.4207 23.4645 16.1025 24.0738 15.2206C26.2888 12.0163 28.8401 9.88255 30.8443 9.26742C31.5845 9.04017 32.5901 9.5919 33.2601 9.95952C33.6866 10.1935 33.9771 10.3529 33.9767 10.1894C33.975 9.09871 31.9311 6.93825 31.5541 7.26911C31.5138 6.75788 29.5096 6.27239 29.2518 6.56514C28.8042 6.18427 26.5454 6.48333 26.4653 6.88071C26.0903 6.60471 24.5304 7.58032 24.6243 7.90002C24.2129 7.71431 23.0758 8.75546 23.0749 9.02006ZM20.8947 30.4628C20.5811 29.9326 20.6804 29.2932 20.9464 29.04C21.1346 28.861 21.5023 28.847 21.8304 28.8346C22.1493 28.8224 22.4308 28.8118 22.4736 28.6521C22.5784 28.2627 22.4918 28.0009 22.3924 27.7005C22.2949 27.4058 22.185 27.0738 22.2313 26.5475C22.2641 26.1758 22.968 23.4804 23.1472 23.242C23.2786 23.0672 23.9786 22.806 24.3139 22.6809C24.3633 22.6624 24.4049 22.6469 24.4355 22.6351C24.5896 22.4565 24.6938 22.2525 24.7052 21.8945C23.8456 21.6334 23.4448 22.1446 23.2255 22.4244C23.1439 22.5284 23.0875 22.6004 23.0418 22.589C22.8734 22.5468 23.1285 21.3908 23.2761 21.2648C23.3336 21.2153 23.5803 21.1381 23.8684 21.048L23.8685 21.048L23.8685 21.048C24.316 20.9081 24.8635 20.7369 24.9579 20.5892C25.1203 20.3342 25.7526 17.8931 24.9674 17.832C24.9877 17.829 24.9782 17.7923 24.9688 17.756C24.9583 17.7156 24.9479 17.6756 24.9787 17.6828C25.6429 17.8383 26.2206 16.6546 26.938 15.1845C28.0065 12.9949 29.3849 10.1701 31.8209 10.1891C35.8636 10.2207 35.6526 16.0758 35.4084 16.2943C35.1963 16.4842 34.9366 16.5523 34.7181 16.6096C34.4699 16.6747 34.2748 16.7259 34.2629 16.9259C34.0524 20.5048 30.8525 24.3365 29.884 23.9994C29.305 23.7979 29.8 21.9787 30.0735 21.9365C29.8208 21.8311 30.0735 19.9576 30.3685 19.9154C30.1367 19.7469 30.3471 18.0207 30.6421 17.9996C30.5811 17.9437 30.549 17.696 30.5086 17.3848C30.4544 16.9673 30.3854 16.4355 30.2122 16.0989C29.9794 15.6464 28.9766 15.4034 28.9159 16.505C29.5262 16.2103 29.5684 18.1892 29.3154 18.5261C29.1776 18.7099 28.6325 19.019 28.0835 19.3303C27.6262 19.5896 27.1662 19.8504 26.9367 20.0416C26.979 20.8842 26.1786 24.1261 25.5892 25.0527C25.3682 25.3998 25.1472 25.6938 24.9394 25.9701L24.9394 25.9702L24.9394 25.9702L24.9394 25.9702C24.5932 26.4307 24.2839 26.842 24.0735 27.3682C23.9494 27.6781 23.9003 28.0684 23.8497 28.4703C23.7629 29.1604 23.6717 29.8846 23.1892 30.2946C22.8515 30.5815 21.0404 30.7094 20.8947 30.4628ZM24.9579 17.8314C24.9616 17.8322 24.9648 17.8324 24.9674 17.832C24.9643 17.8317 24.9611 17.8315 24.9579 17.8314ZM36.0359 16.9053C35.7556 16.7494 34.9785 16.8771 34.7894 17.2C34.703 17.3474 34.6654 17.6302 34.6143 18.0155C34.4979 18.8926 34.3111 20.3009 33.3162 21.8525C31.0707 25.355 30.0331 25.9769 29.5893 26.243C29.3914 26.3616 29.3115 26.4094 29.2953 26.6104C29.1861 27.9639 34.0107 27.2003 34.0952 25.6001C34.3687 25.6845 35.3582 24.1266 35.1477 23.8316C35.5055 23.8947 36.1163 21.9792 35.8214 21.8527C36.1935 21.8503 36.5666 19.8974 36.2717 19.7474C36.6086 19.6631 36.3654 17.0886 36.0359 16.9053ZM17.915 9.05356C18.1478 8.83387 19.5305 9.82283 19.8674 10.5598C20.2043 11.2966 19.4086 15.023 19.4086 15.0225C19.0714 16.454 17.5251 16.1358 16.9158 15.2541C14.7007 12.0496 12.1492 9.91581 10.1451 9.30068C9.40528 9.07346 8.39987 9.62502 7.72976 9.99264C7.3031 10.2267 7.01236 10.3862 7.01265 10.2226C7.01483 9.13197 9.05853 6.97151 9.43577 7.30237C9.47606 6.79114 11.48 6.30564 11.7378 6.5984C12.1854 6.21777 14.4442 6.51659 14.5245 6.91422C14.8996 6.63797 16.459 7.61357 16.3653 7.93328C16.777 7.74782 17.9138 8.78897 17.915 9.05356ZM20.0318 30.4965C20.3454 29.9249 20.2886 29.3061 20.0223 29.0529C19.8334 28.8733 19.4694 28.8652 19.1459 28.858C18.8335 28.8511 18.5587 28.845 18.516 28.6859C18.4112 28.2963 18.4978 28.0347 18.5972 27.7343C18.6947 27.4397 18.8046 27.1077 18.7585 26.5812C18.726 26.2096 18.0216 23.5141 17.8424 23.2757C17.7112 23.1007 17.0125 22.8402 16.6767 22.715C16.6268 22.6964 16.5849 22.6808 16.5541 22.6689C16.4002 22.4907 16.2961 22.2868 16.2844 21.9282C17.144 21.6672 17.5448 22.1784 17.7641 22.4582C17.8457 22.5622 17.9021 22.6342 17.9478 22.6227C18.1162 22.5805 17.8611 21.4245 17.7137 21.2985C17.6535 21.2469 17.3912 21.1617 17.0899 21.0639L17.0898 21.0639C16.6537 20.9223 16.1361 20.7542 16.032 20.623C15.8439 20.386 15.2368 17.927 16.0224 17.8657C16.024 17.866 16.0259 17.866 16.0279 17.8658C16.0292 17.8656 16.0305 17.8654 16.032 17.8651C16.0288 17.8653 16.0256 17.8655 16.0224 17.8657C16.002 17.8627 16.0115 17.8259 16.021 17.7895C16.0314 17.7491 16.0417 17.7093 16.0111 17.7165C15.3469 17.8721 14.7692 16.6883 14.0518 15.2182C12.9832 13.0286 11.6046 10.2039 9.16874 10.2229C5.12576 10.2544 5.33719 16.1095 5.5814 16.328C5.79355 16.5179 6.05319 16.586 6.27165 16.6433C6.51988 16.7085 6.71494 16.7596 6.72669 16.9597C6.93715 20.5385 10.1371 24.3703 11.1056 24.0331C11.6846 23.8316 11.1899 22.012 10.9163 21.9702C11.169 21.8649 10.9163 19.9913 10.6216 19.9491C10.8532 19.7806 10.6427 18.0544 10.348 18.0333C10.409 17.9774 10.4411 17.7297 10.4815 17.4184C10.5357 17.001 10.6047 16.4692 10.7779 16.1324C11.0107 15.6801 12.0138 15.4371 12.0744 16.5385C11.4637 16.2435 11.4219 18.2227 11.6746 18.5596C11.8124 18.7435 12.3581 19.0529 12.9074 19.3643C13.3644 19.6235 13.8241 19.884 14.0536 20.0751C14.0113 20.9177 14.8114 24.1596 15.4008 25.0857C15.622 25.4333 15.8432 25.7276 16.0511 26.0042C16.3971 26.4645 16.7061 26.8757 16.9166 27.4017C17.054 27.7453 17.1615 28.2246 17.2679 28.6986C17.4246 29.3968 17.5787 30.0835 17.8218 30.3072C18.2029 30.6577 19.8941 30.7478 20.0318 30.4965ZM20.4947 32.1217C19.2317 32.1431 18.1233 31.2423 18.3476 31.0019C18.5625 30.7712 18.857 30.8223 19.2096 30.8835C19.5678 30.9456 19.986 31.0182 20.442 30.8165C20.8847 31.0061 21.2902 30.9363 21.6575 30.8732C22.0241 30.8101 22.3526 30.7536 22.6418 30.9682C22.9705 31.2119 21.7582 32.1011 20.4947 32.1217ZM4.9539 17.023C5.23403 16.8672 6.01083 16.9109 6.20017 17.2335C6.28675 17.381 6.32432 17.6641 6.37551 18.0497C6.49196 18.9269 6.67886 20.3347 7.67341 21.8858C9.9191 25.388 10.9568 26.0101 11.4006 26.2762C11.5986 26.3948 11.6784 26.4427 11.6945 26.6436C11.8038 27.9972 6.97891 27.2335 6.89467 25.6333C6.6211 25.7178 5.63165 24.1598 5.84211 23.8649C5.4843 23.928 4.87379 22.0122 5.16849 21.886C4.7966 21.8838 4.42325 19.9307 4.71794 19.7809C4.38125 19.6966 4.62473 17.2063 4.9539 17.023Z" fill="#F6F6F3"/>
</svg>
