<svg width="40" height="40" viewBox="0 0 40 40" fill="none" xmlns="http://www.w3.org/2000/svg">
<path fill-rule="evenodd" clip-rule="evenodd" d="M37.5932 13.9067C38.748 15.3059 39.5543 16.8744 39.8693 18.6753H39.8688C39.9008 18.8577 39.9298 19.0407 39.9587 19.2237L39.9613 19.2401C39.9741 19.321 39.9869 19.4018 40 19.4825V20.8322C39.9928 20.8768 39.9857 20.9215 39.9786 20.9662C39.9717 21.0102 39.9648 21.0542 39.9579 21.0982C39.927 21.2953 39.896 21.4925 39.8608 21.689C39.4782 23.8169 38.424 25.5917 36.9552 27.1376C35.3732 28.8032 33.4792 30.0281 31.3985 30.9726C28.5089 32.2847 25.4661 32.9878 22.3091 33.2292C22.0505 33.2489 21.792 33.2716 21.5335 33.2944L21.3681 33.309C21.2933 33.3155 21.2186 33.322 21.1438 33.3284H18.8933C18.7734 33.3185 18.6536 33.3086 18.5338 33.2986C18.2397 33.2742 17.9456 33.2498 17.6513 33.2267C14.3651 32.9698 11.2051 32.2191 8.22091 30.7979C6.16369 29.8178 4.30476 28.5543 2.77534 26.8471C1.44424 25.3613 0.488244 23.6776 0.139184 21.69C-0.260934 19.4144 0.215304 17.3046 1.39167 15.342C2.61961 13.2938 4.35833 11.7639 6.37452 10.5294C8.99565 8.9249 11.8587 7.9784 14.8699 7.44506C16.7048 7.12005 18.5552 6.97031 20.4171 7.00487C24.3609 7.07798 28.1634 7.81564 31.7455 9.51632C33.9895 10.582 35.9977 11.9742 37.5932 13.9067ZM32.6584 28.651C34.3731 27.5738 35.859 26.2542 36.9222 24.509V24.5085C37.9578 22.8083 38.4135 20.9759 38.1065 18.9873C37.8586 17.3822 37.157 15.98 36.1459 14.726C34.6105 12.823 32.6369 11.4959 30.4404 10.4874C27.1292 8.96746 23.6207 8.36601 19.9419 8.33597C18.446 8.35449 16.9021 8.46367 15.3717 8.73008C12.7075 9.19381 10.1675 10.0141 7.82329 11.3833C5.92782 12.491 4.27771 13.8727 3.10587 15.7582C2.0457 17.4634 1.57996 19.3093 1.88094 21.3174C2.09278 22.7296 2.66066 23.9946 3.48946 25.1485C4.80303 26.9773 6.55281 28.2874 8.52139 29.324C11.8276 31.0648 15.3842 31.836 19.0931 31.9747C21.0727 32.0488 23.0398 31.9011 24.9884 31.5365C27.7146 31.0267 30.2987 30.1333 32.6584 28.651ZM21.9886 26.9778C21.9876 27.6814 22.2626 27.9529 22.9717 27.9529H23.5731V29.6095H16.4194V27.9519C16.4538 27.9519 16.4882 27.9519 16.5225 27.952L16.6638 27.9523C16.8246 27.9528 16.9838 27.9532 17.143 27.9519C17.6804 27.9469 17.9613 27.6674 17.9603 27.1341C17.9528 22.8193 17.9443 18.5045 17.9357 14.1897C17.9352 13.7535 17.6578 13.471 17.2211 13.4625C17.0676 13.4594 16.9139 13.4601 16.7484 13.4609C16.6726 13.4612 16.5943 13.4615 16.5125 13.4615C16.5125 13.3594 16.5106 13.2589 16.5088 13.1595C16.5046 12.9348 16.5005 12.7162 16.5185 12.4995C16.5421 12.2176 16.7003 12.0117 16.9767 11.8976C17.5572 11.6575 18.1365 11.414 18.7157 11.1706L18.7174 11.1698L18.7436 11.1588L18.7544 11.1543L19.1164 11.0022C19.317 10.9179 19.5177 10.8337 19.7186 10.7498L19.7378 10.7417C19.8008 10.7152 19.8674 10.6872 19.9324 10.6872C20.4633 10.6833 20.9939 10.6836 21.5288 10.684H21.5299C21.6829 10.6841 21.8363 10.6842 21.9901 10.6842C21.9918 10.6904 21.9935 10.6964 21.9953 10.7023C21.9984 10.7126 22.0016 10.7224 22.0047 10.7317L22.0049 10.7323L22.005 10.7325C22.0145 10.7611 22.0227 10.7858 22.0227 10.8109C22.0214 11.2394 22.02 11.668 22.0185 12.0966C22.0171 12.5265 22.0156 12.9564 22.014 13.3863L22.0129 13.7087C22.0074 15.2246 22.002 16.7406 21.9987 18.2566C21.9944 20.3331 21.9926 22.4096 21.9909 24.4861C21.9902 25.3166 21.9895 26.1472 21.9886 26.9778ZM25.9223 14.7541H23.3152V17.9661H23.5451C26.8878 17.9596 30.2306 17.9526 33.5729 17.9456C33.6645 17.9456 33.7562 17.9426 33.8478 17.9351C34.2825 17.8995 34.626 17.6942 34.8729 17.3432C34.9726 17.2013 35.0436 17.0374 35.1134 16.8765L35.1323 16.8329C35.2913 16.4686 35.4468 16.1027 35.6087 15.7216L35.6145 15.7079L35.6158 15.7047C35.6574 15.6068 35.6994 15.5079 35.742 15.4078L35.7684 15.3457L35.8154 15.2353H25.9478L25.9404 15.0957L25.9352 14.9965L25.9347 14.9877C25.9306 14.9093 25.9266 14.8333 25.9223 14.7541ZM16.6143 17.9266L16.5842 17.9287L16.5574 17.9307L16.5571 17.9307C16.5227 17.9333 16.4898 17.9357 16.4575 17.9374C16.4315 17.9387 16.4059 17.9396 16.3803 17.9396H16.3798L14.9482 17.9396C12.0853 17.9397 9.22257 17.9397 6.35948 17.9376C5.62632 17.9371 5.18463 17.6321 4.89668 16.9495C4.83261 16.7974 4.76801 16.6455 4.70314 16.4936C4.64942 16.3679 4.59552 16.2422 4.54163 16.1165L4.54075 16.1144C4.4535 15.911 4.36626 15.7075 4.27972 15.5038L4.27444 15.4911C4.27106 15.4828 4.26776 15.4745 4.26451 15.466C4.25837 15.45 4.25243 15.4337 4.24641 15.4166C4.23891 15.3952 4.2313 15.3728 4.22313 15.3486L4.22225 15.3461C4.21731 15.3315 4.21218 15.3164 4.20673 15.3004C4.19976 15.2801 4.19228 15.2584 4.18406 15.2353H16.6617V17.9236C16.6455 17.9245 16.6297 17.9255 16.6143 17.9266ZM23.3222 22.1277H24.2727L25.8509 22.1275H25.8807C27.9685 22.1272 30.0565 22.127 32.1441 22.1242C32.7917 22.1232 33.2549 21.8237 33.5143 21.2258C33.6515 20.9099 33.7858 20.5928 33.92 20.2756L33.9218 20.2714C33.9717 20.1535 34.0216 20.0356 34.0717 19.9177C34.119 19.8064 34.1654 19.6948 34.2166 19.5718L34.2183 19.5676L34.2715 19.44H23.3217V22.1282L23.3222 22.1277ZM11.0755 22.1244C10.5941 22.1246 10.1126 22.1247 9.63114 22.1247V22.1252C9.45115 22.1252 9.27118 22.1256 9.09121 22.126C8.67123 22.127 8.25126 22.1279 7.83131 22.1237C7.18381 22.1172 6.72006 21.8187 6.46167 21.2213C6.28789 20.8195 6.11819 20.4162 5.94423 20.0028C5.86755 19.8206 5.79003 19.6364 5.71098 19.4495H16.6607V20.6288C16.6607 20.7002 16.6604 20.7716 16.6599 20.8429C16.6596 20.8919 16.6591 20.9408 16.6587 20.9897C16.6563 21.2776 16.6539 21.5653 16.6653 21.8528C16.6738 22.0756 16.5981 22.1307 16.3808 22.1297C14.6154 22.1234 12.8503 22.1239 11.085 22.1244H11.0755ZM16.6763 25.6302C16.6722 25.064 16.6745 24.4979 16.6767 23.9315C16.6778 23.6483 16.6789 23.365 16.6793 23.0817C16.6793 23.0411 16.6738 23.0007 16.6674 22.953C16.6641 22.9283 16.6605 22.9016 16.6572 22.8719C16.6221 22.8879 16.5901 22.9022 16.5601 22.9155C16.505 22.94 16.4569 22.9614 16.4098 22.985C16.1987 23.0909 15.9878 23.1972 15.7769 23.3034C15.2144 23.5869 14.6519 23.8704 14.0852 24.1454C13.9344 24.2185 13.7537 24.2626 13.5864 24.2636C12.0749 24.2726 10.5634 24.2749 9.05194 24.2771H9.0479C8.63568 24.2777 8.22348 24.2783 7.81128 24.2791H7.5033C7.50653 24.3005 7.50837 24.3185 7.50995 24.3343C7.51277 24.3623 7.51482 24.3828 7.52284 24.4008C7.60058 24.5799 7.67694 24.7597 7.75331 24.9395L7.75397 24.9411C7.94103 25.3816 8.12809 25.8221 8.33562 26.2527C8.57298 26.745 9.00166 26.9869 9.54903 26.9883C11.124 26.9924 12.699 26.9904 14.274 26.9863C14.3701 26.9863 14.4768 26.9718 14.5614 26.9293C14.8611 26.7795 15.1595 26.627 15.4579 26.4746L15.4612 26.4729C15.7995 26.3 16.1377 26.1271 16.4779 25.9582C16.6262 25.8846 16.6778 25.7955 16.6763 25.6302ZM31.4025 24.2804C31.6701 24.2802 31.9377 24.2801 32.2052 24.2801H32.2062H32.5142C32.4894 24.3394 32.4664 24.3948 32.4446 24.4475C32.3998 24.5553 32.3598 24.6518 32.3184 24.7473C32.1196 25.206 31.9208 25.6643 31.7195 26.1215C31.4641 26.7004 31.0164 26.9914 30.3849 26.9934C29.3848 26.9964 28.3842 26.9974 27.3841 26.9909C27.265 26.9899 27.1348 26.9568 27.0291 26.9022C26.76 26.7633 26.4928 26.6206 26.2255 26.478C25.8754 26.2911 25.5253 26.1043 25.1712 25.9257C25.0079 25.8436 24.8121 25.797 24.6288 25.7885C24.4273 25.7793 24.2251 25.7831 24.0228 25.7869C23.85 25.7901 23.6771 25.7933 23.5045 25.7885C23.4384 25.7865 23.3192 25.6918 23.3182 25.6382C23.3084 24.9872 23.309 24.3362 23.3095 23.6746C23.3096 23.525 23.3097 23.3748 23.3097 23.2239C23.3402 23.2214 23.3685 23.2184 23.3956 23.2155C23.4486 23.2099 23.4965 23.2049 23.5446 23.2049C24.2612 23.2054 24.9784 23.2044 25.695 23.2149C25.8051 23.2164 25.9238 23.258 26.023 23.3106C26.2357 23.4235 26.4467 23.5397 26.6577 23.6559C26.9576 23.821 27.2574 23.9861 27.5619 24.1419C27.7172 24.221 27.9055 24.2711 28.0792 24.2726C29.1868 24.2815 30.2948 24.2809 31.4025 24.2804Z" fill="#F6F6F3"/>
</svg>
