<svg width="40" height="40" viewBox="0 0 40 40" fill="none" xmlns="http://www.w3.org/2000/svg">
<path fill-rule="evenodd" clip-rule="evenodd" d="M16.748 1.35817L16.7518 1.20375L16.6369 1.18386L16.3598 1.19583L16.3005 1.02152L16.7993 0.918638L17.1043 0.906874L17.7616 1.04868L18.4308 1.23882L18.7991 1.21123L18.9138 1.10835L18.8979 0.934252L18.7394 0.728494L18.7553 0.554391L19.0879 0L19.6303 0.495145L20.0816 0.978098L20.212 1.1522H20.6911L21.2458 1.23947L21.669 1.42961L22.0018 1.64735L22.2946 1.97202L23.9416 1.94037L24.1629 1.984L24.3969 2.04325L24.4523 2.14613L24.3533 2.2766L23.9298 2.40728L23.36 2.59742L23.0392 2.87441L23.6212 3.02092L24.0447 3.27031L24.5276 3.77722L25.0978 3.91175L25.7829 4.40647L26.2186 5.04791L26.1037 5.16662L25.7829 4.97669L25.3868 4.53715H24.9077L24.3533 4.40647L23.9416 4.25996L23.5775 4.06981L23.3758 3.98276L23.2452 4.08564L23.4034 4.23215L23.8269 4.52111L24.2068 4.90118L24.3807 5.10694L25.125 5.15058L25.5168 5.19421L26.059 5.4714L26.4074 5.79223L26.5266 5.91094L26.5108 6.04162L26.364 5.99799L26.0156 5.7486L25.6794 5.61791L25.2394 5.64551L24.9507 5.67716H24.614L24.408 5.66133L24.2498 5.60187L24.1471 5.53065L24.0757 5.61791L24.2778 5.86345L24.6574 6.06921L25.3581 6.40565L25.7068 6.56393L26.1029 6.6512L26.1305 6.79771L25.782 6.90059L25.3744 6.82936L24.9943 6.6512L24.4833 6.62339L23.9888 6.41763L23.6798 6.25914L23.462 6.23155L23.4901 6.40565L24.1037 6.94422L24.5548 7.6171L24.6855 7.94969L24.9507 8.17149L25.2711 8.51991L25.3581 8.82855L25.6633 9.10574L25.8096 9.16114L25.707 9.32348L25.5049 9.26402L25.1528 9.07409L24.7605 8.71006L24.4517 8.47649L23.8695 8.14005L23.2993 7.68875H23.2007L23.2283 7.80767L23.6635 8.21534L24.0598 8.46088L24.4083 8.68268L24.7291 8.97185L24.7881 9.20541L25.0375 9.56966L25.2279 9.732L25.5487 9.77563L25.8257 9.84686L26.0158 10.0092L25.8851 10.1241L25.5489 10.1835L25.2401 10.0965H25.0063L24.7017 9.93797L24.5116 9.67276L24.2183 9.56988L23.6088 9.39577L23.2997 9.32455L23.1694 9.4116L23.2129 9.55811L23.5057 9.71639L23.8265 10.0965L23.9732 10.2706L24.4957 10.5041L25.0063 10.9593L25.2995 11.4106L25.446 11.6125L25.6086 11.6007L25.6644 11.6878L25.5496 11.759L25.4544 11.7986L25.4306 11.8026L24.9954 11.5413L24.8328 11.2365L24.4093 11.189L24.0767 11.0149L23.7247 10.9595L23.8004 11.1456L24.0616 11.3513L24.034 11.482L23.7846 11.4544L23.6105 11.3237L23.3177 11.2367L23.0837 11.1892L23.0561 11.2921L23.2144 11.4978L23.5786 11.6285L24.0019 11.6997L24.3227 11.8621L24.6153 12.1115L24.952 12.2263L25.3438 12.2422L25.5339 12.3292L25.4625 12.4877L25.2131 12.6064L24.746 12.5906L24.2789 12.3887L23.9897 12.2419L23.6965 12.1549H23.3168L23.0828 12.2856L23.2019 12.3568L23.5223 12.4004L23.8708 12.4441L24.2943 12.6659L24.5558 12.9112L24.8052 13.0735L25.0069 13.133L24.8921 13.22H24.6427L24.3381 13.1448L24.148 12.9865L23.9142 13.0301H23.4785L23.0552 13.0577H22.6317L22.4416 13.0301L22.4258 13.1448L22.6317 13.2754L23.1108 13.4378L23.6096 13.5407L23.9422 13.786L24.2192 14.1107L24.5278 14.356L24.8487 14.3996L25.2287 14.3404L25.6644 14.1977L25.7945 14.0632L25.9307 14.0521L25.9149 14.1549L25.7681 14.2974L25.4315 14.5034L25.1864 14.6182L24.7466 14.6775L24.133 14.5904L23.7846 14.4163L23.1277 14.1549L22.5137 14.0521L22.1809 13.8897L22.0346 13.9926L22.1809 14.1113L22.9215 14.4003L23.5352 14.7209L23.9311 15.0734L24.078 15.2753L23.9912 15.3942L23.7572 15.2913L23.2464 14.9549L22.8942 14.84H22.5896L22.5457 14.9549L22.7639 14.9985L23.1558 15.145L23.5519 15.509L23.7574 15.8457L23.9003 16.0634L24.0624 16.1663L24.1651 16.1227L24.2523 16.1385L24.1771 16.285L23.8445 16.2414L23.5236 16.0196L23.2742 15.8177L22.7911 15.5247L22.3402 15.3187L21.9479 15.3345L21.465 15.101L21.1598 14.8952L21.0409 14.9981L20.9818 15.5247L21.2156 16.3719L22.0784 17.7852L22.8666 18.7631L24.3116 19.9748L25.3175 20.6558L25.6379 20.9056L26.3662 21.5034L27.0833 22.188L27.4159 22.6393L27.6653 22.9478L28.0454 23.4703L28.3224 24.0127L28.4248 24.3889L29.1969 24.3455L30.0005 23.8942L30.6263 23.3242L31.24 22.5523L31.4027 22.0578L31.4894 21.6178L31.5452 21.0795V20.5683L31.4145 19.6223L31.1966 18.383L30.8601 17.3495L30.686 16.6923L30.5119 15.9321L30.5399 15.2036L30.5992 14.6651L30.8009 14.1226L31.169 13.4536L31.5454 12.9428L32.0718 12.4755L32.4953 12.1113L32.7451 11.9489L33.0497 11.7906L33.1211 11.846L33.0655 11.9648L32.4677 12.4755L31.9847 13.0733L31.6205 13.8176L31.4145 14.4867L31.3711 15.0845L31.3869 15.4053L31.4303 15.5398L31.5608 15.5518L32.2337 14.7639L32.6848 14.3284L33.077 14.0076L33.3423 13.568L33.5164 13.1326L33.6188 13.0297L33.6744 13.188L33.6312 13.687L33.2822 14.3996L32.6967 15.2746L32.4074 15.742L32.2884 16.241L32.2604 16.7793L32.3635 17.2467L32.5376 17.3495L32.7278 17.3179L32.9019 16.9258L33.0482 16.6923L33.4124 16.2527L33.5431 16.1657L33.7767 15.8173L33.9073 15.6707V15.4211L34.069 15.4971L34.1835 15.6553L34.1559 15.8294L34.0252 16.1817L33.6731 16.7359L33.4278 17.2745L33.3091 17.8169L33.2533 18.2523L33.3247 18.9372L33.4396 19.5945L33.5741 20.2359L33.689 21.1227L33.6731 21.8394L33.6017 22.6391L33.3837 23.1379L33.1187 23.6604L32.6514 24.2897L32.2872 24.6103L31.8793 24.8285L31.4998 25.0024L31.2222 25.0616L31.1508 25.1921L31.3527 25.5285L31.5865 25.9961L31.6179 26.2296V26.5068L31.5306 27.0612L31.515 27.5559L31.5306 27.8924L31.6299 28.2286L31.6455 28.3L31.5865 28.4187L31.456 28.3713L31.2543 27.92L31.2385 27.908L31.0918 27.4526L31.0325 26.7954L30.9335 26.3008L30.6999 25.8774L30.5098 25.6436L30.363 25.5726L30.2439 25.6318L30.2756 25.8057L30.5371 26.17L30.6674 26.6373V27.3065L30.5647 27.9794L30.4499 28.4904L30.1883 28.9577L29.8679 29.4689L29.7334 29.7301L29.5312 30.0073L29.3574 30.241L29.4006 30.5026L29.4564 30.6491L29.3574 30.7837H29.167L29.0645 30.475L29.037 30.1544L29.0645 29.8772L29.2115 29.4259L29.4566 28.8996L29.7216 28.345L29.8089 27.7747L29.8365 27.3551L29.7774 27.0899L29.706 26.8127L29.635 26.7415H29.5479L29.4722 26.8997L29.4132 27.2364L29.3576 27.7193L29.2386 28.0519V28.4483L29.2979 28.6818L29.2545 28.7847L29.1672 28.7967L29.0648 28.6502L28.9777 28.084V27.3673L29.0057 27.0308L29.0372 26.8127L28.9893 26.4921L28.9617 26.1558L28.8588 25.9105L28.7439 25.835L28.6135 25.8664L28.4945 25.9813L28.4669 26.3336L28.4231 26.7964L28.2766 27.2956L28.0706 27.7467L27.8529 28.1428L27.5913 28.6061L27.2271 29.0178L26.875 29.4257L26.5266 29.79L26.0156 30.2252L25.6355 30.5499L25.3151 30.7518L25.1406 30.8547L24.9785 31.1161L24.8202 31.6585L24.7612 31.8602V32.2122L24.789 32.4738L24.9194 32.7232L25.1845 33.056L25.3506 33.3411L25.4259 33.5152L25.4897 33.8157L25.5049 34.1365L25.5763 34.3104L25.4738 34.4409L25.43 34.5598L25.3158 34.6747L24.8322 34.9399L24.3533 35.2605L23.7243 35.8427L23.3876 36.1948L23.2293 36.5154L23.0392 36.6302L22.8056 36.7607L22.6431 36.8796L22.6155 37.1412L22.4848 37.4618L22.2354 37.8141L22.0337 38.0755L21.8436 38.1942L21.7244 38.2814L21.61 38.2498L21.5069 38.2222L21.5345 38.3687L21.5942 38.5156L21.4911 39.2125L21.3009 39.3904L21.0992 39.4777H20.9686L20.9095 39.6242L20.5297 39.7985L20.2401 39.9724L19.9633 40H19.3216L19.1475 39.8139L19.1317 39.5209L19.2188 39.1569L19.3653 38.7173L19.6149 38.2819L20.0228 37.8581L20.3549 37.4941L20.6477 37.1301L20.7784 36.8649L21.024 36.6311L21.4359 36.4728L21.6376 36.3541L22.1047 35.8429L22.6157 35.289L23.1267 34.6315L23.3761 34.2831L23.5343 34.0217L23.5936 33.8593V33.7287L23.5063 33.5387L23.0552 32.9843L22.6754 32.3863L22.3984 31.8163L22.0461 31.0878L21.7691 30.4742L21.6543 30.0068L21.567 29.2071L21.6543 28.4904L21.8282 27.8053L22.1208 27.2789L22.414 26.7956L22.6319 26.4196L22.703 26.1702L22.7344 25.6752V25.4417L22.8217 25.2515L22.9365 24.9429L23.0668 24.8004L23.055 24.6659H22.8766L22.6908 24.757L22.5996 24.9585L22.5721 25.2793L22.5282 25.687L22.469 26.0553L22.192 26.5344L22.1364 26.8709L21.9028 27.1202L21.74 27.2783L21.5341 27.3063L21.2013 27.1756L20.837 26.9143L20.7025 26.5656L20.6749 26.2294L20.0811 25.4256L19.5109 24.9427L18.8498 24.4715L18.1331 23.9845L17.5748 23.6874L16.8305 23.2876L15.9119 22.5829L15.421 22.1476L14.8469 21.5179L14.3717 21.047L14.0748 20.6074L13.9204 20.3144L13.9717 20.1919L14.0588 19.966H12.8512L12.273 19.772L11.8217 19.5108V19.2495L11.3307 18.9684L10.3173 18.4776L9.89763 18.3231L9.49382 18.0776L9.21277 17.8321H9.02284L8.7773 17.9707L8.63892 18.3388L8.72597 18.9524L8.96745 19.4593L9.10989 20.1046L9.28421 20.8016L9.49403 21.2927L9.82662 21.6769L9.8108 21.867L9.84245 22.1639L10.0206 22.2195L10.5076 22.4291L10.769 22.6907L10.9117 22.9003L10.9474 23.0228C10.9474 23.0387 10.9474 23.1612 10.9632 23.1612L11.0503 23.3552V24.0364L10.979 24.3333L10.8603 24.5431L10.7534 24.7883L10.5793 24.8398L10.3697 24.824L10.0531 24.63L9.61744 24.2103L9.32057 23.7749L9.12658 23.284L8.8496 22.8641L8.60405 22.619L8.33884 22.4092L8.23596 22.1639L8.12902 21.467L7.99063 21.0117L7.93909 20.6079L7.83214 20.176L7.67772 19.5624L7.55495 18.9329L7.30962 18.1291L7.20268 17.4997L7.22236 17.1513L7.4125 16.6762L7.65804 16.2566L7.95491 15.9952L8.23574 15.8211L8.60384 15.8012L9.23331 15.8211L9.75583 15.924L10.2982 16.0309L10.7179 16.0666L11.015 16.134L11.102 16.0468L11.015 15.8724L10.7386 15.7499L10.4576 15.5242L10.1408 15.2432L9.84395 14.8948L9.58258 14.5108L9.33725 14.2298L9.11139 14.107L8.95312 14.0555L8.83035 14.0912L8.70758 14.2456L8.65603 14.491L8.6402 14.772L8.58459 14.9818L8.51743 15.2269L8.35916 15.4368L8.18505 15.5912L8.02678 15.7338L7.91984 15.801L7.69397 15.8209L7.57142 16.011L7.41293 16.1535L7.23882 16.4345L7.06472 16.9731L6.9935 17.3254V17.6381L7.04889 17.9709L7.15177 18.4102L7.25872 18.8298L7.34598 19.1783L7.41314 19.4593L7.31026 19.8077L7.04889 20.2274L6.74796 20.5916L6.53835 20.7818L6.3127 20.8532L6.18993 20.7661L6.03144 20.4019L6.05155 19.9465L6 19.6693L6.08727 19.3528V18.5847L6.10309 18.1452L6.11892 17.8838L6.24169 17.6224L6.43569 17.1671L6.50691 16.6247L6.62968 16.1892L6.85533 15.7497L6.9781 15.2785L7.1167 14.8073L7.23947 14.5104L7.25914 14.0035L7.39774 13.5798L7.53612 13.3028L7.6589 12.8477L7.76584 12.5506L7.92026 12.1667L8.2212 11.9568L8.56962 11.7628L9.06049 11.66L9.44441 11.7273L9.87988 11.8856L10.2837 12.2182L10.652 12.5151L10.9489 12.7407L11.5229 13.0417L12.0337 13.2673L12.3821 13.493L12.6948 13.6356L12.8531 13.6713L13.0984 13.5486L13.2725 13.4416L13.4468 13.2158L13.6922 12.9347L14.0761 12.7407L14.5315 12.4635L14.8283 12.2182L15.0739 12.0441L15.2679 11.8144L15.4063 11.359L15.6676 11.082L16.0794 10.7336L16.5268 10.2864L16.8791 9.79937L17.2711 9.30466L17.5958 8.79775L17.6908 8.54045L17.8334 8.16828L17.968 7.7604L18.1025 7.38824L18.1975 7.09137L18.2449 6.83407L18.2648 6.62425L18.1697 6.46191L17.9956 6.39475L17.5956 6.36694L17.2829 6.42234L17.081 6.39475L16.7088 6.27989L16.4237 6.2523L16.2415 6.14536L16.0197 6.11755L15.794 6.12931L15.6396 6.07777L15.4377 6.11755L15.2001 6.16503L14.8397 6.35518L14.5901 6.41464L14.3606 6.42255H14.1783L13.9527 6.39496L13.8457 6.3L13.8577 6.18514L13.921 6.0782L14.2457 5.98323L14.6773 5.82089L14.82 5.7456L14.8596 5.64273L14.82 5.53578L14.6497 5.52787L14.226 5.69812L13.9133 5.79309L13.6361 5.86837L13.4659 5.88035L13.3232 5.80507L13.1609 5.65855V5.39333L13.1489 5.14395L13.1609 4.96578L13.2837 4.81135L13.4659 4.4948L13.656 4.20969L13.7313 4.07516L13.7987 3.8771L13.8857 3.69487L14.0363 3.6553L14.4284 3.64739L14.7135 3.63947L15.0382 3.56034L15.3825 3.40976L15.7626 3.16016L16.2417 2.94242L16.6613 2.64534L17.0057 2.4631L17.2313 2.31274L17.358 2.25328L17.5678 2.178L17.6153 2.10292L17.5755 2.00774L17.128 1.80583L16.8232 1.73055L16.5659 1.65141L16.2295 1.63558L16.071 1.6435L15.9166 1.71087L15.7821 1.75044L15.6394 1.71878L15.572 1.60393L15.6315 1.52073L15.8216 1.50875L16.059 1.43346L16.3758 1.3663L16.5856 1.39389L16.748 1.35817ZM18.0345 24.987L18.1059 24.8124L18.2682 24.7055L18.4543 24.674L18.6759 24.7412L18.8977 24.8479L19.3174 25.1609L19.6897 25.4423L19.9825 25.7232L20.2159 26.0239L20.434 26.3764L20.5491 26.7365L20.5957 27.0732L20.8419 27.2475L21.1903 27.5048L21.3642 27.6434L21.4476 27.9123L21.3762 28.2292L21.3208 28.8587V29.3932L21.3878 29.9433L21.5422 30.585L21.7526 31.155L22.0179 31.7015L22.2159 32.0777L22.2626 32.3786L22.1004 32.7506L21.9501 33.0556L21.6692 33.1268L21.1424 33.1031L20.9442 32.9606L20.434 32.7271L19.8557 32.5288L19.2699 32.3549L18.4661 32.1804L17.9752 32.1089L17.2546 32.0184L17.0331 32.0777L16.8468 32.0184L16.4825 31.9945L16.1936 32.0065L16.0748 31.9708L16.0075 31.8324L15.865 31.7611L15.5284 31.8681L15.1325 31.9588L14.6653 32.0065L14.1426 31.9945L13.7784 31.876L13.4419 31.6897L13.1489 31.4797L12.9628 31.4007L12.6499 30.9689L12.4837 30.7001L12.4717 30.5375L12.5312 30.4543L12.7055 30.4066L12.9511 30.3039L13.3112 30.2802H13.6755L14.0714 30.3161L14.5941 30.3277L14.9226 30.3514L15.2236 30.4543L15.7502 30.5375H15.972L16.1341 30.4663L16.4389 30.4543L16.7043 30.502L16.9379 30.6049L17.2901 30.7593L17.9872 30.9571L18.5613 31.06L19.2145 31.1434L20.0063 31.1907L20.4578 31.167L20.6081 31.1077L20.6437 30.9454L20.6317 30.7473L20.3626 30.3871L20.0418 29.9433L19.6341 29.2548L19.2936 28.6371L19.0718 28.2175L18.7591 27.5048L18.5255 26.9466L18.2445 26.0121L18.0822 25.3035L18.0345 24.987Z" fill="#F6F6F3"/>
</svg>
