<svg width="40" height="40" viewBox="0 0 40 40" fill="none" xmlns="http://www.w3.org/2000/svg">
<path d="M0 8L0.797091 32.6149H4.67127L4.58655 22.4076H7.83527V19.2258H4.58655L4.59855 11.2164H8.84L8.81709 8H0ZM10.3487 8L10.8389 32.6149H14.8396L14.9207 8.00036L10.3487 8ZM29.104 8V11.1047H32.264L32.1731 32.6149H36.0436L36.8658 11.1015H40L39.976 8H29.104ZM20.9538 19.3924L20.9975 11.0316H23.2316C24.2444 12.8935 24.8949 15.356 25.4051 19.3924H20.9538ZM17.3847 32.6142H21.0884L21.1298 22.436H25.5673C25.916 24.2324 26.0015 29.7778 26.0222 32.6142H29.6149C29.9549 20.048 28.9018 12.9455 25.9924 8H17.0458L17.3847 32.6142Z" fill="#F6F6F3"/>
</svg>
