<svg width="40" height="40" viewBox="0 0 40 40" fill="none" xmlns="http://www.w3.org/2000/svg">
<path fill-rule="evenodd" clip-rule="evenodd" d="M0.70325 20.1317C0.70325 16.5336 9.34256 13.5931 20.0008 13.5931C30.6589 13.5931 39.2976 16.5336 39.2976 20.1317C39.2976 23.73 30.6589 26.6707 20.0008 26.6707C9.34256 26.6707 0.70325 23.73 0.70325 20.1317ZM0 20.1317C0 24.0704 8.95457 27.2633 20.0008 27.2633C31.046 27.2633 40 24.0704 40 20.1317C40 16.1923 31.046 13 20.0008 13C8.95457 13 0 16.1923 0 20.1317ZM17.8809 18.4483C17.8939 18.5172 17.9208 18.5307 17.9522 18.5249C18.1079 18.4938 18.2783 18.3659 18.3792 18.2177C18.4711 18.0833 18.5142 17.8894 18.4229 17.8116C18.3415 17.7417 18.209 17.7615 18.1107 17.8482C17.915 18.0208 17.8556 18.2657 17.8808 18.4484L17.8809 18.4483ZM10.0895 24.4297C8.94971 24.4371 7.94555 23.7343 7.83032 22.5169C7.76629 21.8423 7.95728 21.2411 8.33966 20.7458C8.67896 20.3044 9.25309 19.9377 9.73906 19.8481C9.8972 19.8193 10.1097 19.837 10.1975 19.9421C10.3353 20.1022 10.2957 20.2781 10.1579 20.3483C9.78716 20.5372 9.34103 20.8608 9.12028 21.3026C8.94124 21.6632 8.90506 22.0978 9.17854 22.5118C9.63626 23.2017 10.9122 23.2207 12.0985 22.1203C12.3923 21.851 12.6552 21.5923 12.9225 21.2858C13.445 20.6893 13.6188 20.472 14.3134 19.5101C14.3208 19.499 14.3246 19.4844 14.3208 19.4773C14.3152 19.4643 14.3059 19.4624 14.2852 19.4605C13.8215 19.4736 13.4173 19.6114 13.0243 19.9045C12.9112 19.9869 12.7483 19.9753 12.677 19.8669C12.5977 19.7442 12.6547 19.5845 12.7852 19.4944C13.3599 19.0953 13.9829 18.9933 14.6213 18.8888L14.6215 18.8887C14.6852 18.8783 14.7489 18.8679 14.8129 18.8571C14.8123 18.8571 14.8618 18.859 14.9021 18.806C15.0246 18.649 15.1345 18.4985 15.2438 18.3487L15.2439 18.3486L15.2439 18.3486C15.3928 18.1446 15.5408 17.9418 15.7187 17.7255C16.0296 17.3449 16.4312 16.9955 16.7381 16.733C17.1081 16.4153 17.3635 16.2797 17.6062 16.1509L17.6062 16.1509C17.6444 16.1306 17.6823 16.1105 17.7202 16.0899C17.7938 16.0515 17.7109 16.0057 17.6885 16.0057C17.574 15.9842 17.4592 15.9623 17.3442 15.9403C15.8924 15.6628 14.3963 15.3768 12.9621 15.9069C11.8901 16.3062 11.4203 17.155 11.6463 17.7221C11.807 18.1243 12.337 18.1897 12.8331 17.9473C13.2452 17.7458 13.6265 17.4209 13.8968 17.0027C14.048 16.7705 14.3667 16.938 14.1945 17.3413C13.7416 18.4042 12.8763 19.2472 11.8223 19.2828C10.9252 19.3119 10.3465 18.6531 10.3484 17.8403C10.3521 16.2371 12.1397 15.181 14.0184 15.0232C15.6015 14.8925 17.1259 15.1479 18.6683 15.4062C19.3303 15.5171 19.9957 15.6285 20.6703 15.7102C22.3915 15.9183 24.0416 15.9226 25.7717 15.5259C25.9762 15.4815 26.1197 15.6118 26.1063 15.818C26.0895 16.1161 25.8582 16.4032 25.2884 16.7135C24.6404 17.0683 23.9625 17.1759 23.2545 17.1817C22.077 17.192 20.955 16.8797 19.8323 16.5672C19.3225 16.4254 18.8126 16.2835 18.2973 16.1717C18.2977 16.1843 18.2985 16.1973 18.2994 16.2105C18.3034 16.2726 18.3077 16.3377 18.2578 16.3753C17.3436 17.0484 16.5174 17.732 15.964 18.6922C15.9453 18.7143 15.9546 18.7354 15.9877 18.7332C16.1445 18.7248 16.2962 18.7179 16.445 18.7111C16.752 18.6971 17.0467 18.6836 17.3488 18.6595C17.4272 18.6521 17.4302 18.6334 17.4233 18.5764C17.3835 18.2455 17.4804 17.8681 17.772 17.6085C18.0704 17.3413 18.4441 17.311 18.6918 17.5034C18.9734 17.7225 18.9485 18.1165 18.7945 18.412C18.6377 18.7118 18.3787 18.8721 18.1301 18.95C18.1301 18.95 18.0778 18.9612 18.0857 19.0085C18.0913 19.0542 18.2168 19.1404 18.322 19.2127C18.3912 19.2602 18.4516 19.3017 18.4631 19.3215C18.4911 19.369 18.4762 19.4427 18.4252 19.4991C18.3894 19.5401 18.3332 19.5785 18.2613 19.5772C18.2052 19.5761 18.1703 19.5573 18.1009 19.5199L18.0936 19.5159C17.9417 19.4337 17.7517 19.2986 17.625 19.1392C17.5819 19.0854 17.5599 19.0843 17.4521 19.0902C16.9667 19.1182 16.2099 19.1913 15.6971 19.2552C15.5727 19.2701 15.5544 19.2938 15.5288 19.3368L15.4735 19.428C14.6718 20.7481 13.8166 22.1563 12.8798 23.1063C11.8517 24.1483 10.9971 24.4226 10.0899 24.4297L10.0895 24.4297ZM28.2227 21.7844C28.2283 21.8201 28.2754 21.8544 28.3209 21.8706C28.3377 21.8762 28.3459 21.8874 28.3284 21.9254C28.2175 22.1628 28.1142 22.3143 27.9851 22.5038C27.9629 22.5364 27.9399 22.5701 27.916 22.6056C27.7661 22.8289 27.5973 23.0031 27.3929 23.1706C27.0846 23.4253 26.6565 23.7026 26.3025 23.5162C26.1453 23.4347 26.0773 23.215 26.0803 23.0372C26.0878 22.5371 26.3107 22.0237 26.7221 21.5191C27.2238 20.9025 27.7783 20.5827 28.1423 20.7575C28.5188 20.9368 28.3987 21.3721 28.23 21.7137C28.217 21.7402 28.217 21.7626 28.2226 21.7842L28.2227 21.7844ZM32.2633 17.8876C32.2904 17.8399 32.2619 17.805 32.2015 17.805C32.0459 17.805 31.8662 17.8052 31.6847 17.8054C31.4994 17.8055 31.3122 17.8057 31.1467 17.8057C31.0686 17.8057 31.0283 17.815 30.9915 17.8877C30.912 18.0398 30.2475 19.0455 29.7236 19.8382C29.4508 20.2512 29.2161 20.6063 29.1221 20.753C29.0758 20.8183 29.0194 20.8091 29.0129 20.7344C28.9851 20.48 28.765 20.1876 28.4183 20.0476C28.1541 19.9406 27.8958 19.9212 27.6272 19.9568C27.1424 20.0219 26.7105 20.2772 26.3307 20.5652C26.0909 20.7472 25.8649 20.9518 25.6364 21.1586C25.3194 21.4456 24.9975 21.7369 24.6271 21.9787C24.2791 22.2051 23.8026 22.4026 23.4837 22.1078C23.1951 21.8407 23.2277 21.2474 23.6692 20.7886C23.7157 20.7405 23.7715 20.7811 23.7628 20.8238C23.7211 21.0313 23.7721 21.2377 23.93 21.3824C24.1227 21.5548 24.3984 21.5742 24.6343 21.4591C24.9127 21.3214 25.0764 21.0554 25.1241 20.7536C25.1978 20.2853 24.8368 19.8723 24.385 19.8392C24.018 19.8135 23.6661 19.9409 23.3232 20.2235C23.1512 20.3659 23.0536 20.4711 22.9049 20.6822C22.8687 20.7342 22.813 20.7394 22.8147 20.6626C22.8315 20.0631 22.5834 19.7258 22.0869 19.7148C21.7016 19.7055 21.2899 19.9144 20.969 20.1698C20.7055 20.3811 20.4667 20.6439 20.2249 20.9101L20.2249 20.9102C20.1439 20.9992 20.0626 21.0887 19.98 21.1768C19.9389 21.22 19.9032 21.218 19.8916 21.1341C19.8823 20.7369 19.7817 20.3521 19.5976 20.0789C19.5324 19.9838 19.3952 19.9369 19.28 20.001C19.2702 20.0063 19.2559 20.0136 19.2382 20.0226L19.2382 20.0226C19.1602 20.0622 19.0168 20.1351 18.9069 20.2234C18.8401 20.2784 18.814 20.358 18.8436 20.46C19.0214 21.0534 18.9823 21.7282 18.7411 22.298C18.5197 22.82 18.0893 23.2907 17.5835 23.45C17.2503 23.5555 16.9039 23.5039 16.6895 23.209C16.3951 22.8019 16.514 22.094 16.9529 21.5062C17.3401 20.9886 17.9004 20.6598 18.4591 20.4481C18.5248 20.4228 18.5385 20.3806 18.5198 20.3249C18.5013 20.2688 18.4759 20.2003 18.4546 20.1425C18.441 20.1058 18.429 20.0734 18.4214 20.0513C18.37 19.915 18.2266 19.893 18.0514 19.912C17.6454 19.9592 17.2791 20.0981 16.9173 20.2915C15.97 20.798 15.495 21.7782 15.2869 22.3026C15.1866 22.5545 15.101 22.7116 14.9902 22.851C14.8408 23.0384 14.6534 23.209 14.3106 23.5096C14.2796 23.5372 14.2564 23.5946 14.2826 23.6481C14.3175 23.7204 14.4958 23.9718 14.5461 23.9942C14.6019 24.0216 14.6667 23.983 14.6926 23.9647C14.9325 23.8024 15.2195 23.5451 15.3599 23.3706C15.4092 23.3107 15.4598 23.3359 15.4859 23.4267C15.617 23.8935 15.9602 24.2747 16.4347 24.4341C17.3034 24.7266 18.2043 24.3033 18.8844 23.5663C19.1777 23.2485 19.3438 23.0076 19.472 22.8216L19.472 22.8215C19.5327 22.7334 19.585 22.6577 19.6382 22.5919C19.6834 22.536 19.7357 22.4689 19.7944 22.3937C20.1001 22.0016 20.579 21.3874 21.1324 20.9689C21.3743 20.7849 21.6605 20.6446 21.8045 20.7378C21.9201 20.8125 21.9574 20.9862 21.772 21.3228C21.3551 22.0829 20.8163 22.9254 20.4238 23.5393L20.4238 23.5393C20.1832 23.9156 19.9975 24.206 19.9285 24.3388C19.8953 24.3993 19.9248 24.447 19.9879 24.447C20.2527 24.4457 20.5158 24.4459 20.7659 24.4461L21.0081 24.4462C21.0613 24.4443 21.0851 24.4194 21.1117 24.3819C21.2323 24.1936 21.3511 24.0074 21.4691 23.8225L21.4699 23.8213C21.8571 23.2147 22.2354 22.6219 22.6342 22.0139C22.6633 21.9671 22.6902 22.0027 22.6913 22.0232C22.7025 22.2074 22.7473 22.4592 22.8569 22.6247C23.0537 22.9304 23.3326 23.0618 23.6419 23.0638C23.888 23.0675 24.0125 23.0293 24.2779 22.9303C24.4939 22.8504 24.6672 22.7454 24.8003 22.6505C24.8779 22.5964 24.8916 22.6868 24.8897 22.7006C24.7702 23.3409 24.9177 24.0996 25.5551 24.4142C26.318 24.7897 27.156 24.2619 27.6382 23.7855C27.6855 23.7396 27.736 23.7445 27.7409 23.8434C27.7521 24.0254 27.8335 24.2412 27.9842 24.3923C28.3883 24.7972 29.2038 24.6367 30.0221 24.0044C30.5475 23.5995 31.0973 23.0275 31.5938 22.4217C31.6125 22.3982 31.626 22.3606 31.5901 22.3224C31.5404 22.2704 31.4761 22.2135 31.4165 22.1609C31.3855 22.1334 31.3558 22.1072 31.3301 22.0833C31.2959 22.0542 31.2457 22.0626 31.217 22.0843C31.0729 22.2211 30.9329 22.3634 30.7911 22.5074C30.4322 22.8721 30.0623 23.2479 29.5875 23.5746C29.3642 23.7303 29.0082 23.8558 28.8483 23.6397C28.786 23.5558 28.7931 23.4398 28.8539 23.2876C28.9919 22.944 30.5934 20.4716 31.5534 18.9894L31.5536 18.9892C31.9365 18.398 32.2174 17.9644 32.2626 17.8862L32.2633 17.8876Z" fill="#F6F6F3"/>
</svg>
