<svg width="40" height="40" viewBox="0 0 40 40" fill="none" xmlns="http://www.w3.org/2000/svg">
<path fill-rule="evenodd" clip-rule="evenodd" d="M20.0003 25.4442C27.5175 25.4442 33.6113 21.3153 33.6113 16.222C33.6113 11.1288 27.5173 7 20.0003 7C12.4833 7 6.38928 11.1289 6.38928 16.2222C6.38928 21.3155 12.4831 25.4444 20.0003 25.4444V25.4442ZM20.0003 7.72214C26.6584 7.72214 32.0558 11.5277 32.0558 16.222C32.0558 20.9164 26.6584 24.7219 20.0003 24.7219C13.3422 24.7219 7.94476 20.9164 7.94476 16.222C7.94476 11.5277 13.3422 7.72214 20.0003 7.72214ZM36.9202 26.392C37.0956 26.3737 37.5917 26.3487 37.6934 26.4987H37.6936C37.7471 26.5775 37.7347 26.8652 37.7257 27.0763V27.0764C37.7228 27.1435 37.7202 27.2029 37.7202 27.2454C37.7202 27.6492 37.7214 28.0707 37.7226 28.4997C37.7266 29.9154 37.7307 31.4131 37.6936 32.632C37.606 32.7408 37.4184 32.7399 37.2089 32.7389C37.1884 32.7388 37.1677 32.7387 37.1469 32.7387C37.1276 32.7387 37.1058 32.739 37.0823 32.7393C36.9133 32.7417 36.6556 32.7453 36.5869 32.6453C36.5335 32.5682 36.5457 32.282 36.5548 32.07C36.5577 32.0022 36.5603 31.942 36.5603 31.8987C36.5603 31.4897 36.5591 31.0689 36.5579 30.643V30.642V30.6409V30.6399V30.6389V30.6379V30.6369V30.6358V30.6348C36.5539 29.2316 36.5498 27.7747 36.5869 26.5121C36.683 26.4466 36.7985 26.4048 36.9202 26.392ZM4.44025 28.0188C3.99523 27.8109 3.37207 27.6116 2.69366 27.7388L2.69312 27.739C1.96091 27.8763 1.48872 28.3979 1.30643 29.1123C1.09427 29.9433 1.31147 30.8427 1.74641 31.2989C2.15921 31.7322 3.03916 32.0171 3.81312 31.6455V30.2721C3.66613 30.2688 3.51396 30.2705 3.36176 30.2723C3.11375 30.2752 2.86567 30.2781 2.63985 30.2588C2.50993 30.1166 2.45541 29.485 2.63985 29.3788C2.70768 29.3398 2.87417 29.3448 3.02602 29.3494H3.0261H3.02619H3.02628H3.02638H3.02649H3.02659L3.02671 29.3494C3.07364 29.3508 3.11916 29.3522 3.15991 29.3522H3.71991C3.82957 29.3522 3.94698 29.3462 4.06469 29.3402C4.3466 29.3259 4.63022 29.3114 4.81328 29.3788C5.02998 29.4587 5.0236 29.715 5.01609 30.0169C5.01467 30.074 5.0132 30.1327 5.0132 30.1922V31.6322C5.0132 31.6829 5.01444 31.7365 5.01569 31.7908C5.0202 31.9862 5.02493 32.1914 4.97325 32.3122C4.89655 32.4905 4.55394 32.5782 4.30641 32.6416L4.30639 32.6416L4.30636 32.6416L4.30633 32.6416L4.3063 32.6417L4.30627 32.6417C4.28325 32.6476 4.26105 32.6532 4.23996 32.6588C3.93945 32.737 3.65837 32.7698 3.36001 32.7921C1.25047 32.9488 0.167713 31.8855 0 30.1121V29.5921C0.0651416 28.3254 0.731673 27.4165 1.64006 27.0188C2.09569 26.8194 2.6996 26.6909 3.42677 26.7388C3.71721 26.7577 4.07063 26.8237 4.32004 26.8988C4.55685 26.9699 4.88346 27.0976 4.97343 27.2988C5.04685 27.462 5.09526 28.1359 4.90685 28.2054C4.82303 28.2365 4.65869 28.1419 4.53874 28.0728C4.49981 28.0504 4.46556 28.0306 4.44025 28.0188ZM12.2002 28.4454C11.8225 28.2599 11.324 28.1932 10.8135 28.2721C9.91358 28.4116 9.38291 29.0243 9.20027 29.8854C9.10309 30.3421 9.11641 30.9181 9.21358 31.352C9.41584 32.2553 9.96631 32.7142 10.987 32.8186H11.6271C11.6559 32.8144 11.6858 32.8102 11.7166 32.8059L11.7167 32.8059L11.7168 32.8059L11.7169 32.8059L11.7171 32.8058L11.7172 32.8058C11.9008 32.78 12.115 32.75 12.3204 32.6985C12.3403 32.6935 12.3614 32.6884 12.3833 32.6831C12.5682 32.6383 12.8114 32.5793 12.8804 32.4585C12.9733 32.2964 12.9294 31.8924 12.8671 31.6986C12.6989 31.6968 12.529 31.7505 12.3535 31.806L12.3535 31.806C12.2641 31.8343 12.1732 31.8631 12.0804 31.8852C11.1743 32.1007 10.2287 31.8818 10.307 30.8319H12.2536C12.3104 30.8319 12.3684 30.8335 12.4262 30.8351C12.6924 30.8425 12.9527 30.8497 13.0537 30.6986C13.1602 30.5391 13.1299 30.2129 13.1103 30.0016C13.1091 29.9891 13.108 29.977 13.107 29.9653C13.037 29.1902 12.6859 28.6837 12.2004 28.4453L12.2002 28.4454ZM12.0003 30.0855C11.6581 30.0859 11.2318 30.0857 10.8358 30.0856C10.6487 30.0856 10.4684 30.0855 10.307 30.0855C10.3163 29.4861 10.6591 29.0139 11.267 29.0589C11.7597 29.0956 12.017 29.4917 12.0003 30.0855ZM8.33363 28.2453C7.79925 28.2065 7.55907 28.498 7.34376 28.7592C7.27841 28.8385 7.21535 28.915 7.14705 28.9786C7.14417 28.9104 7.14567 28.8378 7.14718 28.7652C7.14972 28.6426 7.15226 28.5201 7.13373 28.4186C6.93542 28.2802 6.33817 28.2736 6.1737 28.4453C6.15157 29.8096 6.15157 31.2674 6.1737 32.632C6.39648 32.7914 7.08424 32.7914 7.30702 32.632C7.32631 32.1114 7.32342 31.5687 7.32053 31.026V31.026V31.026V31.0259V31.0259V31.0259V31.0259V31.0259V31.0258V31.0258V31.0258V31.0258C7.31876 30.6928 7.31698 30.3599 7.32034 30.0321C7.35206 29.988 7.38328 29.9422 7.41477 29.8959L7.4148 29.8959C7.58179 29.6509 7.75645 29.3946 8.05363 29.3254C8.16106 29.3004 8.2829 29.3379 8.39479 29.3723L8.39481 29.3723C8.50164 29.4052 8.5994 29.4353 8.66689 29.4055C8.77401 29.3584 8.77372 29.1603 8.77346 28.9903V28.9903V28.9902V28.9902V28.99C8.77345 28.9796 8.77343 28.9693 8.77344 28.9591C8.77345 28.9477 8.7735 28.9365 8.77361 28.9255C8.77918 28.4111 8.76695 28.2772 8.33363 28.2455V28.2453ZM30.319 27.3191L30.319 27.3191C30.3098 27.3743 30.3015 27.4236 30.2934 27.4588C30.1534 28.056 30.0111 28.674 29.8699 29.2875L29.8699 29.2877C29.6915 30.0625 29.5148 30.8299 29.3467 31.5388C29.1303 30.6831 28.9178 29.8186 28.7045 28.9507L28.7045 28.9506L28.7044 28.9505L28.7044 28.9504L28.7044 28.9503L28.7044 28.9503L28.7044 28.9502L28.7043 28.9501L28.7043 28.95L28.7043 28.9499L28.7043 28.9498L28.7042 28.9496L28.7042 28.9494L28.7041 28.9493C28.5811 28.4488 28.4578 27.9472 28.3334 27.4455C28.3241 27.4084 28.3145 27.3634 28.3041 27.315L28.3041 27.3149C28.2684 27.1483 28.2242 26.9424 28.1601 26.8855C28.0646 26.8012 27.8347 26.8031 27.6306 26.8049C27.6176 26.805 27.6047 26.8051 27.5919 26.8052C27.5831 26.8053 27.5743 26.8053 27.5656 26.8053C27.5593 26.8054 27.553 26.8054 27.5468 26.8054C27.3258 26.8054 27.0485 26.8054 26.9468 26.8988C26.88 26.9601 26.8322 27.1788 26.7947 27.3505C26.7873 27.3845 26.7803 27.4167 26.7736 27.4455C26.4541 28.8133 26.1185 30.2154 25.8002 31.5254C25.6723 30.9648 25.5364 30.3882 25.3996 29.8076L25.3995 29.8073L25.3995 29.8072L25.3994 29.8066L25.3993 29.8063C25.2132 29.0165 25.0254 28.2194 24.8535 27.4455C24.8408 27.3888 24.8304 27.3234 24.8198 27.2571C24.7942 27.0967 24.7677 26.9311 24.7068 26.8721C24.5724 26.7422 23.6201 26.7705 23.5336 26.9121C23.4646 27.0248 23.5472 27.2927 23.6096 27.495L23.6096 27.495C23.6271 27.552 23.6431 27.6038 23.6536 27.6454C23.9125 28.6701 24.167 29.6432 24.4236 30.624L24.424 30.6254C24.5399 31.0687 24.6562 31.5135 24.7736 31.9654C24.7859 32.0126 24.7984 32.0677 24.8116 32.1259L24.8116 32.126L24.8116 32.126C24.8579 32.3304 24.913 32.5732 25.0003 32.6455C25.197 32.8076 26.3154 32.7948 26.4937 32.6455C26.5644 32.5863 26.5983 32.4357 26.6315 32.2882L26.6315 32.288C26.6388 32.2556 26.6461 32.2233 26.6537 32.1922C26.7473 31.8079 26.8357 31.4324 26.9229 31.0623L26.923 31.062L26.923 31.062L26.923 31.0619L26.923 31.0618C27.1106 30.2655 27.2924 29.4937 27.507 28.7121C27.6827 29.4761 27.8802 30.2377 28.0775 30.9986L28.0775 30.9988L28.0777 30.9992C28.1773 31.3836 28.2769 31.7678 28.3737 32.152C28.3857 32.1997 28.3959 32.2513 28.406 32.3028L28.406 32.3028C28.4327 32.4385 28.4591 32.5733 28.5203 32.632C28.7186 32.822 29.882 32.7948 30.0537 32.6186C30.134 32.5361 30.1809 32.3165 30.2229 32.1193C30.2378 32.0495 30.2521 31.9824 30.2671 31.9253C30.4222 31.3314 30.5844 30.7281 30.7458 30.1273C30.9726 29.2837 31.198 28.4452 31.4004 27.6454C31.4132 27.595 31.4283 27.544 31.4435 27.4925C31.5016 27.2962 31.5617 27.0928 31.5071 26.8855C31.3104 26.7915 30.6005 26.7305 30.4404 26.8988H30.44C30.3782 26.9639 30.3448 27.1645 30.319 27.3191ZM38.8389 30.6267V30.6269C38.8395 31.05 38.84 31.4676 38.84 31.872C38.84 31.9295 38.8365 32.0025 38.8326 32.0809C38.8219 32.3002 38.809 32.5619 38.8667 32.6453C38.9505 32.7669 39.4711 32.7637 39.7067 32.7387C39.8228 32.7264 39.9516 32.6881 40 32.6053V26.5387C39.8022 26.3175 39.0756 26.346 38.8534 26.5254C38.835 27.7644 38.837 29.2246 38.8389 30.6249V30.6252V30.6255V30.6258V30.6261V30.6264V30.6267ZM19.8936 31.2987C19.9074 31.4803 19.9646 31.698 20.0802 31.7786V31.7788C20.2474 31.8955 20.5115 31.8334 20.7236 31.7836C20.7752 31.7715 20.8236 31.7601 20.8669 31.7522C20.9859 31.9321 21.0101 32.4272 20.8802 32.6055C20.7508 32.7833 20.2268 32.8288 19.8802 32.8054C19.4615 32.7772 19.1326 32.5978 18.9737 32.3521C18.6874 31.9091 18.7177 31.1621 18.7477 30.425V30.425V30.4249C18.7637 30.0307 18.7797 29.6393 18.7469 29.2988C18.6675 29.2801 18.5668 29.2827 18.4662 29.2853C18.3661 29.2878 18.2661 29.2904 18.1869 29.2721C18.0419 29.0823 18.0347 28.5399 18.2002 28.3655C18.3546 28.3461 18.5931 28.3416 18.7469 28.3655C18.75 28.2434 18.7484 28.1164 18.7467 27.9894C18.7439 27.7786 18.7411 27.5679 18.7602 27.3789C18.9675 27.2027 19.6564 27.2067 19.8802 27.3656C19.8993 27.5546 19.8966 27.7653 19.8938 27.9761C19.8921 28.1031 19.8904 28.23 19.8936 28.3522C20.0111 28.3577 20.1372 28.3548 20.2633 28.3518H20.2633C20.4786 28.3468 20.6938 28.3418 20.8669 28.3789C20.9997 28.5761 20.9975 29.0898 20.8536 29.2721C20.6713 29.291 20.4674 29.2884 20.2637 29.2857H20.2636C20.1432 29.2841 20.0228 29.2826 19.9069 29.2854C19.9111 29.4972 19.9029 29.7649 19.8942 30.0475L19.8942 30.0481L19.8942 30.0482V30.0483V30.0484V30.0484V30.0485V30.0485C19.881 30.4789 19.8667 30.9438 19.8936 31.2987ZM17.5079 30.3591V30.359C17.5123 29.7476 17.5167 29.1459 17.2136 28.7654C16.7452 28.1777 15.5841 28.1399 14.7335 28.4053C14.4758 28.4859 14.1647 28.5871 14.0668 28.7787C13.9686 28.9714 14.0197 29.487 14.1868 29.5253C14.2889 29.5487 14.421 29.4703 14.5266 29.4077L14.5266 29.4076L14.5267 29.4076L14.5269 29.4075C14.5644 29.3853 14.5986 29.365 14.6268 29.352C14.9757 29.1915 15.6619 28.947 16.1067 29.2187C16.355 29.3704 16.3917 29.6515 16.3734 30.1119C15.3372 30.0931 14.3562 30.1681 13.9601 30.8319C13.7229 31.2296 13.7568 31.838 13.9601 32.192C14.1624 32.5431 14.5507 32.7531 15.0268 32.8186H15.5068C15.7396 32.7853 15.9329 32.7025 16.1067 32.6051C16.2286 32.5373 16.331 32.4586 16.4282 32.3839C16.4728 32.3497 16.5163 32.3163 16.56 32.2852C16.5617 32.3204 16.5603 32.3626 16.5588 32.4074C16.5558 32.4977 16.5525 32.5983 16.5733 32.6719C16.7678 32.7414 17.3633 32.8247 17.4799 32.6586C17.5229 32.5978 17.516 32.4245 17.5101 32.2784C17.5083 32.232 17.5065 32.1883 17.5065 32.1519V30.5786L17.5069 30.5787C17.5069 30.5057 17.5074 30.4324 17.5079 30.3592V30.3592V30.3591V30.3591V30.3591ZM16.3736 31.5121C16.3414 31.6298 16.0986 31.8321 15.9203 31.9255C15.6358 32.0738 15.2014 32.0093 15.0403 31.8188C14.8886 31.6399 14.8849 31.3133 15.0137 31.1254C15.2222 30.8211 15.7682 30.8263 16.2956 30.8314L16.2965 30.8314L16.2974 30.8314L16.2984 30.8314C16.3236 30.8317 16.3487 30.8319 16.3738 30.8321C16.3523 30.9482 16.3652 31.0604 16.3777 31.1695C16.3912 31.2868 16.4043 31.4007 16.3738 31.5121H16.3736ZM32.7335 28.3787C33.5962 28.1248 34.7568 28.2086 35.1734 28.792L35.1732 28.7922C35.4425 29.1694 35.4358 29.7448 35.4288 30.3359C35.4277 30.43 35.4266 30.5246 35.4266 30.6189C35.4266 30.7841 35.4279 30.9469 35.4292 31.109V31.1092V31.1093V31.1093V31.1093V31.1094C35.4334 31.6197 35.4375 32.1229 35.4 32.6723C35.2461 32.7194 34.6717 32.84 34.52 32.6856C34.4648 32.6293 34.4712 32.5612 34.479 32.478C34.484 32.4248 34.4896 32.3654 34.4801 32.2989C34.4529 32.2803 34.4258 32.3102 34.4041 32.3341L34.4013 32.3372C34.3991 32.3397 34.3969 32.342 34.3947 32.3443C34.3919 32.3472 34.3892 32.3499 34.3867 32.3521C34.1306 32.5771 33.8294 32.7698 33.4266 32.8187H32.96C32.5163 32.7615 32.1062 32.5555 31.9068 32.2321C31.7058 31.9066 31.6396 31.3266 31.8535 30.9122C32.2352 30.1722 33.1985 30.1038 34.3068 30.0988C34.3023 30.0047 34.3018 29.9257 34.3014 29.8564C34.3003 29.6847 34.2995 29.5718 34.2402 29.4321C34.0095 28.8897 33.0047 29.1492 32.6001 29.3387C32.5656 29.3548 32.5271 29.3755 32.4865 29.3972L32.4865 29.3972C32.3633 29.4633 32.2218 29.5391 32.1202 29.5253C31.943 29.5008 31.8969 28.9876 31.9869 28.792C32.0867 28.5748 32.4812 28.4532 32.7335 28.3787ZM33.5335 32.0054C33.7939 31.9847 34.2557 31.7097 34.3068 31.4986L34.307 31.4988C34.3337 31.3879 34.3223 31.2771 34.3105 31.1628C34.2995 31.0567 34.2882 30.9474 34.307 30.8321C34.2067 30.8342 34.1093 30.8341 34.0154 30.8339H34.0154H34.0153H34.0153H34.0153H34.0152C33.6407 30.8332 33.321 30.8326 33.0936 30.9788C32.8803 31.1159 32.7603 31.4875 32.9203 31.752C33.0236 31.9226 33.2546 32.027 33.5335 32.0054ZM27.109 20.5315C27.3837 20.5315 27.9671 20.485 28.5812 20.1495L28.5812 20.1494L28.5813 20.1493V20.1492L28.5814 20.1493C28.8214 20.0183 29.0658 19.8431 29.2986 19.6094C30.0636 18.8416 30.4492 17.7016 30.4436 16.2228C30.4287 12.1334 25.7788 8.80345 20.0649 8.77808C20.0431 8.7779 20.0208 8.77772 19.9994 8.77772C19.9887 8.77772 19.978 8.77781 19.9672 8.7779L19.9672 8.7779C19.9564 8.77799 19.9457 8.77808 19.935 8.77808C14.2207 8.80309 9.57006 12.1332 9.55512 16.2228C9.55008 17.7021 9.93518 18.8416 10.7007 19.6099C10.9337 19.8437 11.1784 20.0188 11.4185 20.1498C11.3171 20.3005 11.2053 20.4428 11.0812 20.5747C11.2053 20.4429 11.317 20.3006 11.4185 20.15C12.0327 20.485 12.6159 20.5316 12.8907 20.5316C13.0269 20.5316 13.1591 20.5216 13.2829 20.5016C13.3619 20.4888 15.2185 20.1537 15.1663 17.861V14.1233L19.9069 11.5138V21.5365L19.9067 21.5367C19.9067 24.8677 14.0245 24.054 10.6695 20.9367C10.7817 20.8559 10.8858 20.7682 10.9829 20.6743C10.8859 20.7681 10.7818 20.8558 10.6697 20.9365H10.6692C9.33037 19.6925 8.39373 18.0825 8.39373 16.222C8.39373 11.7093 13.5498 8.04587 19.9348 8.00034V7.9998H19.9441C19.9534 7.9998 19.9627 7.99984 19.9719 7.99989C19.9771 7.99991 19.9823 7.99994 19.9875 7.99996C19.9916 7.99997 19.9957 7.99998 19.9997 7.99998C20.009 7.99998 20.0183 7.99993 20.0275 7.99989C20.0368 7.99984 20.0461 7.9998 20.0553 7.9998H20.0647V8.00034C26.4497 8.04605 31.6057 11.7093 31.6057 16.222C31.6057 18.0826 30.6692 19.6925 29.3305 20.9363L29.3306 20.9363C25.9757 24.0534 20.0935 24.8673 20.0935 21.5363V11.5155L24.8328 14.1244V17.8642C24.7812 20.1536 26.6379 20.4886 26.7162 20.5014C26.8412 20.5214 26.9729 20.5315 27.109 20.5315Z" fill="#F6F6F3"/>
</svg>
