<svg width="40" height="40" viewBox="0 0 40 40" fill="none" xmlns="http://www.w3.org/2000/svg">
<path d="M32.7247 22.1563H28.2247C27.9591 22.1563 27.8448 22.074 27.8448 21.8136V17.2021C27.8448 17.0135 27.7731 17.0028 27.6323 17.0028H26.1314C25.98 17.0028 25.9295 17.0028 25.9295 17.2021V21.6543C25.9295 23.1366 26.4608 23.6174 27.9033 23.6174H32.746C32.9239 23.6174 32.9239 23.5589 32.9239 23.4075V22.3742C32.9239 22.2254 32.9239 22.1563 32.7247 22.1563ZM24.5057 17.0028H19.6577C18.3295 17.0028 17.5325 17.4252 17.5325 18.8172V21.8057C17.5325 23.1976 18.3295 23.6174 19.6736 23.6174H24.5057C24.6969 23.6174 24.6863 23.5589 24.6863 23.4181V22.3848C24.6863 22.244 24.6863 22.1855 24.5057 22.1855H19.756C19.5434 22.1855 19.4345 22.1059 19.4345 21.8933V20.9875H24.3755C24.5668 20.9875 24.5562 20.9264 24.5562 20.7883V19.7682C24.5562 19.6194 24.5562 19.5689 24.3755 19.5689H19.4345V18.7269C19.4345 18.517 19.5434 18.4373 19.756 18.4373H24.5057C24.6969 18.4373 24.6863 18.3762 24.6863 18.2274V17.2021C24.6863 17.0639 24.7049 17.0028 24.5057 17.0028ZM16.2681 17.0028H11.4227C10.0945 17.0028 9.27895 17.4252 9.27895 18.8172V21.8057C9.27895 23.1976 10.0998 23.6174 11.4227 23.6174H16.2681C16.4567 23.6174 16.4567 23.5589 16.4567 23.4181V22.3848C16.4567 22.244 16.4567 22.1855 16.2681 22.1855H11.5263C11.3164 22.1855 11.2049 22.1059 11.2049 21.8933V20.9875H16.1352C16.3265 20.9875 16.3265 20.9264 16.3265 20.7883V19.7682C16.3265 19.6194 16.3265 19.5689 16.1352 19.5689H11.2049V18.7269C11.2049 18.517 11.3164 18.4373 11.5263 18.4373H16.2681C16.4567 18.4373 16.4567 18.3762 16.4567 18.2274V17.2021C16.4699 17.0639 16.4699 17.0028 16.2681 17.0028ZM7.84713 17.0028H2.15437C0.810215 17.0028 0 17.4252 0 18.8172V21.8057C0 23.1976 0.810215 23.6174 2.15437 23.6174H7.84713C8.03839 23.6174 8.02777 23.5589 8.02777 23.4181V19.7682C8.02777 19.6194 8.02777 19.5689 7.84713 19.5689H3.14523C2.95662 19.5689 2.96725 19.6194 2.96725 19.7682V20.7936C2.96725 20.9317 2.96725 20.9928 3.14523 20.9928H6.10982V22.1855H2.23407C2.03218 22.1855 1.91529 22.1059 1.91529 21.8933V18.7269C1.91529 18.517 2.03218 18.4373 2.23407 18.4373H7.84713C8.03839 18.4373 8.02777 18.3762 8.02777 18.2274V17.2021C8.02777 17.0639 8.03839 17.0028 7.84713 17.0028ZM39.8626 17.0028H38.1279C38.0234 16.9932 37.918 17.0082 37.8202 17.0464C37.7225 17.0847 37.635 17.1453 37.5648 17.2233L35.174 19.8399L32.7964 17.2233C32.7239 17.1452 32.6345 17.0848 32.5351 17.0466C32.4356 17.0084 32.3288 16.9934 32.2226 17.0028H30.4906C30.3525 17.0028 30.2888 17.0745 30.4614 17.2525L34.2176 21.3833V23.4288C34.2176 23.6174 34.2787 23.6174 34.4301 23.6174H35.931C36.0718 23.6174 36.1329 23.6174 36.1329 23.4288V21.3833L39.8998 17.2525C40.0618 17.0745 40.0113 17.0028 39.8626 17.0028Z" fill="#F6F6F3"/>
</svg>
