<svg width="40" height="40" viewBox="0 0 40 40" fill="none" xmlns="http://www.w3.org/2000/svg">
<path d="M29.7753 26.3796C25.3673 28.1265 23.8115 26.3487 19.8518 24.665C19.5784 24.5372 19.402 24.5489 19.161 24.7143C17.4214 25.9078 15.5334 26.6824 13.3868 26.7015C11.49 26.6478 8.19831 26.1437 7.01657 24.5732C3.73961 19.7294 1.8406 14.2646 1.01089 8.49701C0.811727 5.80651 3.38244 3.77154 5.64743 2.86907C14.5002 -0.787839 24.6155 -0.9091 33.6269 2.27747C35.7332 2.96975 37.8306 3.90235 39.2615 5.67128C39.651 6.05858 39.9251 7.07276 39.2799 7.34026C38.6346 7.32924 37.4066 7.64378 36.8745 7.34467C35.2856 5.68525 33.2911 4.72105 31.1437 4.05228C24.7705 1.85857 8.47243 1.89899 4.28785 7.8569C6.35515 9.59129 8.60104 11.1603 11.3151 11.6285C17.4692 12.991 18.1365 6.99559 22.0705 9.12609C27.7932 13.3327 30.8107 11.6909 36.6592 9.05848C37.5756 8.68221 38.5376 8.45071 39.5679 8.39412C36.787 20.0248 31.758 31.8532 22.1594 39.4595C18.5774 42.6005 10.6338 31.1587 9.68576 28.0882C14.8735 27.8553 11.7009 27.5679 16.0177 32.7321C17.1679 34.1248 18.451 35.383 19.8488 36.525C20.5117 37.0666 21.2452 37.0306 21.9448 36.4464C25.3144 33.6985 27.6139 30.1144 29.7767 26.3796H29.7753ZM34.2582 16.0769C31.5824 17.9002 28.5391 19.0378 25.5473 17.2351C23.9761 16.5193 21.8397 14.9789 20.1252 16.024C15.9766 18.5557 10.539 18.7497 6.59841 15.7043C7.05773 17.2248 7.56996 18.6873 8.09909 20.1424C8.13363 20.2379 8.28944 20.3269 8.40261 20.3504C11.9515 21.3447 15.7789 21.5453 18.975 19.4156C19.9914 18.7791 20.9997 18.7784 22.0117 19.4141C25.2122 21.9209 29.4005 21.4968 32.8758 19.8065C32.9956 19.7573 33.0993 19.5912 33.1456 19.4567C33.5307 18.3176 33.9033 17.2366 34.2575 16.0776L34.2582 16.0769Z" fill="#F6F6F3"/>
</svg>
