<svg width="40" height="40" viewBox="0 0 40 40" fill="none" xmlns="http://www.w3.org/2000/svg">
<path fill-rule="evenodd" clip-rule="evenodd" d="M32.5418 4.72176C35.6694 5.2564 39.2515 6.37914 39.7861 11.7255C39.9198 13.1691 39.9733 15.067 40 17.1254C39.9539 20.0555 39.7285 22.1692 39.5645 23.707C39.5385 23.951 39.514 24.1805 39.4921 24.3965C39.3852 25.4657 38.9307 28.7538 38.3426 30.4379C37.5407 32.7636 36.8189 33.4319 35.9635 34.1269C34.5481 35.2983 32.2861 35.7122 31.496 35.8567C31.4207 35.8705 31.3587 35.8819 31.3121 35.8912C28.4251 36.4258 22.5708 36.506 20.0045 36.506C17.4115 36.506 11.584 36.3991 8.69691 35.8912C8.65588 35.883 8.60289 35.873 8.53931 35.8611C7.77438 35.7177 5.47702 35.2869 4.04555 34.1269C3.19013 33.4319 2.46837 32.7636 1.66641 30.4379C1.07831 28.7538 0.623866 25.4925 0.516938 24.3965C0.493042 24.1575 0.466178 23.9037 0.437586 23.6336C0.274266 22.0906 0.0545286 20.0145 0.00903088 17.1254C-0.0177008 15.0938 0.009031 13.1958 0.169422 11.7255C0.704061 6.37914 4.28614 5.2564 7.41377 4.72176C8.99096 4.45444 11.7978 4.24059 13.5889 4.16039C15.166 4.05346 18.855 4 19.9778 4C21.1005 4 24.7895 4.05346 26.3667 4.16039C28.1578 4.24059 30.9646 4.45444 32.5418 4.72176ZM36.5783 29.3953C37.1129 27.5508 37.4872 24.9846 37.808 20.7075C37.9951 18.1145 37.9684 13.9443 37.6743 11.7255C37.2466 8.38404 35.5892 6.69992 32.0339 6.05836C30.3765 5.76431 28.131 5.55045 26.0192 5.44352C24.3351 5.3366 21.5282 5.2564 19.9778 5.28313C18.4006 5.28313 15.6205 5.3366 13.9096 5.44352C11.7978 5.55045 9.55233 5.76431 7.89495 6.05836C4.3396 6.67319 2.68222 8.3573 2.28124 11.7255C1.98719 13.971 1.96046 18.1412 2.14758 20.7075C2.44163 24.9846 2.84261 27.5508 3.37725 29.3953C3.85842 30.9992 4.44653 32.0953 5.30195 32.8705C6.68868 34.1288 8.56881 34.425 9.75737 34.6123C9.80605 34.6199 9.85357 34.6274 9.89984 34.6348C12.4126 35.009 16.6363 35.1427 19.9778 35.1427C23.2925 35.1427 27.5429 35.009 30.0557 34.6348C30.102 34.6274 30.1495 34.6199 30.1982 34.6123C31.3868 34.425 33.2669 34.1288 34.6536 32.8705C35.509 32.0953 36.0971 31.026 36.5783 29.3953ZM28.5248 9.70415C28.7131 8.842 28.9231 7.88102 29.1736 6.75342C29.1736 6.75342 30.0825 6.78015 30.4835 6.80688C31.0181 6.83361 31.4726 6.88708 31.927 6.94054C31.927 6.94054 31.3924 15.3878 31.1518 18.9432C30.9112 22.7124 30.4568 29.0211 30.0558 33.8061C30.0558 33.8061 29.2806 33.9131 27.9974 33.9933C26.6608 34.0734 26.0727 34.0734 26.0727 34.0734C26.0316 33.9111 25.9896 33.7439 25.9466 33.5732C25.4307 31.5233 24.7835 28.9512 24.0678 27.7914C23.4458 26.8065 22.5221 26.676 21.9548 26.5959C21.937 26.5934 21.9196 26.5909 21.9026 26.5885C21.0471 26.4548 20.3254 26.4548 19.9779 26.4548C19.6571 26.4548 18.9086 26.4816 18.0532 26.5885C18.0361 26.5909 18.0187 26.5934 18.0009 26.5959C17.4336 26.676 16.5099 26.8065 15.8879 27.7914C15.235 28.8496 14.6579 31.0834 14.1567 33.0236C14.0628 33.3871 13.9716 33.7402 13.883 34.0734C13.883 34.0734 13.2681 34.0734 11.9315 33.9933C10.6484 33.9398 9.87319 33.8061 9.87319 33.8061C9.47221 29.0211 9.01777 22.6856 8.77718 18.9432C8.53659 15.3611 8.00195 6.94054 8.00195 6.94054C8.03337 6.93685 8.06465 6.93315 8.09586 6.92946C8.51617 6.87981 8.92291 6.83177 9.44548 6.80688C9.84646 6.78015 10.7553 6.75342 10.7553 6.75342C10.997 7.84098 11.2009 8.77165 11.3841 9.60777C11.8897 11.916 12.2375 13.5037 12.787 15.6819C12.862 15.9876 12.9354 16.2912 13.008 16.5911C13.6078 19.0707 14.1472 21.3004 15.0057 22.4451C15.9681 23.7549 17.2779 24.0222 18.1601 24.1292C18.6145 24.1826 18.962 24.2094 19.9511 24.2094C20.9402 24.2094 21.2877 24.1826 21.7422 24.1292C22.6243 24.0222 23.9342 23.7549 24.8965 22.4451C25.7308 21.3327 26.2638 19.1956 26.8611 16.8004C26.9528 16.4327 27.046 16.0589 27.142 15.6819C27.6841 13.5521 28.03 11.9692 28.5248 9.70415Z" fill="#F6F6F3"/>
</svg>
