<svg width="40" height="40" viewBox="0 0 40 40" fill="none" xmlns="http://www.w3.org/2000/svg">
<path d="M17.0432 18.0003L16.2152 19.8361L15.3875 18.0003H12.5449V21.954H14.7858V19.9433L15.6208 21.954H16.8103L17.6453 19.9433V21.954H19.8853V18.0003H17.0432ZM24.8648 18.0003L24.0368 19.8361L23.2089 18.0003H20.3666V21.954H22.6071V19.9433L23.4422 21.954H24.6318L25.4673 19.9433V21.954H27.7072V18.0003H24.8648ZM3.4921 18.0003V19.4516H2.3746V18.0003H0V21.954H2.3746V20.4591H3.4921V21.954H5.8669V18.0003H3.4921ZM33.2931 18.9519V18.0003H28.2V21.954L33.2931 21.9537V21.0021H30.5753V20.4108H33.2931V19.5447H30.5753V18.9519H33.2931ZM8.673 18.0015L8.6727 20.6539C8.6773 20.9954 8.9017 21.0805 9.20745 21.0805C9.5062 21.0805 9.73395 20.9898 9.73395 20.6465V18.0015H12.102V20.6622C12.102 21.8354 11.2477 22.0889 9.20745 22.0886C7.16455 22.0882 6.3043 21.8396 6.3043 20.6619V18.0015H8.673ZM36.8046 19.8053C37.2481 19.8053 37.4599 19.6442 37.4599 19.3169C37.4599 18.9063 37.1923 18.7963 36.8021 18.7963H36.1078V19.8053H36.8046ZM37.4654 21.9528L36.1091 20.5355V21.954H33.7338V18.0003L37.5486 18C38.3493 18 39.6746 17.9782 39.6038 19.2973C39.5706 19.9141 38.9264 20.3641 38.4147 20.4748L40 21.9528H37.4654Z" fill="#F6F6F3"/>
</svg>
