<svg width="40" height="40" viewBox="0 0 40 40" fill="none" xmlns="http://www.w3.org/2000/svg">
<path fill-rule="evenodd" clip-rule="evenodd" d="M24.1874 22.5472C24.4919 24.1211 23.667 25.4284 22.9816 26.6973C22.2202 27.878 20.9637 28.8927 19.4533 28.7408C16.0641 28.6901 12.7517 28.1697 9.67979 27.2428C9.54032 27.2049 9.40084 27.1157 9.32449 26.9891C9.26094 26.8112 9.35008 26.6461 9.47676 26.5322C12.2821 24.2601 15.6201 23.207 18.9202 22.1023C20.1511 21.747 21.4589 21.3661 22.8421 21.544C23.4128 21.6203 23.9839 22.014 24.1874 22.5472ZM35.7502 15.8203C37.3241 17.1149 38.7457 18.8794 38.2633 21.0117C37.4764 24.1595 34.0496 25.8349 31.3207 26.9008C29.8355 27.396 28.338 27.904 26.7133 28.0562C26.6118 28.0434 26.4467 28.0686 26.4211 27.9163L26.4591 27.7389C28.7692 25.1366 30.5205 22.2179 32.0569 19.2603C32.7675 17.9274 33.4278 16.557 34.0368 15.2113C34.1256 15.1097 34.2147 15.059 34.3162 15.021C34.8869 15.0714 35.2934 15.5158 35.7502 15.8203ZM13.6013 12.4695L13.5506 12.6598C10.2125 16.4546 8.01675 20.859 5.93528 25.2377C5.52922 25.6186 5.13553 25.1106 4.76744 24.9456C2.91416 23.7274 1.23874 21.7598 1.72115 19.4245C2.49531 16.3787 5.63031 14.754 8.24537 13.6502C9.79368 13.0662 11.406 12.5966 13.1065 12.33C13.2844 12.3296 13.5126 12.3045 13.6013 12.4695ZM30.1656 13.0786C30.3559 13.1801 30.5845 13.2181 30.6988 13.4083C30.8003 13.6241 30.5973 13.7636 30.483 13.9035C27.8556 15.9594 24.8477 17.1021 21.7758 18.1048C20.2143 18.4857 18.6404 19.1712 16.9018 18.7903C16.4953 18.6888 16.1277 18.4222 15.899 18.0285C15.4674 16.8355 16.0513 15.5917 16.5589 14.551C17.2315 13.2437 18.425 11.7077 20.0748 11.6826C23.6286 11.657 26.9795 12.1901 30.1656 13.0786ZM34.5572 13.1801C37.2482 14.6525 40.2945 17.2415 39.9771 20.6939C39.609 23.8924 36.6263 26.1262 33.9609 27.4719C26.1801 31.1908 15.252 31.3047 7.21743 28.0558C4.50085 26.9264 1.45457 24.9844 0.311893 22.0648C-0.563775 19.666 0.502126 17.1656 2.29228 15.503C6.03637 12.1014 10.8088 10.934 15.7212 10.2609C21.0524 9.61347 26.6621 10.1846 31.4346 11.822C32.5009 12.2157 33.5544 12.6474 34.5572 13.1801Z" fill="#F6F6F3"/>
</svg>
