<svg width="40" height="40" viewBox="0 0 40 40" fill="none" xmlns="http://www.w3.org/2000/svg">
<path d="M28.5196 24.0071L20 12.5546L11.4804 24.0071C8.60335 23.7278 3.65922 21.8563 3.65922 18.5322C3.65922 14.3423 10.9218 10.4317 20.0279 10.4317C29.6089 10.4317 36.3966 14.3423 36.3966 18.5322C36.3966 21.8842 31.4246 23.7557 28.5754 23.9792M20 9.20264C8.21229 9.20264 0 13.8116 0 19.7613C0 22.5546 1.78771 25.6831 5.58659 27.5825C9.13408 29.3423 14.1061 29.9568 14.8045 30.0406L20 14.873L25.1955 30.0406C28.3734 29.6846 31.4803 28.8561 34.4134 27.5825C38.2123 25.6831 40 22.5546 40 19.7613C39.9721 13.7836 31.7877 9.20264 20 9.20264Z" fill="#F6F6F3"/>
</svg>
