<svg width="40" height="40" viewBox="0 0 40 40" fill="none" xmlns="http://www.w3.org/2000/svg">
<path fill-rule="evenodd" clip-rule="evenodd" d="M21.2185 7.88247e-05C26.8871 0.23917 32.5803 0.93587 37.8464 3.16386C38.2288 6.30602 38.1534 9.67902 38.0782 13.0461V13.0462C38.0305 15.1821 37.9828 17.3157 38.0521 19.3865C38.036 21.9286 37.2965 24.3028 36.1377 26.5525C32.781 32.7305 27.0172 37.7915 20.2988 39.9633C19.9942 40.0523 19.7376 39.9626 19.481 39.8729C19.4266 39.8539 19.3722 39.8349 19.3174 39.8176C11.8694 37.157 5.28611 31.1286 2.69392 23.5744C2.2491 22.1566 2.00723 20.7059 2.00667 19.2191C2.00618 17.6759 2.00607 16.1328 2.00597 14.5896C2.00572 10.9247 2.00548 7.25988 2 3.59478C2 3.33345 2.07951 3.21057 2.32138 3.10715C8.28142 0.642844 14.8247 -0.00826156 21.2185 7.88247e-05ZM37.406 11.9974H37.4105L37.4104 10.3871V10.3793C37.4102 8.23139 37.41 6.08341 37.4127 3.93507C37.5117 3.33641 34.5442 2.58131 32.9605 2.17835L32.9605 2.17835L32.9604 2.17833L32.9602 2.17827C32.5613 2.07677 32.2502 1.99762 32.0982 1.94895C22.5157 -0.0950013 12.1185 0.0367766 2.89131 3.54363C2.67279 3.63482 2.63609 3.75214 2.63609 3.95842C2.63852 6.71826 2.63896 9.47809 2.6394 12.2378V12.2379V12.238V12.238V12.2383C2.63977 14.5381 2.64014 16.8378 2.64165 19.1374C2.6233 27.9281 12.0274 37.3989 20.2232 39.3211C27.2808 37.0147 33.4165 31.4439 36.3329 24.6092C37.5566 21.7292 37.4852 18.6204 37.4141 15.5288C37.3869 14.3444 37.3597 13.1625 37.4055 11.9969L37.406 11.9974ZM36.4059 15.5581V15.5581C36.4662 18.9534 36.527 22.3788 34.9132 25.4572C31.9751 31.3627 26.5878 36 20.3575 38.1334C20.0719 38.2494 19.8111 38.166 19.55 38.0824L19.5495 38.0823L19.4956 38.0651L19.4473 38.05C11.6057 35.2443 3.75406 27.7296 3.65175 18.9622C3.64766 16.6936 3.64705 14.425 3.64643 12.1564C3.6458 9.80054 3.64516 7.44469 3.64063 5.08884C3.64063 4.84641 3.71514 4.73076 3.93199 4.63902C12.2173 1.38738 21.5491 1.15107 30.2192 2.84194C30.381 2.88445 30.6293 2.94349 30.9349 3.0162C32.6643 3.42756 36.2327 4.27636 36.4033 5.04325C36.398 7.03043 36.3983 9.01761 36.3987 11.0045L36.3989 12.494H36.3978C36.3695 13.5056 36.3877 14.5304 36.4059 15.558V15.558V15.5581ZM36.2359 12.4084H36.237C36.2114 13.405 36.2295 14.4143 36.2477 15.4262V15.4263V15.4264V15.4264C36.3091 18.8364 36.371 22.2773 34.758 25.3738C31.8539 31.142 26.5833 35.8254 20.4648 37.9205C20.0126 38.0614 19.6406 37.9369 19.2527 37.807L19.246 37.8048C12.9135 35.4651 7.38101 30.4608 4.78549 24.1883C4.31453 22.9712 4.00872 21.714 3.87305 20.4173C3.78359 17.3664 3.79791 14.311 3.81222 11.2556C3.82166 9.24053 3.8311 7.22547 3.81077 5.21172C3.85414 4.3868 7.92656 3.46709 9.63524 3.0812L9.63527 3.0812L9.63529 3.08119C9.87644 3.02673 10.0705 2.9829 10.1995 2.95148C18.03 1.45799 26.3242 1.64704 33.9635 4.01627C34.4001 4.15536 34.8272 4.32353 35.2544 4.49175L35.2545 4.49179C35.5035 4.58984 35.7525 4.68791 36.0035 4.78025C36.1887 4.84864 36.2415 4.95539 36.241 5.15167C36.2348 7.06678 36.2352 8.98224 36.2357 10.8975L36.2359 12.4084ZM22.1561 22.5953C20.7577 20.5886 21.0257 18.3929 22.8878 16.8182L22.8883 16.8177C23.16 17.0174 23.422 17.2875 23.6883 17.562C24.3643 18.2589 25.0683 18.9847 26.0304 18.662C26.0994 18.6386 26.2217 18.6942 26.2879 18.7504C26.5234 18.9493 26.7564 19.1511 26.9894 19.3529C27.3017 19.6234 27.614 19.8938 27.932 20.1571C28.1016 20.2978 28.1556 20.4079 28.0521 20.6214C27.8598 21.019 28.0855 21.4499 28.5048 21.4527C29.1453 21.4566 29.7502 21.5478 30.3168 21.868C30.6132 21.9453 30.7989 21.7657 30.6632 21.4471C30.5983 21.2853 30.4416 21.119 30.2808 20.9481C30.0131 20.6638 29.7337 20.3671 29.8459 20.0587C30.3763 19.6695 31.1776 20.4285 31.2643 20.9878C31.3777 21.6273 31.9243 21.3176 32.1895 20.9534C32.4204 20.692 32.7006 20.4467 32.9815 20.2009L32.9815 20.2009L32.9816 20.2008C33.787 19.4959 34.5979 18.7861 34.2668 17.6784C33.6762 16.3646 32.8784 15.1436 32.0824 13.9253C31.6487 13.2615 31.2156 12.5986 30.8167 11.9218C30.6369 11.6342 30.7151 11.3885 30.7974 11.1295C30.8976 10.8143 31.0041 10.4795 30.6588 10.0258C30.1394 9.33048 29.5469 8.69242 28.9548 8.05469L28.9547 8.05466L28.9547 8.0546L28.9547 8.05459C28.6523 7.72901 28.3501 7.40352 28.0577 7.07053C27.8976 6.89705 27.847 6.75637 27.991 6.54731C28.0472 6.42559 28.1241 6.29591 28.2003 6.16729C28.4935 5.67252 28.7775 5.19333 27.842 5.24232C26.4375 5.18727 25.55 6.38662 24.9295 7.48199C20.5686 7.21287 16.5458 9.57542 13.8841 12.9188C11.7995 15.5577 9.93573 18.667 9.77003 22.1021C9.75466 22.4821 10.0755 22.6682 10.3918 22.8517C10.5444 22.9402 10.6959 23.0281 10.8081 23.1369C14.96 25.8886 17.4854 30.3296 19.6678 34.6822C22.5414 31.5173 24.1411 26.6065 22.1561 22.5953ZM6.21525 20.3725L6.21523 20.3725C6.05041 20.2854 5.88531 20.1982 5.71999 20.1104C5.57542 20.0342 5.52594 19.9741 5.57375 19.7929C7.70945 11.2951 16.4124 4.3893 25.3249 5.95061C25.2427 6.04572 25.1684 6.18401 25.0913 6.32748C24.9327 6.6227 24.7624 6.93989 24.487 6.94812C16.5241 6.76519 9.8785 14.4711 9.17569 22.0353C8.20878 21.426 7.21727 20.9021 6.21525 20.3725ZM23.3245 23.8569C24.2131 27.7452 22.8336 32.08 20.1735 34.9991L20.2603 35.0842C23.9528 32.3719 27.6943 27.6384 25.349 22.9033C25.1374 22.504 24.9212 22.1071 24.705 21.7101C24.367 21.0893 24.029 20.4685 23.7082 19.8391C23.6884 19.8002 23.6683 19.7613 23.6481 19.7223C23.3834 19.2101 23.1098 18.6808 23.4363 18.0737C23.2612 17.8908 23.0905 17.7123 22.9186 17.5321C21.1157 19.2491 21.8631 20.7706 22.6838 22.4414C22.9089 22.8996 23.1395 23.3691 23.3245 23.8569Z" fill="#F6F6F3"/>
</svg>
