<svg width="40" height="40" viewBox="0 0 40 40" fill="none" xmlns="http://www.w3.org/2000/svg">
<path d="M17.4136 23.8488C17.5554 23.8488 18.4174 23.8442 19.1132 23.7957C19.9542 23.737 20.3876 23.4486 20.7052 23.0355C21.0992 22.5241 21.0966 21.5652 21.0961 20.8191C21.0956 19.9858 21.1071 17.5716 21.1035 17.3563C21.1007 17.1402 21.019 17.0279 20.7719 17.03C20.5245 17.0315 19.8271 17.03 19.5877 17.032L19.1612 17.03C18.9138 17.028 18.8323 17.1402 18.8288 17.3563V17.5877C18.8323 17.8433 18.8254 20.279 18.8244 20.8501V21.1031C18.8177 21.6291 18.7536 22.1407 18.0098 22.2199C17.6889 22.2537 17.5418 22.2688 17.1442 22.2688C16.7462 22.2688 16.5996 22.2537 16.2743 22.2199C15.5307 22.1417 15.4856 21.6291 15.4787 21.1031V20.8501C15.4776 20.279 15.4707 17.8433 15.4738 17.5877V17.3563C15.4707 17.1402 15.3887 17.0279 15.1419 17.03L14.7148 17.032C14.4754 17.03 13.7785 17.0315 13.5309 17.03C13.2841 17.028 13.2023 17.1402 13.1995 17.3563C13.1959 17.5716 13.1985 19.9858 13.1975 20.8191C13.197 21.5652 13.1949 22.5241 13.5884 23.0355C13.9052 23.4487 14.3327 23.737 15.1708 23.7957C15.8668 23.8446 16.7031 23.8488 16.8884 23.8488H17.4136H17.4136ZM2.29788 23.5355C2.293 23.77 2.2238 23.8626 1.98364 23.8682C1.74268 23.8751 0.563882 23.8713 0.349122 23.8695C0.135322 23.8672 0.00360196 23.8023 0.00308196 23.5729C0.00156196 23.3438 0.00156196 17.582 1.96252e-06 17.3631C-0.000518037 17.1453 0.102282 17.042 0.328082 17.0489C0.553402 17.0543 1.71116 17.0428 2.01848 17.0481C2.25096 17.0463 2.30556 17.1804 2.30632 17.4198C2.31196 17.7417 2.30352 23.3022 2.29788 23.5355ZM34.4176 21.2046C34.422 21.7454 34.5527 22.1074 35.1725 22.2038C35.6687 22.255 36.34 22.2655 36.8552 22.2132C37.3268 22.1614 37.69 21.9702 37.7113 21.4363C37.7351 20.9855 37.7372 20.9078 37.7387 20.4323C37.7413 19.2784 37.7287 17.6023 37.7326 17.4378L37.7346 17.3678C37.7308 17.1123 37.8474 17.0044 38.0637 17.0044L38.1932 17C38.4395 17.0021 39.4306 17.0044 39.6706 17.0044C39.8869 17.0044 40.0035 17.1123 39.9999 17.3678L39.9968 17.4476C40.0014 17.6885 39.994 20.2412 39.9915 20.9944C39.9779 21.3728 39.951 22.254 39.6595 22.8128C39.4058 23.2977 38.9516 23.6706 38.1793 23.7473C36.695 23.8952 35.3416 23.8337 34.2994 23.7901C33.5249 23.7501 33.0258 23.5766 32.6118 23.1165C32.1433 22.589 32.1187 21.6875 32.1256 20.6536C32.1167 18.3721 32.1098 17.7146 32.1133 17.497V17.3678C32.1097 17.1123 32.2264 17.0044 32.4427 17.0044L32.5714 17C32.82 17.0021 33.8483 17.0044 34.0888 17.0044C34.3043 17.0044 34.422 17.1123 34.4176 17.3678C34.414 17.6244 34.4166 20.5462 34.4176 21.1898M22.8718 17.0246C23.1036 17.0177 27.2477 17.0226 28.5434 17.0297C29.6906 17.0425 30.1148 17.2058 30.4263 17.6226C30.7856 18.1042 30.8228 18.7076 30.5324 19.204C30.324 19.56 29.9385 19.8707 29.3602 20.1529C28.9012 20.3888 28.0974 20.7466 27.3118 21.0923C26.2596 21.557 25.3068 21.9594 25.1467 22.0433C24.9298 22.1571 25.0118 22.3275 25.1841 22.325C25.6337 22.3196 29.9746 22.2842 30.2064 22.2837C30.4391 22.2834 30.5147 22.3673 30.5147 22.6172C30.5142 22.8786 30.5167 23.3256 30.5172 23.5284C30.5119 23.7721 30.4342 23.8388 30.2032 23.8411C29.9395 23.8439 25.3153 23.8452 24.9864 23.8467C24.2554 23.8449 23.5026 23.8477 23.0536 23.6301C22.4928 23.3576 22.3031 22.8114 22.3026 22.4285C22.3292 21.4953 22.8493 21.1964 23.7864 20.7622C24.8283 20.2893 27.9041 18.9588 28.0874 18.8736C28.3145 18.7678 28.244 18.5596 28.0333 18.5666C27.8716 18.5699 23.1602 18.594 22.9275 18.5938C22.6955 18.593 22.5479 18.5556 22.5479 18.3305C22.5484 18.1065 22.5458 17.5447 22.5458 17.3135C22.5458 17.0812 22.6391 17.032 22.8718 17.0246ZM10.7043 20.534C9.66212 20.1011 6.6212 19.1392 6.21776 18.9395C6.02348 18.8559 6.03656 18.6078 6.29952 18.6078C6.7486 18.6145 11.2059 18.6232 11.4387 18.6248C11.6711 18.6253 11.7691 18.5348 11.7691 18.2844C11.7701 18.0232 11.7683 17.5439 11.7652 17.3334C11.7621 17.1194 11.685 17.0384 11.4927 17.0379C11.3005 17.0379 6.15264 17.044 6.15264 17.044C4.716 17.0407 4.34744 17.2522 3.9404 17.741C3.40976 18.3787 3.5784 19.242 3.88292 19.6872C4.22588 20.1852 4.79212 20.4054 5.69304 20.7206C6.78444 21.0756 9.35476 21.9797 9.35476 21.9797C9.59032 22.0814 9.57236 22.3283 9.28148 22.3283C9.28148 22.3283 4.3784 22.2842 4.14616 22.2837C3.91344 22.2834 3.79988 22.397 3.79888 22.6218C3.79888 22.8466 3.7968 23.2584 3.7958 23.4922C3.7958 23.7234 3.86292 23.8554 4.09568 23.8636C4.32688 23.8716 8.54276 23.8556 9.8392 23.8531C10.8255 23.8505 11.7782 23.5458 11.9738 22.4564C12.091 21.5178 11.6936 20.9359 10.7043 20.534Z" fill="#F6F6F3"/>
</svg>
