<svg width="40" height="40" viewBox="0 0 40 40" fill="none" xmlns="http://www.w3.org/2000/svg">
<path d="M19.9962 8C26.1572 8.10743 32.7916 9.57802 37.2828 14.0669C43.605 20.6592 37.841 27.9335 30.7457 30.4278C21.9564 33.682 10.0158 33.0888 2.88472 26.5003C-1.31451 22.5486 -0.801479 16.7651 3.59316 13.1981C8.11236 9.38885 14.2104 8.09108 19.9962 8ZM11.934 30.0619C13.6444 26.9043 15.3166 23.7335 17.0028 20.5634C17.438 19.9477 15.5657 19.9406 15.2084 19.7678C11.4879 19.0111 7.78539 18.2077 4.06415 17.4494C1.8392 23.036 6.91113 28.3656 11.934 30.0627V30.0619ZM35.8978 17.4526C31.6573 18.3323 27.4122 19.1956 23.1787 20.1119C22.8665 20.1843 22.819 20.3081 22.9708 20.5961C23.2846 21.1901 23.6006 21.7826 23.9167 22.375C25.3421 24.9028 26.5659 27.6136 28.0879 30.051C33.0742 28.3049 38.1103 23.0344 35.8978 17.4518V17.4526ZM19.9082 8.86024C13.9044 8.79796 6.5102 11.2619 4.14667 17.2712C8.82313 17.1521 13.8086 17.6106 18.3403 17.1326C18.9109 14.3829 19.4045 11.6255 19.9082 8.85947V8.86024ZM35.8021 17.2642C33.4977 11.3047 26.0039 8.7567 20.0577 8.86803C20.4905 11.5235 21.0549 14.1611 21.5353 16.8103C21.5851 16.9956 21.5929 17.2961 21.8436 17.3C26.4959 17.2906 31.1513 17.328 35.8013 17.2642H35.8021ZM27.7539 30.1912C25.3429 27.5209 22.7739 25.0001 20.306 22.3774C20.0865 22.149 19.8654 22.1516 19.6427 22.3851C17.192 24.9884 14.6292 27.5162 12.2314 30.1554C16.0476 31.9023 23.3134 32.0121 27.7532 30.1919L27.7539 30.1912Z" fill="#F6F6F3"/>
</svg>
