<svg width="40" height="40" viewBox="0 0 40 40" fill="none" xmlns="http://www.w3.org/2000/svg">
<path fill-rule="evenodd" clip-rule="evenodd" d="M4.67014 11.3265C4.66124 11.3424 4.64062 11.415 4.64062 11.415C4.69018 11.4164 4.81328 11.3982 4.82012 11.3972L4.82042 11.3972C5.14796 11.363 5.228 11.1566 5.228 11.1566C5.08894 11.1136 4.96822 11.1243 4.96822 11.1243C4.7488 11.1411 4.68872 11.283 4.67333 11.3194C4.67192 11.3227 4.67089 11.3252 4.67014 11.3265ZM35.8751 21.3138C36.2847 21.1768 36.6334 20.9206 36.7147 20.7195C36.7792 20.585 36.7727 20.4429 36.6628 20.3337C36.4852 20.158 36.0784 20.3308 35.7786 20.4582C35.7145 20.4854 35.6553 20.5106 35.6042 20.5298C35.6042 20.5298 34.6977 20.7938 33.4509 20.2177C33.4509 20.2177 32.1849 19.5994 30.809 18.7453C30.809 18.7453 28.9683 17.836 28.5265 17.5917C26.2395 16.3259 22.7199 14.8726 20.9644 14.1477C20.8201 14.0881 20.6877 14.0335 20.5689 13.9842C19.5285 13.5527 17.6204 12.8839 17.6204 12.8839C15.0749 11.9527 13.9784 11.7724 13.9784 11.7724C13.6779 11.7121 13.6554 11.7875 13.6554 11.7875C13.625 11.8253 13.6779 11.8773 13.6779 11.8773C13.941 12.313 14.0008 12.6134 14.0008 12.6134C12.2739 10.8112 9.20184 10.6534 9.20184 10.6534C8.27283 10.6038 7.74636 11.0756 7.74636 11.0756C7.67146 11.1509 7.75387 11.2033 7.75387 11.2033C8.86633 11.5661 9.50981 12.7562 9.50981 12.7562C8.18256 11.6901 7.36962 11.517 7.36962 11.517C6.46824 11.3517 6.48317 11.0213 6.48317 11.0213C7.30971 11.2287 7.82495 10.8 7.98972 10.6067C8.05146 10.5337 8.0047 10.4915 7.9565 10.4864C6.64655 10.3427 5.90895 10.4887 5.90895 10.4887C4.58851 10.6869 4.32705 11.0126 4.25157 11.1067C4.24757 11.1116 4.24409 11.116 4.241 11.1196C4.16329 11.1931 4.14505 11.472 4.50824 11.4186C4.50828 11.4186 4.50854 11.4177 4.50903 11.4161C4.51956 11.3799 4.63826 10.9723 5.03896 10.9455C5.03896 10.9455 5.46948 10.8837 5.71047 11.0002C5.71047 11.0002 5.33695 11.5469 4.76515 11.5885C4.76515 11.5885 4.53157 11.6058 4.46237 11.61C4.39356 11.6143 3.88725 11.6653 3.59372 12.1838C3.59372 12.1838 3.44027 12.415 3.61853 12.6064C3.62145 12.6095 3.62425 12.6128 3.62709 12.6162C3.63194 12.6219 3.63693 12.6278 3.64285 12.6331C3.64285 12.6331 3.81696 12.8465 4.0575 12.8311C4.0575 12.8311 4.25262 12.884 4.47072 12.5236C4.47072 12.5236 4.71834 12.102 4.83159 11.9671C4.83159 11.9671 4.97663 11.7435 5.27012 11.7435C5.27012 11.7435 5.89442 11.6863 6.00722 12.4604C6.06338 12.848 5.96605 13.1321 5.27432 13.6876C5.27432 13.6876 5.16102 13.7854 5.04124 13.8603C5.04124 13.8603 4.96634 13.9206 5.01133 13.9881C5.01133 13.9881 5.11376 14.1318 5.25232 14.1219C5.2571 14.1216 5.26186 14.1212 5.26663 14.1209C5.40007 14.1118 5.5384 14.1023 6.2235 13.4213C6.2235 13.4213 7.17208 13.1765 7.17208 12.4389C7.17208 12.4389 7.19453 12.0388 6.98117 11.7463C6.98117 11.7463 7.41451 11.7795 7.79737 12.4843C7.79737 12.4843 7.91576 12.7936 8.2144 12.8447C8.2144 12.8447 9.24781 13.029 9.95966 13.5996C10.2381 13.8229 10.5502 14.1182 10.7693 14.4678C10.621 14.15 10.4014 13.5313 10.5788 12.9191C10.5788 12.9191 10.9948 14.1677 11.4399 14.5393C11.7704 14.815 12.1635 15.0172 13.3195 15.2929C13.3195 15.2929 11.7034 14.9227 10.1618 15.0766C10.1618 15.0766 8.71284 15.2105 8.30056 16.1329C8.29871 16.1371 8.29685 16.1413 8.29499 16.1454C8.23821 16.2729 8.17991 16.4038 8.16857 16.5888C8.16857 16.5888 8.11993 17.1274 8.77606 17.1597C8.97256 17.0615 9.17064 16.8874 9.31336 16.6623C9.39997 16.5261 9.21652 16.4737 9.21652 16.4737C9.05126 16.3988 9.09254 16.2411 9.09254 16.2411C9.16827 15.9111 9.80147 15.8849 9.80147 15.8849C10.6425 15.8849 11.7241 16.3057 11.7241 16.3057C14.0759 17.0535 14.5345 15.9327 14.5345 15.9327C14.8748 15.3154 14.4442 13.8454 14.4442 13.8454C16.1894 15.2362 18.9871 15.3729 18.9871 15.3729C17.2537 15.5909 15.075 14.8216 15.075 14.8216C15.3451 15.3621 15.2692 16.0126 15.2692 16.0126C15.9492 16.3257 16.6488 16.5335 17.0664 16.6173C17.0882 16.6216 17.1104 16.6262 17.1332 16.6308C17.5465 16.7153 18.17 16.8426 20.6714 16.7694C20.7337 16.7676 20.7927 16.7655 20.849 16.7634C20.9704 16.759 21.0787 16.755 21.1778 16.7563C21.2456 16.4362 20.5694 15.8512 20.5694 15.8512C21.2738 16.1577 21.9313 17.016 22.0534 17.1807C22.1331 17.2823 22.2168 17.4064 22.3071 17.5603C22.3263 17.5927 22.3493 17.6341 22.3763 17.683C22.7182 18.3002 23.7194 20.1077 26.1472 20.0721L27.4923 20.0806C27.4923 20.0806 29.3278 20.0357 30.1089 20.5775C30.4933 20.8446 30.6426 20.9731 30.8052 21.1129C30.8597 21.1599 30.9158 21.2081 30.9827 21.2633C31.043 21.3129 31.1047 21.365 31.1678 21.4182C31.6108 21.7922 32.1224 22.224 32.7051 22.2755C33.1455 22.3378 33.5226 22.2308 33.6274 21.9321C33.6274 21.9321 33.7786 21.5572 33.4131 21.3425C33.2497 21.2838 33.0723 21.201 32.8711 21.0747L32.8522 21.0629C32.4724 20.8246 32.4584 20.8158 32.1209 20.5192C31.9922 20.4056 31.836 20.2096 31.6834 20.0181C31.5318 19.828 31.3838 19.6423 31.2695 19.5458C31.0201 19.3365 30.6789 19.0894 29.881 19.0585C29.0694 19.0267 28.1236 18.9851 27.8465 18.9289C27.5569 18.8704 27.3912 18.825 27.1347 18.6191C26.9279 18.453 26.7953 18.2709 26.6807 18.0663C26.6306 17.9768 26.5832 17.8733 26.528 17.7528C26.458 17.6001 26.3755 17.4201 26.2591 17.2066C26.1149 16.9436 25.8406 16.7269 25.8406 16.7269C25.8588 16.7385 25.8765 16.7498 25.8939 16.7608C26.2193 16.9679 26.4013 17.0837 26.6377 17.4378C27.157 18.2147 27.5709 18.4501 27.92 18.5741C28.2656 18.6962 29.006 18.7848 29.6317 18.8596C29.9456 18.8972 30.2306 18.9313 30.4224 18.9644C30.9727 19.0599 31.2859 19.3735 31.4146 19.5064C31.4709 19.5644 31.5276 19.6232 31.5843 19.6821C31.8189 19.9254 32.0547 20.17 32.2729 20.3731C32.6562 20.7302 32.9005 20.8852 33.6558 21.1074C33.9807 21.2028 34.078 21.3086 34.078 21.3086C34.5398 21.4621 35.4427 21.4583 35.8751 21.3138ZM36.3374 19.9496C36.3374 19.9496 36.862 19.8565 37.025 20.236C37.0829 20.3722 37.0493 20.5898 36.8575 20.8271C36.1712 21.7284 34.7031 21.6339 34.3568 21.6116C34.294 21.6075 34.2681 21.6059 34.2903 21.6129C34.4078 21.8931 34.4458 22.3935 33.9632 22.6748C33.9632 22.6748 33.1443 23.1189 31.7267 22.1636C31.46 22.0184 31.1007 21.7146 30.7838 21.4468C30.5318 21.2337 30.3065 21.0434 30.1762 20.9735C29.5022 20.6132 28.8157 20.6061 27.9728 20.6061L26.5861 20.6442C23.8616 20.7145 22.968 19.1426 22.3625 18.0774C22.287 17.9447 22.216 17.8198 22.1465 17.7069C21.993 17.4575 21.6036 17.1387 20.991 17.0653C20.991 17.0653 20.5487 17.0339 20.172 17.0624C18.2583 17.2065 17.0785 17.0844 17.0785 17.0844C15.8677 16.9459 15.0403 16.6075 15.0403 16.6075C14.6926 17.3872 13.2524 17.2412 13.2524 17.2412C11.986 17.1284 11.0098 16.5593 11.0098 16.5593C10.1111 16.1624 9.66612 16.2752 9.66612 16.2752C9.53092 16.3056 9.56078 16.4558 9.56078 16.4558C9.60991 16.6426 9.53556 16.8387 9.46156 16.9187C9.35063 17.0783 9.12086 17.2285 8.99214 17.3044C8.93643 17.3427 8.82703 17.3797 8.72732 17.3905C8.58925 17.4059 8.44268 17.4026 8.26447 17.325C8.14089 17.2707 7.94716 17.1298 7.87829 16.9366C7.87829 16.9366 7.51006 16.0483 8.45588 15.3121C8.45588 15.3121 9.13357 14.6677 10.8128 14.6859C10.3715 14.3508 8.7511 13.1896 7.61718 13.2669C7.61718 13.2669 6.59415 13.3722 5.86822 14.1552C5.86822 14.1552 5.58654 14.4763 5.24812 14.465C4.8653 14.465 4.72817 13.9492 4.72817 13.9492C4.66589 13.7859 4.80677 13.6726 4.80677 13.6726L4.85314 13.6352C4.83579 13.5805 4.81518 13.5093 4.80069 13.4452C4.77593 13.3324 4.78527 13.3057 4.78527 13.3057C4.78527 13.3057 5.00846 13.4288 5.10866 13.4306L5.15726 13.4283C5.3323 13.3918 5.52183 13.0642 5.52183 13.0642C5.69025 12.6496 5.54106 12.3346 5.40057 12.2363C5.22553 12.1137 4.99111 12.1904 4.89659 12.2644C4.79031 12.3477 4.68591 12.5148 4.6302 12.6496C4.6302 12.6496 4.58249 12.7633 4.59233 12.8859C4.59789 12.9544 4.63983 13.0535 4.67702 13.1415C4.69934 13.1942 4.71994 13.243 4.72995 13.2786C4.72995 13.2786 4.46271 13.2692 4.30967 13.1148C4.30967 13.1148 4.30546 13.1517 4.15805 13.1667C3.82487 13.1999 3.60682 12.9762 3.49776 12.8485C3.3896 12.7202 3.21832 12.4216 3.21832 12.4216C3.0799 12.159 3.25203 11.9831 3.25203 11.9831C3.57315 11.611 3.96768 11.3517 3.96768 11.3517C4.0009 11.3232 3.99013 11.2787 3.99013 11.2787C3.91296 11.1173 4.07115 10.9862 4.07115 10.9862C4.96827 9.96686 7.61718 10.0001 7.61718 10.0001C12.7311 10.0001 19.8411 13.2261 19.8411 13.2261C23.5262 14.7495 26.017 16.0263 26.017 16.0263C28.1914 17.119 30.3653 18.261 30.9526 18.597C31.1091 18.6865 31.2879 18.7984 31.4914 18.9256C32.0516 19.2759 32.7981 19.7427 33.7765 20.1808C33.7765 20.1808 34.4687 20.4887 35.3738 20.3019C35.5913 20.2572 35.7772 20.1685 35.9392 20.0912C36.0908 20.0189 36.2214 19.9566 36.3374 19.9496ZM6.95955 10.8276C7.30069 10.8379 7.59369 10.7106 7.59468 10.6924C7.59561 10.6742 7.21695 10.6381 7.21695 10.6381C6.87017 10.6526 6.72879 10.7813 6.72691 10.7963C6.72459 10.8107 6.81728 10.8229 6.95955 10.8276ZM15.7329 23.9401C14.789 23.9401 13.7816 24.2249 13.1154 24.948L13.1153 24.9481C12.6911 25.4125 12.4093 26.0616 12.4093 26.6977C12.4093 27.6706 12.8085 28.3075 13.4208 28.6983C14.0292 29.0864 14.842 29.2281 15.6674 29.2281C16.284 29.2281 17.0834 29.1099 17.6502 28.8546L17.6843 28.8393V26.7186H16.6192V28.5501C16.3234 28.655 15.9085 28.7072 15.6043 28.7072C14.9861 28.7072 14.4805 28.4958 14.1294 28.1339C13.7781 27.7719 13.577 27.2546 13.577 26.635C13.577 25.9498 13.805 25.4054 14.1935 25.0321C14.5822 24.6586 15.1371 24.4514 15.7999 24.4514C16.3779 24.4514 16.9735 24.6834 17.4267 25.0213L17.519 25.0902V24.3494L17.4874 24.3334C16.9687 24.0696 16.305 23.9401 15.7329 23.9401ZM8.10483 24.0341H7.44285L4.90658 29.1185H5.63866L6.31022 27.7229H8.70153L9.32672 29.1185H10.5875L8.10483 24.0341ZM8.49176 27.2695H6.52761L7.53349 25.1704L8.49176 27.2695ZM30.7248 24.0341H30.0623L27.5261 29.1185H28.2585L28.9292 27.7229H31.32L31.9461 29.1185H33.2064L30.7248 24.0341ZM31.1107 27.2695H29.147L30.1537 25.1704L31.1107 27.2695ZM25.4915 24.0342H24.7915V26.9365C24.7915 27.2763 24.7627 27.4948 24.7261 27.6723C24.648 28.0525 24.4668 28.3075 24.2006 28.4693C23.9321 28.6325 23.5711 28.7045 23.1283 28.7045C22.7092 28.7045 22.2294 28.606 21.9557 28.2884L21.9551 28.2877C21.7153 28.018 21.6598 27.6487 21.6598 26.9923V24.0342H20.5947V27.0428C20.5947 27.6453 20.6563 28.2306 21.0906 28.6567C21.2923 28.8588 21.5854 29.0012 21.9313 29.0934C22.2779 29.1857 22.6816 29.2286 23.1092 29.2286C23.7394 29.2286 24.2505 29.1236 24.6358 28.888C25.0232 28.651 25.2776 28.2855 25.4 27.778C25.4629 27.518 25.4916 27.2339 25.4915 26.7377V24.0342ZM37.3282 24.0342H35.4733V29.1185H36.5389V27.2105H37.4462L38.7628 29.1185L40 29.1185L38.5178 27.0705C39.0273 26.8663 39.5791 26.393 39.5791 25.6271C39.5791 25.1965 39.4603 24.8553 39.2361 24.6078C39.0228 24.3721 38.727 24.2292 38.3961 24.145C38.0651 24.0607 37.695 24.0342 37.3282 24.0342ZM36.5389 26.7561V24.4947H37.1794C37.5534 24.4947 37.8823 24.5729 38.1163 24.7471C38.3475 24.9192 38.4934 25.1903 38.4934 25.5943C38.4934 25.9986 38.3488 26.2913 38.1124 26.4811C37.8878 26.6621 37.5965 26.7561 37.0918 26.7561H36.5389ZM2.26188 24.0342H1.19624V27.2164C1.19624 27.6565 1.19617 28.0928 1.14147 28.5285L1.14142 28.5289C1.09501 28.9201 1.0044 29.2297 0.847605 29.4986C0.69083 29.7674 0.465689 29.9991 0.144685 30.2313L0 30.3359H0.178544C0.471839 30.3359 0.755046 30.2549 1.01138 30.1344L1.01223 30.134C1.90288 29.6973 2.26198 28.7839 2.26188 27.8525V24.0342Z" fill="#F6F6F3"/>
</svg>
