<svg width="40" height="40" viewBox="0 0 40 40" fill="none" xmlns="http://www.w3.org/2000/svg">
<path d="M33.3731 20.5986C33.3405 22.3948 33.7285 23.3461 35.2091 23.3461C36.6874 23.3461 36.8995 21.7255 36.8995 20.4923C36.8995 19.2582 36.619 18.0602 35.0659 18.0602C34.1132 18.0602 33.4097 18.8006 33.3731 20.5986ZM30.3776 28.1045V15.9461H33.4097V16.4393C33.4097 17.0971 33.675 16.8259 33.8888 16.5695C33.9246 16.5266 34.6004 15.6995 36.1222 15.6995C37.6396 15.6995 40 16.7564 40 20.4923C40 23.382 38.5918 25.4961 36.1597 25.4961C34.8196 25.4961 34.0448 24.9684 33.8676 24.7555C33.6902 24.5455 33.4439 24.5089 33.4439 24.7555V28.1045L30.3776 28.1045ZM6.9419 12H10.2195V20.5986C10.2195 22.0777 9.58447 25.1798 5.03908 25.1798C0.493173 25.1798 0 22.2884 0 20.6686V19.083H3.17185V20.6328C3.17185 21.5842 3.80637 22.4648 5.00384 22.4648C6.20184 22.4648 6.9419 21.7955 6.9419 20.6686V12ZM17.0741 19.2943C17.0741 18.4123 16.5817 17.5667 15.454 17.5667C14.3615 17.5667 13.9736 18.3413 13.9736 19.2943H17.0741ZM15.1379 15.5937C17.7119 15.5937 19.9662 16.5801 19.9662 21.1262H13.8702C13.8702 22.5711 14.4687 23.1704 15.5258 23.1704C16.5833 23.1704 16.9355 22.324 16.9355 22.324H19.9318C19.9318 23.6283 18.1343 25.3903 15.4201 25.3553C12.3198 25.3553 10.8042 23.0646 10.8042 20.7033C10.8042 18.3413 12.1424 15.5937 15.1379 15.5937ZM26.8194 19.2943C26.8194 18.4123 26.3265 17.5667 25.1988 17.5667C24.1069 17.5667 23.7181 18.3413 23.7181 19.2943H26.8194ZM24.8832 15.5937C27.4569 15.5937 29.7108 16.5801 29.7108 21.1262H23.615C23.615 22.5711 24.214 23.1704 25.272 23.1704C26.3284 23.1704 26.681 22.324 26.681 22.324H29.6774C29.6774 23.6283 27.8796 25.3903 25.1662 25.3553C22.0643 25.3553 20.5487 23.0646 20.5487 20.7033C20.5487 18.3413 21.8885 15.5937 24.8832 15.5937Z" fill="#F6F6F3"/>
</svg>
