<svg width="40" height="40" viewBox="0 0 40 40" fill="none" xmlns="http://www.w3.org/2000/svg">
<path d="M23.2056 23.331C23.2056 23.407 23.2296 23.451 23.2737 23.451C23.3109 23.451 23.3417 23.4311 23.3697 23.411L35.8365 15.3198C36.0471 15.1726 36.2995 15.0969 36.5564 15.1038H39.2961C39.7161 15.1038 40 15.3837 40 15.8037V21.0352C40 21.6671 39.86 22.0351 39.3001 22.371L35.9764 24.3709C35.9433 24.3939 35.904 24.4109 35.8645 24.4109C35.8249 24.4109 35.7845 24.3789 35.7845 24.2629V18.1596C35.7845 18.0875 35.7646 18.0396 35.7165 18.0396C35.6814 18.0396 35.6481 18.0575 35.6205 18.0796L26.5093 23.9991C26.3013 24.139 26.0573 24.2151 25.8094 24.2111H19.7699C19.3459 24.2111 19.066 23.9312 19.066 23.5071V15.9679C19.066 15.9119 19.042 15.86 18.9939 15.86C18.959 15.86 18.9258 15.8783 18.8979 15.9L12.8867 19.5074C12.8267 19.5475 12.8107 19.5755 12.8107 19.6035C12.8107 19.6274 12.8228 19.6514 12.8627 19.6955L17.1583 23.987C17.2142 24.043 17.2543 24.0871 17.2543 24.135C17.2543 24.1751 17.1903 24.2071 17.1143 24.2071H13.2346C12.9306 24.2071 12.6946 24.163 12.5307 23.9991L9.92695 21.3993C9.90699 21.3755 9.87829 21.3593 9.84699 21.3593C9.81876 21.3593 9.79124 21.3689 9.76703 21.3833L5.41548 23.9991C5.15151 24.1591 4.97151 24.2031 4.71154 24.2031H0.707955C0.28004 24.2071 0 23.9231 0 23.5031V18.3716C0 17.7357 0.139961 17.3717 0.703938 17.0358L4.04765 15.028C4.07364 15.0103 4.10421 15.0006 4.13564 15C4.18761 15 4.2156 15.052 4.2156 15.168V22.0393C4.2156 22.1113 4.23154 22.1432 4.28363 22.1432C4.31906 22.1432 4.35166 22.1232 4.38367 22.1032L15.6786 15.3078C15.8946 15.1598 16.1586 15.0879 16.4226 15.0998H22.5019C22.9219 15.0998 23.2059 15.3797 23.2059 15.7997L23.2019 23.331H23.2056Z" fill="#F6F6F3"/>
</svg>
