<svg width="40" height="40" viewBox="0 0 40 40" fill="none" xmlns="http://www.w3.org/2000/svg">
<path fill-rule="evenodd" clip-rule="evenodd" d="M34.168 3.05367L34.2306 3.45495C34.6434 6.10479 35.3795 13.1246 33.3233 21.0524C31.2402 29.0805 27.0217 35.354 20.7846 39.6984L20.352 40L19.9194 39.6984C13.6817 35.354 9.4632 29.0799 7.38077 21.0524C5.32454 13.1246 6.06064 6.10479 6.47279 3.45495L6.5354 3.05367L6.90281 2.88179C9.21017 1.80575 14.0153 0 20.2753 0C26.9086 0 31.9443 2.01597 33.8012 2.88179L34.168 3.05367ZM20.352 38.1412C26.0459 34.023 29.915 28.1489 31.8555 20.6703C33.7437 13.3898 33.1923 6.90863 32.7916 4.09521C30.7859 3.20511 26.2057 1.52332 20.2753 1.52332C14.6229 1.52332 10.2255 3.06262 7.9124 4.09457C7.51176 6.90799 6.96032 13.3891 8.84914 20.6703C10.7891 28.1482 14.6581 34.023 20.352 38.1412ZM10.5935 6.9738L9.69385 7.30799L9.14433 5.82236L8.76669 5.9623L9.43698 7.77764L10.7149 7.30223L10.5935 6.9738ZM11.1367 7.16102L11.5456 7.046L11.5673 6.62492L12.253 6.43195L12.4798 6.78211L12.9009 6.66326L11.7239 4.98466L11.2766 5.11118L11.1367 7.16102ZM14.9085 6.25431L15.2779 6.18275L14.913 4.28243L14.3399 4.39361L14.29 5.95655L14.2849 5.95719L13.6542 4.52588L13.0766 4.6377L13.4415 6.53802L13.8108 6.46645L13.5053 4.87859L13.5111 4.87731L14.1616 6.39872L14.5494 6.32396L14.5974 4.66709L14.6031 4.66645L14.9085 6.25431ZM16.6907 4.05687L15.759 4.1623L15.975 6.08562L16.7865 5.99361C17.1788 5.94952 17.2753 5.87029 17.3731 5.7508C17.4196 5.69305 17.4541 5.62668 17.4749 5.55551C17.4956 5.48434 17.502 5.40977 17.4938 5.3361C17.4728 5.14568 17.3897 4.96549 17.145 4.90351C17.2204 4.85431 17.3667 4.75846 17.336 4.48307C17.3137 4.28434 17.1603 4.00383 16.6907 4.05687ZM19.9533 4.81917C19.9175 3.91118 19.2415 3.82748 18.9865 3.8377C18.7316 3.84792 18.0645 3.9853 18.1002 4.89265C18.136 5.80064 18.8121 5.88434 19.067 5.87412C19.3226 5.8639 19.9891 5.72716 19.9533 4.81917ZM21.6702 3.88307L20.6951 3.85303L20.6357 5.78786L21.0306 5.8L21.0536 5.04281L21.4702 5.05623C21.7686 5.06517 21.7814 5.16741 21.7737 5.43195C21.7673 5.63131 21.7801 5.73099 21.805 5.82364L22.2504 5.83706L22.2517 5.78594C22.167 5.75093 22.1692 5.68103 22.1781 5.40123L22.1782 5.39808C22.1897 5.03706 22.1047 4.97508 21.9488 4.90032C22.1405 4.84153 22.2542 4.66134 22.2606 4.44856C22.2657 4.28115 22.1833 3.8984 21.6702 3.88307ZM24.7054 5.01661L23.9028 4.93418L23.8702 5.25878L24.3169 5.30479C24.1948 5.68498 23.8964 5.68946 23.8089 5.68051C23.5354 5.65303 23.2632 5.48626 23.3169 4.96102C23.368 4.46773 23.653 4.29648 23.9386 4.32588C24.2216 4.35463 24.3341 4.61022 24.3264 4.68562L24.7271 4.72652C24.7335 4.45878 24.5399 4.05175 23.9507 3.99105C23.3041 3.92204 22.9622 4.38786 22.9085 4.91374C22.8402 5.58914 23.2255 5.96486 23.6875 6.01278C24.0343 6.04823 24.1994 5.89242 24.313 5.78514L24.3162 5.78211L24.3322 6.02747L24.5993 6.05495L24.7054 5.01661ZM25.6715 6.223L25.8236 5.36869L26.5648 5.50224L26.4114 6.35591L26.8082 6.42748L27.1494 4.52268L26.752 4.45112L26.6236 5.17252L25.8824 5.03961L26.0121 4.31821L25.6153 4.24664L25.2747 6.15144L25.6715 6.223ZM27.4875 6.5853L27.8804 6.67923L28.3284 4.79744L27.9367 4.70351L27.4875 6.5853ZM30.6159 5.44856L30.2555 5.33866L29.8651 6.62811L29.86 6.6262L29.5181 5.11374L29.1111 4.98977L28.5507 6.84153L28.9098 6.95144L29.3105 5.63067L29.3156 5.63259L29.6689 7.18211L30.0542 7.30032L30.6159 5.44856ZM30.697 7.53674L31.074 7.67923L31.7546 5.86773L31.3763 5.72524L30.697 7.53674ZM22.0389 11.2319C22.3742 11.2364 22.7051 11.3084 23.0121 11.4434C23.3015 11.5738 23.6197 11.6268 23.9022 11.6441C24.1241 11.6599 24.3216 11.6545 24.4608 11.6508L24.4608 11.6508C24.496 11.6498 24.5274 11.6489 24.5546 11.6486L24.5723 11.6325C24.7155 11.5027 24.8305 11.3985 24.8606 11.2684C24.8919 11.1335 24.8319 10.9706 24.6172 10.7233C24.4025 10.476 23.7756 10.3706 22.9846 10.3297C22.3013 10.2945 21.4964 10.3081 20.7226 10.3211C20.5969 10.3232 20.4721 10.3253 20.3488 10.3272C19.4664 10.3412 18.9175 10.2243 18.5878 10.0224C18.2581 9.82108 18.1482 9.53355 18.1431 9.20639C18.1386 8.87923 18.3085 8.70351 18.5277 8.59872C18.698 8.51778 18.898 8.47968 19.0684 8.44722L19.0685 8.44721C19.1173 8.4379 19.1637 8.42906 19.2063 8.41981C19.3569 8.38706 19.4722 8.37259 19.5941 8.35729L19.5944 8.35724C19.627 8.35315 19.6601 8.34899 19.6945 8.34441C19.8574 8.32268 20.0491 8.29073 20.3552 8.20894C20.6606 8.12715 20.8434 8.11501 20.9782 8.15144C21.1124 8.18768 21.1997 8.27264 21.3158 8.38554L21.3175 8.38722C21.6434 8.32396 22.0274 8.3853 22.4044 8.48562C22.6565 8.55294 22.9046 8.63753 23.128 8.7137L23.1284 8.71381C23.2378 8.7511 23.3412 8.78638 23.4363 8.81661C23.0907 8.82172 22.7942 8.90287 22.5117 8.98466L22.4744 8.9955C22.2057 9.07348 21.9495 9.1478 21.6753 9.15208C21.3865 9.15655 21.0312 9.15207 20.69 9.12396C20.3488 9.09584 20.0216 9.04281 19.7897 8.95016C19.7427 8.95684 19.6921 8.9617 19.6399 8.96671L19.6399 8.96671C19.5224 8.97799 19.3977 8.98996 19.2919 9.02492C19.1392 9.0754 19.0261 9.17316 19.0287 9.3853C19.0325 9.5968 19.6766 9.6639 20.4926 9.6754C21.0397 9.68311 21.6644 9.66583 22.2247 9.65033C22.5 9.64271 22.7598 9.63553 22.9871 9.63195C23.6785 9.62172 24.2753 9.69904 24.7284 9.84089C25.1814 9.98402 25.4919 10.1904 25.6108 10.439C25.7309 10.6727 25.7832 10.9355 25.7616 11.1974C25.7424 11.4869 25.6517 11.8447 25.4868 12.3668C26.1124 13.0696 26.4702 13.9118 26.66 14.6882C26.8498 15.4652 26.8708 16.177 26.8197 16.6211C26.7686 17.0652 26.7923 17.3438 26.8434 17.545C26.881 17.6931 26.9335 17.7994 26.9825 17.8986L26.9825 17.8987C27.0001 17.9343 27.0173 17.969 27.0331 18.0045C27.0932 18.138 27.1335 18.2434 27.1494 18.3732C27.1654 18.5029 27.1584 18.6575 27.1232 18.8888C27.6108 19.4013 28.0178 19.6262 28.3648 19.7265C28.627 19.8028 28.8557 19.8079 29.0596 19.8125C29.1254 19.814 29.1887 19.8154 29.2498 19.8192C29.0248 20.2268 28.6306 20.4543 28.1814 20.5866C27.7322 20.7188 27.2287 20.7553 26.7871 20.7815C26.9431 20.8754 27.0568 21.0856 27.1277 21.3348C27.1986 21.584 27.2268 21.8722 27.2114 22.1227C27.1961 22.3732 27.2287 22.6326 27.2798 22.8434C27.3309 23.0549 27.4006 23.2172 27.4593 23.2741C27.5181 23.331 27.5871 23.4166 27.6268 23.5272C27.6664 23.6371 27.6779 23.7719 27.6229 23.9265C27.568 24.0811 27.5501 24.1776 27.5603 24.2498C27.5718 24.322 27.6101 24.3693 27.6689 24.4262C27.6809 24.4378 27.6932 24.4493 27.7057 24.4611C27.7545 24.507 27.806 24.5554 27.8498 24.616C27.9129 24.7057 27.946 24.813 27.9443 24.9227C27.9469 25.0575 27.9015 25.2217 27.8268 25.3578C27.752 25.4939 27.6478 25.6013 27.5335 25.6224C27.4191 25.6434 27.283 25.5974 27.1718 25.5125C27.0573 25.4303 26.9782 25.3076 26.9507 25.1693C26.9297 25.0428 26.9273 24.9162 26.925 24.7939V24.7939V24.7938L26.9245 24.77C26.9232 24.6396 26.9207 24.5144 26.8996 24.3994C26.8893 24.3433 26.8746 24.2768 26.8581 24.2017C26.8406 24.1227 26.8211 24.0343 26.8025 23.9387C26.7654 23.7508 26.7341 23.5348 26.7303 23.3041C26.7041 22.8811 26.5839 22.57 26.4069 22.3323C26.2312 22.0946 25.9993 21.9297 25.7469 21.7987C25.6907 21.8958 25.5296 22.0236 25.345 22.1661L25.3287 22.1786C25.1463 22.3178 24.9457 22.471 24.7993 22.6224C24.6485 22.7789 24.536 23.0211 24.4536 23.2728C24.3712 23.5246 24.3175 23.7853 24.2823 23.9783C24.4958 24.1093 24.4996 24.3508 24.4357 24.5872C24.3847 24.7761 24.2908 24.9629 24.2271 25.0897C24.2111 25.1216 24.1969 25.1498 24.1859 25.1732L24.1802 25.1848C24.1276 25.294 24.0963 25.3587 23.9673 25.4026C23.8338 25.4479 23.5942 25.4709 23.1149 25.4978C22.6357 25.5246 22.2887 25.4434 22.0466 25.322C21.8044 25.2006 21.6683 25.039 21.6082 24.9054C21.5482 24.7712 21.4798 24.6281 21.3948 24.4901C21.3111 24.3521 21.214 24.2185 21.097 24.1048C21.0967 24.1817 21.0848 24.2582 21.0619 24.3316C21.0344 24.4236 20.9878 24.5297 20.913 24.6466C20.8383 24.7636 20.7737 24.9476 20.7239 25.131C20.674 25.315 20.6383 25.4984 20.621 25.6141C20.6038 25.7297 20.5373 25.7981 20.4229 25.8339C20.3079 25.869 20.145 25.8716 19.9335 25.8556C19.722 25.8396 19.6242 25.7259 19.598 25.5815C19.5718 25.4377 19.6172 25.2639 19.6919 25.1278C19.7661 24.9917 19.8881 24.807 20.0057 24.6319C20.0166 24.6157 20.0274 24.5996 20.0382 24.5836L20.046 24.572L20.0461 24.5718C20.1485 24.4196 20.2422 24.2802 20.2919 24.1942C20.3075 24.167 20.3232 24.1412 20.338 24.1168C20.3761 24.0542 20.409 24.0002 20.4223 23.9514C20.4408 23.8837 20.4204 23.8262 20.3239 23.77C20.3134 23.7639 20.3036 23.7581 20.2945 23.7527C20.219 23.7082 20.1843 23.6878 20.1501 23.7054C20.1218 23.7203 20.0935 23.7625 20.0415 23.8401C20.0242 23.866 20.0042 23.8957 19.9808 23.9297C19.8991 24.048 19.8469 24.173 19.7889 24.312L19.7889 24.312C19.7802 24.3329 19.7713 24.3542 19.7622 24.3757C19.6926 24.5406 19.6089 24.7246 19.4587 24.9387C19.2315 25.2587 19.0917 25.6324 19.053 26.023C19.0378 26.1419 19.0005 26.2681 18.964 26.3918L18.964 26.3919L18.9634 26.3939C18.9585 26.4105 18.9536 26.427 18.9488 26.4434C18.9079 26.5834 18.8721 26.7188 18.8734 26.8345C18.8743 26.9169 18.8947 26.989 18.9158 27.0636L18.9158 27.0637L18.9159 27.0639C18.9244 27.0938 18.933 27.1242 18.9405 27.1559C18.9661 27.2664 18.9776 27.3911 18.9226 27.5655C18.8676 27.7399 18.7744 27.876 18.6312 27.9693C18.4881 28.0626 18.2977 28.115 18.0478 28.1182C17.798 28.1214 17.6338 28.0473 17.5315 27.9476C17.4293 27.8486 17.3891 27.7233 17.3878 27.6275C17.3859 27.531 17.4415 27.3859 17.5443 27.2153C17.671 27.0129 17.8195 26.825 17.9871 26.6549C18.1763 26.4601 18.2491 26.2083 18.274 25.9674C18.2926 25.7882 18.285 25.6147 18.2788 25.4742C18.2766 25.4258 18.2747 25.3813 18.274 25.3419C18.2721 25.1872 18.3546 24.9457 18.4613 24.708C18.568 24.4703 18.699 24.2371 18.7929 24.101C18.8355 24.0393 18.8605 23.9673 18.8652 23.8925C18.87 23.8178 18.8542 23.7432 18.8197 23.6767C18.7552 23.5425 18.6287 23.4287 18.474 23.3738C18.3194 23.3188 18.2127 23.2236 18.129 23.1144C18.0569 23.0188 18.002 22.9121 17.9496 22.8103L17.9495 22.8102L17.9493 22.8098C17.9418 22.7953 17.9345 22.781 17.9271 22.7668C17.8857 22.6872 17.8765 22.5977 17.8679 22.5134C17.8641 22.4765 17.8604 22.4406 17.8542 22.407C17.8338 22.2965 17.7846 22.2102 17.6114 22.1942C17.4383 22.177 17.3437 22.2556 17.2734 22.3725C17.2366 22.4335 17.2066 22.505 17.1756 22.5788L17.1756 22.5789L17.1755 22.579C17.1474 22.6459 17.1185 22.7148 17.083 22.7795C17.0082 22.9156 16.943 23.0607 16.8983 23.2396C16.8468 23.4559 16.8245 23.6781 16.8319 23.9003C16.8363 24.17 16.7367 24.5661 16.6127 24.9246C16.4881 25.2824 16.3392 25.6026 16.2453 25.7195C16.1648 25.8197 16.1044 25.8632 16.047 25.9045C16.0374 25.9114 16.0279 25.9182 16.0184 25.9252C15.952 25.9744 15.8855 26.0332 15.7922 26.1885L15.6996 26.4211L15.6069 26.653C15.5143 26.8665 15.49 27.1457 15.4798 27.4204C15.4772 27.4911 15.4755 27.5614 15.4739 27.6302V27.6303C15.4692 27.8285 15.4648 28.0141 15.4383 28.1578C15.4025 28.3508 15.2804 28.5259 15.0951 28.6447C14.9098 28.7629 14.6613 28.8249 14.3731 28.7904C14.0843 28.7572 13.9379 28.6249 13.897 28.4569C13.8562 28.2888 13.9207 28.0856 14.0523 27.9105C14.1839 27.7355 14.3622 27.4728 14.5405 27.1955C14.7188 26.9182 14.8964 26.6262 15.0274 26.3936C15.1577 26.1604 15.2025 25.9387 15.2421 25.7016C15.2453 25.6825 15.2485 25.6632 15.2517 25.6439L15.2528 25.6371L15.2535 25.6326C15.2891 25.4164 15.3269 25.1866 15.4268 24.924C15.5437 24.6036 15.6253 24.2715 15.6702 23.9335C15.722 23.5719 15.745 23.1866 15.7392 22.8013C15.736 22.444 15.7674 22.0873 15.8331 21.7361C15.8728 21.5132 15.9194 21.3064 15.9621 21.117L15.9622 21.1165L15.9623 21.1163C15.9815 21.0312 15.9999 20.9496 16.0165 20.8716C16.0702 20.6198 16.1226 20.2869 16.1603 19.9399C16.198 19.5923 16.221 19.2313 16.2165 18.9233C16.2121 18.6147 16.299 18.3489 16.4057 18.1067C16.4472 18.0116 16.4919 17.9203 16.5353 17.8315L16.5353 17.8315C16.6027 17.6936 16.667 17.562 16.7117 17.4326C16.7556 17.3056 16.7858 17.1737 16.8251 17.0017L16.8251 17.0016L16.8252 17.0014C16.8518 16.8852 16.8825 16.7507 16.9245 16.5872C17.0287 16.1815 17.2018 15.5962 17.552 14.6665C17.9028 13.7367 18.6402 13.0128 19.3616 12.4818C19.9498 12.0488 20.527 11.7442 20.8749 11.5605L20.8751 11.5604C20.9538 11.5189 21.0207 11.4835 21.0734 11.4543C21.359 11.2958 21.6983 11.2281 22.0389 11.2319ZM22.2282 24.233C22.214 24.2777 22.2009 24.319 22.1897 24.3578C22.1808 24.4115 22.1533 24.4313 22.1175 24.4236C22.0875 24.4179 22.0562 24.3872 22.0415 24.3393C22.0006 24.1955 21.9226 23.9898 21.8293 23.7962C21.7348 23.6032 21.6249 23.4217 21.5175 23.3271C21.2255 23.0428 21.0932 22.8907 21.0338 22.7668C20.9846 22.6646 20.9847 22.5813 20.985 22.4591C20.985 22.4485 20.985 22.4376 20.985 22.4264C20.985 22.4183 20.985 22.4101 20.9849 22.4017C20.9848 22.3922 20.9848 22.3825 20.9846 22.3725C20.5201 22.1393 20.3718 21.862 20.3706 21.6C20.3693 21.3374 20.5143 21.0894 20.6364 20.915C20.7567 20.7365 20.8535 20.5432 20.9245 20.3399C20.9831 20.1884 21.0227 20.0302 21.0428 19.869C21.0511 19.7636 21 19.5712 20.915 19.368C20.83 19.1648 20.7118 18.9501 20.5846 18.7981C20.5227 18.7775 20.457 18.7712 20.3923 18.7795C20.306 18.793 20.2114 18.8428 20.1463 18.9783C20.0811 19.1144 20.0006 19.1878 19.9124 19.2249C19.8242 19.262 19.7284 19.2639 19.6319 19.2556C19.536 19.2473 19.421 19.2402 19.3105 19.2607C19.1999 19.2811 19.0952 19.3316 19.0204 19.4383C18.945 19.5457 18.8491 19.5514 18.7527 19.522C18.6884 19.502 18.6238 19.4661 18.565 19.4334C18.5355 19.4171 18.5075 19.4015 18.4817 19.3891C18.4401 19.3688 18.4096 19.347 18.3809 19.3266C18.3563 19.309 18.3331 19.2924 18.3054 19.2786C18.2447 19.2479 18.1629 19.23 17.9999 19.2422C17.837 19.2543 17.7763 19.3712 17.7207 19.4946C17.7173 19.5022 17.7139 19.5098 17.7105 19.5174C17.6585 19.6338 17.6058 19.752 17.4709 19.7898C17.3277 19.8307 17.2306 19.7553 17.1706 19.6089C17.1111 19.4632 17.0881 19.2473 17.0945 19.0064C17.0511 18.7086 17.1591 18.2543 17.299 17.8262C17.4389 17.3982 17.6107 16.9965 17.6938 16.8021L17.6938 16.802L17.6938 16.802L17.6939 16.8019C17.7776 16.6083 17.906 16.2307 18.0364 15.8147C18.1667 15.3987 18.2996 14.9444 18.3897 14.5961C18.4798 14.2479 18.6868 13.9802 18.9354 13.7354C19.0552 13.6175 19.1847 13.5049 19.3153 13.3914L19.3154 13.3913L19.3155 13.3913C19.4551 13.2699 19.596 13.1473 19.7277 13.016C19.9827 12.7616 20.2964 12.5252 20.6031 12.3546C20.9099 12.184 21.2108 12.0779 21.4415 12.0843C21.6709 12.0907 21.9086 12.2166 22.1079 12.3629C22.2661 12.4817 22.4129 12.615 22.5463 12.761C22.6249 12.846 22.6952 13.0524 22.7674 13.2703L22.7765 13.2975C22.8471 13.5071 22.9199 13.7231 23.0044 13.8511C23.0926 13.9846 23.1674 14.1904 23.2338 14.43C23.3019 14.6885 23.3605 14.9494 23.4095 15.2121C23.451 15.4349 23.5418 15.6456 23.6753 15.8287C23.721 15.8933 23.7675 15.9521 23.8119 16.0083C23.8757 16.0889 23.9351 16.1641 23.9814 16.2428C24.0453 16.3497 24.1134 16.5769 24.1937 16.8452L24.1937 16.8452L24.1937 16.8453C24.2137 16.9122 24.2345 16.9816 24.2562 17.0524C24.3648 17.407 24.4958 17.7949 24.6632 18.0613C24.8306 18.3284 25.0977 18.5022 25.3533 18.6185C25.5658 18.7157 25.7716 18.7727 25.9066 18.8101C25.934 18.8177 25.9585 18.8245 25.9795 18.8307C26.0157 18.8411 26.0484 18.8495 26.0787 18.8573C26.1543 18.8767 26.2153 18.8923 26.2805 18.9265C26.3731 18.9744 26.4728 19.0594 26.63 19.2441C26.8396 19.4907 27.1629 19.6958 27.4626 19.8473C27.6872 19.9614 27.9205 20.0576 28.1603 20.1348C27.7782 20.2805 27.3277 20.2831 26.9309 20.1974C26.5354 20.1118 26.1948 19.9393 26.0325 19.7348C25.945 19.623 25.823 19.5239 25.6907 19.4434C25.5578 19.3629 25.4127 19.3016 25.2779 19.2652C25.1418 19.2287 24.9214 19.1406 24.6977 19.0453C24.476 18.9501 24.2536 18.8473 24.1188 18.7821C24.09 18.8402 24.0249 18.9182 23.9303 19.0134C23.8357 19.1093 23.7124 19.2217 23.5712 19.3489C23.4287 19.476 23.3961 19.5783 23.4102 19.662C23.422 19.7324 23.4646 19.7911 23.5014 19.8418L23.5015 19.8418C23.5084 19.8514 23.5151 19.8606 23.5214 19.8696C23.5603 19.9265 23.7386 20.0754 23.9233 20.2287C23.9421 20.2445 23.9611 20.2602 23.98 20.276L23.98 20.276L23.9801 20.2761C24.146 20.4142 24.3071 20.5483 24.3674 20.6166C24.1463 20.6102 24 20.6006 23.8242 20.5412C23.6485 20.4811 23.4421 20.3712 23.1028 20.1648C22.7635 19.9585 22.66 19.7342 22.6549 19.5438C22.6491 19.354 22.7424 19.1981 22.7999 19.1303C22.8562 19.062 22.9744 18.9591 23.0932 18.8632C23.2121 18.7674 23.3303 18.6792 23.3865 18.6396C23.444 18.6 23.4715 18.5463 23.4664 18.5061C23.4619 18.4652 23.423 18.4364 23.3456 18.4473C22.7814 18.5335 22.3846 18.6888 22.129 18.8537C21.8715 19.0192 21.7546 19.1942 21.7469 19.3195C21.7379 19.4378 21.7603 19.5564 21.8121 19.6632C21.8773 19.7853 21.9626 19.8955 22.0645 19.9891C22.117 20.0396 22.1584 20.1005 22.1859 20.168C22.2134 20.2355 22.2265 20.308 22.2242 20.3808C22.2239 20.5057 22.1783 20.6263 22.0958 20.7201C22.0198 20.7981 21.9872 20.837 21.961 20.8952C21.9422 20.939 21.9267 20.9938 21.901 21.0843L21.901 21.0845C21.8926 21.114 21.8831 21.1473 21.8722 21.1853C21.8261 21.3406 21.7923 21.6345 21.7763 21.9476C21.7582 22.2394 21.7604 22.5321 21.7827 22.8236C21.8573 22.7034 21.958 22.6014 22.0773 22.5252C22.175 22.4614 22.2801 22.4097 22.3904 22.3712C22.4466 22.9629 22.4191 23.3795 22.3667 23.6882C22.3271 23.922 22.2725 24.0938 22.2283 24.2327L22.2282 24.233ZM12.0543 6.14184L11.5808 6.27538L11.6127 5.47155L11.6172 5.47027L12.0543 6.14184ZM16.814 5.65174L16.3226 5.70669L16.2645 5.19296L16.7744 5.13481C16.9188 5.11883 17.0702 5.16676 17.0894 5.33545C17.1111 5.53161 17.0089 5.62938 16.814 5.65174ZM16.6977 4.82043L16.2281 4.87347L16.1801 4.45238L16.6396 4.40062C16.821 4.38017 16.9386 4.41596 16.9565 4.57379C16.9737 4.72714 16.8555 4.80254 16.6977 4.82043ZM19.5501 4.83513C19.5718 5.37634 19.2709 5.52331 19.0536 5.53161C18.8357 5.53992 18.5245 5.41788 18.5035 4.87666C18.4817 4.33545 18.7827 4.18912 18.9999 4.18018C19.2172 4.17123 19.529 4.29327 19.5501 4.83513ZM21.8562 4.47858C21.8498 4.67027 21.7463 4.73992 21.5367 4.73353L21.0638 4.71883L21.0792 4.20126L21.5814 4.2166C21.8185 4.22427 21.86 4.37634 21.8562 4.47858Z" fill="#F6F6F3"/>
</svg>
