<svg width="40" height="40" viewBox="0 0 40 40" fill="none" xmlns="http://www.w3.org/2000/svg">
<path fill-rule="evenodd" clip-rule="evenodd" d="M39.6301 8.79137L39.5502 7.36799L39.2958 7.15984C37.433 5.62924 34.9731 4.06499 32.6435 2.92965C29.5655 1.42848 26.7797 0.610613 23.1319 0.137555C21.6139 -0.0600782 17.8526 -0.0411558 16.2925 0.171195C14.169 0.459235 12.0855 0.936498 10.3488 1.5336C7.30863 2.57433 3.85635 4.47077 0.948619 6.69309L0.149676 7.30281L0.103422 7.85787C0.00250262 9.12777 -0.0374445 12.7335 0.0424498 13.8247C0.393564 18.6772 1.46373 22.508 3.4716 26.099C6.4424 31.4141 10.0881 34.9925 15.5672 37.9696C16.3598 38.4006 19.2949 39.8303 19.6985 39.9817C19.8583 40.0406 19.9677 39.9985 21.5971 39.2248C25.9892 37.1433 28.5563 35.4172 31.2307 32.747C33.5224 30.4595 35.1938 28.1342 36.7434 25.073C37.5213 23.5361 37.843 22.7203 38.3707 20.9584C38.9909 18.8854 39.2874 17.4305 39.5292 15.2733C39.6763 13.9656 39.731 10.5532 39.6343 8.79347L39.6301 8.79137ZM36.5836 16.0113C35.997 20.273 34.8133 23.4309 32.4985 26.9106C30.1752 30.4007 27.175 33.1865 23.4115 35.3478C22.6736 35.7725 20.0812 37.1538 19.9046 37.2169C19.8478 37.2379 19.2549 36.9709 18.5863 36.624C14.8902 34.7045 12.6952 33.1759 10.5275 31.0104C8.52386 29.0088 7.20771 27.2512 5.81797 24.7156C3.44637 20.3929 2.53389 15.5845 2.94177 9.56718L2.98592 8.91962L3.65241 8.41713C6.74096 6.08548 10.004 4.43503 13.1367 3.61926C15.5251 2.99693 17.184 2.78878 19.7679 2.78878C22.15 2.78878 23.4368 2.92965 25.7032 3.43845C28.5416 4.0755 31.6217 5.44212 34.3823 7.28809C35.5197 8.04919 36.6025 8.87126 36.6677 9.02474C36.7013 9.10674 36.7329 10.4544 36.7371 12.0208C36.7434 14.6173 36.7308 14.9685 36.5857 16.0134L36.5836 16.0113ZM21.349 32.3938C23.8741 32.1184 26.3025 31.1723 28.3251 29.6732C29.0189 29.1581 30.2531 27.9702 30.8249 27.2617C32.2735 25.4704 33.2785 23.349 33.7663 21.0488C33.9471 20.1994 33.9576 20.0396 33.9597 18.3766C33.9597 16.8334 33.9429 16.5033 33.8083 15.8074C33.0052 11.615 30.4885 8.10175 26.7671 5.96984C25.4615 5.22346 23.7795 4.62845 22.1606 4.34462C21.0799 4.1554 18.9564 4.11755 17.9262 4.27103C14.4151 4.79035 11.316 6.46182 9.09158 9.03736C5.91473 12.7167 4.84877 17.5818 6.19436 22.2641C7.28555 26.0675 10.0882 29.3663 13.6918 31.0903C14.9974 31.7147 16.7993 32.2319 18.2395 32.3938C19.0027 32.48 20.5753 32.4821 21.349 32.3959V32.3938ZM17.7538 30.6298C13.4521 29.9045 9.71812 26.919 8.16859 22.9726C7.57148 21.4504 7.34231 20.3445 7.28975 18.7319C7.2456 17.4073 7.33811 16.4675 7.61774 15.3553C8.83508 10.5217 12.567 6.94749 17.3627 6.0224C18.4287 5.81636 18.5023 5.82266 18.6326 6.13383C18.9228 6.82975 19.1898 8.27205 19.4568 10.5995C19.492 10.6666 19.502 10.8728 19.5139 11.1173C19.5397 11.6469 19.5742 12.3564 19.892 12.2226C19.9803 12.168 20.0266 12.0019 20.0644 11.5982C20.3462 8.69676 20.7982 6.28941 21.1262 5.95091C21.2103 5.86261 21.3133 5.86471 21.9356 5.96563C24.4944 6.37772 26.826 7.58875 28.7224 9.48939C29.7169 10.486 30.3435 11.3312 30.9406 12.4812C32.0191 14.5627 32.467 16.5033 32.3829 18.7403C32.3387 19.8778 32.2357 20.5716 31.9477 21.6249C30.745 26.038 27.0951 29.4987 22.6084 30.4806C22.1711 30.5752 21.6665 30.674 21.4836 30.6992L21.1514 30.7455L21.04 30.4806C20.7078 29.69 20.2873 27.3605 20.1128 25.3547C20.0707 24.8585 20.0182 24.3981 19.9993 24.3308C19.9635 24.2068 19.7343 24.1626 19.6692 24.2677C19.6502 24.2993 19.5535 25.0351 19.4547 25.9014C19.1625 28.4979 18.7609 30.5121 18.5065 30.674C18.4838 30.6886 18.4665 30.7002 18.4477 30.7085C18.3776 30.7395 18.287 30.7242 17.817 30.6451L17.7517 30.6341L17.7538 30.6298ZM20.0475 14.8402L20.0286 18.4292H20.0412L20.0223 22.0181L19.831 22.0412C19.7885 22.0463 19.7595 22.0624 19.7311 22.0616C19.6075 22.0581 19.493 21.7356 18.3172 18.8097C17.7306 17.3506 17.2239 16.1795 17.1945 16.211C17.1629 16.2405 17.1461 17.42 17.1566 18.8307L17.1756 21.3958L17.4279 21.4168C17.7054 21.4399 17.8126 21.6144 17.6696 21.81C17.6003 21.9046 17.3711 21.9172 15.9246 21.9004L14.2573 21.8814V21.6733C14.2573 21.4883 14.2825 21.4609 14.4823 21.442C14.6463 21.4252 14.7072 21.3853 14.7072 21.2927C14.7072 21.1855 14.5832 20.4938 14.4591 19.9156C14.4255 19.7642 14.4003 19.7579 13.8536 19.7768L13.2839 19.7979L13.0715 20.8386L12.8592 21.8793L10.9879 21.9235C9.95773 21.9466 9.09361 21.9529 9.06418 21.9361C9.03474 21.9172 9.01162 21.8142 9.01162 21.7069C9.01162 21.4988 9.11254 21.4252 9.39847 21.4252H9.56667V14.8991H9.37535C9.09572 14.897 8.9969 14.8066 9.02213 14.5795L9.04526 14.3777H11.1982V14.5858C11.1982 14.7708 11.1709 14.7982 10.9543 14.8297L10.7104 14.8655L10.6915 18.1453L10.6726 21.4252H11.0237C11.4211 21.4252 11.7932 21.2612 12.077 20.9627C12.4786 20.5401 12.6573 19.964 13.2902 17.0625C13.9167 14.1864 13.9567 14.0686 14.2447 14.1779C14.2576 14.1831 14.2688 14.1857 14.2792 14.1901C14.3761 14.2306 14.4115 14.4178 15.1971 18.0591L15.9162 21.3916H16.5406L16.5595 18.1159L16.5784 14.8402L16.3177 14.8192C16.0781 14.8003 16.057 14.7814 16.057 14.59V14.3819L16.9653 14.363L17.8757 14.344L18.6284 16.19C19.0405 17.2055 19.4063 18.0528 19.4378 18.0717C19.4694 18.0907 19.4862 17.38 19.4757 16.4886L19.4567 14.8697L19.2129 14.8339C18.9984 14.8045 18.9669 14.7729 18.9479 14.5795C18.9206 14.3104 18.9332 14.3062 19.8835 14.3356L20.6089 14.3567L20.5879 14.5774C20.569 14.7772 20.5416 14.8003 20.3061 14.8192L20.0475 14.8402ZM13.8662 16.6378C13.8263 16.6378 13.307 18.9884 13.3091 19.1545C13.3091 19.184 13.5425 19.2071 13.8263 19.2071C14.1101 19.2071 14.354 19.1819 14.3687 19.1545C14.4087 19.0767 13.923 16.6378 13.8662 16.6378ZM24.5279 20.1952C24.3093 21.1729 23.8551 21.8121 23.2601 21.9782V21.9803C22.9111 22.077 22.6273 22.0707 22.3708 21.9592C21.3847 21.5282 20.6699 19.903 20.6699 18.0907C20.6699 16.5222 21.2375 15.0294 22.0491 14.4555C22.2825 14.2915 22.4318 14.2452 22.7934 14.2221C23.2013 14.1969 23.2791 14.2137 23.5818 14.4029L23.9182 14.6111L23.9939 14.445C24.0759 14.2641 24.3829 14.2095 24.4354 14.3651C24.4522 14.4134 24.4459 14.9369 24.4249 15.5277C24.3892 16.5012 24.3744 16.6042 24.2567 16.6273C24.0696 16.6631 24.0128 16.5748 23.9287 16.1185C23.7353 15.0715 23.1887 14.6047 22.5432 14.939C22.0512 15.1913 21.8977 16.129 21.9335 18.6857C21.9566 20.3529 21.9692 20.5169 22.1059 20.8155C22.3308 21.3075 22.7408 21.5114 23.2013 21.36C23.5166 21.2549 23.7458 20.8743 23.9308 20.1511C24.099 19.4888 24.1032 19.4846 24.3555 19.4846C24.6331 19.4846 24.6604 19.6002 24.5279 20.1952ZM30.8438 21.4967C31.1381 21.5345 31.2369 21.6943 31.0814 21.8814L31.0856 21.8793C30.9573 22.0307 29.1282 22.0244 28.9747 21.8709C28.8443 21.7427 28.8443 21.7343 28.9368 21.5598C28.9768 21.482 29.0798 21.4252 29.1786 21.4252C29.3006 21.4252 29.351 21.3874 29.351 21.2948C29.351 21.1834 29.2291 20.5001 29.1029 19.9135C29.0714 19.7621 29.0441 19.7558 28.5016 19.7747L27.934 19.7958L27.7784 20.559C27.6922 20.9795 27.6186 21.3432 27.6186 21.3663C27.6165 21.3916 27.7111 21.4294 27.8288 21.4525C28.0138 21.4883 28.0391 21.5198 28.0202 21.6859L27.9991 21.8772L26.3466 21.8962L24.694 21.9151L24.7151 21.688C24.734 21.4883 24.7655 21.4588 24.98 21.4273L25.2239 21.3937V14.8676L24.98 14.8318C24.7655 14.8003 24.7382 14.7729 24.7382 14.5879V14.3798H26.8911V14.5879C26.8911 14.7729 26.8638 14.8003 26.6472 14.8318L26.4033 14.8676L26.3844 18.1516L26.3655 21.4357L26.6956 21.4147L27.0257 21.3937L27.423 19.554C27.5622 18.9104 27.7431 18.0684 27.9017 17.3299C27.9924 16.9079 28.0758 16.5197 28.14 16.2216C28.5046 14.5226 28.5531 14.2506 28.6757 14.2116C28.7086 14.2011 28.7469 14.2074 28.7981 14.2074C28.9095 14.2074 29.0041 14.2137 29.0041 14.2242C29.0046 14.2261 29.0235 14.3137 29.0575 14.4715C29.1716 15.001 29.4563 16.3218 29.7883 17.851L30.5705 21.4609L30.8438 21.4967ZM28.0861 18.5084C28.0287 18.7926 27.9867 19.0004 27.976 19.0494H27.9739C27.9424 19.2008 27.9571 19.205 28.5121 19.205C28.9389 19.205 29.0735 19.184 29.0504 19.1188C29.0335 19.0704 28.9158 18.4922 28.7918 17.8342C28.6677 17.174 28.5416 16.6357 28.5142 16.6357C28.4869 16.6357 28.3629 17.1445 28.2367 17.7648C28.1822 18.0326 28.1297 18.2925 28.0861 18.5084Z" fill="#F6F6F3"/>
</svg>
