<svg width="40" height="41" viewBox="0 0 40 41" fill="none" xmlns="http://www.w3.org/2000/svg">
<path d="M23.1355 20.1586L21.3919 23.5828H21.3556L21.2674 20.1586H19.8089L19.752 20.2818L19.8771 20.3581C19.9978 20.4432 20.0316 20.5295 20.0472 20.7672L20.2449 24.9225H21.8697L24.4921 20.1586H23.1355ZM17.9452 22.6247C17.7819 23.0931 17.6537 23.3946 17.4642 23.5934C17.3154 23.7498 17.119 23.8617 16.6668 23.8617C16.3122 23.8617 16.1146 23.7166 16.1146 23.4421C16.1121 23.2651 16.1602 22.9962 16.3497 22.4727C16.5136 22.0049 16.6418 21.7034 16.8319 21.5045C16.9789 21.3482 17.1759 21.2356 17.6287 21.2356C17.9833 21.2356 18.1803 21.3807 18.1797 21.654C18.1835 21.8335 18.1353 22.1024 17.9452 22.6247ZM17.8695 20.0998H17.7182C16.8207 20.0998 16.3078 20.3419 15.8869 20.7891C15.3634 21.3426 14.8719 22.8392 14.8812 23.631C14.8913 24.4384 15.4135 24.9981 16.5111 24.9981H16.6718C17.5718 24.9981 18.0847 24.7561 18.5056 24.3089C19.0284 23.7542 19.51 22.2582 19.5006 21.467C19.49 20.6602 18.9677 20.0998 17.8695 20.0998ZM13.4628 21.8879C13.3809 22.0912 13.2908 22.14 13.1726 22.1881C13.0932 22.2194 12.9249 22.2307 12.763 22.2307H12.1357L12.4771 21.2462H13.2351C13.4622 21.2462 13.5547 21.3644 13.5579 21.4989C13.5591 21.5846 13.5197 21.7416 13.4628 21.8879ZM13.3502 20.1586H11.2932L11.2519 20.2818L11.3351 20.3638C11.4227 20.4501 11.4195 20.5526 11.3426 20.7728L9.90541 24.9225H11.2188L11.7804 23.2751L12.2251 23.2757L12.7192 24.9225H14.0388L13.4184 23.237C13.7786 23.1788 13.9594 23.0756 14.1401 22.9149C14.3878 22.6885 14.5592 22.3707 14.7011 21.9029C14.9088 21.2243 14.7831 20.8366 14.6498 20.6377C14.4666 20.3638 14.0807 20.1586 13.3502 20.1586ZM27.1295 23.0118L27.4935 22.0155H25.8192L26.0788 21.255H27.8925L28.2909 20.1555H24.8667L24.8192 20.2956L24.9011 20.3763C24.9893 20.462 24.9855 20.5639 24.9092 20.7853L23.4833 24.9206H26.6829L27.0694 23.8136H25.2019L25.4771 23.0118H27.1295ZM30.9714 21.8879C30.8895 22.0912 30.7982 22.14 30.6819 22.1881C30.6006 22.2194 30.4348 22.2307 30.2728 22.2307H29.6462L29.9845 21.2462H30.7438C30.9696 21.2462 31.0634 21.3644 31.0652 21.4989C31.0677 21.5846 31.0271 21.7416 30.9714 21.8879ZM30.857 20.1586H28.8006L28.7606 20.2818L28.8431 20.3638C28.9313 20.4501 28.9269 20.5526 28.8513 20.7728L27.4128 24.9225H28.7281L29.2891 23.2757H29.7331L30.2278 24.9225H31.5462L30.927 23.237C31.2866 23.1788 31.4674 23.0756 31.6475 22.9149C31.8958 22.6885 32.0678 22.3707 32.2098 21.9029C32.4174 21.2243 32.2917 20.8366 32.1591 20.6377C31.9759 20.3638 31.5893 20.1586 30.857 20.1586ZM33.5538 26.5517C29.9457 28.4161 25.1331 29.443 20.0003 29.443C14.8681 29.443 10.0561 28.4161 6.44746 26.5517C2.977 24.758 1.06447 22.422 1.06447 19.9754C1.06447 17.5269 2.977 15.1909 6.44746 13.3985C10.0561 11.5347 14.8681 10.5065 20.0003 10.5065C25.1331 10.5065 29.9457 11.5347 33.5538 13.3985C37.0249 15.1909 38.9355 17.5269 38.9355 19.9754C38.9355 22.422 37.0249 24.758 33.5538 26.5517ZM34.0422 12.4528C30.2847 10.5115 25.2982 9.44268 20.0003 9.44268C14.7024 9.44268 9.71528 10.5115 5.959 12.4528C3.73376 13.603 0 16.1097 0 19.9754C0 23.8392 3.73376 26.3465 5.959 27.4967C9.71465 29.438 14.7011 30.5068 20.0003 30.5068C25.2989 30.5068 30.2853 29.438 34.0422 27.4967C36.2675 26.3465 40 23.8399 40 19.9754C40 16.109 36.2675 13.603 34.0422 12.4528ZM33.0485 25.5741C29.1665 27.5792 24.3376 28.3416 20.0003 28.3416C15.6624 28.3416 10.8348 27.5792 6.95155 25.5741C4.89704 24.5116 2.16583 22.554 2.16583 19.9754C2.16583 17.3943 4.89641 15.4386 6.95155 14.3766C10.8348 12.3715 15.6624 11.6091 20.0003 11.6091C24.3376 11.6091 29.1665 12.3703 33.0485 14.3766C35.1048 15.4386 37.8348 17.3943 37.8348 19.9754C37.8348 22.5552 35.1042 24.5116 33.0485 25.5741ZM33.2498 13.9857C29.3084 11.9475 24.4008 11.1676 20.0003 11.1676C15.5992 11.1676 10.6928 11.9481 6.74953 13.9857C4.53555 15.129 1.72553 17.1929 1.72553 19.9754C1.72553 22.7554 4.53555 24.8205 6.74953 25.965C10.6928 28.0014 15.6005 28.7819 20.0003 28.7819C24.4008 28.7819 29.3084 28.0027 33.2498 25.965C35.4651 24.8205 38.2751 22.7554 38.2751 19.9754C38.2751 17.1929 35.4657 15.129 33.2498 13.9857ZM10.0586 20.7728L6.46434 21.9548L6.0253 23.1594H9.19493L9.60771 22.0243H7.4106L9.90478 21.1799L10.0586 20.7728ZM24.3607 15.4949H24.8817C25.2363 15.4949 25.4321 15.6137 25.4365 15.8883C25.4396 16.0653 25.3921 16.3079 25.2082 16.8301C25.0456 17.2973 24.9155 17.5681 24.731 17.7664C24.5828 17.9228 24.3858 17.9922 23.9336 17.9922H23.4983L24.3607 15.4949ZM23.2187 14.9789L21.7965 19.1286H23.8948C24.7942 19.1286 25.3076 18.9291 25.7242 18.4825C26.247 17.9296 26.7248 16.4912 26.7092 15.6994C26.6936 14.8913 26.172 14.3654 25.0743 14.3654H23.1681L23.128 14.4879L23.2106 14.5686C23.2982 14.6556 23.295 14.7581 23.2187 14.9789ZM31.1365 16.0734H27.9669L27.5541 17.2073H29.7506L27.2558 18.0541L27.102 18.46L30.6963 17.2779L31.1365 16.0734ZM16.9702 19.1261H18.1647L19.2067 16.0446L19.8158 19.1261H21.0116L22.6415 14.3635L21.3919 14.3654L20.5213 16.954L20.0241 14.3654H18.3398L18.2985 14.4879L18.3811 14.5686C18.4699 14.6556 18.4655 14.7581 18.3899 14.9789L16.9702 19.1261ZM8.40565 19.1286L11.656 19.1273L12.0487 17.9922H10.1593L11.4077 14.3654H9.77782L9.73717 14.4879L9.81847 14.5686C9.90728 14.6556 9.90353 14.7581 9.82723 14.9789L8.40565 19.1286ZM15.3209 15.6819H15.3634L15.386 17.1203H14.5091L15.3209 15.6819ZM11.9931 19.1261H13.3759L13.975 18.0735H15.4066L15.421 19.1261H16.6756L16.4048 14.3654H14.5266L14.4847 14.4879L14.5454 14.5486C14.6442 14.6456 14.6036 14.785 14.2377 15.3654L11.9931 19.1261Z" fill="#F6F6F3"/>
</svg>
