<svg width="40" height="40" viewBox="0 0 40 40" fill="none" xmlns="http://www.w3.org/2000/svg">
<path fill-rule="evenodd" clip-rule="evenodd" d="M20.4712 7.09845C21.101 7.11588 21.034 7.55843 20.9299 7.711C19.0713 10.6022 14.6798 15.6931 11.4822 21.2787C10.9529 22.1837 10.5586 22.8495 10.5586 23.8427C10.5586 25.1892 11.3992 26.7811 13.0879 27.4643C14.1987 27.9093 14.898 27.923 16.0969 27.9403C24.9978 28.2155 28.5662 27.975 36.531 27.7048C36.9909 27.7035 37.4187 27.3936 37.5724 27.2064C39.1123 25.6007 40 22.7144 40 20.1677C40 14.4954 35.9147 9.38602 29.5419 6.92866L28.5191 8.24039C34.1046 10.549 36.9909 15.16 36.9909 20.0983C36.9909 21.2092 36.8024 22.2854 36.4614 23.3132C36.2086 24.0299 35.8974 24.4415 34.9923 24.4551C28.5016 24.5939 24.8267 24.6956 18.3188 24.5245C17.4794 24.5072 17.2079 24.201 17.0715 23.5363C16.9673 23.1421 17.0541 22.8148 17.3257 22.3201C20.7774 16.2052 26.7907 9.21613 27.971 7.55843C28.1954 7.25221 28.09 6.63479 27.32 6.43024C25.0672 5.76441 22.5393 5.49414 19.9764 5.49414C8.37271 5.54124 0.188411 12.0677 0 20.1677C0.464964 29.8907 8.91943 34.912 19.9764 34.912C26.7424 34.912 32.9403 32.5203 36.5669 28.7276L33.2168 28.8627C30.1234 31.614 25.1677 33.0845 20.0422 33.0845C10.6999 33.0845 3.09341 28.4387 3.09341 20.0983C3.09341 12.9246 10.6986 7.08112 20.0422 7.08112L20.4712 7.09845Z" fill="#F6F6F3"/>
</svg>
