<svg width="40" height="40" viewBox="0 0 40 40" fill="none" xmlns="http://www.w3.org/2000/svg">
<path fill-rule="evenodd" clip-rule="evenodd" d="M7.81549 26.035C11.4983 28.6237 15.6578 29.6671 20.2457 29.7281C22.2978 29.7085 24.4628 29.4563 26.5679 28.8276C30.3716 27.6921 33.6697 25.7885 36.0201 22.48C37.6001 20.2563 38.2289 17.7677 37.9214 15.0822C37.6427 12.6455 36.5234 10.5576 34.8478 8.78881C31.5692 5.32829 27.4051 3.71262 22.7723 3.16331C20.2837 2.86736 17.7963 2.96985 15.3376 3.50188C11.3866 4.35636 7.85119 5.99967 5.15072 9.10204C2.65524 11.9672 1.62226 15.2699 2.62069 19.0218C3.41989 22.024 5.3154 24.2788 7.81549 26.0361V26.035ZM9.41965 8.37884C11.8553 6.3129 14.7354 5.23041 17.8919 4.86766C21.9996 4.39436 25.8689 5.08301 29.4054 7.29866C29.874 7.59243 30.3162 7.92875 30.7582 8.26489L30.7583 8.26492L30.7584 8.26502C30.9626 8.42033 31.1668 8.57561 31.3735 8.72662C31.3625 8.75369 31.3513 8.78104 31.3401 8.80839L31.34 8.80847L31.34 8.80865L31.3399 8.8089L31.3397 8.80933C31.3286 8.83637 31.3175 8.8634 31.3067 8.89015C31.1593 8.89015 31.0118 8.88844 30.8643 8.88673C30.4836 8.88233 30.1028 8.87792 29.7244 8.90282C29.5551 8.91433 29.319 9.03525 29.2442 9.17689C27.2623 12.8735 25.2966 16.5781 23.3308 20.2839C23.3149 20.3136 23.3099 20.3486 23.3018 20.4051C23.297 20.4386 23.2912 20.4796 23.2813 20.5315H24.4202C24.7816 20.5315 25.1431 20.5285 25.5046 20.5256C26.3722 20.5184 27.2396 20.5112 28.1053 20.5453C28.7329 20.5695 29.1406 20.4083 29.2972 19.7024H25.6524C25.6259 19.6563 25.5994 19.6103 25.5729 19.5653C28.9252 17.3462 31.628 14.587 32.9834 10.6129C34.0267 12.0858 34.6866 13.576 34.8386 15.2481C35.2543 19.8233 33.0479 23.0443 29.3847 25.4004C25.9299 27.623 22.0813 28.2782 18.037 27.8452C14.9657 27.517 12.1639 26.4645 9.70409 24.5632C9.61096 24.4915 9.52352 24.4122 9.40219 24.3022L9.40204 24.3021L9.40191 24.302C9.33427 24.2406 9.2561 24.1698 9.16054 24.0853H11.0008C11.2693 24.0853 11.5378 24.0838 11.8063 24.0823C12.4774 24.0786 13.1484 24.0748 13.8187 24.0945C14.1619 24.1049 14.3461 23.9978 14.4774 23.6903C14.5835 23.4405 14.7088 23.1988 14.8472 22.9318L14.8472 22.9318L14.8472 22.9318C14.9117 22.8074 14.9791 22.6775 15.0486 22.5387H8.78397C9.15551 22.3039 9.51519 22.084 9.86423 21.8706L9.86433 21.8705L9.86436 21.8705L9.86443 21.8704C10.6091 21.4151 11.3053 20.9894 11.9647 20.512C13.4237 19.4559 14.8851 18.3919 16.2393 17.2081C18.4389 15.2872 19.4557 12.6904 20.0937 9.91621C20.1409 9.71123 20.1789 9.50394 20.2077 9.29551C20.2175 9.22346 20.2155 9.14995 20.2129 9.05489V9.05486C20.2115 9.00406 20.21 8.9471 20.21 8.88094C19.8002 8.88094 19.3935 8.88048 18.9893 8.88002H18.9892H18.9892H18.9892H18.9891H18.9891C17.4733 8.87831 15.9915 8.87663 14.5097 8.89936C14.3519 8.90166 14.1446 9.13659 14.0513 9.31163C12.3745 12.4312 10.7058 15.5541 9.03697 18.6773L9.03694 18.6773C8.52125 19.6424 8.00555 20.6075 7.48959 21.5726C7.44885 21.6488 7.40268 21.7225 7.3475 21.8106L7.34749 21.8106L7.34737 21.8108C7.31836 21.8571 7.28687 21.9074 7.25237 21.9641C6.40134 20.8079 5.83592 19.5642 5.58833 18.1996C4.85477 14.1506 6.39098 10.9457 9.41965 8.37769V8.37884ZM37.9214 32.1936C37.5897 32.1775 37.4458 32.3203 37.3226 32.5909C37.2082 32.8407 37.0853 33.0869 36.9625 33.3331L36.9624 33.3332L36.9624 33.3333L36.9623 33.3335L36.9622 33.3336L36.9622 33.3337C36.7945 33.6698 36.6269 34.0057 36.4808 34.3506C36.2838 34.8169 36.0593 34.9091 35.6102 34.6362C34.4069 33.9058 33.1878 33.2018 31.9691 32.4979L31.9686 32.4976L31.7973 32.3986C31.18 32.0416 30.8092 32.1602 30.5006 32.7902C29.9202 33.9751 29.3409 35.1613 28.7663 36.3497C28.724 36.4374 28.6924 36.531 28.6558 36.6391L28.6558 36.6391C28.6386 36.69 28.6203 36.7441 28.5993 36.8023C28.8026 36.8023 29.0013 36.8037 29.1967 36.8051H29.1968H29.1969H29.1971H29.1972H29.1973H29.1973H29.1974H29.1975H29.1976C29.7257 36.8089 30.2292 36.8125 30.7309 36.7873C30.891 36.7793 31.104 36.6192 31.1846 36.4718C31.5036 35.8833 31.8099 35.2845 32.0644 34.6661C32.2809 34.141 32.5423 34.1387 32.9834 34.4081C34.0201 35.0394 35.0705 35.649 36.1205 36.2584L36.1214 36.259L36.1223 36.2595L36.1233 36.26L36.1242 36.2606L36.1251 36.2611C36.332 36.3812 36.5389 36.5013 36.7456 36.6215C37.2477 36.9128 37.6991 36.876 37.9018 36.4752C38.4049 35.4814 38.8925 34.4792 39.3999 33.4363L39.4 33.4361C39.5963 33.0325 39.7957 32.6228 40 32.2052C39.7632 32.2052 39.5381 32.2073 39.3212 32.2094L39.3207 32.2094C38.8256 32.2141 38.3729 32.2184 37.9214 32.1959V32.1936ZM21.161 34.3033H21.1612V34.3022L21.161 34.3033ZM15.7487 34.3033H21.161C21.0975 34.8529 20.8648 35.0553 20.3297 35.0427C19.4818 35.0231 18.6334 35.0253 17.7849 35.0276C17.1377 35.0293 16.4904 35.0311 15.8432 35.0231C15.4723 35.0185 15.1983 35.0841 15.1096 35.478C14.8482 36.6434 14.0997 37.0084 12.9826 36.8046C12.8621 36.7826 12.7366 36.7876 12.5858 36.7935H12.5858H12.5857H12.5857H12.5857C12.5073 36.7966 12.4222 36.8 12.3274 36.8C12.4126 36.6107 12.4936 36.4287 12.5723 36.2516L12.5725 36.2512L12.5726 36.2512C12.7195 35.9211 12.8587 35.6081 13.0033 35.2972C13.0482 35.2008 13.0929 35.1044 13.1377 35.008L13.1378 35.0078L13.1378 35.0077L13.1378 35.0077L13.1378 35.0077C13.5199 34.1851 13.9018 33.3629 14.3058 32.5518C14.3806 32.4009 14.5914 32.2178 14.7411 32.2178C17.1876 32.2026 19.6341 32.207 22.0806 32.2115C22.414 32.2121 22.7474 32.2127 23.0809 32.2132C23.1024 32.2132 23.1234 32.2281 23.1438 32.2427L23.1438 32.2427C23.1529 32.2491 23.1618 32.2555 23.1707 32.2604C23.0981 32.9272 22.7584 33.1529 22.0709 33.131C20.9211 33.094 19.7695 33.1025 18.6178 33.111C18.1202 33.1147 17.6225 33.1184 17.1249 33.1184C16.062 33.1184 16.0297 33.1448 15.7487 34.3033ZM3.50278 35.7451C3.29764 35.7436 3.0925 35.6992 2.86349 35.6496C2.75054 35.6251 2.63179 35.5994 2.50436 35.577C2.71488 35.1245 2.91772 34.6884 3.11768 34.2584L3.11938 34.2548C3.4384 33.5689 3.7501 32.8987 4.07397 32.2028C3.86948 32.2028 3.67104 32.2017 3.47708 32.2006H3.47673H3.47637H3.47603H3.476H3.47597H3.47594C2.93743 32.1975 2.43353 32.1947 1.93087 32.2167C1.78692 32.2224 1.5877 32.3698 1.52091 32.5046C1.03609 33.4811 0.557029 34.4623 0.120578 35.4607C-0.216837 36.2311 0.178157 36.7988 1.00269 36.7988C2.53818 36.7996 4.07418 36.7993 5.61001 36.7991C6.37787 36.799 7.14568 36.7988 7.91336 36.7988C8.55287 36.7988 8.96552 36.4495 9.15131 35.7509H8.57206C8.13406 35.7509 7.69606 35.7514 7.25806 35.752C6.00669 35.7535 4.75531 35.7551 3.50394 35.744L3.50278 35.7451ZM24.8451 32.6209C25.0904 32.4481 25.3771 32.2938 25.665 32.2362V32.2351C26.1314 32.1418 26.5575 32.2731 26.7383 32.7763C27.0749 33.7128 27.4038 34.6522 27.7398 35.6118L27.7404 35.6135L27.7414 35.6163C27.875 35.9981 28.0098 36.3831 28.1467 36.7723H23.2398V36.0422H25.4773C25.425 35.8502 25.3778 35.6632 25.3316 35.4806L25.3316 35.4805L25.3316 35.4804C25.2275 35.0683 25.129 34.6783 24.9902 34.3033C24.8393 33.8968 24.525 33.9993 24.2405 34.2055C23.955 34.4123 23.6652 34.614 23.3753 34.8157L23.3753 34.8157L23.3752 34.8158C22.7194 35.2722 22.0636 35.7286 21.4583 36.2438C20.7846 36.8161 20.0775 36.8645 19.177 36.7528C19.4607 36.544 19.7369 36.3403 20.008 36.1404C20.5951 35.7075 21.1586 35.292 21.7243 34.8791C21.9134 34.7412 22.1025 34.6031 22.2915 34.4651L22.2937 34.4635L22.2959 34.4618C23.1424 33.8435 23.9887 33.2253 24.8451 32.6209ZM12.8191 32.1959C11.8644 32.0036 11.39 32.424 11.0549 33.3072C10.7465 34.1197 10.3656 34.9038 9.97274 35.7124L9.97272 35.7125L9.97261 35.7127C9.79921 36.0696 9.6235 36.4313 9.45071 36.8023C9.58533 36.8023 9.71134 36.797 9.83092 36.7921L9.83107 36.7921C10.0745 36.7819 10.2913 36.7729 10.4998 36.8115C11.3209 36.9624 11.7205 36.6054 12.0199 35.8557C12.3599 35.0041 12.7568 34.1757 13.1656 33.3223C13.3412 32.9558 13.519 32.5847 13.6954 32.2052C13.5781 32.2052 13.4699 32.2099 13.3683 32.2143L13.3682 32.2143C13.1649 32.2232 12.9885 32.2309 12.8202 32.1971L12.8191 32.1959ZM16.6232 22.1935C16.1606 22.1934 15.695 22.1933 15.226 22.1933H15.2271C15.3717 21.9176 15.5133 21.6469 15.6529 21.3799C15.9868 20.7413 16.3097 20.1237 16.6378 19.5089C17.1629 18.5251 17.6889 17.5418 18.2148 16.5585C19.4953 14.1648 20.7757 11.771 22.0433 9.37036C22.2357 9.00876 22.4498 8.89706 22.8425 8.90282C23.9875 8.91877 25.133 8.91636 26.3121 8.91388C26.7507 8.91296 27.1939 8.91203 27.6435 8.91203C27.1621 10.9607 26.2996 12.7572 25.2033 14.4604C24.0667 16.2246 22.4648 17.5017 20.8399 18.7604C20.2381 19.2266 19.6262 19.6785 18.987 20.1504C18.6869 20.372 18.3808 20.5981 18.0669 20.8321H23.0395C22.9775 20.9527 22.9184 21.07 22.8607 21.1844C22.703 21.4973 22.5561 21.789 22.39 22.0689C22.3416 22.1507 22.162 22.1887 22.0422 22.1887C20.2504 22.1942 18.4593 22.1938 16.6232 22.1935Z" fill="#F6F6F3"/>
</svg>
