<svg width="40" height="40" viewBox="0 0 40 40" fill="none" xmlns="http://www.w3.org/2000/svg">
<path fill-rule="evenodd" clip-rule="evenodd" d="M16.8475 33.9499H23.8987V35.691H16.8475V33.9499ZM17.718 36.3874H23.0717V40H17.718V36.3874ZM9.88343 25.8542H30.9063V26.7247H9.88343V25.8542ZM8.75177 27.5082H31.9944V28.3787H8.75177V27.5082ZM8.70824 24.2437H31.9509V25.1143H8.70824V24.2437ZM24.0292 30.2503C22.854 31.2949 22.854 33.21 22.854 33.21H17.8486C17.8486 33.21 17.8486 31.2949 16.6734 30.2503C15.8464 29.5103 14.8453 29.3362 14.8453 29.3362C14.1925 29.2057 14.1925 29.1186 14.1925 29.0751H26.4231C26.4231 29.0751 26.4231 29.2057 25.7703 29.3362C25.8573 29.3798 24.8562 29.5103 24.0292 30.2503ZM9.97048 29.1186H12.495C12.495 30.5985 11.5374 31.2949 9.97048 30.9467V29.1186ZM18.8932 5.00544C19.8943 3.00326 20.1119 0.0435256 20.3731 0C20.6342 0.0435256 20.8084 3.04679 21.8094 5.00544C22.767 6.87704 24.8127 8.48749 24.6821 8.66159C24.5515 8.87922 23.4199 8.31338 22.854 8.05223C21.94 7.61697 21.2001 7.31229 21.2001 7.31229C21.2001 7.31229 20.8519 12.0566 21.9835 16.4527C22.9411 20.0218 25.2044 23.3297 25.4221 23.5909H22.5058L22.2447 23.1556C21.4612 21.7628 20.8954 20.5876 20.3731 18.4984C19.8073 20.5441 19.2414 21.7628 18.458 23.1556L18.1968 23.5909H15.2806C15.4982 23.2862 17.7616 20.0218 18.7191 16.4527C19.8943 12.0566 19.5026 7.31229 19.5026 7.31229C19.5026 7.31229 18.7626 7.6605 17.8486 8.05223C17.2828 8.31338 16.1511 8.87922 16.0205 8.66159C15.9335 8.48749 17.9792 6.87704 18.8932 5.00544ZM9.88343 23.5909C9.88343 23.2427 9.6658 18.4113 8.57766 14.6246C7.35894 10.4897 4.83446 8.0087 5.00856 7.74755C5.18267 7.52992 7.22837 7.92165 8.75177 9.00979C10.4057 10.1415 12.0162 12.0131 11.8856 12.1436C11.7986 12.2307 11.2762 11.7519 10.2316 11.4037C9.18702 11.012 8.70824 11.099 8.70824 11.099C8.70824 11.099 10.4928 14.0152 11.3633 17.1926C12.1032 19.8477 12.495 23.2862 12.495 23.5909H9.88343ZM30.8628 23.5909C30.8628 23.2427 31.0369 18.4113 32.1685 14.6246C33.3872 10.4897 35.9117 8.0087 35.7376 7.74755C35.607 7.52992 33.5178 7.92165 31.9944 9.00979C30.3404 10.1415 28.73 12.0131 28.8606 12.1436C28.9476 12.2307 29.4699 11.7519 30.471 11.4037C31.5592 11.012 31.9944 11.099 31.9944 11.099C31.9944 11.099 30.2099 14.0152 29.3394 17.1926C28.5994 19.8477 28.2077 23.2862 28.2077 23.5909H30.8628ZM30.7757 29.1186H28.2512C28.2512 30.5985 29.2088 31.2949 30.7757 30.9467V29.1186Z" fill="#F6F6F3"/>
</svg>
