<svg width="40" height="40" viewBox="0 0 40 40" fill="none" xmlns="http://www.w3.org/2000/svg">
<path fill-rule="evenodd" clip-rule="evenodd" d="M24.5242 7.26259C30.8994 11.684 35.9895 17.8535 39.023 25.1028C39.023 25.1028 40 27.4678 40 28.6505C40 28.7536 40 28.9079 39.9481 29.0102C39.8972 29.165 39.8455 29.2676 39.7426 29.3707C38.9204 30.1934 36.6061 31.2216 36.6061 31.2216C31.5165 33.4838 25.9124 34.7691 20 34.7691C14.0876 34.7691 8.48304 33.4838 3.39317 31.2216C3.39317 31.2216 1.0794 30.1934 0.257112 29.3707C0.154267 29.2676 0.103082 29.1647 0.0514224 29.0102C0 28.9079 0 28.7536 0 28.6505C0 27.4678 0.976552 25.1028 0.976552 25.1028C4.01 17.8532 9.10011 11.6837 15.4753 7.26259C15.4753 7.26259 18.663 5 19.9998 5C21.3363 5 24.5242 7.26259 24.5242 7.26259ZM38.6606 28.5019L38.6635 28.4963C38.7144 28.3932 38.7144 28.3417 38.7142 28.1875C38.7142 27.3135 37.9431 25.5656 37.9431 25.5656C36.5636 22.2499 34.7398 19.1621 32.5522 16.3718L32.7523 31.4991C33.9085 31.1123 35.0404 30.6758 36.144 30.193C36.144 30.193 37.8919 29.4214 38.509 28.7534C38.5592 28.7029 38.6097 28.6029 38.6606 28.5019ZM30.9989 32.0421L30.7881 18.642L26.6798 21.1068V33.0215C28.1467 32.7725 29.5887 32.444 30.9989 32.0421ZM24.8727 33.2861V22.2017L19.9977 25.1593L15.1229 22.2017V33.2855C16.7259 33.4833 18.3545 33.5859 20.0002 33.5859C21.6443 33.5859 23.2713 33.4835 24.8727 33.2861ZM13.3148 33.0204V21.1066L9.207 18.6417L8.99571 32.0404C10.4059 32.4426 11.8479 32.7712 13.3148 33.0204ZM7.24274 31.4974C6.08838 31.111 4.95819 30.675 3.85621 30.193C3.85621 30.193 2.10808 29.4214 1.49125 28.7534C1.44006 28.7019 1.3884 28.5991 1.33722 28.4963C1.28556 28.3932 1.28556 28.3417 1.28556 28.1875C1.28556 27.3135 2.0569 25.5656 2.0569 25.5656C3.43519 22.2523 5.25729 19.1665 7.44282 16.3779L7.24274 31.4974ZM7.91037 15.7926C9.53366 13.7991 11.3455 11.9647 13.315 10.316V19.0249L7.91037 15.7926ZM13.7767 9.93531L19.9977 13.6578L26.221 9.93362C25.4712 9.32463 24.6995 8.74219 23.9074 8.18772C23.9074 8.18772 21.1308 6.28532 20 6.28532C18.8689 6.28532 16.0924 8.18772 16.0924 8.18772C15.2996 8.74271 14.5271 9.32571 13.7767 9.93531ZM26.6798 10.3119C28.6507 11.9611 30.4636 13.7964 32.0879 15.7909L26.6798 19.0249V10.3119ZM19.9977 23.0781L24.8727 20.1203V12.8361L19.9977 15.7391L15.1229 12.8361V20.1203L19.9977 23.0781Z" fill="#F6F6F3"/>
</svg>
