<svg width="40" height="40" viewBox="0 0 40 40" fill="none" xmlns="http://www.w3.org/2000/svg">
<path d="M19.9983 21.5395C19.9383 21.5395 19.8233 21.4628 19.6283 21.1062C18.8122 19.5867 17.6917 18.2517 16.3367 17.1845C15.2733 16.3505 14.0928 15.6777 12.8333 15.1878C12.6425 15.1103 12.4508 15.0347 12.2583 14.9612C10.5717 14.2945 8.82333 13.6062 7.2 12.6662C7.02005 12.5643 6.84224 12.4587 6.66667 12.3495C6.99 11.7828 7.36667 11.2412 7.78333 10.7462C8.38802 10.0234 9.09096 9.38892 9.87167 8.86117C10.7099 8.30074 11.6161 7.84933 12.5683 7.51784C14.5983 6.7945 17.03 6.4395 19.9983 6.43617C22.97 6.4395 25.4 6.79451 27.43 7.51951C28.383 7.84985 29.2898 8.30073 30.1283 8.86117C30.9133 9.39284 31.615 10.0262 32.2167 10.7445C32.6333 11.2412 33.0083 11.7828 33.3333 12.3495C33.1617 12.4562 32.98 12.5645 32.8 12.6695C31.1733 13.6095 29.4283 14.2978 27.7383 14.9628L27.1633 15.1895C25.9051 15.6798 24.7258 16.3526 23.6633 17.1862C22.3077 18.2534 21.1871 19.5891 20.3717 21.1095C20.1767 21.4645 20.06 21.5412 19.9983 21.5412M19.9983 33.3278C17.425 33.3245 15.335 33.1128 13.615 32.6828C11.9267 32.2628 10.5233 31.6162 9.32167 30.7028C8.40053 29.9955 7.6146 29.1277 7.00167 28.1412C6.42745 27.2208 5.97374 26.2304 5.65167 25.1945C5.14937 23.5845 4.8871 21.9093 4.87333 20.2228C4.87333 19.0995 4.95167 18.0345 5.09833 17.0545C6.94167 18.0478 8.68667 18.5462 10.2317 18.9878L10.59 19.0878C12.74 19.7062 14.4467 20.5162 15.815 21.5678C16.6067 22.1812 17.2983 22.8895 17.865 23.6745C18.48 24.5212 18.97 25.4878 19.3267 26.5495C19.4867 27.0312 19.66 27.3295 19.9983 27.3295C20.3433 27.3295 20.5117 27.0295 20.6733 26.5495C21.3095 24.5707 22.5347 22.8332 24.185 21.5695C25.5517 20.5162 27.26 19.7062 29.41 19.0878L29.77 18.9878C31.3133 18.5462 33.0583 18.0478 34.9 17.0545C35.05 18.0362 35.1267 19.0995 35.1267 20.2212C35.1267 20.9845 35.05 22.9945 34.3517 25.1945C34.0298 26.2302 33.5767 27.2205 33.0033 28.1412C32.3885 29.1283 31.6003 29.9961 30.6767 30.7028C29.4717 31.6162 28.0683 32.2628 26.3867 32.6828C24.6617 33.1128 22.5733 33.3245 19.9983 33.3278ZM36.1517 9.06784C32.97 5.65117 27.835 4.08451 19.9983 4.07617C12.165 4.08451 7.03 5.64951 3.84833 9.06617C1.48333 11.6012 0 15.1095 0 19.8695C0 22.5012 0.65 29.2028 5.94 32.6628C9.10667 34.7328 13.1967 36.0728 19.9983 36.0828C26.8033 36.0728 30.8917 34.7328 34.06 32.6628C39.3483 29.2028 40 22.4995 40 19.8695C40 15.1228 38.505 11.5895 36.15 9.0645L36.1517 9.06784Z" fill="#F6F6F3"/>
</svg>
