<svg width="40" height="40" viewBox="0 0 40 40" fill="none" xmlns="http://www.w3.org/2000/svg">
<path fill-rule="evenodd" clip-rule="evenodd" d="M0 20C0 31.0454 8.95441 40 20 40C31.0458 40 40 31.0454 40 20C40 8.95441 31.0458 0 20 0C8.95441 0 0 8.95441 0 20ZM3.76768 29.7418L20.0055 23.021L36.3125 29.6378C32.926 35.4033 26.7435 38.9464 20.0747 38.9636C13.3887 38.9982 7.18895 35.4905 3.76768 29.7418ZM19.7804 1.1338L17.1928 18.2745L3.52552 29.3196C0.243091 23.5017 0.277913 16.3815 3.62953 10.5985C6.96385 4.81544 13.1115 1.22052 19.7804 1.1338ZM36.5553 29.1994L22.7319 18.5019L20.2656 1.13517C23.5322 1.18513 26.7301 2.07991 29.5483 3.73244C32.3664 5.38497 34.7088 7.73895 36.3473 10.5653C39.6987 16.3135 39.7683 23.3818 36.5553 29.1994Z" fill="#F6F6F3"/>
</svg>
