<svg width="40" height="40" viewBox="0 0 40 40" fill="none" xmlns="http://www.w3.org/2000/svg">
<path fill-rule="evenodd" clip-rule="evenodd" d="M11.3637 0H28.818L40 11.2728V28.6363L28.6363 40H11.2728L0 28.6816V11.3635L11.3637 0ZM27.0909 36.5456L36.5456 27.0909H36.5454V12.8182L27.2724 3.49998H12.9091L3.45465 12.9091V27.1365L12.9091 36.5456H27.0909ZM9.09823 10.545L11.5074 15.4542L15.1438 5.72696H19.1889V34.1815H15.3708V15.4997L11.9619 24.4088L8.96182 17.7269V29.4543L5.50717 25.9543V13.9088L9.09823 10.545ZM21.8589 34.1815V5.72696H26.3133L34.4952 14.045V17.2268H31.0405V15.8632L25.677 10.2724V29.636C25.677 29.636 30.2681 25.1359 30.7224 24.5905C31.1772 24.0453 31.1318 23.3177 30.4953 23.4088H28.1317V19.9541H34.4954V25.9543L26.2227 34.1815H21.8589Z" fill="#F6F6F3"/>
</svg>
