<svg width="40" height="40" viewBox="0 0 40 40" fill="none" xmlns="http://www.w3.org/2000/svg">
<path fill-rule="evenodd" clip-rule="evenodd" d="M38.9653 17.5933H28.1222C28.2909 18.0724 28.4156 18.5714 28.4952 19.0848H28.7808C28.7076 18.7016 28.6075 18.324 28.4813 17.9549C28.4813 17.9549 37.6414 17.7398 38.9454 17.618C38.1531 18.5629 37.3216 19.4742 36.4531 20.3496H28.6036L28.6048 20.3725C28.6048 20.8751 28.5518 21.3638 28.4668 21.8417H28.876C28.926 21.4789 28.9628 21.1113 28.9628 20.7347L28.9622 20.7118C28.9622 20.7118 35.2841 20.5069 36.4212 20.3816C35.4599 21.3511 34.4543 22.2757 33.4076 23.1523H28.1222C27.9395 23.671 27.7064 24.1706 27.4261 24.6438H27.9763C28.1673 24.2798 28.3433 23.9068 28.4813 23.5139C28.4813 23.5139 32.3892 23.3235 33.3551 23.1957C32.212 24.1515 31.0136 25.039 29.766 25.8538H26.424L26.3939 25.8869C25.5937 26.7861 24.6123 27.5057 23.5141 27.9985C22.416 28.4913 21.226 28.746 20.0223 28.746C18.8186 28.746 17.6286 28.4913 16.5305 27.9985C15.4323 27.5057 14.4509 26.7861 13.6507 25.8869L13.6206 25.8538H10.2328C8.98475 25.0384 7.78572 24.1505 6.64186 23.1945C7.64639 23.3211 11.9044 23.5139 11.9044 23.5139C12.0621 23.8502 12.2773 24.168 12.4852 24.4749L12.4853 24.475C12.5237 24.5316 12.5617 24.5879 12.5992 24.6438H12.6184C12.3379 24.1706 12.1046 23.6711 11.9218 23.1523H6.59184C5.54499 22.2759 4.53938 21.3513 3.57824 20.3816C4.47676 20.4799 8.62128 20.633 10.4536 20.7007L10.4541 20.7007C10.9907 20.7206 11.3289 20.7331 11.3289 20.7347C11.3289 21.0377 11.4252 21.3356 11.5201 21.6288C11.5365 21.6796 11.5529 21.7303 11.5687 21.7808C11.4856 21.3159 11.4425 20.8448 11.4398 20.3725L11.441 20.3496H3.54751C2.67332 19.4677 1.83618 18.5497 1.03828 17.5982L11.6808 17.9549C11.6401 18.2065 11.6123 18.4706 11.5838 18.7403C11.5718 18.8543 11.5597 18.9693 11.5464 19.0848H11.55C11.6296 18.5714 11.7537 18.0724 11.9224 17.5933H1.03466C0.678106 17.1693 0.333091 16.7357 0 16.2929H12.6215L12.6504 16.2429C14.1581 13.6258 16.9831 12 20.022 12C23.0609 12 25.8859 13.6258 27.3942 16.2429L27.4231 16.2929H40C39.6673 16.736 39.3223 17.1696 38.9653 17.5933ZM26.6367 20.3731C26.6367 23.9797 23.6756 26.9035 20.0226 26.9035C16.3696 26.9035 13.4085 23.9797 13.4085 20.3731C13.4085 16.7666 16.3696 13.8428 20.0226 13.8428C23.6756 13.8428 26.6367 16.7666 26.6367 20.3731ZM25.6907 18.5894H24.806V22.2683H25.6907V18.5894ZM20.0027 18.5894H19.1181V22.2683H20.0027V18.5894ZM23.2381 20.8209V18.5894H24.0727V22.2683H23.2381L21.6201 20.0369V22.2683H20.7861V18.5894H21.6201L23.2381 20.8209ZM16.2624 20.8847L17.2338 18.5894H18.2937V22.2683H17.4597V19.9839L16.5125 22.2617L16.5088 22.2683H15.9822L15.9792 22.2611L15.1156 20.1845V22.2683H14.281V18.5894H15.291L16.2624 20.8847Z" fill="#F6F6F3"/>
</svg>
