<svg width="40" height="40" viewBox="0 0 40 40" fill="none" xmlns="http://www.w3.org/2000/svg">
<path fill-rule="evenodd" clip-rule="evenodd" d="M5.73805 14.754C7.81742 8.68254 13.5476 4.60317 20.0079 4.60317C26.4682 4.60317 32.2063 8.68254 34.2777 14.754L34.2936 14.8016H38.8412V14.254L36.9523 14.0317C35.7916 13.8975 35.5422 13.3862 35.227 12.74L35.2222 12.7302L35.1428 12.5714C32.4127 6.7619 26.4682 3 20.0079 3C13.5396 3 7.60313 6.7619 4.87297 12.5873L4.79361 12.746L4.7888 12.7559C4.47364 13.402 4.22422 13.9134 3.06345 14.0476L1.17456 14.2698V14.8175H5.71424L5.73805 14.754ZM5.79365 17.3967V22.0555H4.49206L1.03175 18.5634V22.0555H0V17.3967H1.3254L4.7619 20.8729V17.3967H5.79365ZM9.10328 17.3967H8.07153V22.0555H9.10328V17.3967ZM15.3412 21.0793C15.3889 21.0793 15.5158 21.0793 15.5476 21.0713C15.8174 21.0237 15.9285 20.8174 15.9285 20.6269C15.9285 20.4285 15.8254 20.2062 15.5238 20.1666C15.5 20.1586 15.3809 20.1586 15.3333 20.1586H12.6825C12.5952 20.1586 12.3968 20.1586 12.2539 20.1428C11.4682 20.0316 11.1111 19.365 11.1111 18.7935C11.1111 18.0951 11.5873 17.5475 12.2698 17.4523C12.373 17.4364 12.5 17.4285 12.6666 17.4285H16.6587V18.365H12.7301C12.5793 18.365 12.5079 18.3729 12.4444 18.3888C12.2222 18.4523 12.1428 18.6428 12.1428 18.7856C12.1428 18.9443 12.2222 19.1348 12.4365 19.1904C12.4841 19.2062 12.619 19.2142 12.7381 19.2142H15.4603H15.4603C15.5159 19.2142 15.6428 19.2142 15.7936 19.2301C16.5635 19.3015 16.9682 19.984 16.9682 20.6189C16.9682 21.238 16.5793 21.9443 15.7301 22.0237C15.6825 22.0316 15.4365 22.0316 15.4047 22.0316H11.2381V21.0793H15.3412ZM23.0953 21.0793C23.1508 21.0793 23.2778 21.0793 23.3096 21.0713C23.5715 21.0237 23.6905 20.8174 23.6905 20.6269C23.6905 20.4285 23.5873 20.2062 23.2857 20.1666C23.2619 20.1586 23.1429 20.1586 23.0953 20.1586H20.4445C20.3572 20.1586 20.1588 20.1586 20.0159 20.1428C19.2302 20.0316 18.873 19.365 18.873 18.7935C18.873 18.0951 19.3492 17.5475 20.0318 17.4523C20.135 17.4364 20.2619 17.4285 20.4286 17.4285H24.4207V18.365H20.4921C20.3413 18.365 20.2699 18.3729 20.2064 18.3888C19.9842 18.4523 19.9048 18.6428 19.9048 18.7856C19.9048 18.9443 19.9842 19.1348 20.1984 19.1904C20.2461 19.2062 20.381 19.2142 20.5 19.2142H23.2223H23.2223C23.2778 19.2142 23.4048 19.2142 23.5556 19.2301C24.3254 19.3015 24.7302 19.984 24.7302 20.6189C24.7302 21.238 24.3413 21.9443 23.4921 22.0237C23.4445 22.0316 23.1984 22.0316 23.1667 22.0316H19V21.0793H23.0953ZM38.9763 17.3967V20.8729L35.5397 17.3967H34.2144V22.0555H35.2461V18.5634L38.6985 22.0555H40.0001V17.3967H38.9763ZM25.9365 22.0555L28.8413 17.3967H29.9524L32.8572 22.0555H31.6111L31.0953 21.2221H27.7064L27.1905 22.0555H25.9365ZM28.2381 20.3412H30.5635L29.4048 18.4682L28.2381 20.3412ZM34.2779 24.7064L34.2937 24.6588H38.8493V25.2064L36.9604 25.4287C35.7996 25.5629 35.5502 26.0742 35.235 26.7204L35.2302 26.7302L35.1509 26.889C32.4207 32.7064 26.4763 36.4683 20.016 36.4683C13.5556 36.4683 7.61119 32.7064 4.88103 26.881L4.80166 26.7223L4.79686 26.7125C4.48169 26.0663 4.23228 25.555 3.07151 25.4207L1.18262 25.1985V24.6509H5.7223L5.73817 24.6985C7.8096 30.7699 13.5477 34.8493 20.008 34.8493C26.4683 34.8493 32.1985 30.7779 34.2779 24.7064Z" fill="#F6F6F3"/>
</svg>
