<svg width="40" height="40" viewBox="0 0 40 40" fill="none" xmlns="http://www.w3.org/2000/svg">
<path d="M17.4008 11.0971V14.5369L14.4622 11.0971H13.3307V16.7626H14.6818V13.3228L17.6288 16.7626H18.7519V11.0971H17.4008Z" fill="#F6F6F3"/>
<path d="M23.4352 16.8597C25.2929 16.8597 26.6693 15.6214 26.6693 13.9299C26.6693 12.2383 25.2929 11 23.4352 11C21.569 11 20.201 12.2464 20.201 13.9299C20.201 15.6133 21.569 16.8597 23.4352 16.8597ZM23.4352 15.7428C22.3797 15.7428 21.5859 15.0063 21.5859 13.9299C21.5859 12.8534 22.3797 12.1169 23.4352 12.1169C24.4907 12.1169 25.2845 12.8534 25.2845 13.9299C25.2845 15.0063 24.4907 15.7428 23.4352 15.7428Z" fill="#F6F6F3"/>
<path d="M7 28.9029H11.3319V27.8345H8.36796V23.2374H7V28.9029Z" fill="#F6F6F3"/>
<path d="M15.2821 29C17.1398 29 18.5162 27.7617 18.5162 26.0701C18.5162 24.3786 17.1398 23.1403 15.2821 23.1403C13.4159 23.1403 12.0479 24.3867 12.0479 26.0701C12.0479 27.7536 13.4159 29 15.2821 29ZM15.2821 27.8831C14.2265 27.8831 13.4328 27.1466 13.4328 26.0701C13.4328 24.9937 14.2265 24.2572 15.2821 24.2572C16.3376 24.2572 17.1313 24.9937 17.1313 26.0701C17.1313 27.1466 16.3376 27.8831 15.2821 27.8831Z" fill="#F6F6F3"/>
<path d="M23.9606 27.6403C23.6144 27.8183 23.2682 27.8831 22.8966 27.8831C21.7651 27.8831 20.9798 27.1304 20.9798 26.0701C20.9798 24.9937 21.7651 24.2572 22.9135 24.2572C23.5131 24.2572 24.0113 24.4595 24.4419 24.8966L25.3201 24.1196C24.7459 23.4802 23.8846 23.1403 22.846 23.1403C20.9629 23.1403 19.5949 24.3624 19.5949 26.0701C19.5949 27.7779 20.9629 29 22.8206 29C23.6651 29 24.5601 28.7491 25.2103 28.2797V25.9811H23.9606V27.6403Z" fill="#F6F6F3"/>
<path d="M29.7659 29C31.6236 29 33 27.7617 33 26.0701C33 24.3786 31.6236 23.1403 29.7659 23.1403C27.8997 23.1403 26.5317 24.3867 26.5317 26.0701C26.5317 27.7536 27.8997 29 29.7659 29ZM29.7659 27.8831C28.7103 27.8831 27.9166 27.1466 27.9166 26.0701C27.9166 24.9937 28.7103 24.2572 29.7659 24.2572C30.8214 24.2572 31.6151 24.9937 31.6151 26.0701C31.6151 27.1466 30.8214 27.8831 29.7659 27.8831Z" fill="#F6F6F3"/>
</svg>
