<svg width="40" height="40" viewBox="0 0 40 40" fill="none" xmlns="http://www.w3.org/2000/svg">
<path fill-rule="evenodd" clip-rule="evenodd" d="M6.4811 19.7427V20.271C6.4811 27.7257 12.5452 33.8176 19.9998 33.8176C26.203 33.8176 31.4323 29.6453 33.018 23.9708L11.321 24.2212L16.5507 20.1877L6.4811 19.7427ZM6.98204 16.6551C8.56749 10.9248 13.797 6.75228 20 6.75228C27.455 6.75228 33.5187 12.8164 33.5187 20.271V20.9387L23.4493 20.4938L28.8179 16.4047L6.98204 16.6551ZM4.72882 19.6592L0 19.4646V16.7106L5.146 16.6551C6.78722 9.97917 12.8234 5 20 5C28.4284 5 35.2712 11.8428 35.2712 20.271C35.2712 20.5218 35.2712 20.7439 35.2436 20.9943L40 21.1889V23.9153L34.8542 23.9708C33.185 30.6187 27.1769 35.5704 20 35.5704C11.5438 35.5704 4.70105 28.7274 4.70105 20.271C4.70105 20.0764 4.70105 19.8818 4.72882 19.6592Z" fill="#F6F6F3"/>
</svg>
