<svg width="40" height="40" viewBox="0 0 40 40" fill="none" xmlns="http://www.w3.org/2000/svg">
<path fill-rule="evenodd" clip-rule="evenodd" d="M37.8615 10.7759C37.8906 10.4084 37.9947 10.0744 38.1151 9.68808C38.2528 9.24652 38.5044 8.61897 38.5794 7.95787C38.8182 5.86998 37.606 3.94539 35.5891 3.67108C35.0504 3.59806 32.9132 3.2611 31.4148 5.497C31.1307 5.92079 30.7222 7.01013 30.7656 7.84489C30.0314 6.09149 29.1296 4.09882 28.1448 2.62615C27.9327 2.33753 26.8266 1.03655 26.5242 0.950702C25.1462 0.58463 23.5023 0.20277 22.193 0C21.6552 0.0542694 17.6339 1.48846 17.5056 1.66706C17.5056 1.66706 17.0433 2.15006 17.0433 2.15795C16.0891 2.39229 14.1202 2.69571 13.9761 2.88269C13.5523 3.39727 13.8473 3.88026 13.984 4.09043C14.0294 4.16838 14.3476 5.28288 14.9154 5.28288L16.4375 5.28732C17.1795 4.04061 19.3483 3.97943 19.9541 5.65487C19.3838 5.88971 18.9319 6.15464 17.8115 6.01256C16.4532 5.82015 15.0955 6.28193 15.1019 6.4699C15.1123 6.76789 16.7009 6.86656 17.1114 6.87396C17.811 6.88975 18.8589 6.95931 19.7721 6.88925C19.3177 7.53605 18.4217 7.7847 17.808 7.7847H15.3698C15.4776 8.28403 15.6864 8.75601 15.9836 9.17153H16.9826C17.6491 9.2105 17.4434 9.45669 17.3008 9.86519C17.0438 10.6037 16.5771 11.7202 15.8435 12.3705C13.3747 10.2199 10.0657 7.52717 7.7287 5.81719C7.04589 5.31741 4.23868 4.96762 2.83212 5.50094C2.42855 5.65389 2.17349 5.98296 2.03239 6.25036L2.73197 6.45066C1.44825 7.21931 2.24354 8.66041 2.24354 8.66041C2.86517 8.5272 3.84252 8.21639 4.86377 9.72606L3.99792 10.4148C4.43652 10.7256 7.07352 11.031 7.82885 10.5648C7.82885 10.5648 10.9444 14.7174 11.2769 14.8945C11.458 14.9907 10.0095 15.0711 8.39276 15.188C7.00346 15.2102 5.70347 15.2324 4.68369 15.2546C3.76703 15.2744 3.09952 15.97 2.87998 16.5699C2.65303 17.162 2.41079 18.419 2.51686 18.9647L3.02404 18.8009C3.66787 19.8685 3.69796 20.1083 4.53125 20.4206C4.99747 19.2429 6.74889 19.3692 6.74889 19.3692L6.72916 20.4418C9.16092 20.4265 9.39428 18.6672 9.39428 18.6672L14.1374 18.5932L17.138 22.2287C14.6762 24.7883 12.9593 27.9552 11.1033 31.3396C11.9972 32.1507 11.6879 33.8054 10.2197 33.9598C9.21864 34.0654 8.11451 33.1418 6.76616 33.4457C5.12278 33.8044 5.46369 35.1212 4.16912 36.8435C5.46369 37.1627 6.81549 38.0058 7.70551 39.0315C9.48308 37.9062 13.0821 38.776 14.4907 39.2437C14.8039 39.3458 14.9332 38.7789 14.7295 38.3004C14.5637 37.9111 14.3254 37.3043 14.7477 36.3141C15.1271 35.4256 19.3601 31.1235 22.3578 28.3918C22.375 28.376 23.4081 29.159 24.4486 29.9232C26.0752 31.1176 28.2376 32.3253 28.2376 32.3253L28.6722 32.2918C30.6398 31.8695 30.9752 33.6066 30.7567 34.1907C30.5381 34.7744 29.957 35.1261 29.2465 35.0763C28.4581 35.0141 27.5893 34.6387 26.537 35.2549C25.4773 35.8469 25.9307 37.8263 25.2873 38.66C27.0669 38.66 28.4981 39.5718 29.1947 40C32.1031 38.777 32.9526 39.1504 35.8985 39.6497C36.1037 39.6882 36.2655 39.1179 36.0391 38.7893C35.8279 38.4819 35.4984 37.662 35.558 36.9846V29.9385C33.6798 30.1876 32.8165 29.4086 32.4908 28.3957C32.2491 27.6399 31.5367 26.0972 31.0744 25.1154C31.0744 25.1154 33.9719 25.0414 35.5349 23.1627C36.12 22.4591 36.6217 21.0358 36.3528 19.6983C35.9799 17.8438 35.7381 17.2226 35.0869 15.602C34.5452 14.2526 33.5412 11.7868 33.1268 10.3822C32.5402 8.39646 32.4533 7.51138 33.0755 6.41464C33.4534 5.74812 34.2733 5.12106 35.2068 5.57791C35.8185 5.87738 35.6848 6.05005 35.6271 6.16204C34.8669 7.33476 34.5605 8.8543 34.8782 9.92637C35.3222 11.4232 36.7362 12.631 37.3549 13.0232C37.3549 13.0232 38.3889 13.6966 38.5981 13.5382C39.093 13.1618 37.8132 11.3625 37.8615 10.7759ZM20.6532 2.37947C20.1771 2.58964 19.3083 2.89305 18.5984 3.13332C18.4395 2.74455 18.4242 2.43374 18.4928 1.97491C19.0893 1.88167 19.9586 1.76524 20.5249 1.76524C20.8876 1.76573 20.9862 2.22406 20.6532 2.37947ZM32.998 14.9932C33.7686 16.9385 34.0464 17.7722 34.295 19.0939C34.4934 20.1497 34.3878 21.1083 33.9754 21.6604C33.4933 22.3067 32.2151 23.3289 29.7122 22.7399L29.7142 22.7349C28.9347 21.5972 27.5479 19.5409 26.8468 18.459C27.3471 16.6355 27.5745 16.1915 27.9672 14.4539C27.9672 14.4539 29.061 15.0538 29.1108 14.8437C29.2929 14.073 30.5416 10.4439 30.7616 9.27464C30.7616 9.27464 30.9526 9.79168 31.2066 10.5445C31.7696 12.2052 32.4316 13.5629 32.998 14.9932Z" fill="#F6F6F3"/>
</svg>
