<svg width="40" height="40" viewBox="0 0 40 40" fill="none" xmlns="http://www.w3.org/2000/svg">
<path fill-rule="evenodd" clip-rule="evenodd" d="M29.1189 34.3242C26.7105 36.5215 24.6372 37.7058 20.2696 40C16.204 38.1483 13.5504 36.3231 11.2492 34.5255C8.06909 32.0462 5.78474 28.0205 5.58655 25.5515L4 2.05199C14.748 -0.745757 26.1803 -0.682102 36.0695 2.23989L34.4597 25.5014C34.2548 27.6081 32.3727 31.7041 29.1189 34.3242ZM32.6183 24.7308L34.071 3.95856C25.5601 1.2446 15.3657 1.20435 5.97286 3.67332L7.45551 24.7174C7.60994 26.9044 9.18315 30.2492 12.199 32.8123C14.0139 34.3555 17.5698 36.9454 20.1961 37.9383C23.2222 36.4054 25.9727 34.4999 28.1533 32.618C30.857 30.1519 32.4538 27.0858 32.6183 24.7308ZM27.8042 32.0694C25.7141 33.8745 22.9 35.8974 20.1961 37.1889C17.7809 36.4408 14.2116 33.6831 12.4941 32.2004C9.49836 29.6105 8.28061 26.9003 8.09621 24.3368L6.64025 4.24906C15.5836 1.89755 25.3455 1.89755 33.4566 4.48377L32.0177 24.3033C31.8096 26.9401 30.5851 29.4594 27.8042 32.0694ZM7.30873 4.63951L7.59725 8.10158C16.1346 5.96467 25.0782 6.17948 32.5018 8.42708L32.8205 4.90463C25.1281 2.54285 15.7892 2.41532 7.30873 4.63951ZM28.5392 5.92442L26.6136 5.60571L26.5397 6.51153L25.9125 6.41747L26.0599 4.01566L26.7009 4.10972L26.6337 5.03216L28.5862 5.34737L28.6499 4.42493L29.3039 4.54895L29.1062 6.95755L28.4688 6.8403L28.5392 5.92442ZM19.2463 5.10938C19.0113 5.10938 18.8234 5.04572 18.6994 4.8377C18.5922 4.66664 18.5922 4.10972 18.6994 3.92531C18.8169 3.71073 19.0282 3.65035 19.2027 3.65035L21.9333 3.65363L21.9397 4.24402L19.357 4.24052C19.2294 4.24052 19.2261 4.52577 19.367 4.52577H21.4031C21.6415 4.52577 21.8526 4.66992 21.9195 4.85782C21.9935 5.05907 21.9801 5.51537 21.9195 5.70327C21.8627 5.89117 21.6479 5.99507 21.3795 5.99507H18.6861L18.6826 5.39112H21.0809C21.1163 5.38833 21.1494 5.37227 21.1735 5.34616C21.1977 5.32005 21.2111 5.2858 21.2111 5.25025C21.2111 5.21469 21.1977 5.18045 21.1735 5.15434C21.1494 5.12823 21.1163 5.11217 21.0809 5.10938H19.2463ZM17.6665 5.34934C17.6659 5.3193 17.6594 5.28966 17.6472 5.26218C17.6351 5.2347 17.6175 5.20993 17.5957 5.18931C17.5738 5.16869 17.5481 5.15265 17.5199 5.14211C17.4918 5.13158 17.4618 5.12677 17.4318 5.12797L15.6201 5.25878L15.6569 6.15782L15.0698 6.21819L14.9455 3.84657L17.6429 3.6451C17.9918 3.61842 18.1963 3.88003 18.2129 4.09812C18.233 4.35646 18.2431 4.68851 18.0416 4.8261C18.2096 4.95013 18.2532 5.13475 18.2565 5.39309L18.2632 6.00032L17.6761 6.02373L17.6665 5.34934ZM17.2817 4.57958C17.5132 4.56624 17.493 4.20706 17.2817 4.2274L15.5574 4.35821L15.5775 4.68698L17.2817 4.57958ZM11.6329 4.26459C12.1863 4.13378 13.32 3.95266 13.9139 3.90891C14.1856 3.889 14.3969 4.02987 14.4339 4.24118C14.5212 4.72767 14.575 5.23078 14.5146 5.90517C14.4978 6.09963 14.33 6.25407 14.1086 6.3011C13.3474 6.46887 12.4917 6.55944 11.8575 6.61981C11.6965 6.63665 11.4417 6.50912 11.3979 6.30788C11.2873 5.81789 11.247 5.13366 11.2805 4.66401C11.294 4.48924 11.455 4.30484 11.6329 4.26459ZM13.7875 5.70918C13.8645 5.69255 13.8982 5.60855 13.905 5.54818C13.9319 5.36356 13.9083 4.88057 13.8645 4.71936C13.8512 4.6557 13.7976 4.61545 13.6768 4.62551C13.348 4.64564 12.479 4.76989 12.0498 4.86373C11.9358 4.89063 11.8921 4.95757 11.8855 5.01794C11.8654 5.17566 11.9122 5.60833 11.9527 5.85005C11.9627 5.90714 12.0367 5.94717 12.0935 5.94411C12.6737 5.89708 13.3581 5.80324 13.7875 5.70918ZM23.3005 4.36455C23.1727 4.36105 23.0857 4.43827 23.0758 4.50542C23.0454 4.70339 23.0351 4.95823 23.0351 5.2905C23.0351 5.33403 23.1091 5.45478 23.1727 5.46484C23.75 5.54534 24.8702 5.64618 25.4807 5.68643L25.444 6.307C24.642 6.27025 23.8034 6.14273 22.9347 6.08213C22.6497 6.06201 22.4417 5.90779 22.4314 5.63283C22.4148 5.17981 22.4417 4.49536 22.522 4.09637C22.5758 3.85138 22.8103 3.72407 23.0756 3.73063C23.8771 3.76082 24.5145 3.83125 25.5647 3.97213L25.5245 4.58964C25.0146 4.54567 24.0486 4.39474 23.3005 4.36455ZM10.1732 4.54458C10.9849 4.3534 11.109 5.7958 10.4313 5.96358L8.53939 6.43672L8.62995 7.36923L8.03627 7.52716L7.82497 5.098L10.1732 4.54458ZM10.1633 5.48934C10.3578 5.44581 10.3311 5.09713 10.1229 5.14066L8.41536 5.55321L8.45583 5.91239L10.1633 5.48934ZM30.2386 6.28404L30.1984 6.67318L32.0734 7.14611L32.0231 7.68969L29.5071 7.09601L29.7254 4.65023L32.2581 5.26425L32.2012 5.83452L30.3158 5.37821L30.2791 5.79099L32.1509 6.24707L32.1039 6.73006L30.2386 6.28404ZM12.092 13.2447C11.8304 13.5936 11.5889 14.1304 11.4749 14.5865C11.4345 14.7409 11.4345 14.7978 11.4616 14.8984C11.7097 14.7877 12.0319 14.6803 12.2195 14.62C12.2935 14.4559 12.3335 14.2678 12.3974 14.1168C12.4978 13.8821 12.5617 13.7813 12.6658 13.617C12.9644 13.1541 13.595 12.6978 14.0612 12.7079C13.9067 12.842 13.5847 13.1776 13.4574 13.3788C13.3535 13.5466 13.2562 13.7277 13.1822 13.9156C13.1186 14.0836 13.0985 14.2074 13.0816 14.345C13.3231 14.2746 13.5613 14.2242 13.7155 14.2142C13.8197 14.1571 13.8531 14.0462 13.9102 13.9423C14.0878 13.6102 14.4367 13.2377 14.6583 13.1172C14.8359 13.0198 15.0978 12.926 15.2855 12.9864C15.0842 13.1373 14.8729 13.3788 14.7791 13.5232C14.6817 13.6774 14.524 13.9762 14.5308 14.1168C14.6953 14.1304 14.93 14.1168 15.0241 14.0934L15.0138 13.6304L19.8343 13.6269L19.831 7.03149C16.0804 7.03149 11.971 7.38716 7.61344 8.60491L8.51248 20.9935H15.0103V18.572C14.7487 18.3775 13.5342 18.2365 12.7863 18.5283C12.6052 18.5987 12.0148 18.8538 11.7464 19.0648L10.9917 19.6622C10.9178 19.7226 10.9112 19.8534 10.9112 19.9538C10.9112 20.1752 10.6529 20.343 10.5087 20.2959C10.3913 20.2557 10.2303 20.2323 10.0826 20.266C9.92491 20.2992 9.78426 20.101 9.7707 19.9875C9.75057 19.8464 9.86148 19.6622 9.86804 19.6016C9.87482 19.5445 9.83785 19.3197 10.0457 19.1823C10.1395 19.1222 10.2703 19.1252 10.3644 19.1757C10.3917 19.1917 10.4241 19.1965 10.4549 19.1893C10.4886 19.1757 10.5792 19.0955 10.6026 19.0753C10.6126 18.9412 10.5925 18.7297 10.6061 18.6125C10.6363 18.3843 10.6496 18.2535 10.72 18.0319C10.7804 17.8407 10.9112 17.5625 11.0084 17.4046C11.1829 17.1195 11.5283 16.8444 11.7869 16.8678C11.686 17.0021 11.6526 17.0725 11.5788 17.2101C11.4413 17.4617 11.3137 17.8777 11.2536 18.1595C11.2131 18.3406 11.1932 18.4817 11.2033 18.6726C11.4012 18.5252 11.609 18.4042 11.7466 18.3272C11.8103 17.995 11.9413 17.6362 12.082 17.3713C12.2497 17.0524 12.7025 16.7068 12.9981 16.7337C12.7196 17.0355 12.5214 17.4549 12.4477 17.7233C12.4175 17.8305 12.3805 17.9549 12.3976 18.0219C12.5081 17.9615 12.7364 17.9011 12.8469 17.8911C12.9208 17.7067 13.0215 17.4851 13.1055 17.3543C13.3671 16.9515 13.7796 16.7068 14.0146 16.7168C13.8299 16.9651 13.6722 17.1898 13.5583 17.522C13.5246 17.6192 13.5079 17.7233 13.5079 17.7736C13.6521 17.7502 13.877 17.7502 13.9675 17.7502C14.1353 17.5993 14.2558 17.4179 14.4573 17.2637C14.6251 17.1327 14.937 16.955 15.0107 16.9415V14.9052C15.0107 14.8614 14.4774 14.8214 14.2123 14.8549C13.5079 14.9389 11.7468 15.4923 11.002 16.0057C10.9852 16.0494 10.9887 16.2942 10.9381 16.4082C10.8946 16.5121 10.7839 16.6195 10.6767 16.6665C10.4856 16.7505 10.264 16.4955 10.1666 16.5324C10.066 16.5694 9.85142 16.6565 9.61976 16.4922C9.51586 16.4185 9.46227 16.2102 9.49902 16.0562C9.53271 15.9453 9.62655 15.8583 9.70026 15.7878C9.76742 15.7207 9.72039 15.4623 9.96166 15.3081C10.1297 15.2007 10.3609 15.288 10.5389 15.3818C10.5751 15.3703 10.6083 15.3509 10.6361 15.325C10.6595 15.2543 10.6964 15.0397 10.7301 14.8719C10.7704 14.6906 10.7839 14.5734 10.8375 14.4058C10.9718 14 11.2936 13.4162 11.6294 13.1108C11.8943 12.8759 12.3068 12.6882 12.6122 12.7083C12.5818 12.7547 12.2029 13.0938 12.092 13.2447ZM12.8675 9.27362C13.1225 8.91816 13.7934 8.38136 14.3101 8.41176C14.0281 8.65654 13.7798 8.92822 13.6055 9.21674C13.3776 9.58926 13.193 10.0554 13.1527 10.4146C13.3238 10.3507 13.7263 10.2367 13.9577 10.1864C14.1624 9.7402 14.4308 9.24715 14.7631 8.98203C15.0011 8.79085 15.3432 8.62657 15.6621 8.66332C15.5882 8.76744 15.4675 8.84794 15.3769 8.93172C15.2126 9.07587 15.0987 9.27055 15.0079 9.46852C14.9407 9.61595 14.8268 10.0589 14.8233 10.079C15.0547 10.0758 15.464 10.1024 15.5512 10.1293C15.8231 9.77367 16.417 9.25699 17.128 9.37446C16.8193 9.54202 16.2558 10.0316 16.2895 10.3002C16.7524 10.599 17.4434 11.2261 17.4736 11.8067C17.1584 11.4779 16.6384 11.1524 16.3766 11.0619C15.7492 10.8405 15.0011 10.8103 14.3772 10.9243C13.0757 11.1693 11.9251 11.7327 10.8215 12.3938C10.7949 12.5714 10.6973 12.8398 10.6168 12.9306C10.5363 13.0211 10.4156 13.1082 10.2847 13.1283C10.1205 13.1552 9.95248 13.0881 9.81182 13.0144C9.72104 12.9641 9.48305 13.0279 9.33212 12.9472C9.22821 12.8934 9.067 12.7425 9.11075 12.5045C9.1475 12.2932 9.3588 12.1656 9.38899 11.9644C9.43252 11.6691 9.64733 11.5416 9.75801 11.5217C9.87876 11.4982 10.003 11.5385 10.1135 11.5888C10.1605 11.6122 10.2106 11.6525 10.2546 11.666C10.2981 11.6525 10.3617 11.5989 10.3987 11.5822C10.4088 11.5486 10.5197 10.9348 10.5798 10.6664C10.6402 10.398 10.7441 10.1696 10.8314 9.91826C11.0932 9.17365 11.9015 8.42204 12.5492 8.46229C12.5155 8.50932 12.3075 8.66026 12.019 8.99581C11.5528 9.54245 11.4353 10.123 11.2608 11.1194C11.6197 10.9516 11.9317 10.8309 12.2572 10.7134C12.3348 10.4046 12.438 10.1027 12.5658 9.81107C12.6496 9.62251 12.7502 9.43811 12.8675 9.27362ZM32.418 10.0985L20.429 10.1088L20.4393 13.6378L32.1498 13.631L32.418 10.0985ZM21.8056 28.3705C21.668 28.4409 21.4972 28.3974 21.4267 28.3669C21.3058 28.3166 21.2255 28.1922 21.2152 28.0482C21.2053 27.9343 21.316 27.7967 21.3394 27.6722C21.3493 27.6219 21.2959 27.3741 21.507 27.2463C21.5477 27.2229 21.668 27.1792 21.7518 27.1929C21.836 27.2096 21.9029 27.2634 21.9867 27.2767C22.1007 27.2363 22.2099 27.1834 22.3122 27.119C22.3794 26.8605 22.4297 26.5623 22.4629 26.297C21.8627 26.5956 21.0774 26.7968 20.41 26.8237L20.4135 36.4754C23.2145 35.0527 26.2872 32.7248 27.5953 31.4464C29.7123 29.3832 31.1379 27.2934 31.3558 24.2808L31.5535 21.5367L25.1902 21.5299C25.1902 23.0862 24.6703 24.7102 23.1839 25.8842C23.1001 26.223 23.0601 26.7933 23.0664 26.8071C23.2712 26.7229 23.4626 26.6494 23.6304 26.5991C23.6437 26.5789 23.8819 26.059 23.9893 25.9181C24.2409 25.529 24.5797 25.1965 24.992 24.9751C25.2506 24.8443 25.5658 24.7235 25.8443 24.8277C25.4785 25.002 25.1931 25.3172 25.0222 25.4983C24.8645 25.6663 24.6801 25.9144 24.5963 26.1694C24.5849 26.2136 24.5759 26.2584 24.5694 26.3035C24.7407 26.2497 25.2871 26.1694 25.5153 26.139C25.5422 26.1355 25.6126 25.9848 25.6664 25.9109C25.7331 25.8203 25.7736 25.7635 25.8808 25.6425C26.156 25.3439 26.6221 25.0252 27.0749 25.0956C26.8271 25.2533 26.555 25.5049 26.3371 25.9006C26.3067 25.9612 26.2667 26.045 26.2833 26.0817C26.3504 26.0953 26.6827 26.0885 26.884 26.1121C27.1152 25.9682 27.3604 25.8405 27.6253 25.7836C27.9239 25.7164 28.3132 25.77 28.4674 25.9109C28.2863 25.9006 28.1151 25.9343 27.951 25.9979C27.8569 26.0351 27.669 26.1222 27.5986 26.2427C27.7762 26.293 28.0685 26.4844 28.2526 26.6389C28.3804 26.7461 28.5346 26.9007 28.6319 27.0414C28.8767 27.3738 28.9272 27.9706 28.796 28.1486C28.7593 28.0443 28.719 27.9406 28.6619 27.8433C28.5444 27.6455 28.3598 27.4305 28.2021 27.313C27.4409 26.7329 26.3441 26.7025 25.4481 26.8836C24.6799 27.0414 23.2944 27.3301 22.3888 27.9739C22.4122 28.0878 22.3417 28.2792 22.238 28.3527C22.1007 28.454 21.9064 28.3166 21.8056 28.3705ZM23.3005 29.4552C23.4009 29.301 23.5219 29.0763 23.582 28.9788C23.7935 28.6399 24.0989 28.3884 24.3065 28.2908C24.592 28.1532 25.0511 28.073 25.2558 28.1734C25.0312 28.2272 24.8601 28.3311 24.7026 28.4418C24.5416 28.5529 24.2258 28.8412 24.1455 28.9622C24.0549 29.0962 23.9948 29.2168 23.9712 29.2809C24.2258 29.2236 24.5314 29.1765 24.6889 29.1765C24.8028 29.0322 25.1049 28.687 25.3298 28.5258C25.5109 28.398 25.8968 28.2707 26.138 28.3746C25.9068 28.4485 25.4976 28.7708 25.3464 29.0022C25.3132 29.0556 25.2827 29.1129 25.276 29.1428C25.4002 29.1531 25.6349 29.1765 25.7627 29.1931C25.776 29.1931 26.1249 28.9788 26.2826 28.935C26.4874 28.8777 26.8227 28.8042 27.0342 29.0291C26.88 29.0322 26.7356 29.0457 26.6215 29.0962C26.457 29.1697 26.3865 29.2236 26.313 29.3275C26.6348 29.4987 26.9706 29.6766 27.1683 29.9918C27.2388 30.1025 27.3459 30.3643 27.2858 30.5351C27.1849 30.4078 27.0474 30.2836 26.9367 30.2199C26.779 30.1294 26.665 30.0423 26.4736 29.9684C25.8734 29.7437 25.0885 29.6834 24.4609 29.7671C23.6492 29.871 22.6528 30.2737 22.1431 30.6224C22.1764 30.7801 22.0996 30.9645 22.009 31.0083C21.8176 31.1056 21.6334 30.9411 21.5997 30.9514C21.5494 30.968 21.395 31.0219 21.2845 30.9748C21.1734 30.9313 21.1034 30.7364 21.1469 30.6126C21.1802 30.5185 21.3149 30.3844 21.3149 30.3844C21.2944 30.1797 21.4287 30.0559 21.6131 30.032C21.7174 30.0222 21.7907 30.1025 21.8749 30.1195C21.9519 30.0823 22.0057 30.0559 22.0458 30.0353C22.0928 29.8678 22.1632 29.6965 22.2103 29.5556C22.2873 29.3176 22.4012 29.1061 22.5456 28.8849C22.7536 28.5662 23.1229 28.2641 23.5619 28.2578C23.4278 28.3617 23.3504 28.4188 23.2666 28.5227C23.1226 28.7038 23.0115 28.8683 22.9111 29.0628C22.8206 29.2341 22.7363 29.4887 22.7232 29.7135C22.9131 29.6219 23.1056 29.5357 23.3005 29.4552ZM23.2355 31.2697C23.3495 31.2227 23.47 31.1894 23.591 31.203C23.309 31.3837 23.0509 31.6486 22.9805 31.9642C22.9737 31.9975 22.9737 32.0646 23.0039 32.0847C23.0841 32.0646 23.2889 32.0211 23.3427 31.9942C23.376 31.9237 23.4597 31.813 23.517 31.7391C23.7183 31.4712 24.007 31.203 24.406 31.3034C24.1442 31.4208 23.9932 31.5849 23.8793 31.7929C23.8592 31.8301 23.846 31.9005 23.8725 31.9005C23.9397 31.9005 24.1947 31.8903 24.2315 31.8903C24.3489 31.7864 24.6913 31.5882 24.9262 31.6621C24.8088 31.717 24.7011 31.7908 24.6075 31.8804C24.5841 31.9069 24.5537 31.9406 24.5473 31.9808C24.7549 32.0847 24.9395 32.2022 25.1108 32.3501C25.2014 32.4271 25.3322 32.5714 25.4125 32.8195C25.2112 32.6452 24.5537 32.3328 24.1949 32.3162C23.96 32.3063 23.6686 32.3498 23.5208 32.3833C22.9538 32.5111 22.3702 32.7661 21.8703 33.0511C21.8738 33.1485 21.8568 33.2655 21.7465 33.3563C21.6726 33.4169 21.5116 33.4469 21.4508 33.3598C21.4175 33.3128 21.1992 33.3633 21.1526 33.3029C21.1526 33.3029 21.0953 33.2159 21.0885 33.1115C21.0822 33.0008 21.1557 32.9339 21.2163 32.8766C21.2329 32.8565 21.2296 32.669 21.3705 32.6049C21.4576 32.5647 21.5448 32.5784 21.6188 32.6255C21.6492 32.6084 21.6726 32.5918 21.6927 32.5784C21.7093 32.3601 21.7496 32.1589 21.8303 31.941C21.941 31.6321 22.3032 31.2566 22.6152 31.2699C22.4036 31.4981 22.2328 31.8133 22.1755 32.0753C22.1589 32.1591 22.1525 32.3236 22.1525 32.4004C22.2271 32.3547 22.3056 32.3155 22.387 32.2834C22.4207 32.2026 22.5178 32.0014 22.5681 31.9108C22.695 31.6755 22.9805 31.3738 23.2355 31.2697ZM8.83338 24.6358C8.87363 25.803 9.35005 27.2124 10.0041 28.1882H19.7625L19.7424 26.8265C18.4879 26.8265 16.5723 25.9977 15.8142 24.6426L8.83338 24.6358ZM15.5421 21.5913C15.5421 27.7973 24.6193 27.7973 24.6193 21.655L24.6228 14.1875L15.5421 14.1842V21.5913ZM18.4664 18.6171C18.5739 18.4996 18.6679 18.3454 18.6878 18.2146C18.7047 18.1072 18.4028 18.114 18.2921 18.1811C18.2317 18.2179 18.1746 18.2918 18.1276 18.359C18.0941 18.4093 17.9734 18.4495 17.913 18.3926C17.8492 18.3323 17.9633 18.2281 17.9598 18.1645C17.9598 18.0571 17.7551 18.2181 17.6613 18.1743C17.5976 18.1441 17.5941 18.047 17.6378 17.9899C17.6613 17.9597 17.7284 17.9731 17.7586 17.9398C17.7888 17.9061 17.7888 17.8558 17.7988 17.8123C17.8124 17.762 17.866 17.7384 17.8995 17.7016C18.027 17.5776 18.2685 17.3661 18.3155 17.3696C18.426 17.3796 18.5839 17.4367 18.681 17.3862C18.7012 17.3761 18.7381 17.3427 18.7044 17.3225L18.4428 17.151C18.4417 17.124 18.4465 17.0971 18.4569 17.0721C18.4673 17.0472 18.4831 17.0248 18.5032 17.0067C18.6239 16.8993 18.8118 16.9732 18.9696 16.9496C19.0802 16.9327 19.1842 16.8892 19.2646 16.8122C19.2848 16.8927 19.2345 16.9732 19.2345 17.057C19.3351 17.151 19.4392 17.2313 19.5365 17.3221C19.8251 17.6104 19.9491 18.03 19.9692 18.399C19.9861 18.57 19.9861 18.7444 19.9861 19.0296C20.0331 18.9089 20.0633 18.731 20.0733 18.5766C20.1169 18.1203 20.0464 17.7145 19.7883 17.3689C19.6834 17.2232 19.5643 17.0883 19.4326 16.9662C19.4462 16.8321 19.5602 16.604 19.6676 16.688C19.738 16.7416 19.6341 16.8221 19.7078 16.8691C19.7885 16.9192 19.9058 16.9126 19.9561 16.9023C20.0736 16.8724 20.1875 16.8422 20.2947 16.8321C20.345 16.8288 20.4288 16.8052 20.4459 16.8555C20.4592 16.889 20.4225 16.9126 20.3853 16.926C20.3417 16.9395 20.2746 16.9295 20.2378 16.9662C20.2074 16.9964 20.1777 17.0301 20.1875 17.0736C20.2009 17.1239 20.2547 17.1508 20.3085 17.134C20.5108 17.078 20.7191 17.0465 20.9289 17.0399C21.04 17.0399 21.0159 17.1206 20.9625 17.1506C20.9258 17.1707 20.8685 17.1876 20.8317 17.1911C20.634 17.2143 20.4861 17.2278 20.5095 17.3418C20.5261 17.419 20.6506 17.3451 20.6771 17.4022C20.7075 17.4625 20.6237 17.496 20.6305 17.5365C20.6506 17.664 20.8954 17.6371 21.0094 17.6102C21.0931 17.5901 21.2272 17.5231 21.2675 17.5767C21.3047 17.6235 21.2743 17.6975 21.2272 17.711C21.1063 17.7445 20.8987 17.8049 20.8414 17.8718C20.7875 17.9357 20.8516 18.0665 20.9153 18.0733C21.0597 18.0899 21.2174 18.0899 21.3313 18.1234C21.3744 18.1369 21.4116 18.1671 21.4116 18.2139C21.4116 18.2642 21.3613 18.2811 21.3211 18.2944C21.2436 18.3178 21.113 18.3178 21.0426 18.3482C21.0192 18.3583 20.9722 18.3751 20.9789 18.4018C20.9991 18.4521 21.0999 18.4386 21.1837 18.4486C21.2307 18.4521 21.3213 18.4891 21.3213 18.5394C21.3213 18.5932 21.2743 18.6098 21.1905 18.6033C21.0597 18.5932 20.9389 18.6098 20.882 18.6335C20.865 18.64 20.7646 18.6534 20.7676 18.7006C20.7744 18.7575 20.882 18.7208 20.9087 18.7778C20.9321 18.8317 20.8586 18.8616 20.8519 18.9288C20.8519 18.9557 20.8652 18.969 20.8921 18.9791C20.9792 19.0158 21.0796 19.0123 21.1673 18.9959C21.2578 18.9791 21.2911 19.1001 21.2677 19.1134C21.1507 19.1771 20.8888 19.1101 20.8285 19.1469C20.7447 19.2005 20.9691 19.3212 20.9625 19.3481C20.9558 19.3783 20.9289 19.4085 20.9087 19.4153C20.7948 19.4588 20.6473 19.3748 20.5636 19.422C20.4931 19.4656 20.5229 19.5763 20.4793 19.6334C20.4255 19.7038 20.305 19.6736 20.2512 19.7139C20.1812 19.7639 20.1777 19.8849 20.2547 19.9588C20.3153 20.0157 20.3722 20.0558 20.4492 20.0929C20.7983 20.2673 21.1605 20.4416 21.4993 20.418C21.6737 20.4081 21.9591 20.3983 22.1166 20.4386C22.3214 20.4886 22.5294 20.6461 22.6366 20.7137C22.7237 20.7671 22.8647 20.7809 22.9754 20.7402C23.0557 20.7137 23.1095 20.6197 23.0929 20.539C23.0426 20.2706 22.5994 20.187 22.5931 19.9186C22.5863 19.6099 22.5594 19.4422 22.459 19.2475C22.4218 19.1738 22.4154 19.0027 22.5025 18.9793C22.5729 18.9625 22.5966 19.0598 22.6532 19.0364C22.9118 18.9358 22.9221 18.5265 23.1902 18.4491C23.3475 18.4055 23.8778 18.399 23.834 18.3318C23.7233 18.1739 23.7738 17.993 23.834 17.909C23.8743 17.8554 23.9847 17.8016 24.0289 17.8554C24.0891 17.9258 23.9379 18.0096 23.9482 18.1137C23.958 18.2111 24.0993 18.399 23.9917 18.4996C23.9281 18.56 23.4484 18.5803 23.3073 18.7949C23.2202 18.9255 23.2104 19.0296 23.314 19.0196C23.3978 19.0095 23.4683 18.9089 23.5457 18.8518C23.6833 18.7514 23.794 18.7109 23.8712 18.7846C23.9114 18.8214 23.8576 18.892 23.7837 18.9122C23.7235 18.9323 23.5761 19.09 23.6161 19.1302C23.6763 19.1939 24.0118 18.9023 24.0958 18.9625C24.1394 18.9959 23.9313 19.2107 23.9681 19.2676C24.0116 19.3381 24.1527 19.2274 24.1962 19.2812C24.2599 19.3617 24.0856 19.5194 23.9847 19.5898C23.9077 19.6399 23.9377 19.828 23.827 19.8851C23.7032 19.9455 23.6459 20.0525 23.6594 20.0695C23.6728 20.096 23.703 20.1166 23.75 20.0862C23.8876 19.9991 24.0584 19.895 24.1289 19.9219C24.1691 19.9387 24.1122 20.1297 24.0617 20.2202C24.0112 20.3108 24.2665 20.2605 24.2293 20.3377C24.2028 20.395 24.1857 20.4821 24.2028 20.5624C24.2229 20.6667 23.9276 20.6897 23.9007 20.7601C23.8708 20.8408 23.9311 20.861 23.9609 20.8645C24.1389 20.8914 24.1155 21.0554 24.0451 21.1259C23.951 21.2199 23.79 21.2567 23.6489 21.233C23.528 21.2129 23.2567 21.163 23.0957 21.0421C23.0454 21.0053 22.9715 21.0318 22.9616 21.0823C22.9514 21.1396 23.0117 21.2433 23.0386 21.3306C23.0758 21.4614 23.0553 21.6259 23.0117 21.7536C22.9181 22.0185 22.6666 22.2399 22.5961 22.5586C22.5791 22.6424 22.6029 22.7465 22.6364 22.827C22.7103 23.0018 22.8175 23.1659 22.938 23.3137C22.9551 23.3608 22.9787 23.4141 22.9586 23.4577C22.9317 23.5248 22.7237 23.6692 22.6633 23.7265C22.4719 23.9041 22.3074 24.1358 22.2706 24.3873C22.2571 24.4779 22.0626 24.5685 21.9318 24.6052C21.8349 24.6321 21.7341 24.659 21.6538 24.7227C21.6435 24.7962 21.687 24.8603 21.6969 24.9338C21.7139 25.0615 21.5529 25.1252 21.4285 25.1654C21.3716 25.1855 21.311 25.2026 21.2438 25.2026C21.2204 25.2026 21.2139 25.1619 21.2174 25.142C21.2541 24.9677 21.2874 24.8268 21.3545 24.6826C21.3814 24.6288 21.425 24.5853 21.4689 24.5481L21.9482 24.1456L22.3242 23.6055C22.3575 23.5552 22.3713 23.5115 22.3713 23.4747C22.3713 23.3704 22.3277 23.2735 22.2538 23.2063C22.1597 23.1221 22.0221 23.109 21.9185 23.0552C21.7844 22.988 21.5895 22.8006 21.5626 22.7868C21.4891 22.75 21.4455 22.8841 21.4352 22.9611C21.4186 23.0786 21.4554 23.1893 21.4519 23.3067C21.4519 23.3605 21.4455 23.3905 21.4186 23.4242C21.1034 23.6053 20.7108 23.6725 20.4791 23.9608C20.4389 24.0111 20.4021 24.0651 20.3483 24.1019C20.2175 24.1924 19.9996 24.0885 19.9021 24.2292C19.8585 24.2933 19.9089 24.377 19.8922 24.4475C19.8822 24.4877 19.8049 24.5415 19.7446 24.5713C19.6639 24.6085 19.577 24.6286 19.4895 24.6354C19.3922 24.5884 19.4525 24.4508 19.486 24.3534C19.5195 24.2526 19.5667 24.1522 19.6437 24.085C19.7577 23.9842 19.9019 23.8569 19.9926 23.8133C20.0696 23.7762 20.1869 23.7762 20.2809 23.7394C20.38 23.7091 20.4739 23.6638 20.5594 23.6053C20.6966 23.5183 20.8243 23.4109 20.9015 23.2632C20.9886 23.0952 20.9785 22.871 20.8678 22.7266C20.767 22.5958 20.65 22.4681 20.5828 22.3209C20.5456 22.2401 20.5725 22.1294 20.6298 22.0555C20.6263 22.0525 20.5859 22.0251 20.5627 22.0321C20.0828 22.0527 19.5965 21.9989 19.1502 21.821C19.0328 21.774 18.912 21.6228 18.828 21.613C18.751 21.6027 18.704 21.7001 18.6268 21.7202C18.5028 21.7539 18.3415 21.7337 18.1974 21.7202C18.0296 21.7036 17.6807 21.6296 17.4292 21.5493C17.3889 21.5557 17.3454 21.5627 17.3084 21.5861C17.2546 21.6228 17.2445 21.7036 17.2413 21.7707C17.2345 21.8613 17.2614 21.945 17.2511 22.0391C17.2478 22.0861 17.2209 22.1364 17.2345 22.1802C17.248 22.2336 17.3016 22.2572 17.3384 22.2909C17.3988 22.3478 17.4088 22.4652 17.4088 22.5593C17.4088 22.6632 17.3721 22.801 17.4591 22.8716C17.5129 22.9147 17.5867 22.8581 17.6538 22.8716C17.7275 22.885 17.7509 22.9756 17.7544 23.046C17.7579 23.1263 17.6908 23.2971 17.647 23.3413C17.6168 23.3713 17.5665 23.3476 17.5296 23.331C17.4324 23.2875 17.3417 23.217 17.2881 23.123C17.2647 23.0827 17.2647 23.0324 17.241 22.9889C17.2041 22.915 17.1369 22.8719 17.07 22.8213C16.9895 22.7607 16.9729 22.6501 16.9593 22.5529C16.9492 22.4619 16.9661 22.3749 16.9729 22.2841C16.9902 22.1046 16.9789 21.9235 16.9392 21.7475C16.909 21.6134 16.8351 21.4791 16.8687 21.345C16.8856 21.2814 16.9291 21.2208 16.9897 21.1939C17.3142 21.1787 17.6354 21.1224 17.9456 21.0263L17.7444 20.8281C17.6941 20.8281 17.6538 20.8784 17.6035 20.8784C17.5497 20.8784 17.476 20.8015 17.4558 20.7745C17.3517 20.6203 17.2848 20.4421 17.2378 20.2609C17.1942 20.1905 17.1406 20.1203 17.0599 20.0866C17.004 20.0623 16.9433 20.0508 16.8823 20.0529C16.7145 20.1268 16.5603 20.2712 16.5467 20.4558C16.5435 20.5029 16.5702 20.5429 16.5636 20.5899C16.5537 20.6702 16.4932 20.724 16.4361 20.7813C16.379 20.8382 16.3254 20.8953 16.302 20.9758C16.2816 21.0429 16.3053 21.1134 16.3352 21.177C16.3553 21.2206 16.379 21.2641 16.3621 21.3111C16.3219 21.4218 16.057 21.5358 15.9798 21.5358C15.9529 21.5358 15.9295 21.499 15.9194 21.4686C15.8892 21.3678 15.896 21.2606 15.9161 21.1602C15.987 21.0834 16.0397 20.9917 16.0703 20.8918C16.1108 20.7577 16.0904 20.6133 16.1543 20.4889C16.3219 20.2038 16.7513 19.6336 16.8351 19.5498C16.872 19.513 16.9626 19.4927 16.9995 19.5163C17.1807 19.6338 17.2881 19.7779 17.4624 19.8685C17.5565 19.9155 17.6737 19.9862 17.7577 19.919C17.8415 19.8519 17.8548 19.4024 17.9087 19.2882C18.0069 19.0902 18.2785 18.8284 18.4664 18.6171ZM21.8056 15.8226L21.7316 16.1044H21.4632L21.8124 14.7827H22.1175L22.4533 16.0943H22.1845L22.1173 15.8226H21.8056ZM22.0805 15.5826L21.9596 15.0526L21.8456 15.5826H22.0805ZM21.1006 15.1627C21.1041 15.0754 21.0772 14.9614 21.0069 14.9345C20.933 14.9076 20.8558 14.9312 20.8223 14.9815C20.765 15.0754 20.765 15.2029 20.7685 15.3974C20.7685 15.5148 20.772 15.6791 20.7954 15.7565C20.8523 15.9342 21.0034 15.9444 21.0769 15.8335C21.1141 15.78 21.1141 15.6758 21.1106 15.582H20.956V15.3873H21.3554V16.0984H21.1644V16.0013C21.1609 16.0081 21.0769 16.0718 21.0367 16.0921C20.9695 16.1221 20.8422 16.1221 20.7385 16.0785C20.6511 16.0416 20.5673 15.9243 20.5305 15.7732C20.4933 15.6155 20.51 15.4107 20.51 15.2364C20.5135 15.0518 20.6108 14.8472 20.7449 14.77C20.839 14.7164 21.0133 14.7164 21.1238 14.7567C21.2583 14.8037 21.3622 14.9982 21.3421 15.1627H21.1006ZM16.6067 14.8026C16.7141 14.8698 16.771 14.994 16.7513 15.1382H16.5397C16.5397 15.0041 16.4829 14.9402 16.3687 14.9369C16.2983 14.9336 16.211 15.0141 16.211 15.0745C16.2075 15.2521 16.3652 15.2891 16.4726 15.3226C16.5531 15.3462 16.6504 15.3965 16.6975 15.4669C16.7845 15.5945 16.7948 15.7285 16.7244 15.9031C16.6909 15.9869 16.5634 16.0875 16.456 16.1111C16.3352 16.138 16.1876 16.1247 16.0668 16.0339C15.9695 15.9602 15.9257 15.8158 15.9459 15.685H16.1841C16.1841 15.7489 16.1941 15.7957 16.221 15.836C16.2412 15.8629 16.2781 15.9064 16.3418 15.9097C16.3671 15.9115 16.3924 15.9078 16.4161 15.8987C16.4398 15.8897 16.4612 15.8755 16.4788 15.8573C16.4964 15.839 16.5098 15.8172 16.5179 15.7932C16.5261 15.7692 16.5289 15.7437 16.5262 15.7185C16.5128 15.5137 16.1707 15.5004 16.0533 15.3696C15.9122 15.2086 15.9559 14.9503 16.0699 14.8461C16.2278 14.6987 16.4426 14.6987 16.6067 14.8026ZM23.3803 15.6776C23.3838 15.7279 23.3871 15.9057 23.3937 16.0197C23.3972 16.0532 23.4309 16.0969 23.4309 16.1002H23.1793C23.1456 16.1002 23.1421 16.0398 23.1391 15.9897C23.1323 15.8556 23.1454 15.5369 23.0148 15.5369H22.8538V16.0971H22.6023V14.7888H23.0551C23.2832 14.7888 23.3972 14.9198 23.3972 15.0975C23.3972 15.2149 23.3937 15.3525 23.2596 15.4094C23.3298 15.4763 23.37 15.577 23.3803 15.6776ZM23.0356 14.9776H22.8477V15.33H22.9853C23.2132 15.33 23.2099 14.9776 23.0356 14.9776ZM17.3716 16.1026H17.1201V14.9988H16.8316V14.7774H17.6634V14.9988H17.3716V16.1026ZM18.9912 16.1026V14.9988H18.7027V14.7774H19.5379V14.9988H19.2426V16.1026H18.9912ZM19.6512 14.7777H20.4863V15.0023H20.191V16.1026H19.9397V15.0023H19.6512V14.7777ZM24.0151 15.0025V16.1061H23.7636V15.0025H23.4753V14.7779H24.3071V15.0025H24.0151ZM18.3214 15.7224V14.7799H18.5662V15.699C18.5662 16.2492 17.7678 16.2492 17.7678 15.7159V14.7799H18.0126V15.7259C18.0128 15.9307 18.3214 15.9307 18.3214 15.7224ZM18.8862 16.7122C18.9602 16.6486 19.0638 16.5615 19.1846 16.4843C19.292 16.4139 19.1712 16.5751 19.1645 16.642C19.1443 16.8231 19.0067 16.8433 18.8558 16.8098C18.8293 16.803 18.8394 16.7525 18.8862 16.7122ZM25.1948 20.9417L31.6021 20.9382L31.8871 17.3956L25.1948 17.3991V20.9417ZM19.7912 31.9745L13.1827 31.9611C14.5446 33.1857 17.698 35.4768 19.771 36.406L19.7912 31.9745ZM15.0072 17.3022C14.8797 17.4162 14.6249 17.6981 14.5743 17.8254C14.6852 17.8657 14.9031 17.963 15.0072 18.0335V17.3022Z" fill="#F6F6F3"/>
</svg>
