<svg width="40" height="40" viewBox="0 0 40 40" fill="none" xmlns="http://www.w3.org/2000/svg">
<path fill-rule="evenodd" clip-rule="evenodd" d="M35.4623 19.9536C35.4599 20.0056 35.4427 20.0555 35.4134 20.0976L35.4452 20.1004C35.4441 20.1126 35.443 20.1258 35.4418 20.1398C35.4274 20.3098 35.4029 20.5998 35.3619 20.6903L24.398 39.6946C24.2788 39.8795 24.0525 39.9925 23.8358 40H15.7087L15.6937 39.9983C15.4452 39.9711 15.2444 39.8402 15.1205 39.6226L4.18006 20.6723L4.09597 20.4715C4.07422 20.4146 4.0579 20.3431 4.05037 20.2824C4.04797 20.2627 4.04771 20.243 4.0495 20.2236C4.01389 20.1725 3.99646 20.1105 4.0006 20.0477C4.01817 19.7804 4.09808 19.4674 4.22944 19.2327L15.1256 0.300798L15.1385 0.280717C15.2707 0.0903639 15.5151 -0.00502192 15.7401 0.000835083H23.7772C24.0069 -0.00962386 24.2236 0.0778128 24.347 0.282808L35.3 19.2319C35.4188 19.4436 35.4741 19.7118 35.4623 19.9536ZM25.0511 20.0054L19.7572 29.2177L14.4319 20.0402L19.758 10.8158L25.0511 20.0054ZM20.4755 8.94448L26.6643 19.6624H34.88C34.8645 19.6042 34.8448 19.5565 34.8172 19.503L23.8747 0.570638C23.8689 0.563214 23.8612 0.557475 23.8525 0.554017C23.8437 0.550559 23.8342 0.549509 23.8249 0.550975C23.8077 0.552649 15.7707 0.553485 15.7313 0.552649C15.7281 0.552649 15.7246 0.552607 15.7211 0.552563C15.6997 0.552299 15.6741 0.551984 15.6544 0.560597L15.5937 0.594485L4.71181 19.5026C4.66244 19.5992 4.62939 19.685 4.60094 19.7891H12.7449L23.2685 1.61277C23.3793 1.42241 23.7153 1.57846 23.632 1.77132L20.4755 8.94448Z" fill="#F6F6F3"/>
</svg>
