<svg width="40" height="40" viewBox="0 0 40 40" fill="none" xmlns="http://www.w3.org/2000/svg">
<path fill-rule="evenodd" clip-rule="evenodd" d="M9.56545 18.2934V2.35651H15.5964C17.8011 2.39295 19.4349 2.84847 20.7224 3.75949C22.4291 4.97419 23.3401 6.91163 23.3401 9.22563C23.3462 13.1309 20.6496 18.1051 9.56545 18.2934ZM29.0735 35.372C28.3143 34.6918 27.4033 33.6289 26.9842 31.5396C26.1522 27.7073 24.4819 22.314 21.1415 18.4816C21.2111 18.4482 21.273 18.4212 21.3336 18.3948C21.4054 18.3634 21.4755 18.3329 21.5545 18.2934C25.3504 16.3559 27.6705 13.1309 27.6705 9.18312C27.7069 6.41361 26.304 3.56514 23.8017 1.85849C21.8278 0.528394 19.1676 0 15.7908 0H3L3.04496 0.0292887L3.08499 0.055282C3.96458 0.626091 5.31401 1.50179 5.31401 4.5126V30.8533C5.31401 33.8835 3.97873 34.7388 3.0989 35.3024C3.06524 35.324 3.03224 35.3451 3 35.3659H11.8795C11.83 35.332 11.7783 35.2973 11.7247 35.2613C10.8765 34.6922 9.56545 33.8124 9.56545 30.8533V20.6438C12.6751 20.6438 15.5964 20.2612 18.0683 19.6174C20.3094 22.314 21.9797 26.4865 22.5141 30.3189C22.8907 33.2098 21.9068 34.6857 21.2265 35.3659L29.0735 35.372ZM17.2727 35.4874V25.2779C18.2566 25.2414 19.2101 25.205 20.1576 25.126C19.8175 24.3304 19.4713 23.5348 19.0583 22.7756C18.6936 22.8221 18.3165 22.839 17.9318 22.8561C17.7142 22.8658 17.4943 22.8756 17.2727 22.891V20.7653C15.9426 21.0689 14.5032 21.2937 13.0213 21.4455V35.4874C13.0213 38.503 11.6618 39.3824 10.7875 39.948C10.7603 39.9656 10.7335 39.9829 10.7073 40H19.5867C19.5474 39.9733 19.5066 39.946 19.4646 39.9179C18.6179 39.3509 17.2727 38.4501 17.2727 35.4874ZM37.9226 39.9696C37.1998 39.2833 36.2888 38.2205 35.8333 36.1373C35.0012 32.2988 33.2521 26.7962 29.5715 22.6966C33.1792 20.7227 35.3778 17.6131 35.3778 13.7807C35.4142 11.0477 34.0112 8.16277 31.509 6.45612C30.4461 5.76981 29.195 5.27786 27.713 4.97419C28.2475 6.116 28.5876 7.33071 28.6605 8.5454C30.2153 9.7601 31.0534 11.6186 31.0534 13.8597C31.0534 16.7082 29.614 20.0425 24.567 21.7552C24.98 22.5509 25.399 23.389 25.7391 24.1846C25.8727 24.1482 26.0062 24.1103 26.1397 24.0724C26.2734 24.0344 26.4071 23.9964 26.5409 23.9599C28.8913 26.693 30.7862 30.9809 31.3571 34.9651C31.7762 37.85 30.7498 39.2894 30.0695 39.9757L37.9226 39.9696ZM17.2727 7.02095V16.0158C16.058 16.5138 14.6125 16.8539 13.0152 17.0787V9.14667C13.0152 6.12358 11.6912 5.268 10.8113 4.6994C10.7737 4.67512 10.737 4.65137 10.7012 4.628H20.273C21.1051 5.23535 21.7124 6.03097 22.0525 7.02095H17.2727Z" fill="#F6F6F3"/>
</svg>
