<svg width="40" height="40" viewBox="0 0 40 40" fill="none" xmlns="http://www.w3.org/2000/svg">
<path fill-rule="evenodd" clip-rule="evenodd" d="M13.2093 12.0951C13.8378 12.9328 14.5179 13.0895 14.9892 13.1941C15.0992 13.2491 15.2349 13.3041 15.3873 13.366C15.6701 13.4806 16.0103 13.6186 16.3505 13.8226C15.1984 15.3409 14.0471 15.7074 13.1566 15.7074C12.2145 15.7074 11.5861 15.3409 10.9052 14.8174C10.8003 16.7545 11.4811 18.0108 13.6279 18.1158C12.7374 19.4248 12.4758 21.3093 12.6851 22.9848C13.261 21.8328 13.8371 21.2043 14.7266 20.8907C14.0981 21.8855 13.7839 22.8796 13.7839 23.8226C13.7839 26.1403 15.5062 27.5459 16.1108 28.0394L16.1399 28.0632C16.3492 26.2833 16.925 24.8694 17.3962 24.1369C17.6055 27.487 17.2393 30.2096 16.8204 31.2567C19.2811 30.6808 20.9043 29.7387 22.0554 28.2201C22.6312 27.0158 22.6842 25.2882 22.6312 23.717C23.2071 24.4505 23.8885 25.6022 24.1501 26.387C25.6681 25.4449 26.2965 23.9789 26.2965 22.304C26.2965 21.6755 26.139 20.7858 26.0346 20.3666C26.5581 20.7858 26.9767 21.2567 27.3962 21.9372L27.7105 21.2567C28.0771 20.4189 28.2331 19.4768 28.2331 18.5867C28.2331 17.3304 27.9718 16.2833 27.1863 15.0266C27.7099 15.1316 28.548 15.4978 28.9662 15.8118C29.2804 13.2468 28.7043 11.257 27.1863 9.73871C27.2347 9.65012 27.283 9.56276 27.3317 9.47474L27.3319 9.47434C27.5997 8.99034 27.8787 8.48606 28.2331 7.6446C28.1287 7.54027 27.8145 7.48763 27.8145 7.48763C27.7102 7.43531 27.4479 7.38267 26.9767 7.38267C26.5582 7.38267 25.93 7.43499 25.3021 7.69692C25.2007 7.52842 25.0778 7.3817 24.9614 7.24276C24.8969 7.16572 24.8344 7.09107 24.7786 7.01643L27.7111 0C26.4538 0 25.1978 0.523529 25.1978 1.57059C25.1978 1.88483 25.3031 2.25108 25.6173 2.61765C25.6173 2.66996 25.565 2.66996 25.512 2.66996H25.4597C25.2501 2.40836 24.9362 2.25076 24.622 2.25076C23.9418 2.25076 23.4176 2.82693 23.4176 3.4551C23.4176 4.13559 23.9411 4.65975 24.622 4.65975C24.674 4.65975 24.7783 4.65975 24.8307 4.60802C24.2031 5.23582 23.5749 5.44489 22.947 5.44489C21.8474 5.44489 20.9573 4.60712 20.7997 4.08359C21.0093 4.24055 21.2709 4.34519 21.5851 4.34519C22.213 4.34519 22.7371 3.82167 22.7371 3.14086C22.7371 2.513 22.2136 1.93652 21.5851 1.93652C21.3755 1.93652 21.1665 1.98915 21.0093 2.09348C21.2189 1.8842 21.3235 1.56995 21.3235 1.25571C21.3235 0.627855 20.8 0.104009 20.1718 0.104009C19.4913 0.104009 18.9675 0.627538 18.9675 1.25571C18.9675 1.62227 19.1241 1.9362 19.334 2.14612C19.1771 2.04179 18.9148 1.93683 18.7062 1.93683C18.0257 1.93683 17.5018 2.51268 17.5018 3.14117C17.5018 3.82167 18.0254 4.34551 18.7062 4.34551C18.9681 4.34551 19.2294 4.24118 19.3867 4.13622C18.9155 5.07896 18.0777 5.34056 17.2926 5.34056C16.3498 5.34056 15.5121 4.92199 15.46 4.60775C15.5124 4.66039 15.617 4.66039 15.6693 4.66039C16.3498 4.66039 16.8737 4.13686 16.8737 3.45573C16.8737 2.82788 16.3501 2.2514 15.6693 2.2514C15.3551 2.2514 15.0415 2.40836 14.8316 2.6706H14.7792C14.7444 2.6706 14.7269 2.65316 14.7269 2.61828C14.9888 2.2514 15.0935 1.88546 15.0935 1.57122C15.0941 0.523846 13.8378 0.000317408 12.5814 0.000317408L15.5656 7.12139C15.1471 7.43531 14.7805 8.06349 14.6756 8.63933C13.8378 8.16813 13.0526 7.90652 12.3721 7.90652C10.9582 7.90652 9.28298 9.00558 9.12601 12.5663C10.5396 11.8858 11.4294 11.6759 12.0576 11.6759C12.5811 11.6759 12.948 11.7808 13.2096 12.0951H13.2093ZM24.4983 6.17897L24.152 7.01706H16.1418L15.7943 6.17897H24.4983ZM17.2932 9.73966C17.4498 9.73966 17.6591 9.73966 17.8164 9.79198C17.607 10.7338 16.9263 10.891 16.4554 10.891C15.8796 10.891 15.2511 10.6291 15.2511 9.73903C15.3554 9.79135 15.5127 9.79135 15.6176 9.79135C15.7226 10.0533 15.9319 10.3672 16.4554 10.3672C16.9789 10.3675 17.2409 10.0013 17.2932 9.73966ZM12.3725 8.74461C13 8.74461 13.7334 9.00622 14.5712 9.53006C14.4663 10.2629 14.7805 11.5715 16.5084 11.5715C17.1362 11.5715 18.1313 11.2573 18.4455 9.89599C18.5498 9.89599 18.6538 9.94799 18.7579 9.99999L18.7598 10.001C18.9167 9.84399 19.0217 9.68671 19.1263 9.4251C18.5505 9.05854 17.6084 9.0059 17.0322 9.0059C16.8419 9.0059 16.6657 9.02009 16.4964 9.03374C16.3396 9.04637 16.1886 9.05854 16.0375 9.05854C15.7759 9.05854 15.4616 9.0059 15.2524 8.95421C15.4093 8.32572 15.6709 7.74987 15.9852 7.74987H24.4672C24.5195 7.80219 24.6238 7.90684 24.6238 8.01148C23.839 8.48269 23.1059 9.1635 22.4774 10.0006C22.5817 10.1576 22.844 10.3672 23.0533 10.4718C24.5189 8.53469 26.1418 8.16781 27.1372 8.22045C25.6192 11.3096 22.6341 12.4087 20.174 12.6703C22.2678 13.4557 23.6818 14.6601 22.3208 16.9635C21.8496 15.8115 21.1688 15.131 19.8598 14.4502C20.7499 17.1204 20.0691 18.5864 19.2313 19.4242C19.179 18.8483 18.9697 17.5916 18.6034 16.7015C18.2369 17.2254 17.818 17.6963 17.3991 18.0105C17.3465 18.3245 17.3991 18.7957 17.4514 19.0049C17.7657 18.7953 18.0799 18.5337 18.2369 18.3245C18.3938 19.1099 18.5511 19.9477 18.4462 20.8901C20.9071 19.7381 21.1691 17.5396 21.0638 16.3876C21.6396 17.0684 21.9016 17.8532 22.0582 18.7437C23.7861 16.6495 24.3099 14.5031 22.4777 13.0372C24.5719 12.3044 25.6196 11.5715 26.7183 10.3146C27.9756 11.5709 28.2892 13.1938 28.2362 14.5551C27.5037 14.2935 26.7712 14.0839 25.4619 14.0839C26.2997 14.8694 27.4517 16.3873 27.4517 18.5344C27.4517 19.1622 27.3474 19.7387 27.1898 20.3142C26.4567 19.5288 25.6196 19.1099 24.6765 18.7437C25.096 19.7384 25.5143 20.8904 25.5143 22.304C25.5143 23.5084 25.1477 24.4505 24.4675 25.131C23.944 24.0313 22.9496 22.6706 21.7446 21.9375C21.9542 24.1365 21.9022 26.8065 21.378 27.8009C20.4359 29.0053 19.2842 29.6331 17.9753 30.105C18.2369 28.7433 18.4465 25.2886 17.9753 22.1468C17.2425 22.8276 16.0904 24.2409 15.6192 26.4926C15.2 26.0214 14.5722 25.2353 14.5722 23.8226C14.5722 22.4099 15.305 21.0997 16.5613 19.7387C15.5143 19.791 14.5195 19.948 13.5248 20.6814C13.7341 18.9536 14.6768 17.8539 15.7762 17.0167C14.7291 17.226 14.2056 17.3307 13.6821 17.3307C13.0016 17.3307 12.1638 17.1214 11.9022 16.2836C12.2164 16.3879 12.6873 16.4929 13.1585 16.4929C14.2579 16.4929 15.6192 16.0217 16.9805 14.1889C17.1375 14.0322 17.1901 13.8746 17.1901 13.7703C17.1901 13.0898 15.7762 12.566 14.9384 12.3567C14.922 12.3484 14.8939 12.3389 14.8566 12.3263C14.6568 12.2585 14.192 12.1009 13.839 11.5712C13.3678 11.1 12.792 10.8907 12.0585 10.8907C11.4827 10.8907 10.8548 11.0477 10.0694 11.3099C10.2783 10.3152 10.8548 8.74429 12.3728 8.74429L12.3725 8.74461ZM9.54491 14.6077C10.1602 14.6077 10.8411 14.3782 11.4406 14.1761C11.9124 14.017 12.3338 13.8749 12.6334 13.8749C13.6808 13.8749 14.309 14.1892 14.5709 14.4508C14.0474 13.2464 12.8954 12.8802 12.2149 12.8802C11.8126 12.8802 11.389 12.9764 10.9246 13.0819C10.3615 13.2099 9.73847 13.3514 9.02107 13.3514C7.75831 13.3514 6.93435 12.5237 6.40775 11.9946C6.38847 11.9753 6.36958 11.9563 6.3511 11.9378C6.87462 13.1941 7.86936 14.6077 9.54491 14.6077ZM35.826 34.4502C35.826 35.0783 35.5653 35.9161 34.3604 36.0727H34.3607C35.722 36.2303 36.0362 37.2771 36.0362 37.9049C36.0362 38.6381 35.5127 39.8424 34.0987 39.8424H25.618L25.1468 38.6904H21.6913L21.2205 39.8424H17.8694L17.3982 38.6904H13.8904L13.4712 39.8424H10.7486L11.0105 39.2146C10.5913 39.5805 9.80683 40 7.45047 40C5.09412 40 3.05232 39.5288 3 37.5913H6.08917C6.08917 38.0632 6.40372 38.5344 7.39815 38.5344C8.60217 38.5344 8.70713 38.1152 8.70713 37.8532C8.70713 37.3827 8.39288 37.0684 6.92726 37.0684C4.7805 37.0684 3.26288 36.7012 3.26288 34.9743C3.26288 32.9852 5.51331 32.5656 7.34582 32.5656C9.59722 32.5656 11.6913 32.9328 11.691 34.869H8.60186C8.60186 34.0313 8.07896 33.9269 7.34551 33.9269C6.66533 33.9269 6.24614 34.1362 6.24614 34.6071C6.24614 35.1306 6.61238 35.2882 7.71175 35.2882C10.4867 35.2882 11.6913 35.8108 11.9006 37.0681L13.6805 32.6703H17.6068L19.544 37.382L21.4814 32.6703H25.4077L27.5542 37.9053V32.6703H33.8371C35.4074 32.6703 35.826 33.822 35.826 34.4502ZM15.6703 34.3985L14.5709 37.0161H16.7173L15.6703 34.3985ZM23.4186 34.3985L22.3718 37.0161H24.5183L23.4186 34.3985ZM32.3718 34.3985H30.1201V35.4449H32.3718C32.6325 35.4449 32.8424 35.183 32.8427 34.921C32.8427 34.6074 32.6331 34.3985 32.3718 34.3985ZM30.1201 37.9579H32.5282C32.7898 37.9579 32.9994 37.7486 32.9994 37.4344C32.9994 37.1728 32.7901 36.9632 32.5282 36.9632H30.1201V37.9579Z" fill="#F6F6F3"/>
</svg>
