<svg width="40" height="40" viewBox="0 0 40 40" fill="none" xmlns="http://www.w3.org/2000/svg">
<path d="M13.2356 2.10523C20.7545 1.84026 28.2809 2.10336 35.7867 2.58539C36.5769 2.65398 37.3775 2.64834 38.1555 2.81465C38.5765 2.91613 39.0312 3.07681 39.2774 3.45924C39.502 3.8755 39.5067 4.36128 39.5649 4.81982C39.7435 7.07211 39.7961 9.3338 39.9643 11.5861C39.6392 11.6256 39.3141 11.5758 38.989 11.5654C33.1999 11.2657 27.4062 11.0167 21.6077 11.0092C18.6046 11.0176 15.5978 10.9885 12.5976 11.1341C11.8703 11.2412 11.0472 11.4846 10.6272 12.133C12.8973 12.5361 15.1628 12.9711 17.432 13.3817C24.9528 14.7893 32.4792 16.1658 40 17.5715C39.9934 18.9979 39.9962 20.4242 39.9991 21.8506C35.7698 21.1506 31.548 20.3951 27.3216 19.6725C18.2288 18.1052 9.13883 16.5163 0.0432221 14.9641C0.0610751 13.3808 0.128728 11.7984 0.161615 10.2142C0.218932 8.95983 0.183226 7.68851 0.466994 6.45666C0.657739 5.5875 1.01104 4.71364 1.66972 4.09255C2.80667 2.96687 4.45102 2.65022 5.98168 2.49142C8.3937 2.26779 10.8161 2.1945 13.2356 2.10523ZM0 17.0472C13.027 19.4508 26.0493 21.8948 39.0745 24.3124C39.3592 24.382 39.6636 24.3876 39.937 24.4919L39.9699 24.5671C39.8985 26.7038 39.8572 28.8424 39.7801 30.9791C39.7303 32.2974 39.5913 33.6768 38.9128 34.8382C38.1856 36.039 36.8306 36.7033 35.4898 36.9542C33.5137 37.3253 31.4954 37.3498 29.494 37.4597C20.8823 37.8506 12.2528 37.6345 3.65516 37.0425C2.96829 36.9946 2.2692 36.9824 1.60207 36.7916C1.25628 36.6826 0.899224 36.5069 0.703781 36.1875C0.494244 35.7684 0.481089 35.2901 0.42941 34.8335C0.245242 32.3406 0.147521 29.8431 0.0169126 27.3474C4.45196 27.6293 8.89452 27.7872 13.338 27.8858C17.6284 27.9554 21.9187 27.9544 26.2091 27.9967C27.1346 28.0352 28.1353 27.8586 28.8372 27.2084C28.9396 27.0909 29.1059 26.9819 29.089 26.8062C27.1553 26.5159 25.2328 26.155 23.3028 25.8374C15.5377 24.5097 7.76885 23.1943 0.004697 21.8591C-0.00469929 20.2551 0.0065774 18.6512 0 17.0472Z" fill="#F6F6F3"/>
</svg>
