<svg width="40" height="40" viewBox="0 0 40 40" fill="none" xmlns="http://www.w3.org/2000/svg">
<path fill-rule="evenodd" clip-rule="evenodd" d="M20.0002 0.000498977H19.9998V0H19.9993C14.4918 0.000249626 9.49201 2.24638 5.86945 5.86895C2.24638 9.49176 0.000249626 14.492 0 19.9997V20.0012C0.000499251 25.5087 2.24638 30.5082 5.86895 34.1311C9.49201 37.7539 14.492 40 19.9998 40.0002H20.001C25.5085 40 30.5077 37.7539 34.1308 34.1313C37.7539 30.5087 40 25.5085 40 20.001V19.9995C40 14.492 37.7539 9.49251 34.1308 5.86969C30.5082 2.24688 25.508 0.000498977 20.0002 0.000498977ZM19.9988 0.48003H20.0002C25.3759 0.48028 30.2559 2.67249 33.7918 6.20869C37.328 9.74463 39.52 14.6246 39.5205 19.9997V20.0012C39.52 25.3767 37.3275 30.2566 33.7918 33.7928C30.2556 37.3285 25.3757 39.5207 20.0007 39.521H19.9995C14.6238 39.521 9.74388 37.3285 6.20769 33.7923C2.67174 30.2566 0.479531 25.3767 0.479281 20.0017V20.0002C0.479281 14.6248 2.67174 9.74463 6.20794 6.20844C9.74388 2.67249 14.6238 0.48028 19.9988 0.48003ZM5.31154 7.87469L5.05218 8.17349L6.0387 8.40864L6.504 7.87294L6.13231 6.92985L5.8747 7.22641L5.94335 7.85222L5.31154 7.87469ZM10.7404 4.73115L12.3889 8.11358L13.3008 7.6685L12.5609 6.15027L14.4024 7.1308L15.5519 6.56964L13.35 5.4995L13.7948 3.24039L12.7214 3.76435L12.4009 5.82227L11.6523 4.28632L10.7404 4.73115ZM20.3343 4.83849C20.1485 5.04743 19.9136 5.15177 19.6296 5.15177C19.34 5.15177 19.1034 5.04818 18.9199 4.84049C18.7367 4.6333 18.6455 4.36845 18.6455 4.04643C18.6455 3.7294 18.7384 3.4653 18.9244 3.25586C19.1101 3.04618 19.3452 2.94084 19.6293 2.94084C19.9081 2.94084 20.1423 3.04618 20.3308 3.25661C20.519 3.46805 20.6131 3.7314 20.6131 4.04643C20.6131 4.3647 20.52 4.62881 20.3343 4.83849ZM21.4885 4.80679C21.5888 4.56583 21.6395 4.30716 21.6378 4.04618C21.6398 3.78623 21.5892 3.52857 21.489 3.28872C21.3888 3.04886 21.241 2.83177 21.0547 2.65052C20.8671 2.466 20.645 2.32042 20.4009 2.22217C20.1535 2.12207 19.8964 2.07214 19.6293 2.07214C19.3649 2.07122 19.1028 2.12219 18.858 2.22217C18.6153 2.32043 18.3947 2.46605 18.2089 2.65052C18.0155 2.83699 17.869 3.04942 17.7681 3.28632C17.6683 3.52396 17.6183 3.77683 17.6183 4.04618C17.6183 4.31378 17.6683 4.5664 17.7681 4.80404C17.8701 5.04451 18.0201 5.26163 18.2089 5.44208C18.3948 5.62634 18.6154 5.77186 18.858 5.87019C19.1028 5.97027 19.3648 6.02133 19.6293 6.02047C19.8949 6.02047 20.1508 5.97004 20.3974 5.87019C20.6419 5.77093 20.865 5.62559 21.0547 5.44208C21.2405 5.26159 21.388 5.04553 21.4885 4.80679ZM25.8118 6.18597L25.6538 6.11857L26.4658 4.20419L26.6238 4.27159C26.9943 4.42885 27.2322 4.62182 27.337 4.84848C27.4423 5.07514 27.4236 5.35422 27.2833 5.68522C27.1423 6.01722 26.9551 6.22291 26.7207 6.30229C26.4855 6.38267 26.1822 6.34323 25.8118 6.18597ZM25.8602 3.0342L24.3912 6.498L25.1113 6.80429L25.2709 6.87169C25.7209 7.06315 26.0637 7.17948 26.2996 7.22117C26.5238 7.26245 26.7539 7.26024 26.9773 7.21468C27.2555 7.15749 27.5137 7.0278 27.7257 6.83874C27.9406 6.64803 28.1131 6.39915 28.2429 6.09286C28.3725 5.78757 28.4316 5.49051 28.4194 5.20319C28.4076 4.91926 28.3215 4.64339 28.1698 4.40314C28.0438 4.20611 27.8807 4.03551 27.6895 3.9009C27.4883 3.75561 27.1181 3.56865 26.5809 3.34049L25.8602 3.0342ZM33.1066 7.67549L29.3919 9.0996L30.0474 9.88142L30.689 9.59835L31.6251 10.7144L31.2317 11.2938L31.8869 12.0751L33.9321 8.66026L33.1066 7.67549ZM32.0472 10.0784L31.3914 9.2968L32.5846 8.78806C32.6583 8.75511 32.7332 8.72067 32.8108 8.68272C32.8897 8.64528 32.9706 8.60584 33.0559 8.56265L32.8595 8.832C32.8078 8.90189 32.7721 8.95357 32.7511 8.98652L32.0472 10.0784ZM8.45233 10.7139C8.29107 10.7698 8.09412 10.7985 7.86372 10.8003L8.13656 11.6503C8.4104 11.6253 8.65153 11.5602 8.85997 11.4571C9.06741 11.3527 9.25762 11.2022 9.42962 11.004C9.71619 10.6745 9.85373 10.3315 9.84225 9.97404C9.83176 9.61732 9.67525 9.30804 9.3742 9.04593C9.26511 8.94867 9.14004 8.87098 9.00451 8.81627C8.88234 8.76725 8.75107 8.74503 8.61958 8.75112C8.43136 8.76161 8.15728 8.88742 7.79831 9.12955L7.75812 9.15576C7.59237 9.26735 7.46631 9.33075 7.37894 9.34448C7.29232 9.35846 7.21294 9.33475 7.14155 9.27259C7.07215 9.21243 7.03995 9.13305 7.04619 9.03644C7.05243 8.93959 7.09562 8.84448 7.17675 8.75112C7.25949 8.65769 7.35973 8.58137 7.4718 8.52646C7.59965 8.46473 7.73634 8.4233 7.87695 8.40364L7.53121 7.67723C7.34129 7.72679 7.16005 7.80507 6.99377 7.90938C6.82551 8.01698 6.67395 8.14868 6.54394 8.3003C6.29232 8.58986 6.17275 8.89965 6.18673 9.23015C6.19996 9.56141 6.343 9.84498 6.61409 10.0809C6.82328 10.2629 7.03795 10.3487 7.25812 10.3382C7.47829 10.327 7.74714 10.2154 8.06317 10.0025C8.29357 9.84698 8.45982 9.7626 8.56092 9.74937C8.66177 9.73614 8.75937 9.77084 8.85373 9.85322C8.89499 9.88763 8.9277 9.93116 8.94927 9.98037C8.97084 10.0296 8.98069 10.0831 8.97804 10.1368C8.97605 10.2511 8.92962 10.361 8.84 10.4643C8.7434 10.5754 8.61434 10.6585 8.45233 10.7139ZM22.4451 38.8138C21.8205 37.7956 21.0806 37.0886 19.9531 36.5649C18.8253 36.8327 18.0851 37.5399 17.4598 38.5592C17.4284 37.4635 18.0866 36.7339 18.9389 36.1066C18.7653 36.1026 18.5918 36.0988 18.4184 36.0951C18.2999 36.0925 18.1815 36.09 18.0632 36.0874C17.3692 36.5095 16.6301 36.8984 15.5717 37.0602C14.2738 36.9041 13.2619 36.4626 12.5352 35.7369C13.145 35.3732 13.82 35.2691 14.6373 35.7369C15.531 36.0786 16.2087 36.0821 16.7392 35.8535C16.3026 35.718 15.8661 35.5821 15.4296 35.4463L15.4262 35.4453C15.0919 35.3412 14.7575 35.2372 14.4231 35.1333L13.2164 34.7833C12.7364 34.9516 12.2561 35.1201 11.7761 35.2893C11.5038 35.6003 11.2571 35.678 11.0365 35.5225C10.7639 35.4054 10.7252 35.1588 10.9196 34.7833C11.1535 34.6011 11.3867 34.5754 11.6206 34.7054C11.721 34.6707 11.8214 34.6359 11.9217 34.6011C12.1586 34.519 12.3955 34.4368 12.6326 34.355L11.7566 33.9855C10.6927 34.2319 9.66776 34.2194 8.60361 33.635C7.84774 33.0993 7.16002 32.464 6.55992 31.6692C7.20096 31.479 7.74914 31.5991 8.23391 31.9805C8.99077 32.801 9.95483 33.1211 10.7641 33.2653C10.3159 32.8824 9.83299 32.4846 9.35033 32.087L9.35025 32.087L9.35011 32.0869C8.87584 31.6962 8.40184 31.3058 7.96132 30.9298C7.67866 30.9672 7.396 31.0049 7.11325 31.0427C7.0067 31.0569 6.90015 31.0712 6.79357 31.0854C6.48204 31.163 6.22243 31.1368 6.01499 31.0075C5.5714 30.2656 5.99427 30.2082 6.54045 30.2484C6.60245 30.3036 6.65458 30.3687 6.70669 30.4338C6.75843 30.4984 6.81014 30.563 6.87145 30.6178C6.96215 30.5857 7.10612 30.5873 7.2502 30.5889C7.39481 30.5905 7.53953 30.5922 7.63057 30.5597C7.50344 30.4388 7.33415 30.2758 7.16401 30.1121L7.16382 30.1119C6.9869 29.9416 6.80906 29.7705 6.67675 29.6448C5.33651 29.3178 4.40266 28.4219 3.58214 27.3677L4.36072 27.173C4.29582 27.0045 4.15353 26.8615 3.93236 26.7451C3.89915 26.7278 3.86592 26.7105 3.83269 26.6932L3.83061 26.6921C3.70244 26.6254 3.57414 26.5586 3.44584 26.4915C3.31629 25.9468 3.52397 25.7391 4.06866 25.8689C4.17275 26.0764 4.2766 26.2841 4.38019 26.4915C4.54969 26.7124 4.673 26.7968 4.78908 26.8612L4.80855 25.9858C4.83929 26.0028 4.87003 26.0199 4.90077 26.037L5.00581 26.0953L5.00769 26.0964L5.00909 26.0971C5.17587 26.1897 5.34262 26.2823 5.50925 26.3752C5.59487 25.9526 5.40665 25.7127 5.17849 25.499C5.26312 24.9089 5.50326 24.7858 5.89866 25.1296C5.79831 25.5869 5.87944 25.8627 6.1418 25.9563C6.26811 25.8233 6.39467 25.6902 6.52148 25.5574C7.24464 26.6503 7.36172 27.9216 7.20271 29.2748L8.03995 30.2676L8.23441 29.1388L8.00076 28.8662C8.1046 28.0866 8.75313 28.0861 8.85723 28.6328C8.92313 28.7873 8.9426 28.9621 8.6433 29.2748L8.48753 30.6373C8.91901 30.9974 9.34555 31.3915 9.7721 31.7857C10.1986 32.1798 10.6252 32.574 11.0567 32.9341C11.0632 32.9015 11.0745 32.8351 11.0859 32.7686C11.0972 32.7021 11.1086 32.6357 11.1151 32.6031C11.1012 32.5795 11.0872 32.556 11.0733 32.5324C10.6841 31.8732 10.2988 31.2206 9.55817 30.8125C9.31729 30.2731 9.16826 29.7995 9.32452 29.3332C10.3737 30.0674 11.2334 30.9081 11.8158 31.9024L12.0689 33.2843C12.1332 33.3255 12.1976 33.3666 12.2619 33.4078L12.3732 33.4791C12.5962 33.6218 12.8192 33.7645 13.0422 33.9069C13.0388 33.7675 12.9967 33.6282 12.9546 33.4888C12.9124 33.3493 12.8702 33.2098 12.867 33.0701C12.0959 32.0874 13.2307 31.6927 13.5092 32.5836C13.4116 33.1608 13.4119 33.6281 13.6261 34.1016C14.1925 34.325 14.7298 34.5484 15.2671 34.7718C15.8067 34.9961 16.3463 35.2204 16.9154 35.4448C16.9186 35.3961 16.8878 35.3038 16.857 35.2115C16.8261 35.1189 16.7952 35.0262 16.7986 34.9773C16.1495 34.3547 15.5717 34.1016 14.5602 33.9458C14.1256 33.5889 13.9503 33.2192 14.0347 32.7589C14.9638 32.9259 15.8882 33.182 16.6623 33.7124C17.3889 34.1598 17.862 34.7631 17.9663 35.5222C18.4074 35.5616 18.8486 35.6006 19.2898 35.6393L19.1522 35.489L19.1516 35.4883C18.9186 35.2339 18.6856 34.9795 18.4528 34.7244C18.3188 34.7596 18.1663 34.6642 18.0053 34.5107C17.8153 33.6583 18.2182 33.6717 18.7059 33.8095C18.8784 33.9778 18.9431 34.172 18.9007 34.3934L19.9528 35.5337C20.3822 35.3238 20.6937 34.9868 21.0048 34.649C20.9925 34.4313 21.0499 34.2299 21.1997 34.0651C21.6872 33.9276 22.0906 33.9139 21.9004 34.7661C21.7511 34.8372 21.6021 34.9084 21.4528 34.98C21.1732 35.2851 20.8944 35.5896 20.6156 35.8949L20.6693 35.8901C21.0927 35.8525 21.5159 35.8149 21.9394 35.7778C22.0437 35.0187 22.5167 34.4154 23.2431 33.9675C24.0172 33.4376 24.9416 33.1815 25.871 33.0142C25.9553 33.4748 25.7798 33.8445 25.3455 34.2014C24.3338 34.3575 23.7561 34.6101 23.1071 35.2329C23.1102 35.2817 23.0794 35.3741 23.0486 35.4665L23.0486 35.4665L23.0485 35.4666C23.0177 35.559 22.9869 35.6514 22.99 35.7002C23.5549 35.4775 24.0909 35.2548 24.6266 35.032C25.1679 34.8071 25.7089 34.5821 26.2796 34.3575C26.4938 33.8837 26.4943 33.4164 26.3962 32.8387C26.675 31.9481 27.8095 32.3425 27.0387 33.3258C27.0356 33.465 26.9934 33.6045 26.9512 33.7439C26.909 33.8835 26.8668 34.023 26.8637 34.1625C27.1877 33.9546 27.512 33.7474 27.8368 33.5399C27.8964 33.2123 27.9565 32.8846 28.0167 32.5571L28.0454 32.4004L28.0723 32.254L28.0899 32.158C28.672 31.1632 29.532 30.323 30.5811 29.5889C30.7372 30.0552 30.5879 30.5287 30.3475 31.0681C29.6054 31.4771 29.2198 32.1307 28.8301 32.7913L28.8285 32.794C28.8158 32.8156 28.8031 32.8371 28.7903 32.8587C28.7967 32.8904 28.8077 32.9549 28.8188 33.02C28.8303 33.0879 28.842 33.1565 28.8487 33.1897C29.2786 32.8304 29.7037 32.4377 30.1289 32.0449L30.1289 32.0449L30.129 32.0448C30.5569 31.6496 30.9848 31.2542 31.4176 30.8929L31.4097 30.8231C31.3607 30.3922 31.3116 29.9612 31.2621 29.5304C30.9628 29.2174 30.9823 29.0429 31.0482 28.8884C31.152 28.3412 31.8006 28.3417 31.9044 29.1216L31.6708 29.3944L31.8652 30.5232L32.7025 29.5304C32.5437 28.1772 32.6608 26.9056 33.3837 25.8128L33.7634 26.2119C34.0257 26.1183 34.1071 25.8425 34.0067 25.3847C34.4022 25.0414 34.642 25.1645 34.7269 25.7544C34.4988 25.9685 34.31 26.2084 34.3959 26.6305L35.0966 26.2409C35.0997 26.3864 35.103 26.5318 35.1063 26.6772L35.1064 26.681C35.1097 26.8263 35.113 26.9716 35.1161 27.1171C35.2327 27.0527 35.3555 26.968 35.5247 26.7471L35.8363 26.1243C36.3814 25.9948 36.5891 26.2019 36.4593 26.7471L35.9728 27.0007C35.7514 27.1173 35.6091 27.2599 35.5442 27.4286C35.8036 27.4933 36.0634 27.5582 36.3228 27.6233C35.5023 28.6775 34.5687 29.5729 33.2284 29.9004C33.094 30.0279 32.9125 30.2027 32.7327 30.3759L32.7327 30.3759L32.7323 30.3762C32.5653 30.5371 32.3997 30.6965 32.2748 30.8153C32.3655 30.8474 32.5096 30.8458 32.6538 30.8441C32.7983 30.8425 32.9429 30.8408 33.034 30.8732C33.0951 30.8182 33.1468 30.7536 33.1985 30.689C33.2505 30.624 33.3026 30.5589 33.3645 30.5035C33.9109 30.4638 34.3335 30.5207 33.8899 31.2631C33.6827 31.3924 33.4229 31.4186 33.1118 31.3407L31.9436 31.185C31.4991 31.5645 31.0206 31.9586 30.5421 32.3527C30.0635 32.7468 29.585 33.1409 29.1405 33.5205C29.9498 33.3764 30.9139 33.0564 31.671 32.2359C32.156 31.8545 32.7042 31.7344 33.3447 31.9246C32.7444 32.7189 32.0569 33.3545 31.3013 33.8902C30.2369 34.4745 29.2122 34.487 28.1478 34.2404L27.2721 34.6101L28.2843 34.9603C28.518 34.83 28.7514 34.856 28.985 35.0384C29.1795 35.4141 29.1405 35.6608 28.868 35.7778C28.6475 35.9333 28.4009 35.8555 28.1283 35.5439C27.648 35.3757 27.1683 35.2072 26.688 35.0384C26.2863 35.1548 25.8834 35.2716 25.4813 35.3887C24.8375 35.5886 24.1932 35.7891 23.5491 35.9895L23.5415 35.9919L23.1655 36.1088C23.696 36.3372 24.3737 36.334 25.2674 35.9918C26.0851 35.5245 26.7599 35.6283 27.3697 35.9918C26.6428 36.7179 25.6311 37.1595 24.3333 37.3155C23.2748 37.153 22.5357 36.7643 21.842 36.3427C21.6708 36.3463 21.4993 36.35 21.3278 36.3538L21.3247 36.3539C21.2051 36.3565 21.0855 36.3591 20.9658 36.3617C21.8185 36.989 22.4768 37.7187 22.4451 38.8138ZM30.014 26.6647C29.6343 25.7464 26.3877 23.4698 25.9653 25.7906L24.7966 25.5686C27.3108 20.2142 26.5489 10.1063 20.6635 9.11508C19.7666 8.96805 16.1111 9.93435 17.7826 11.1715C18.9111 12.0067 19.532 12.5387 20.1001 13.8352L19.6051 14.1233C18.6705 12.8912 17.5607 11.6198 16.2806 10.8974C14.9109 10.1652 11.7119 13.7746 12.1098 13.9411L12.1168 13.9444C13.3959 14.544 15.0459 15.3175 15.9868 15.9963L15.5799 16.6455C14.2811 15.8914 12.2062 14.8585 11.1625 14.9214C10.6273 14.9987 9.4708 18.7489 10.0542 18.8947C11.1473 18.9854 13.1054 19.9916 14.2351 20.5722C14.3517 20.6321 14.4596 20.6875 14.5567 20.7369C15.2838 21.3145 17.5055 25.0554 16.6096 25.5889C16.322 25.7604 15.4259 25.5624 14.5192 25.1123C10.3515 23.4191 10.0355 25.3023 10.8185 25.8812C11.3188 26.1931 11.2842 26.6953 11.2648 26.9762C11.2598 27.048 11.2559 27.1053 11.2621 27.1413C11.2292 28.1875 12.3497 29.0122 14.5112 27.5407C16.8424 27.5714 18.6448 27.6116 20.4756 27.6524C22.1253 27.6892 23.798 27.7265 25.9016 27.7579C26.3095 29.0599 29.1091 27.7429 30.014 26.6647ZM23.142 21.6972C23.6363 22.1912 23.6458 22.9888 23.162 23.4723C22.6787 23.9556 21.8817 23.9466 21.3869 23.4521C20.8927 22.9578 20.8837 22.1603 21.3675 21.6772C21.8505 21.1937 22.6475 21.2027 23.142 21.6972ZM20.1166 6.86545H20.1161H20.1151C16.466 6.8657 13.1535 8.35372 10.7534 10.7539C8.35296 13.1543 6.8647 16.467 6.86445 20.1163V20.1181C6.86495 23.7666 8.35296 27.0794 10.7531 29.4795C13.1533 31.8799 16.4663 33.3682 20.1156 33.3684H20.1171C23.7658 33.3682 27.0784 31.8799 29.4785 29.4798C31.8792 27.0796 33.3672 23.7666 33.3677 20.1173V20.1158C33.3672 16.467 31.8792 13.1545 29.479 10.7544C27.0789 8.35372 23.7661 6.86545 20.1166 6.86545ZM20.1151 7.34498H20.1166C23.6335 7.34498 26.8265 8.77958 29.14 11.0931C31.4536 13.4066 32.8874 16.5993 32.8879 20.1158V20.1176C32.8879 23.6343 31.4531 26.8273 29.1395 29.141C26.826 31.4546 23.6335 32.8889 20.1168 32.8892H20.1153C16.5986 32.8892 13.4056 31.4546 11.0919 29.1408C8.77833 26.8273 7.34398 23.6345 7.34398 20.1181V20.1163C7.34398 16.5993 8.77858 13.4064 11.0921 11.0929C13.4059 8.77958 16.5986 7.34523 20.1151 7.34498Z" fill="#F6F6F3"/>
</svg>
