<svg width="40" height="40" viewBox="0 0 40 40" fill="none" xmlns="http://www.w3.org/2000/svg">
<path fill-rule="evenodd" clip-rule="evenodd" d="M26.5989 12.5002C24.4438 10.9595 21.6965 10.1048 19.5448 10.1048C13.7041 10.1048 9.41013 14.3465 9.41013 19.7822C9.41013 25.1918 13.7041 29.4594 19.5448 29.4594C21.6965 29.4594 24.4438 28.5791 26.5989 27.0381V36.4449C24.4529 37.7871 21.837 38.5409 18.7763 38.5409C8.39421 38.5409 0 30.164 0 19.7822C0 9.40921 8.39421 1 18.7763 1C21.837 1 24.4529 1.78407 26.5989 3.11932V12.5002ZM40 19.7822C38.4068 15.186 32.4745 6.86189 28.3567 4.19347V35.3684C32.4745 32.6943 38.4068 24.3909 40 19.7822Z" fill="#F6F6F3"/>
</svg>
