<svg width="40" height="40" viewBox="0 0 40 40" fill="none" xmlns="http://www.w3.org/2000/svg">
<path fill-rule="evenodd" clip-rule="evenodd" d="M39.8842 16.6974C38.7374 12.4627 33.2575 10.3283 33.2575 10.3283C31.7954 9.79323 32.3793 10.6336 32.3793 10.6336C32.3793 10.6336 38.6849 13.5361 38.6849 17.5763C38.6849 22.5802 31.8138 24.0768 31.8138 24.0768C38.0632 22.0884 38.0812 17.8453 38.0812 17.8453C37.9714 13.6029 32.3793 10.6336 32.3793 10.6336C30.2232 9.41046 29.0536 9.10439 29.0536 9.10439C26.2396 8.1616 27.1526 9.25743 27.1526 9.25743C27.1526 9.25743 35.6422 11.9324 35.6422 17.8336C35.6422 23.861 23.809 25.7972 23.809 25.7972C34.9361 23.7325 34.9383 17.8835 34.9383 17.8835C34.9383 12.615 27.1526 9.25743 27.1526 9.25743C25.9834 8.6207 24.0002 8.10765 24.0002 8.10765C22.1631 7.71608 23.2053 8.51868 23.2053 8.51868C30.6618 12.8763 30.6618 17.6927 30.6618 17.6927C30.6618 23.0448 25.7548 24.3821 25.7548 24.3821C24.329 24.9366 21.5704 25.3803 21.5704 25.3803C21.1238 25.5124 20.8114 25.8196 20.8114 26.1796C20.8114 26.3249 20.8467 26.4688 20.9527 26.5829C21.2221 26.8707 22.1289 27.5452 22.1289 27.5452C22.4537 27.8509 22.6435 28.2293 22.6435 28.6388C22.6435 29.6436 21.4882 30.4591 20.0529 30.4778H19.9472C18.5123 30.4591 17.3559 29.644 17.3559 28.6388C17.3559 28.2293 17.5467 27.8509 17.8708 27.5452C17.8708 27.5452 18.7772 26.8707 19.0466 26.5829C19.1527 26.4688 19.189 26.3253 19.189 26.1796C19.189 25.8196 18.8759 25.5124 18.4297 25.3803C18.4297 25.3803 15.6707 24.937 14.2449 24.3821C14.2449 24.3821 9.33793 23.0452 9.33793 17.6927C9.33793 17.6927 9.33793 12.8759 16.7944 8.51868C16.7944 8.51868 17.8363 7.71608 15.9995 8.10765C15.9995 8.10765 14.0163 8.6207 12.8471 9.25743C12.8471 9.25743 5.06178 12.6146 5.06178 17.8835C5.06178 17.8835 5.06325 23.7325 16.1914 25.7972C16.1914 25.7972 4.3579 23.8614 4.3579 17.8336C4.3579 11.9324 12.8471 9.25743 12.8471 9.25743C12.8471 9.25743 13.7601 8.1616 10.9461 9.10439C10.9461 9.10439 9.77648 9.4101 7.62006 10.6336C7.62006 10.6336 2.02752 13.6029 1.91816 17.8453C1.91816 17.8453 1.93614 22.0884 8.18632 24.0768C8.18632 24.0768 1.31483 22.5798 1.31483 17.5763C1.31483 13.5361 7.62006 10.6336 7.62006 10.6336C7.62006 10.6336 8.20467 9.79287 6.74295 10.3283C6.74295 10.3283 1.26199 12.4631 0.115882 16.6974C0.115882 16.6974 -0.231656 18.2927 0.276989 19.4579C0.893529 20.8847 2.5013 23.2481 6.59616 24.5726C6.59616 24.5726 8.46046 25.3381 15.9173 26.8288L16.3566 26.929C16.3566 26.929 16.6773 27.0696 16.4476 27.3228L15.4204 28.2058C15.4204 28.2058 13.9139 29.3647 16.0641 30.3402C16.0641 30.3402 17.3761 30.7872 18.3009 31.7773C18.3009 31.7773 18.8958 32.3432 19.9032 32.3714V32.3755H19.9703C19.9732 32.3755 19.9758 32.3766 19.978 32.3766V32.3755H20.0213V32.3766L20.029 32.3755H20.0753V32.374C21.0959 32.352 21.6981 31.7773 21.6981 31.7773C22.6233 30.7872 23.9345 30.3402 23.9345 30.3402C26.0854 29.3647 24.5782 28.2058 24.5782 28.2058L23.5517 27.3228C23.3224 27.0696 23.6428 26.929 23.6428 26.929L24.0813 26.8288C31.5378 25.3381 33.4028 24.5726 33.4028 24.5726C37.4977 23.2481 39.1054 20.8851 39.7227 19.4579C40.2317 18.2927 39.8842 16.6974 39.8842 16.6974Z" fill="#F6F6F3"/>
</svg>
