<svg width="40" height="40" viewBox="0 0 40 40" fill="none" xmlns="http://www.w3.org/2000/svg">
<path d="M20.0006 7.5415C25.0063 7.5415 30.3729 8.60833 34.644 11.4426C37.4178 13.2985 40 16.1106 40 19.7756C40 24.0552 36.5046 27.1672 33.1561 28.9887C29.1717 31.1457 24.4633 31.9999 19.9994 31.9999C14.9949 31.9999 9.63888 30.9454 5.36656 28.1001C2.59278 26.2442 0 23.4321 0 19.7756C0 15.4764 3.48603 12.3754 6.84395 10.5527C10.8401 8.39693 15.5379 7.5415 20.0006 7.5415ZM19.9583 8.84186C15.304 8.84186 10.2877 9.75259 6.24923 12.2968C3.70934 13.8859 1.20119 16.3871 1.20119 19.7093C1.20119 23.6116 4.60142 26.3425 7.64082 27.9108C11.4031 29.8319 15.8023 30.5791 19.9583 30.5791C24.622 30.5791 29.6395 29.6659 33.6779 27.1218C36.2072 25.5215 38.7259 23.0327 38.7259 19.7105C38.7259 15.7996 35.3351 13.0649 32.2863 11.5102C28.5229 9.58544 24.1236 8.84186 19.9583 8.84186ZM2.3918 17.009L10.0538 15.6423L12.3598 10.4077L14.6564 15.6423L22.3172 17.009L14.6564 18.388L12.3598 23.6337L10.0538 18.388L2.3918 17.009ZM19.2354 20.9973L22.6145 20.3766L23.6241 18.0095L24.6337 20.3766L28.014 20.9973L24.6337 21.6082L23.6241 23.9766L22.6145 21.6082L19.2354 20.9973ZM26.2287 14.6861L29.6077 14.0752L30.6173 11.6982L31.627 14.0752L35.006 14.6861L31.627 15.308L30.6173 17.6764L29.6066 15.308L26.2287 14.6861ZM22.6145 25.889L25.983 25.2782L26.9926 22.8999L28.0128 25.2782L31.3919 25.889L28.0128 26.5109L26.9926 28.8793L25.983 26.5109L22.6145 25.889ZM12.2328 26.7444L15.6119 26.1336L16.6321 23.7529L17.6405 26.1336L21.0208 26.7444L17.6405 27.3664L16.6321 29.7348L15.6119 27.3664L12.2328 26.7444ZM29.2258 20.9002L32.5942 20.2771L33.6039 17.9099L34.624 20.2771L38.0031 20.9002L34.624 21.5111L33.6027 23.8758L32.5931 21.5098L29.2258 20.9002Z" fill="#F6F6F3"/>
</svg>
