<svg width="40" height="40" viewBox="0 0 40 40" fill="none" xmlns="http://www.w3.org/2000/svg">
<path fill-rule="evenodd" clip-rule="evenodd" d="M21.058 23.6778C21.0201 19.0949 21.1483 14.8207 21.1483 14.8207C21.1483 14.8207 21.0012 14.1771 21.4117 13.8623C21.832 13.5405 22.8089 13.548 22.8089 13.548C22.8089 13.548 26.5983 13.6546 30.8449 14.1993C33.9453 14.5979 37.2977 15.2372 38.8117 15.5396C36.0282 10.5591 28.657 7 20 7C11.309 7 3.91661 10.5877 1.15806 15.5975C2.48541 15.3303 6.09369 14.6266 9.41639 14.1998C13.6629 13.6551 17.4513 13.5486 17.4513 13.5486C17.4513 13.5486 18.4293 13.541 18.849 13.8628C19.2595 14.1776 19.1124 14.8213 19.1124 14.8213C19.1124 14.8213 19.2411 19.0954 19.2027 23.6784C19.1724 27.1909 19.0643 30.8749 18.9983 32.866C19.3298 32.8768 19.663 32.8827 19.9995 32.8827C20.4235 32.8827 20.8438 32.8714 21.2614 32.8541C21.1959 30.8593 21.0883 27.1834 21.058 23.6778ZM15.1817 26.0583C16.072 22.2764 16.7325 18.5848 16.7325 18.5848C16.7325 18.5848 17.0646 17.3673 16.4004 16.537C15.7362 15.7067 13.6883 15.9837 13.6883 15.9837C13.6883 15.9837 10.5074 16.0215 7.26525 16.412C4.37798 16.7604 1.43174 17.3332 0.34563 17.5533C0.118564 18.3293 0.00220599 19.1334 0 19.9419C0 25.6402 5.6945 30.4747 13.6002 32.2017C14.015 30.6937 14.6387 28.362 15.1817 26.0583ZM26.5729 15.9831C26.5729 15.9831 29.7544 16.021 32.9965 16.4115C35.6653 16.7333 38.3854 17.2472 39.6392 17.4976C39.8729 18.2895 40 19.1051 40 19.9414C40 25.5791 34.424 30.3746 26.6459 32.1471C26.2311 30.6375 25.6155 28.3344 25.0795 26.0578C24.1892 22.2758 23.5293 18.5843 23.5293 18.5843C23.5293 18.5843 23.1967 17.3667 23.8603 16.5365C24.5256 15.7067 26.5729 15.9831 26.5729 15.9831Z" fill="#F6F6F3"/>
</svg>
