<svg width="40" height="40" viewBox="0 0 40 40" fill="none" xmlns="http://www.w3.org/2000/svg">
<path d="M28.8943 9.2002C23.0852 7.59993 16.9158 7.59993 11.1067 9.2002C4.52362 11.2069 0 15.3742 0 20.19C0 26.9651 8.9543 32.4584 20.0012 32.4584C31.0481 32.4584 40 26.9651 40 20.19C40 15.3742 35.4767 11.2084 28.8943 9.2002ZM20.0012 27.1836C18.3527 27.1836 17.0064 24.1105 16.9274 20.249C17.9189 20.3334 18.947 20.3789 20.0012 20.3789C21.0554 20.3789 22.0819 20.3334 23.0731 20.249C22.9937 24.1105 21.6478 27.1836 20.0012 27.1836ZM17.1345 17.2257C17.5847 14.5152 18.697 12.5952 20.0004 12.5952C21.3038 12.5952 22.4155 14.5152 22.8644 17.2257C21.9487 17.304 20.9895 17.3475 20.0004 17.3475C19.0113 17.3475 18.0513 17.304 17.1345 17.2257ZM24.6162 17.0211C23.9473 12.7669 22.1335 9.71719 20.0004 9.71719C17.8673 9.71719 16.052 12.7669 15.3833 17.0211C11.3205 16.4197 8.4808 15.051 8.4808 13.4569C8.4808 11.3086 13.6384 9.56678 20.0004 9.56678C26.3624 9.56678 31.5187 11.3086 31.5187 13.4569C31.5187 15.051 28.679 16.4197 24.6162 17.0211ZM2.91829 19.7408C2.91829 17.6638 3.76121 15.7177 5.23228 14.0432C5.21509 14.1596 5.20624 14.2771 5.2058 14.3947C5.2058 17.006 9.34517 19.2279 15.1156 20.0442C15.1111 20.2415 15.1076 20.4391 15.1076 20.639C15.1076 25.4968 16.5286 29.6113 18.4933 31.03C9.76438 30.5238 2.91777 25.664 2.91777 19.7408M21.5059 31.03C23.4698 29.6113 24.8905 25.497 24.8905 20.639C24.8905 20.4381 24.8884 20.2415 24.8837 20.0442C30.653 19.2276 34.7926 17.006 34.7926 14.3947C34.7923 14.2771 34.7835 14.1596 34.7661 14.0432C36.2369 15.7177 37.0804 17.6638 37.0804 19.7408C37.0804 25.664 30.2335 30.5238 21.5062 31.03" fill="#F6F6F3"/>
</svg>
