<svg width="40" height="40" viewBox="0 0 40 40" fill="none" xmlns="http://www.w3.org/2000/svg">
<path fill-rule="evenodd" clip-rule="evenodd" d="M36.4577 8.6362L34.4261 10.6677C36.1672 13.3546 37.1803 16.5586 37.1803 20C37.1803 29.4881 29.4881 37.1803 20 37.1803C10.5119 37.1803 2.81969 29.4881 2.81969 20C2.81969 10.5119 10.5119 2.81969 20 2.81969C23.4485 2.81969 26.6596 3.83634 29.3518 5.58626L31.3833 3.55473C28.1527 1.3142 24.2295 0 20 0C8.95501 0 0 8.95324 0 20C0 31.0468 8.95324 40 20 40C31.0468 40 40 31.0468 40 20C39.9982 15.7775 38.6893 11.8633 36.4577 8.6362ZM12.0741 19.7698C12.0741 20.8007 12.9047 21.6207 14.5696 21.6207C16.2345 21.6207 17.0563 20.8007 17.0563 19.7698C17.0563 18.7532 16.1849 17.942 14.559 17.942C12.9366 17.942 12.0741 18.7532 12.0741 19.7698ZM15.4269 19.7787C15.4162 20.4145 15.1523 21.077 14.5431 21.0663C13.9497 21.0557 13.6894 20.4004 13.7 19.7486C13.7124 19.0738 14.0347 18.4857 14.5909 18.4946C15.147 18.5035 15.4393 19.1039 15.4269 19.7787ZM18.05 21.5143H22.9047V19.8937H22.3716C22.3716 20.5136 21.9182 20.9706 21.2257 20.9706H20.4782V18.5512H21.2841V18.0145H18.05V18.5512H18.8647L18.8665 20.9706H18.05V21.5143ZM25.2391 21.5162L27.1271 21.518L28.7301 18.553H29.5342V18.0164H27.1165V18.553H27.8161L26.6472 20.7121L25.464 18.553H26.3124V18.0164H22.8055L22.8037 18.553H23.6078L25.2391 21.5162ZM4.87602 18.0164H8.38293V18.553H7.53454L8.71768 20.7121L9.88488 18.553H9.18704V18.0164H11.6047V18.553H10.8006L9.19767 21.518L7.3096 21.5162L5.67836 18.553H4.87425L4.87602 18.0164ZM32.4938 21.6207C30.8289 21.6207 29.9982 20.8007 29.9982 19.7698C29.9982 18.7532 30.8608 17.942 32.4849 17.942C34.1091 17.942 34.9805 18.7532 34.9805 19.7698C34.9805 20.8007 34.1587 21.6207 32.4938 21.6207ZM33.351 19.7787C33.3634 19.1039 33.0694 18.5052 32.5151 18.4946C31.9589 18.484 31.6366 19.072 31.6242 19.7486C31.6135 20.4004 31.8739 21.0557 32.4672 21.0663C33.0765 21.077 33.3386 20.4145 33.351 19.7787ZM30.0602 1.34779V0.786334H39.2118V9.93972H38.6645C38.0074 8.74418 37.2316 7.60178 36.3585 6.54262L33.5122 9.38888C32.6674 8.31556 31.6968 7.34496 30.6217 6.50188L33.4715 3.65208C32.4141 2.78067 31.2734 2.00489 30.0602 1.34779Z" fill="#F6F6F3"/>
</svg>
