<svg width="40" height="40" viewBox="0 0 40 40" fill="none" xmlns="http://www.w3.org/2000/svg">
<path d="M20 38.16C10.04 38.16 1.88 29.96 1.88 20C1.88 17.76 2.28 15.64 3.04 13.64L13.64 34.96C13.76 35.24 13.96 35.48 14.28 35.48C14.6 35.48 14.8 35.24 14.92 34.96L19.8 24.04C19.84 23.92 19.92 23.8 20.04 23.8C20.16 23.8 20.2 23.92 20.28 24.04L25.16 34.96C25.28 35.24 25.48 35.48 25.8 35.48C26.12 35.48 26.32 35.24 26.44 34.96L37.04 13.64C37.8 15.64 38.2 17.76 38.2 20C38.12 29.96 29.96 38.16 20 38.16ZM20 15.88C19.88 15.88 19.84 15.76 19.76 15.64L14.08 2.84C15.92 2.16 17.92 1.8 20 1.8C22.08 1.8 24.08 2.16 25.92 2.84L20.24 15.64C20.16 15.8 20.12 15.88 20 15.88ZM14.2 29.04C14.08 29.04 14.04 28.92 13.96 28.8L4.76 10.24C6.4 7.72 8.6 5.6 11.28 4.12L17.92 18.88C18 19.12 18.2 19.2 18.4 19.2H21.6C21.84 19.2 22 19.16 22.12 18.88L28.76 4.12C31.4 5.6 33.64 7.72 35.28 10.24L26 28.8C25.96 28.92 25.88 29.04 25.76 29.04C25.64 29.04 25.6 28.92 25.52 28.8L22.04 20.88C21.92 20.6 21.76 20.56 21.52 20.56H18.32C18.08 20.56 17.92 20.6 17.8 20.88L14.44 28.8C14.4 28.92 14.32 29.04 14.2 29.04ZM20 40C31.08 40 40 31.08 40 20C40 8.92 31.08 0 20 0C8.92 0 0 8.92 0 20C0 31.08 8.92 40 20 40Z" fill="#F6F6F3"/>
</svg>
