<svg width="40" height="40" viewBox="0 0 40 40" fill="none" xmlns="http://www.w3.org/2000/svg">
<path fill-rule="evenodd" clip-rule="evenodd" d="M27.2726 11.5716C31.055 12.2223 35.5109 13.4648 38.2768 16.2648L38.2764 16.2657C39.2725 17.2858 40.0085 18.6377 39.9999 20.0935C39.999 21.5175 39.2906 22.829 38.3213 23.8333C35.5518 26.6491 31.0432 27.8571 27.2486 28.4838C20.0907 29.6397 7.63524 29.3061 2.04531 24.2263C0.884939 23.1526 0.00410954 21.7158 2.53201e-05 20.0931C-0.0054203 18.4675 0.868148 17.0213 2.02262 15.9362C7.64295 10.7588 20.0395 10.3576 27.2726 11.5716ZM25.7891 28.5011C29.8166 27.8417 34.6119 26.4014 37.5508 23.4684H37.5503C38.4252 22.5685 39.1372 21.3528 39.1164 20.0931C39.0692 16.5416 34.2484 14.1864 31.3246 13.1789C23.5079 10.5355 13.6549 10.7361 6.17309 14.3357C3.97487 15.4393 1.09505 17.3925 1.06328 20.0926C1.07327 22.8 3.95128 24.7885 6.14178 25.9149C12.1624 28.8873 19.2013 29.4777 25.7891 28.5011ZM25.5332 17.0299C25.5963 17.4451 25.6498 18.4131 24.8071 19.7073L24.8066 19.7078C26.2162 19.9891 27.3484 21.0111 27.711 22.3398C27.8185 22.7333 27.8231 23.1362 27.8231 23.536C27.8231 26.9113 23.1829 27.1647 21.5968 27.2513C21.5165 27.2557 21.4441 27.2597 21.3804 27.2636C17.6593 27.4927 14.5603 26.7998 12.4387 26.1123C12.3121 26.071 12.2404 25.9376 12.2749 25.8087C12.711 24.1832 13.2923 22.3947 14.0747 20.5015C15.3167 17.4946 16.7489 14.9905 18.0845 12.9888C18.1312 12.9189 18.2097 12.8772 18.2937 12.8776C22.3008 12.9039 25.2001 14.8385 25.5332 17.0299ZM15.8672 25.3798C17.741 25.6503 19.3796 24.3375 19.543 22.7478C19.6751 21.4654 18.8333 20.1403 17.4555 19.6166C17.1908 20.5769 16.9261 21.5373 16.6615 22.4977C16.3968 23.4585 16.132 24.4192 15.8672 25.3798ZM18.9756 15.8277C18.6353 16.5613 18.295 17.2948 17.9547 18.0283C20.0794 17.255 21.2048 15.7651 20.9498 14.7155C20.9044 14.5281 20.7429 14.0584 19.9968 13.6264C19.6564 14.3601 19.316 15.0939 18.9756 15.8277Z" fill="#F6F6F3"/>
</svg>
