<svg width="40" height="40" viewBox="0 0 40 40" fill="none" xmlns="http://www.w3.org/2000/svg">
<path fill-rule="evenodd" clip-rule="evenodd" d="M0 20.2845C0 15.7091 8.95412 12 19.9999 12C31.0457 12 40 15.7091 40 20.2845C40 24.86 31.0457 28.569 19.9999 28.569C8.95412 28.569 0 24.86 0 20.2845ZM0.814808 20.2862C0.814808 24.4372 9.40482 27.8022 20.0014 27.8022C30.598 27.8022 39.1878 24.4368 39.1878 20.286C39.1878 16.1352 30.5948 12.7739 19.9945 12.7739C20.0914 12.9598 20.4185 13.591 20.6441 14.1125C21.0666 15.0878 21.126 16.1141 20.9526 16.9368C20.7985 17.6691 20.3024 18.6952 19.4878 19.7326C18.6899 20.7491 17.8274 21.5551 16.8037 22.2748C15.6607 23.0784 15.1249 22.807 15.662 21.0179C15.8562 20.3712 16.4783 18.2223 17.0411 16.2788C17.5213 14.6201 17.9583 13.111 18.0489 12.8127C8.37279 13.199 0.814808 16.3957 0.814808 20.2862ZM27.4195 16.3979C27.7447 15.5057 27.7539 14.5248 27.7539 14.5248C32.9971 15.6155 36.5699 17.7815 36.5702 20.2754C36.5702 23.8661 29.1655 26.7768 20.0317 26.7768C10.8976 26.7768 3.49335 23.8661 3.49335 20.2754C3.49335 17.0944 9.15232 14.4873 16.8341 13.9245C16.8341 13.9245 14.8254 20.8927 14.4908 22.0192C14.156 23.1459 14.2043 23.9801 15.3276 24.1891C16.1959 24.3509 17.694 23.9727 18.2987 23.7719C18.9264 23.5632 20.5496 22.7884 21.554 22.2043C22.5585 21.6201 24.1368 20.4875 25.4857 19.2015C26.4307 18.301 27.1097 17.2472 27.4195 16.3979ZM23.8139 23.5457C24.2642 23.5305 25.2864 23.5359 25.2864 23.5359L25.2879 22.6428C25.2879 22.6428 22.6087 22.6383 21.981 22.6454C21.4946 22.6509 21.0775 22.7558 20.9768 23.1462C20.9215 23.3591 21.0473 23.4327 21.2862 23.5724C21.3771 23.6256 21.4845 23.6883 21.6045 23.7721C21.8955 23.975 21.8927 24.3485 21.4788 24.6067C20.99 24.9114 19.8256 25.203 18.6102 25.1917C17.1037 25.1778 16.1546 25.1312 15.1923 25.006C14.2297 24.8809 13.6796 24.7461 13.6796 24.7461L13.5009 25.4251C13.5009 25.4251 15.0129 25.675 15.7313 25.7505C16.5262 25.8338 17.8244 25.9609 18.6196 25.9609C19.4147 25.9609 20.8414 25.96 21.5108 25.9185C22.1807 25.8765 23.3951 25.7667 23.8482 25.6844C24.3083 25.601 24.7331 25.3552 24.7848 25.1488C24.8423 24.9175 24.8423 24.5572 24.4348 24.3238C23.7132 23.9111 23.3876 23.56 23.8139 23.5457Z" fill="#F6F6F3"/>
</svg>
