<svg width="40" height="40" viewBox="0 0 40 40" fill="none" xmlns="http://www.w3.org/2000/svg">
<path d="M39.9839 37.0163C39.6539 36.0436 39.3154 35.0708 38.9726 34.1023C38.934 33.9781 38.8526 33.8581 38.7283 33.8195C38.4455 33.7424 38.1541 33.6995 37.8755 33.6181C37.9184 33.3824 38.0298 33.1639 38.0812 32.9325C38.1155 32.7911 38.0255 32.6582 37.9184 32.5854C37.4556 32.234 37.0699 31.7883 36.7142 31.3298C35.84 30.1728 35.3215 28.7672 35.043 27.3359C34.9444 26.8046 34.8544 26.2689 34.8373 25.729C34.8373 25.5661 34.713 25.4333 34.563 25.399C34.0617 25.2662 33.616 24.9705 33.2132 24.6448C32.7632 24.2806 32.4504 23.7663 32.2533 23.2178C32.0133 22.5579 31.9019 21.8551 31.9062 21.1523C32.1933 21.0752 32.4761 20.9895 32.7675 20.9338C32.8918 20.9123 33.0161 20.8224 33.0332 20.6852C33.0718 20.3767 32.8661 20.1239 32.7118 19.8796C32.3133 19.2797 31.6919 18.9068 31.1134 18.5169C30.2778 17.9598 29.4122 17.4542 28.5208 16.9999C28.2466 16.8628 27.968 16.6999 27.6552 16.6742C27.3338 16.6442 27.0081 16.6485 26.6825 16.6657C25.3283 16.6871 23.9742 16.7342 22.62 16.7214C22.0887 16.7342 21.5616 16.7299 21.0302 16.7299C20.3103 16.7642 19.5904 16.7299 18.8704 16.7299C17.7349 16.7171 16.5993 16.6785 15.4637 16.6571C16.0122 15.6158 16.5307 14.5573 17.0321 13.4903C17.332 12.8946 17.5849 12.2733 17.8377 11.6562C18.0048 11.2534 18.0348 10.8077 18.0091 10.3792C18.5491 10.5163 19.1404 10.512 19.6589 10.2849C20.0232 10.1307 20.3446 9.87783 20.5888 9.56072C20.6874 9.43216 20.8202 9.29075 20.7817 9.11505C20.7688 9.00364 20.6831 8.93079 20.5931 8.88793C20.0917 8.64796 19.5818 8.39942 19.0247 8.35228C19.3718 8.33085 19.7189 8.38227 20.066 8.35228C20.8202 8.33085 21.5702 8.25372 22.3201 8.16801C23.2028 8.07802 24.077 7.90661 24.9341 7.65378C26.6439 7.14384 28.3109 6.42391 29.7678 5.36117C30.4321 4.87694 31.0406 4.31557 31.5891 3.69421C31.6919 3.57422 31.829 3.44567 31.8033 3.26997C31.8119 3.1457 31.7133 3.06856 31.6319 3H28.6408C28.418 3.00857 28.2337 3.15427 28.1094 3.32996C27.5181 4.12274 26.8196 4.83409 26.0268 5.4126C25.4354 5.84541 24.7412 6.20537 23.9956 6.1668C23.5757 6.1668 23.1643 6.00396 22.83 5.74685C22.6586 5.59686 22.4015 5.60543 22.2172 5.71256C22.0544 5.81112 21.9173 5.94825 21.7587 6.05967C21.1588 6.47105 20.456 6.76245 19.7232 6.74531C19.2904 6.74531 18.8319 6.61247 18.5405 6.26108C18.3948 6.08967 18.142 6.06824 17.9405 6.13252C17.6406 6.26536 17.3492 6.43249 17.0278 6.50105C16.2522 6.69389 15.4294 6.5739 14.6923 6.27822C14.1181 6.05967 13.6039 5.70828 13.0725 5.40831C12.9568 5.33118 12.824 5.40831 12.7254 5.47259C12.5411 5.60115 12.3526 5.72542 12.1855 5.8754C12.0483 5.9911 12.0526 6.23965 12.1897 6.35535C12.7511 6.84387 13.4068 7.18669 14.0581 7.52522C14.2424 7.61521 14.3795 7.76948 14.4952 7.93232C14.221 7.90661 13.9381 7.93232 13.6724 8.00946C13.1239 8.15944 12.6397 8.48512 12.0912 8.63082C11.8298 8.69938 11.5598 8.72509 11.2941 8.76366C10.7156 8.82794 10.1371 8.90936 9.56717 9.02506C9.36576 9.06363 9.1515 9.13648 9.03151 9.32503C8.88153 9.55215 8.92009 9.84783 8.98009 10.1007C9.05294 10.4049 9.11722 10.7177 9.22006 11.0134C9.2672 11.1677 9.4129 11.2748 9.56717 11.2962C10.4542 11.4119 11.3498 11.5105 12.2197 11.7333C10.8485 12.8861 9.42147 13.9745 8.09304 15.183C7.64737 15.5858 7.21885 16.0143 6.85889 16.5028C6.47322 17.0213 6.16039 17.5998 5.87757 18.1826C5.65902 18.6669 5.39762 19.1254 5.22192 19.6311C5.12765 19.8925 5.1705 20.2139 5.37619 20.411C5.869 20.9166 6.43893 21.3323 6.96173 21.8037C5.65473 21.9708 4.34773 22.1251 3.0493 22.3393C2.83932 22.3693 2.59935 22.4465 2.49222 22.6564C2.32938 22.965 2.2351 23.3035 2.12797 23.6378C2.04227 23.9035 1.91371 24.2248 2.10655 24.4777C3.2807 25.9647 4.56199 27.3574 5.92899 28.6558C5.44047 29.4143 4.92196 30.1513 4.42915 30.9055C3.73066 31.9811 2.93788 32.9967 2.0337 33.9009C1.27521 34.5823 0.782404 35.5079 0.246747 36.3735C0.156757 36.5578 -0.0232235 36.7249 0.00248799 36.9478C0.00248799 37.1063 0.161042 37.2263 0.306741 37.2177H2.52222C2.68934 37.2306 2.8179 37.0892 2.86504 36.9349C3.06216 36.3907 3.30213 35.8636 3.50782 35.3236C3.58496 35.1437 3.65781 34.9423 3.82065 34.8266C4.0092 34.7451 4.21917 34.7708 4.4163 34.7537C4.53628 34.7451 4.6477 34.6551 4.6777 34.5309C4.76769 34.2095 4.86196 33.8924 5.00766 33.5924C5.35048 32.8811 5.77472 32.2168 6.2461 31.5912C6.63177 31.0555 7.05172 30.5456 7.51453 30.0785C8.09733 30.5284 8.80439 30.7813 9.5286 30.8284C10.2057 30.8884 10.8827 30.8798 11.5598 30.9055C11.7226 30.8927 11.8983 30.9355 12.0526 30.8627C12.2112 30.7684 12.2369 30.537 12.1426 30.387C11.8426 29.9285 11.487 29.5128 11.1613 29.0715C11.0027 28.8529 10.797 28.6172 10.5056 28.6429C9.99141 28.6772 9.47289 28.7115 8.95866 28.7501C8.94152 28.6986 8.92866 28.6472 8.91152 28.5958C9.22006 28.2787 9.5286 27.9659 9.82857 27.6402C10.4242 27.0531 10.9856 26.4317 11.5512 25.819C11.8084 26.0161 12.0569 26.2261 12.2969 26.4446C12.4811 26.616 12.7168 26.7531 12.9739 26.7489C13.2868 26.7574 13.5696 26.6117 13.8524 26.5003C14.7309 26.1489 15.6308 25.8447 16.5478 25.6218C18.5405 25.1162 20.5888 24.7991 22.6415 24.7734C23.1428 25.4076 23.7042 25.9947 24.3084 26.5303C24.3684 26.5903 24.4584 26.6546 24.4456 26.7531C24.407 27.066 24.2313 27.3359 24.0642 27.5931C23.4857 28.4544 22.8257 29.2557 22.1701 30.0571C21.6087 30.7384 21.0516 31.4283 20.4817 32.1011C19.9675 32.7268 19.3847 33.3181 19.029 34.0638C18.6005 34.9423 18.2919 35.8764 18.0091 36.8149C17.9277 36.9949 18.0605 37.2391 18.2619 37.2263C18.9133 37.2263 19.5604 37.2263 20.2117 37.2263C20.3617 37.2306 20.456 37.0935 20.5503 36.9906C20.6574 36.8578 20.7945 36.7506 20.8717 36.5964C20.9317 36.4335 20.8974 36.2578 20.9102 36.0907C20.9359 35.6193 20.9702 35.1437 21.0431 34.6766C21.0431 34.5909 21.1159 34.5352 21.1845 34.5052C21.3516 34.4409 21.5359 34.4494 21.7116 34.4366C21.8401 34.4366 21.9558 34.3252 21.9858 34.2009C22.4315 32.7482 23.34 31.4883 24.4156 30.4642C25.0798 29.8257 25.8254 29.2943 26.5839 28.7844C27.1667 28.3901 27.7752 28.0473 28.418 27.7687C28.538 27.713 28.6837 27.6788 28.7479 27.5502C28.8122 27.4474 28.7951 27.3231 28.7694 27.2074C28.6451 26.6503 28.568 26.0804 28.5808 25.5061C29.3864 25.9004 30.2006 26.2946 30.9334 26.8303C31.3405 27.1217 31.7219 27.4388 32.1076 27.7645C32.6647 28.223 33.1275 28.7972 33.5174 29.41C33.8388 29.9242 34.1131 30.4685 34.3959 31.0041C34.8759 31.9383 35.3772 32.8596 35.8315 33.8067C36.1486 34.4409 36.4443 35.1094 36.9371 35.6193C37.2927 35.9793 37.6656 36.3221 38.0512 36.6521C38.2569 36.8192 38.4412 37.0163 38.6683 37.1534C39.054 37.2049 39.4525 37.1706 39.8425 37.1792C39.9324 37.2006 40.0353 37.1192 39.9882 37.0206L39.9839 37.0163Z" fill="#F6F6F3"/>
</svg>
