<svg width="40" height="40" viewBox="0 0 40 40" fill="none" xmlns="http://www.w3.org/2000/svg">
<path fill-rule="evenodd" clip-rule="evenodd" d="M29.5142 9.37022C29.5142 9.37022 28.3625 13.0075 23.0159 16.7699C19.0948 19.3338 18.5852 19.5114 15.5876 20.5561L15.3294 20.6461C7.92288 22.6332 0.250081 22.3874 0.250081 22.3874C-0.248376 20.3662 0.152279 18.3746 0.152279 18.3746C0.152279 18.3746 5.59897 18.0263 11.7013 17.1022C22.1008 14.7032 25.012 9.46809 25.012 9.46809C25.012 9.46809 23.0295 8.57358 17.4758 8.88086C6.91229 9.75716 4.36077 16.4171 4.36077 16.4171H1.13097C1.13097 16.4171 5.55573 8 19.2376 8C26.6304 8 29.5142 9.37022 29.5142 9.37022ZM30.9254 10.0644C32.3298 10.5538 34.4056 11.3459 36.9071 13.6653C39.4085 15.9824 40.1095 18.3632 39.9866 20.835C39.866 23.3069 38.1863 25.4419 36.8137 26.7848C35.4413 28.1277 32.4209 30.0488 28.8814 31.3621C25.3421 32.6732 21.1313 33.315 14.5101 32.2157C7.88876 31.1163 4.25608 28.2188 2.7926 26.7234C1.32668 25.228 1.14464 24.3744 1.14464 24.3744C1.14464 24.3744 7.76584 24.6202 15.12 22.483C21.4854 20.6344 24.3307 18.0079 25.5736 16.8606C25.7662 16.6828 25.9204 16.5405 26.0432 16.4421H25.3421L26.1046 15.2517H31.1075C31.1075 15.2517 29.8874 19.1257 23.3573 23.1544C17.1322 26.9928 12.1544 27.5341 8.61094 27.9194C8.43734 27.9382 8.26719 27.9567 8.10048 27.9752C8.10048 27.9752 11.9449 31.3621 19.5425 31.3621C25.8588 31.3621 29.7964 28.7696 31.5354 27.5177C31.5354 27.5177 35.4708 24.7409 35.4708 20.225C35.4708 14.3686 30.1925 11.6213 30.1925 11.6213C30.1925 11.6213 30.5294 11.1023 30.9254 10.0644Z" fill="#F6F6F3"/>
</svg>
