<svg width="40" height="40" viewBox="0 0 40 40" fill="none" xmlns="http://www.w3.org/2000/svg">
<path fill-rule="evenodd" clip-rule="evenodd" d="M39.9678 13.2755C39.8642 12.9746 39.4545 12.9836 39.4653 13.0148L24.78 17.4359L24.7817 17.4328C22.9399 13.1856 16.1481 12.9625 14.0673 17.1204L0.543701 13.0394C0.166639 12.9258 0.058814 13.2906 0.058814 13.2906L0.0482588 13.2892C-0.0105253 13.4573 -0.0771039 13.6705 0.25514 13.8267C0.498883 13.9296 13.0176 19.2772 13.3161 19.4047C12.5446 27.9367 25.4446 28.4688 25.3822 19.9069C25.7281 19.7606 39.486 13.9387 39.7959 13.813C40.1099 13.6856 39.968 13.2755 39.968 13.2755H39.9678ZM15.2581 17.4728C17.0154 14.4465 22.0387 14.6428 23.556 17.7907L23.5783 17.7975L19.941 18.8925L15.2457 17.4757L15.2584 17.4726L15.2581 17.4728ZM16.6044 20.7952C16.5963 20.7963 16.3914 20.8741 15.9468 21.0591C15.5218 21.2369 15.6356 21.6128 15.6433 21.6364L15.6374 21.6385C15.6374 21.6385 15.69 21.8819 16.044 21.9072C16.398 21.9327 19.9808 22.2244 19.9808 22.2244C19.9827 22.2236 24.1215 20.4615 24.1207 20.4571C23.5759 26.6509 14.3417 26.134 14.5152 19.8938C14.516 19.9203 16.5924 20.7812 16.6044 20.7952Z" fill="#F6F6F3"/>
</svg>
