<svg width="671" height="71" viewBox="0 0 671 71" fill="none" xmlns="http://www.w3.org/2000/svg">
<path d="M42.375 31.75V43.9375H3.09375V31.75H42.375ZM29.0156 13.4688V63.1562H16.5938V13.4688H29.0156ZM59.0419 29.8281H65.4169C67.0731 29.8281 68.4325 29.4531 69.495 28.7031C70.5575 27.9219 71.3387 26.8281 71.8387 25.4219C72.3387 24.0156 72.5887 22.375 72.5887 20.5C72.5887 18.75 72.3544 17.2188 71.8856 15.9062C71.4169 14.5938 70.6981 13.5625 69.7294 12.8125C68.7606 12.0625 67.5419 11.6875 66.0731 11.6875C64.9481 11.6875 63.9012 12 62.9325 12.625C61.9637 13.25 61.1825 14.1406 60.5887 15.2969C60.0262 16.4219 59.745 17.7812 59.745 19.375H46.5262C46.5262 15.625 47.3856 12.3594 49.1044 9.57812C50.8231 6.79688 53.1356 4.625 56.0419 3.0625C58.9481 1.5 62.1669 0.71875 65.6981 0.71875C69.6669 0.71875 73.1512 1.46875 76.1512 2.96875C79.1512 4.4375 81.495 6.625 83.1825 9.53125C84.87 12.4062 85.7137 15.9687 85.7137 20.2188C85.7137 22.4062 85.2919 24.5156 84.4481 26.5469C83.6356 28.5781 82.4481 30.4062 80.8856 32.0312C79.3231 33.625 77.4169 34.8906 75.1669 35.8281C72.9481 36.7656 70.4169 37.2344 67.5731 37.2344H59.0419V29.8281ZM59.0419 40.4688V33.2969H67.5731C70.7606 33.2969 73.5419 33.7188 75.9169 34.5625C78.3231 35.375 80.3075 36.5625 81.87 38.125C83.4637 39.6875 84.6512 41.5469 85.4325 43.7031C86.2137 45.8594 86.6044 48.2344 86.6044 50.8281C86.6044 54.0156 86.0731 56.8594 85.0106 59.3594C83.9481 61.8594 82.4637 63.9688 80.5575 65.6875C78.6512 67.4062 76.4325 68.7188 73.9012 69.625C71.37 70.5 68.62 70.9375 65.6512 70.9375C63.1825 70.9375 60.7606 70.5469 58.3856 69.7656C56.0419 68.9844 53.9325 67.7812 52.0575 66.1562C50.1825 64.5312 48.6981 62.4844 47.6044 60.0156C46.5106 57.5469 45.9637 54.625 45.9637 51.25H59.0887C59.0887 52.9375 59.3856 54.4531 59.9794 55.7969C60.5731 57.1094 61.3856 58.1406 62.4169 58.8906C63.4794 59.6406 64.6669 60.0156 65.9794 60.0156C67.5106 60.0156 68.8387 59.625 69.9637 58.8438C71.0887 58.0625 71.9481 56.9688 72.5419 55.5625C73.1356 54.1562 73.4325 52.5156 73.4325 50.6406C73.4325 48.2344 73.12 46.2969 72.495 44.8281C71.87 43.3281 70.9637 42.2344 69.7762 41.5469C68.5887 40.8281 67.1512 40.4688 65.4637 40.4688H59.0419ZM132.287 51.25C132.287 55.5625 131.443 59.1875 129.756 62.125C128.099 65.0312 125.787 67.2344 122.818 68.7344C119.881 70.2031 116.537 70.9375 112.787 70.9375C109.037 70.9375 105.677 70.2031 102.709 68.7344C99.74 67.2344 97.3962 65.0312 95.6775 62.125C93.9587 59.1875 93.0994 55.5625 93.0994 51.25C93.0994 48.375 93.5837 45.7656 94.5525 43.4219C95.5212 41.0781 96.8806 39.0781 98.6306 37.4219C100.412 35.7344 102.49 34.4531 104.865 33.5781C107.271 32.6719 109.881 32.2188 112.693 32.2188C116.474 32.2188 119.834 33.0156 122.771 34.6094C125.74 36.1719 128.068 38.375 129.756 41.2188C131.443 44.0625 132.287 47.4062 132.287 51.25ZM119.115 50.3125C119.115 48.2812 118.849 46.5312 118.318 45.0625C117.818 43.5938 117.084 42.4688 116.115 41.6875C115.177 40.875 114.037 40.4688 112.693 40.4688C111.381 40.4688 110.24 40.875 109.271 41.6875C108.302 42.4688 107.552 43.5938 107.021 45.0625C106.521 46.5312 106.271 48.2812 106.271 50.3125C106.271 52.3125 106.521 54.0312 107.021 55.4688C107.552 56.9062 108.302 58.0312 109.271 58.8438C110.24 59.625 111.412 60.0156 112.787 60.0156C114.131 60.0156 115.271 59.625 116.209 58.8438C117.177 58.0312 117.896 56.9062 118.365 55.4688C118.865 54.0312 119.115 52.3125 119.115 50.3125ZM131.162 19.8906C131.162 23.3906 130.381 26.4688 128.818 29.125C127.256 31.7812 125.084 33.8594 122.302 35.3594C119.552 36.8594 116.381 37.6094 112.787 37.6094C109.162 37.6094 105.959 36.8594 103.177 35.3594C100.396 33.8594 98.2087 31.7812 96.615 29.125C95.0525 26.4375 94.2712 23.3594 94.2712 19.8906C94.2712 15.7656 95.0525 12.2813 96.615 9.4375C98.2087 6.59375 100.396 4.4375 103.177 2.96875C105.959 1.5 109.146 0.765625 112.74 0.765625C116.365 0.765625 119.552 1.5 122.302 2.96875C125.084 4.4375 127.256 6.59375 128.818 9.4375C130.381 12.2813 131.162 15.7656 131.162 19.8906ZM118.037 20.5469C118.037 18.7656 117.834 17.2188 117.427 15.9062C117.052 14.5938 116.474 13.5625 115.693 12.8125C114.912 12.0625 113.927 11.6875 112.74 11.6875C111.615 11.6875 110.646 12.0469 109.834 12.7656C109.052 13.4844 108.459 14.5 108.052 15.8125C107.646 17.125 107.443 18.7031 107.443 20.5469C107.443 22.3594 107.631 23.9375 108.006 25.2812C108.412 26.625 109.021 27.6719 109.834 28.4219C110.646 29.1719 111.631 29.5469 112.787 29.5469C113.974 29.5469 114.943 29.1719 115.693 28.4219C116.474 27.6406 117.052 26.5781 117.427 25.2344C117.834 23.8906 118.037 22.3281 118.037 20.5469ZM197.449 29.875V41.7344C197.449 46.8594 196.964 51.2656 195.996 54.9531C195.027 58.6406 193.667 61.6719 191.917 64.0469C190.167 66.3906 188.089 68.125 185.683 69.25C183.277 70.375 180.621 70.9375 177.714 70.9375C175.402 70.9375 173.23 70.5781 171.199 69.8594C169.167 69.1406 167.324 68.0469 165.667 66.5781C164.042 65.0781 162.636 63.1875 161.449 60.9062C160.292 58.5938 159.402 55.8594 158.777 52.7031C158.152 49.5156 157.839 45.8594 157.839 41.7344V29.875C157.839 24.75 158.324 20.3594 159.292 16.7031C160.292 13.0156 161.667 10 163.417 7.65625C165.167 5.3125 167.246 3.59375 169.652 2.5C172.089 1.375 174.761 0.8125 177.667 0.8125C179.949 0.8125 182.105 1.17188 184.136 1.89062C186.199 2.57813 188.027 3.65625 189.621 5.125C191.246 6.59375 192.636 8.48438 193.792 10.7969C194.98 13.0781 195.886 15.8125 196.511 19C197.136 22.1562 197.449 25.7812 197.449 29.875ZM184.277 43.5625V27.9531C184.277 25.5469 184.167 23.4375 183.949 21.625C183.761 19.8125 183.496 18.2813 183.152 17.0312C182.808 15.7812 182.355 14.7656 181.792 13.9844C181.23 13.2031 180.605 12.6406 179.917 12.2969C179.23 11.9219 178.464 11.7344 177.621 11.7344C176.621 11.7344 175.714 12.0156 174.902 12.5781C174.089 13.1406 173.386 14.0625 172.792 15.3438C172.199 16.5938 171.746 18.2656 171.433 20.3594C171.152 22.4219 171.011 24.9531 171.011 27.9531V43.5625C171.011 45.9688 171.105 48.0938 171.292 49.9375C171.511 51.7812 171.808 53.3594 172.183 54.6719C172.589 55.9531 173.042 56.9844 173.542 57.7656C174.074 58.5469 174.683 59.125 175.371 59.5C176.089 59.8438 176.871 60.0156 177.714 60.0156C178.714 60.0156 179.621 59.7344 180.433 59.1719C181.277 58.5781 181.98 57.6406 182.542 56.3594C183.105 55.0781 183.527 53.3906 183.808 51.2969C184.121 49.1719 184.277 46.5938 184.277 43.5625ZM233.381 1H235.116V12.1562H234.506C231.538 12.1562 228.944 12.6719 226.725 13.7031C224.538 14.7031 222.709 16.1719 221.241 18.1094C219.803 20.0156 218.725 22.3281 218.006 25.0469C217.288 27.7344 216.928 30.75 216.928 34.0938V45.5781C216.928 47.9531 217.084 50.0469 217.397 51.8594C217.741 53.6719 218.225 55.1875 218.85 56.4062C219.506 57.5938 220.256 58.4844 221.1 59.0781C221.975 59.6719 222.928 59.9688 223.959 59.9688C225.022 59.9688 225.991 59.6562 226.866 59.0312C227.741 58.4062 228.491 57.5469 229.116 56.4531C229.741 55.3281 230.209 54.0156 230.522 52.5156C230.866 51.0156 231.038 49.375 231.038 47.5938C231.038 45.7812 230.866 44.125 230.522 42.625C230.178 41.125 229.694 39.8281 229.069 38.7344C228.444 37.6094 227.678 36.75 226.772 36.1562C225.897 35.5312 224.913 35.2188 223.819 35.2188C222.225 35.2188 220.866 35.7031 219.741 36.6719C218.616 37.6094 217.756 38.8281 217.163 40.3281C216.569 41.7969 216.241 43.3438 216.178 44.9688L212.241 42.1562C212.366 39.7812 212.803 37.5469 213.553 35.4531C214.334 33.3281 215.397 31.4219 216.741 29.7344C218.084 28.0469 219.694 26.7344 221.569 25.7969C223.444 24.8281 225.553 24.3438 227.897 24.3438C230.616 24.3438 232.991 24.9531 235.022 26.1719C237.053 27.3906 238.741 29.0625 240.084 31.1875C241.459 33.3125 242.475 35.7812 243.131 38.5938C243.819 41.375 244.163 44.3438 244.163 47.5C244.163 50.8125 243.694 53.8906 242.756 56.7344C241.819 59.5781 240.491 62.0625 238.772 64.1875C237.053 66.3125 234.959 67.9688 232.491 69.1562C230.053 70.3438 227.303 70.9375 224.241 70.9375C221.116 70.9375 218.288 70.2812 215.756 68.9688C213.256 67.6562 211.1 65.7969 209.288 63.3906C207.506 60.9531 206.147 58.0781 205.209 54.7656C204.272 51.4531 203.803 47.7969 203.803 43.7969V38.5C203.803 33 204.444 27.9688 205.725 23.4062C207.006 18.8125 208.897 14.8437 211.397 11.5C213.928 8.15625 217.022 5.57813 220.678 3.76562C224.366 1.92188 228.6 1 233.381 1ZM289.189 1.75V9.25L267.626 70H253.751L275.408 12.6719H247.939V1.75H289.189ZM326.038 39.0625L315.538 36.4375L318.96 1.75H351.913V13H329.741L328.476 27.6719C329.194 27.1719 330.257 26.625 331.663 26.0312C333.101 25.4375 334.694 25.1406 336.444 25.1406C339.257 25.1406 341.757 25.6562 343.944 26.6875C346.132 27.7188 347.976 29.2188 349.476 31.1875C350.976 33.1562 352.116 35.5625 352.897 38.4062C353.679 41.25 354.069 44.4688 354.069 48.0625C354.069 51.0938 353.647 53.9844 352.804 56.7344C351.991 59.4844 350.757 61.9219 349.101 64.0469C347.444 66.1719 345.366 67.8594 342.866 69.1094C340.366 70.3281 337.444 70.9375 334.101 70.9375C331.569 70.9375 329.116 70.5 326.741 69.625C324.397 68.75 322.288 67.4531 320.413 65.7344C318.538 63.9844 317.038 61.8906 315.913 59.4531C314.788 56.9844 314.226 54.1719 314.226 51.0156H327.21C327.335 52.8594 327.694 54.4688 328.288 55.8438C328.913 57.1875 329.694 58.2188 330.632 58.9375C331.601 59.6562 332.726 60.0156 334.007 60.0156C335.257 60.0156 336.335 59.7031 337.241 59.0781C338.147 58.4219 338.866 57.5156 339.397 56.3594C339.929 55.2031 340.319 53.8594 340.569 52.3281C340.819 50.7656 340.944 49.0938 340.944 47.3125C340.944 45.5 340.772 43.8594 340.429 42.3906C340.116 40.9219 339.616 39.6719 338.929 38.6406C338.272 37.5781 337.429 36.7656 336.397 36.2031C335.366 35.6094 334.147 35.3125 332.741 35.3125C330.835 35.3125 329.397 35.7188 328.429 36.5312C327.491 37.3125 326.694 38.1562 326.038 39.0625ZM371.627 29.8281H378.002C379.658 29.8281 381.017 29.4531 382.08 28.7031C383.142 27.9219 383.924 26.8281 384.424 25.4219C384.924 24.0156 385.174 22.375 385.174 20.5C385.174 18.75 384.939 17.2188 384.471 15.9062C384.002 14.5938 383.283 13.5625 382.314 12.8125C381.346 12.0625 380.127 11.6875 378.658 11.6875C377.533 11.6875 376.486 12 375.517 12.625C374.549 13.25 373.767 14.1406 373.174 15.2969C372.611 16.4219 372.33 17.7812 372.33 19.375H359.111C359.111 15.625 359.971 12.3594 361.689 9.57812C363.408 6.79688 365.721 4.625 368.627 3.0625C371.533 1.5 374.752 0.71875 378.283 0.71875C382.252 0.71875 385.736 1.46875 388.736 2.96875C391.736 4.4375 394.08 6.625 395.767 9.53125C397.455 12.4062 398.299 15.9687 398.299 20.2188C398.299 22.4062 397.877 24.5156 397.033 26.5469C396.221 28.5781 395.033 30.4062 393.471 32.0312C391.908 33.625 390.002 34.8906 387.752 35.8281C385.533 36.7656 383.002 37.2344 380.158 37.2344H371.627V29.8281ZM371.627 40.4688V33.2969H380.158C383.346 33.2969 386.127 33.7188 388.502 34.5625C390.908 35.375 392.892 36.5625 394.455 38.125C396.049 39.6875 397.236 41.5469 398.017 43.7031C398.799 45.8594 399.189 48.2344 399.189 50.8281C399.189 54.0156 398.658 56.8594 397.596 59.3594C396.533 61.8594 395.049 63.9688 393.142 65.6875C391.236 67.4062 389.017 68.7188 386.486 69.625C383.955 70.5 381.205 70.9375 378.236 70.9375C375.767 70.9375 373.346 70.5469 370.971 69.7656C368.627 68.9844 366.517 67.7812 364.642 66.1562C362.767 64.5312 361.283 62.4844 360.189 60.0156C359.096 57.5469 358.549 54.625 358.549 51.25H371.674C371.674 52.9375 371.971 54.4531 372.564 55.7969C373.158 57.1094 373.971 58.1406 375.002 58.8906C376.064 59.6406 377.252 60.0156 378.564 60.0156C380.096 60.0156 381.424 59.625 382.549 58.8438C383.674 58.0625 384.533 56.9688 385.127 55.5625C385.721 54.1562 386.017 52.5156 386.017 50.6406C386.017 48.2344 385.705 46.2969 385.08 44.8281C384.455 43.3281 383.549 42.2344 382.361 41.5469C381.174 40.8281 379.736 40.4688 378.049 40.4688H371.627ZM435.356 1H437.091V12.1562H436.481C433.513 12.1562 430.919 12.6719 428.7 13.7031C426.513 14.7031 424.684 16.1719 423.216 18.1094C421.778 20.0156 420.7 22.3281 419.981 25.0469C419.263 27.7344 418.903 30.75 418.903 34.0938V45.5781C418.903 47.9531 419.059 50.0469 419.372 51.8594C419.716 53.6719 420.2 55.1875 420.825 56.4062C421.481 57.5938 422.231 58.4844 423.075 59.0781C423.95 59.6719 424.903 59.9688 425.934 59.9688C426.997 59.9688 427.966 59.6562 428.841 59.0312C429.716 58.4062 430.466 57.5469 431.091 56.4531C431.716 55.3281 432.184 54.0156 432.497 52.5156C432.841 51.0156 433.013 49.375 433.013 47.5938C433.013 45.7812 432.841 44.125 432.497 42.625C432.153 41.125 431.669 39.8281 431.044 38.7344C430.419 37.6094 429.653 36.75 428.747 36.1562C427.872 35.5312 426.888 35.2188 425.794 35.2188C424.2 35.2188 422.841 35.7031 421.716 36.6719C420.591 37.6094 419.731 38.8281 419.138 40.3281C418.544 41.7969 418.216 43.3438 418.153 44.9688L414.216 42.1562C414.341 39.7812 414.778 37.5469 415.528 35.4531C416.309 33.3281 417.372 31.4219 418.716 29.7344C420.059 28.0469 421.669 26.7344 423.544 25.7969C425.419 24.8281 427.528 24.3438 429.872 24.3438C432.591 24.3438 434.966 24.9531 436.997 26.1719C439.028 27.3906 440.716 29.0625 442.059 31.1875C443.434 33.3125 444.45 35.7812 445.106 38.5938C445.794 41.375 446.138 44.3438 446.138 47.5C446.138 50.8125 445.669 53.8906 444.731 56.7344C443.794 59.5781 442.466 62.0625 440.747 64.1875C439.028 66.3125 436.934 67.9688 434.466 69.1562C432.028 70.3438 429.278 70.9375 426.216 70.9375C423.091 70.9375 420.263 70.2812 417.731 68.9688C415.231 67.6562 413.075 65.7969 411.263 63.3906C409.481 60.9531 408.122 58.0781 407.184 54.7656C406.247 51.4531 405.778 47.7969 405.778 43.7969V38.5C405.778 33 406.419 27.9688 407.7 23.4062C408.981 18.8125 410.872 14.8437 413.372 11.5C415.903 8.15625 418.997 5.57813 422.653 3.76562C426.341 1.92188 430.575 1 435.356 1ZM478.909 59.3594H479.565C482.565 59.3594 485.128 58.9219 487.253 58.0469C489.409 57.1719 491.159 55.8906 492.503 54.2031C493.878 52.4844 494.878 50.375 495.503 47.875C496.128 45.375 496.44 42.5312 496.44 39.3438V26.1719C496.44 23.7344 496.268 21.625 495.924 19.8438C495.581 18.0312 495.096 16.5312 494.471 15.3438C493.846 14.125 493.143 13.2188 492.362 12.625C491.581 12.0312 490.737 11.7344 489.831 11.7344C488.768 11.7344 487.831 12.0938 487.018 12.8125C486.206 13.5312 485.518 14.5156 484.956 15.7656C484.424 16.9844 484.018 18.375 483.737 19.9375C483.456 21.5 483.315 23.1094 483.315 24.7656C483.315 26.5156 483.456 28.1562 483.737 29.6875C484.018 31.2188 484.44 32.5781 485.003 33.7656C485.565 34.9531 486.284 35.875 487.159 36.5312C488.034 37.1875 489.081 37.5156 490.299 37.5156C491.299 37.5156 492.221 37.2344 493.065 36.6719C493.909 36.0781 494.643 35.2969 495.268 34.3281C495.893 33.3594 496.393 32.2969 496.768 31.1406C497.143 29.9844 497.346 28.7969 497.378 27.5781L501.643 30.25C501.643 32.375 501.253 34.4844 500.471 36.5781C499.721 38.6719 498.674 40.5781 497.331 42.2969C495.987 44.0156 494.424 45.3906 492.643 46.4219C490.893 47.4219 489.003 47.9219 486.971 47.9219C484.253 47.9219 481.846 47.3438 479.753 46.1875C477.659 45.0312 475.893 43.4219 474.456 41.3594C473.049 39.2656 471.987 36.8281 471.268 34.0469C470.549 31.2344 470.19 28.2031 470.19 24.9531C470.19 21.6406 470.643 18.5312 471.549 15.625C472.487 12.6875 473.815 10.1094 475.534 7.89062C477.253 5.67188 479.331 3.9375 481.768 2.6875C484.206 1.40625 486.924 0.765625 489.924 0.765625C492.893 0.765625 495.581 1.42188 497.987 2.73438C500.393 4.04688 502.456 5.9375 504.174 8.40625C505.893 10.8438 507.206 13.7813 508.112 17.2188C509.049 20.625 509.518 24.4375 509.518 28.6562V33.3906C509.518 37.8594 509.128 42.0156 508.346 45.8594C507.565 49.6719 506.378 53.1094 504.784 56.1719C503.19 59.2344 501.206 61.8594 498.831 64.0469C496.456 66.2031 493.674 67.8594 490.487 69.0156C487.331 70.1406 483.753 70.7031 479.753 70.7031H478.909V59.3594ZM545.966 1H547.701V12.1562H547.091C544.122 12.1562 541.529 12.6719 539.31 13.7031C537.122 14.7031 535.294 16.1719 533.826 18.1094C532.388 20.0156 531.31 22.3281 530.591 25.0469C529.872 27.7344 529.513 30.75 529.513 34.0938V45.5781C529.513 47.9531 529.669 50.0469 529.982 51.8594C530.326 53.6719 530.81 55.1875 531.435 56.4062C532.091 57.5938 532.841 58.4844 533.685 59.0781C534.56 59.6719 535.513 59.9688 536.544 59.9688C537.607 59.9688 538.576 59.6562 539.451 59.0312C540.326 58.4062 541.076 57.5469 541.701 56.4531C542.326 55.3281 542.794 54.0156 543.107 52.5156C543.451 51.0156 543.622 49.375 543.622 47.5938C543.622 45.7812 543.451 44.125 543.107 42.625C542.763 41.125 542.279 39.8281 541.654 38.7344C541.029 37.6094 540.263 36.75 539.357 36.1562C538.482 35.5312 537.497 35.2188 536.404 35.2188C534.81 35.2188 533.451 35.7031 532.326 36.6719C531.201 37.6094 530.341 38.8281 529.747 40.3281C529.154 41.7969 528.826 43.3438 528.763 44.9688L524.826 42.1562C524.951 39.7812 525.388 37.5469 526.138 35.4531C526.919 33.3281 527.982 31.4219 529.326 29.7344C530.669 28.0469 532.279 26.7344 534.154 25.7969C536.029 24.8281 538.138 24.3438 540.482 24.3438C543.201 24.3438 545.576 24.9531 547.607 26.1719C549.638 27.3906 551.326 29.0625 552.669 31.1875C554.044 33.3125 555.06 35.7812 555.716 38.5938C556.404 41.375 556.747 44.3438 556.747 47.5C556.747 50.8125 556.279 53.8906 555.341 56.7344C554.404 59.5781 553.076 62.0625 551.357 64.1875C549.638 66.3125 547.544 67.9688 545.076 69.1562C542.638 70.3438 539.888 70.9375 536.826 70.9375C533.701 70.9375 530.872 70.2812 528.341 68.9688C525.841 67.6562 523.685 65.7969 521.872 63.3906C520.091 60.9531 518.732 58.0781 517.794 54.7656C516.857 51.4531 516.388 47.7969 516.388 43.7969V38.5C516.388 33 517.029 27.9688 518.31 23.4062C519.591 18.8125 521.482 14.8437 523.982 11.5C526.513 8.15625 529.607 5.57813 533.263 3.76562C536.951 1.92188 541.185 1 545.966 1ZM589.519 59.3594H590.175C593.175 59.3594 595.737 58.9219 597.862 58.0469C600.019 57.1719 601.769 55.8906 603.112 54.2031C604.487 52.4844 605.487 50.375 606.112 47.875C606.737 45.375 607.05 42.5312 607.05 39.3438V26.1719C607.05 23.7344 606.878 21.625 606.534 19.8438C606.191 18.0312 605.706 16.5312 605.081 15.3438C604.456 14.125 603.753 13.2188 602.972 12.625C602.191 12.0312 601.347 11.7344 600.441 11.7344C599.378 11.7344 598.441 12.0938 597.628 12.8125C596.816 13.5312 596.128 14.5156 595.566 15.7656C595.034 16.9844 594.628 18.375 594.347 19.9375C594.066 21.5 593.925 23.1094 593.925 24.7656C593.925 26.5156 594.066 28.1562 594.347 29.6875C594.628 31.2188 595.05 32.5781 595.612 33.7656C596.175 34.9531 596.894 35.875 597.769 36.5312C598.644 37.1875 599.691 37.5156 600.909 37.5156C601.909 37.5156 602.831 37.2344 603.675 36.6719C604.519 36.0781 605.253 35.2969 605.878 34.3281C606.503 33.3594 607.003 32.2969 607.378 31.1406C607.753 29.9844 607.956 28.7969 607.987 27.5781L612.253 30.25C612.253 32.375 611.862 34.4844 611.081 36.5781C610.331 38.6719 609.284 40.5781 607.941 42.2969C606.597 44.0156 605.034 45.3906 603.253 46.4219C601.503 47.4219 599.612 47.9219 597.581 47.9219C594.862 47.9219 592.456 47.3438 590.362 46.1875C588.269 45.0312 586.503 43.4219 585.066 41.3594C583.659 39.2656 582.597 36.8281 581.878 34.0469C581.159 31.2344 580.8 28.2031 580.8 24.9531C580.8 21.6406 581.253 18.5312 582.159 15.625C583.097 12.6875 584.425 10.1094 586.144 7.89062C587.862 5.67188 589.941 3.9375 592.378 2.6875C594.816 1.40625 597.534 0.765625 600.534 0.765625C603.503 0.765625 606.191 1.42188 608.597 2.73438C611.003 4.04688 613.066 5.9375 614.784 8.40625C616.503 10.8438 617.816 13.7813 618.722 17.2188C619.659 20.625 620.128 24.4375 620.128 28.6562V33.3906C620.128 37.8594 619.737 42.0156 618.956 45.8594C618.175 49.6719 616.987 53.1094 615.394 56.1719C613.8 59.2344 611.816 61.8594 609.441 64.0469C607.066 66.2031 604.284 67.8594 601.097 69.0156C597.941 70.1406 594.362 70.7031 590.362 70.7031H589.519V59.3594ZM656.576 1H658.311V12.1562H657.701C654.732 12.1562 652.139 12.6719 649.92 13.7031C647.732 14.7031 645.904 16.1719 644.436 18.1094C642.998 20.0156 641.92 22.3281 641.201 25.0469C640.482 27.7344 640.123 30.75 640.123 34.0938V45.5781C640.123 47.9531 640.279 50.0469 640.592 51.8594C640.936 53.6719 641.42 55.1875 642.045 56.4062C642.701 57.5938 643.451 58.4844 644.295 59.0781C645.17 59.6719 646.123 59.9688 647.154 59.9688C648.217 59.9688 649.186 59.6562 650.061 59.0312C650.936 58.4062 651.686 57.5469 652.311 56.4531C652.936 55.3281 653.404 54.0156 653.717 52.5156C654.061 51.0156 654.232 49.375 654.232 47.5938C654.232 45.7812 654.061 44.125 653.717 42.625C653.373 41.125 652.889 39.8281 652.264 38.7344C651.639 37.6094 650.873 36.75 649.967 36.1562C649.092 35.5312 648.107 35.2188 647.014 35.2188C645.42 35.2188 644.061 35.7031 642.936 36.6719C641.811 37.6094 640.951 38.8281 640.357 40.3281C639.764 41.7969 639.436 43.3438 639.373 44.9688L635.436 42.1562C635.561 39.7812 635.998 37.5469 636.748 35.4531C637.529 33.3281 638.592 31.4219 639.936 29.7344C641.279 28.0469 642.889 26.7344 644.764 25.7969C646.639 24.8281 648.748 24.3438 651.092 24.3438C653.811 24.3438 656.186 24.9531 658.217 26.1719C660.248 27.3906 661.936 29.0625 663.279 31.1875C664.654 33.3125 665.67 35.7812 666.326 38.5938C667.014 41.375 667.357 44.3438 667.357 47.5C667.357 50.8125 666.889 53.8906 665.951 56.7344C665.014 59.5781 663.686 62.0625 661.967 64.1875C660.248 66.3125 658.154 67.9688 655.686 69.1562C653.248 70.3438 650.498 70.9375 647.436 70.9375C644.311 70.9375 641.482 70.2812 638.951 68.9688C636.451 67.6562 634.295 65.7969 632.482 63.3906C630.701 60.9531 629.342 58.0781 628.404 54.7656C627.467 51.4531 626.998 47.7969 626.998 43.7969V38.5C626.998 33 627.639 27.9688 628.92 23.4062C630.201 18.8125 632.092 14.8437 634.592 11.5C637.123 8.15625 640.217 5.57813 643.873 3.76562C647.561 1.92188 651.795 1 656.576 1Z" fill="white"/>
</svg>
