<svg aria-hidden="true" style="position: absolute; width: 0; height: 0; overflow: hidden;" version="1.1" xmlns="http://www.w3.org/2000/svg" xmlns:xlink="http://www.w3.org/1999/xlink">
<defs>
<symbol id="arrow-down" viewBox="0 0 32 32">
<path stroke-linejoin="miter" stroke-linecap="square" stroke-miterlimit="4" stroke-width="4" d="M25.334 12l-9.333 8-9.333-8"></path>
</symbol>
<symbol id="arrow-left" viewBox="0 0 32 32">
<path fill="none" stroke-linejoin="miter" stroke-linecap="square" stroke-miterlimit="4" stroke-width="3" d="M20 25.333l-8-9.333 8-9.333"></path>
</symbol>
<symbol id="arrow-right" viewBox="0 0 32 32">
<path fill="none" stroke-linejoin="miter" stroke-linecap="square" stroke-miterlimit="4" stroke-width="3" d="M12 6.667l8 9.333-8 9.333"></path>
</symbol>
<symbol id="arrow-up" viewBox="0 0 32 32">
<path fill="none" stroke-linejoin="miter" stroke-linecap="square" stroke-miterlimit="4" stroke-width="2" d="M6.667 20l9.333-8 9.333 8"></path>
</symbol>
<symbol id="cross-1" viewBox="0 0 32 32">
<path stroke-linejoin="miter" stroke-linecap="square" stroke-miterlimit="4" stroke-width="1.0435" d="M16.359 8.13v8.228M16.359 24.587v-8.228M16.359 16.358h8.229M16.359 16.358h-8.228"></path>
</symbol>
<symbol id="cross-2" viewBox="0 0 32 32">
<path fill="none"  stroke-linejoin="miter" stroke-linecap="square" stroke-miterlimit="4" stroke-width="1.5" d="M24.364 8.364l-8.364 8.364M7.636 25.092l8.364-8.364M16 16.728l8.364 8.364M16 16.728l-8.364-8.364"></path>
</symbol>
<symbol id="cross-3" viewBox="0 0 32 32">
<path fill="none" stroke-linejoin="miter" stroke-linecap="square" stroke-miterlimit="4" stroke-width="4" d="M16.344 8.458v7.886M16.344 24.229v-7.886M16.344 16.343h7.886M16.344 16.343h-7.886"></path>
</symbol>
<symbol id="cross-4" viewBox="0 0 32 32">
<path fill="none" stroke="#fff" style="stroke: var(--color1, #fff)" stroke-linejoin="miter" stroke-linecap="square" stroke-miterlimit="4" stroke-width="6" d="M24.364 8.364l-8.364 8.364M7.636 25.092l8.364-8.364M16 16.728l8.364 8.364M16 16.728l-8.364-8.364"></path>
</symbol>
<symbol id="logo" viewBox="0 0 249 40">
<path d="M26.6141 1.19847C22.7624 -0.217287 18.7975 -0.25993 14.8066 0.516178C10.8157 1.29229 7.74648 3.4074 5.56409 6.77622C3.90338 9.34335 2.92087 12.1834 2.33832 15.1343C1.85141 17.6417 1.48623 20.1747 1.19061 22.7078C0.860209 25.5649 0.894988 28.422 1.66013 31.2279C2.89479 35.7993 5.93796 38.4858 10.6071 39.5092C13.1112 40.0551 15.65 40.0465 18.1802 39.876C21.919 39.6286 25.3969 38.537 28.4835 36.3877C29.3095 35.8163 30.0225 35.2364 29.9095 34.1106C29.8834 33.8462 29.9964 33.5733 30.0312 33.3089C30.5703 29.2919 31.118 25.2749 31.6571 21.2579C31.8049 20.1577 31.9267 19.049 32.0745 17.8805H17.7716C17.4064 20.5671 17.0412 23.211 16.6673 25.9657H21.2842C21.2842 26.3239 21.3016 26.5286 21.2842 26.7248C21.1364 27.9444 20.9712 29.1554 20.8321 30.375C20.78 30.8185 20.5104 31.0232 20.1191 31.1597C18.3541 31.7567 16.563 32.0637 14.6936 31.7481C13.1981 31.4923 12.0939 30.7077 11.5635 29.3431C11.1983 28.4049 10.9635 27.3815 10.8853 26.3751C10.6418 23.3986 11.1461 20.4647 11.6157 17.5309C11.8939 15.7825 12.233 14.0341 12.9546 12.3966C13.259 11.7143 13.5981 11.032 14.0328 10.4265C15.4414 8.46489 17.5803 7.8423 20.3452 8.33696C21.6233 8.56724 22.5102 9.3604 22.7189 10.6226C22.9189 11.7911 22.9102 12.9851 22.971 14.1706C22.9971 14.6055 22.971 15.032 22.971 15.5266H32.3527C32.4136 15.3987 32.4918 15.3049 32.5005 15.2111C32.744 13.2495 33.0048 11.2964 32.7787 9.30923C32.3353 5.4031 30.3877 2.58864 26.5968 1.19847H26.6141Z" fill="white"/>
<path d="M241.374 24.6609C241.496 24.5926 241.618 24.5329 241.74 24.4732C244.505 23.1769 246.452 21.1129 247.504 18.307C248.739 15.0405 249.304 11.6632 248.817 8.18349C248.417 5.34344 246.93 3.25392 244.244 2.04285C242.418 1.21557 240.47 0.848836 238.479 0.82325C233.514 0.76355 228.55 0.772078 223.576 0.76355C223.307 0.76355 223.037 0.814722 222.681 0.840308C220.977 13.6418 219.272 26.4092 217.551 39.2875C220.829 39.279 223.968 39.3046 227.159 39.2705C227.758 34.8014 228.341 30.4604 228.932 26.0425C229.871 26.0766 230.723 25.889 231.584 26.1704C232.706 30.5456 233.819 34.8953 234.923 39.2108H245.27C243.879 34.3835 242.514 29.6331 241.148 24.8741C241.27 24.7462 241.314 24.6865 241.366 24.6523L241.374 24.6609ZM238.766 14.7761C238.383 16.5075 237.192 17.5991 235.384 17.7868C233.671 17.9659 231.932 17.9403 229.984 18.0085C230.419 14.8358 230.828 11.8849 231.254 8.84019C233.158 8.89137 234.958 8.66962 236.749 8.99371C238.105 9.24104 238.949 10.0854 239.001 11.4244C239.044 12.5331 239.001 13.6845 238.775 14.7676L238.766 14.7761Z" fill="white"/>
<path d="M119.371 32.6437C120.466 30.0766 120.744 27.3645 120.501 24.6268C120.266 22.0426 119.058 19.9445 116.762 18.5629C115.971 18.0853 115.119 17.6333 114.232 17.3859C112.467 16.8998 110.658 16.5672 108.876 16.1578C107.667 15.8764 106.441 15.6205 105.259 15.2452C104.416 14.9808 103.755 14.4094 103.477 13.5139C102.824 11.45 103.981 9.15576 106.068 8.482C107.276 8.08968 108.537 8.0641 109.772 8.31996C111.337 8.64404 112.25 9.6419 112.423 11.2026C112.502 11.9105 112.467 12.6269 112.476 13.3433C112.476 13.7357 112.476 14.128 112.476 14.5032H121.936C122.309 12.789 122.353 11.1174 122.231 9.45427C121.918 4.97672 119.536 2.00022 115.258 0.814731C111.111 -0.32811 106.937 -0.242823 102.816 0.908546C99.1813 1.92346 96.3381 3.98739 94.747 7.46709C93.7384 9.68454 93.4515 12.047 93.4515 14.4521C93.4515 18.1876 95.1904 20.8059 98.6857 22.2984C99.0683 22.4605 99.4596 22.5969 99.8508 22.7419C101.729 23.4072 103.694 23.646 105.642 23.953C106.841 24.1406 108.024 24.4135 109.111 24.985C109.911 25.4114 110.528 26.0084 110.667 26.921C110.954 28.7887 110.276 30.7845 108.076 31.4838C106.589 31.9614 105.068 32.0041 103.555 31.6288C102.303 31.3218 101.477 30.5286 101.199 29.2919C101.051 28.6693 101.025 28.0126 100.981 27.373C100.946 26.938 100.981 26.5031 100.981 26.0084H91.5473C91.4864 26.196 91.4082 26.3496 91.3995 26.5116C91.3038 27.9359 91.1473 29.3431 91.3125 30.7845C91.7734 34.7588 93.8514 37.4709 97.6684 38.8782C99.5378 39.569 101.485 39.8675 103.477 39.9272C106.268 40.0039 109.033 39.8845 111.719 39.0487C115.188 37.9741 117.927 36.0211 119.379 32.6352L119.371 32.6437Z" fill="white"/>
<path d="M146.515 0.7891C142.393 -0.319627 138.263 -0.217283 134.168 0.891444C131.646 1.57374 129.386 2.79334 127.743 4.84874C124.847 8.47343 124.282 12.6439 125.143 17.0362C125.499 18.8784 126.664 20.2942 128.264 21.3432C129.551 22.196 130.96 22.7589 132.455 23.1001C133.942 23.4327 135.455 23.663 136.95 23.9359C138.185 24.1576 139.402 24.422 140.515 25.019C141.289 25.4369 141.88 26.0254 141.985 26.8953C142.254 29.0957 141.515 31.0914 138.724 31.6714C137.628 31.9017 136.524 31.9273 135.411 31.7311C133.716 31.4411 132.707 30.5541 132.455 28.8911C132.316 27.9614 132.325 27.0147 132.273 25.9998H122.856C122.526 27.4582 122.534 28.8911 122.63 30.3153C122.9 34.5114 125.004 37.4112 129.047 38.8952C131.125 39.6542 133.281 39.9101 135.49 39.9442C138.22 39.9868 140.898 39.7736 143.497 38.9037C147.288 37.6244 149.966 35.2534 151.158 31.4326C151.723 29.633 151.879 27.7653 151.888 25.8804C151.914 21.9317 150.079 19.2025 146.375 17.6588C144.41 16.84 142.332 16.4477 140.237 16.1492C138.898 15.9531 137.559 15.7228 136.333 15.1258C135.655 14.8017 135.02 14.3667 134.855 13.6333C134.368 11.5182 134.872 9.18131 137.594 8.44784C138.602 8.17492 139.733 8.16639 140.785 8.26874C142.506 8.43078 143.445 9.38599 143.715 11.0917C143.845 11.919 143.793 12.7804 143.81 13.6333C143.81 13.8977 143.776 14.162 143.75 14.5032H153.279C153.583 12.7378 153.679 11.0235 153.549 9.28365C153.236 4.9852 150.758 1.94047 146.515 0.797628V0.7891Z" fill="white"/>
<path d="M88.7103 39.2619C87.2931 26.3666 85.8932 13.6162 84.4846 0.823242H71.3207C66.5038 13.6162 61.6956 26.3836 56.8613 39.2449H67.1559C68.0167 36.6607 68.8775 34.085 69.7209 31.5435H77.8244C78.0418 34.1533 78.2505 36.6863 78.4679 39.3046C81.9197 39.279 85.2672 39.3387 88.7016 39.2705L88.7103 39.2619ZM72.5554 23.2963C73.7727 19.484 75.0769 15.791 76.4768 12.1237C76.7376 15.8081 76.9984 19.4925 77.268 23.2963H72.5554Z" fill="white"/>
<path d="M198.127 0.806152C193.302 13.6418 188.485 26.3836 183.668 39.2363H193.954C194.815 36.6521 195.658 34.1021 196.501 31.5776H204.631C204.848 34.1788 205.057 36.7033 205.266 39.2278H215.5C214.091 26.3836 212.682 13.6077 211.283 0.806152H198.127ZM199.353 23.2024C200.605 19.4925 201.857 15.7995 203.101 12.1152C203.153 12.1152 203.214 12.1322 203.266 12.1407C203.527 15.8081 203.788 19.4754 204.049 23.1171C203.266 23.3901 200.623 23.4412 199.353 23.211V23.2024Z" fill="white"/>
<path d="M174.668 25.9571C174.303 27.0829 174.059 28.0807 173.668 29.0189C173.137 30.3152 172.181 31.2534 170.79 31.6457C169.816 31.9186 168.807 31.9357 167.799 31.7822C166.26 31.5434 165.26 30.6905 164.816 29.2748C164.573 28.5072 164.408 27.6799 164.373 26.8782C164.217 23.0744 164.886 19.3474 165.547 15.6204C165.834 13.9999 166.277 12.4306 167.095 10.9808C167.886 9.55648 169.042 8.55862 170.703 8.31982C171.59 8.19189 172.511 8.17483 173.398 8.29424C174.729 8.46481 175.589 9.24945 175.911 10.5543C176.172 11.6204 176.268 12.7036 176.137 13.7952C176.068 14.3581 176.059 14.921 176.024 15.518H185.554C185.806 13.4455 186.11 11.4498 185.91 9.38591C185.484 4.97659 183.006 1.9745 178.667 0.797539C175.259 -0.132085 171.807 -0.183257 168.347 0.464922C164.147 1.25809 160.973 3.50113 158.834 7.13434C157.756 8.97653 157 10.9467 156.435 12.9935C155.574 16.0894 155.148 19.2621 154.783 22.4518C154.478 25.1383 154.461 27.8163 154.974 30.4944C155.922 35.458 158.93 38.5113 163.921 39.5433C166.886 40.1488 169.868 40.1232 172.833 39.6371C175.928 39.1254 178.659 37.8546 180.702 35.4154C182.171 33.667 183.015 31.6287 183.545 29.4539C183.815 28.3366 184.049 27.2193 184.084 25.9571C180.867 25.9571 177.728 25.9486 174.668 25.9656V25.9571Z" fill="white"/>
<path d="M56.5846 39.1255C56.9237 36.5328 57.2628 33.9059 57.628 31.1341H43.7946C45.1336 20.9509 46.516 10.9297 47.8376 0.823242H38.2473C36.5344 13.6759 34.8389 26.4092 33.1348 39.1425C34.2564 39.3643 55.7412 39.3387 56.5846 39.1255Z" fill="white"/>
</symbol>
<symbol id="master" viewBox="0 0 51 32">
<path fill="#fff" style="fill: var(--color1, #fff)" d="M4.593 0h41.481c2.291 0 4.148 1.791 4.148 4v24c0 2.209-1.857 4-4.148 4h-41.481c-2.291 0-4.148-1.791-4.148-4v-24c0-2.209 1.857-4 4.148-4zM33.26 27.975c6.801-0.023 12.211-5.425 12.096-12.081-0.114-6.622-5.71-12.022-12.511-11.999-2.871 0.009-5.486 0.988-7.543 2.6l0.065 0.050-0.366 0.001c-2.106-1.58-4.739-2.53-7.592-2.52-6.801 0.022-12.211 5.425-12.096 12.081s5.71 12.022 12.511 11.999c2.871-0.010 5.486-0.988 7.543-2.6l-0.065-0.050 0.367-0.001c2.106 1.58 4.739 2.529 7.592 2.52z"></path>
</symbol>
<symbol id="menu" viewBox="0 0 32 32">
<path fill="none" stroke="#2a3489" style="stroke: var(--color3, #2a3489)" stroke-linejoin="miter" stroke-linecap="square" stroke-miterlimit="4" stroke-width="2" d="M24 10h-16"></path>
<path fill="none" stroke="#2a3489" style="stroke: var(--color3, #2a3489)" stroke-linejoin="miter" stroke-linecap="square" stroke-miterlimit="4" stroke-width="2" d="M24 16h-16"></path>
<path fill="none" stroke="#2a3489" style="stroke: var(--color3, #2a3489)" stroke-linejoin="miter" stroke-linecap="square" stroke-miterlimit="4" stroke-width="2" d="M24 22h-16"></path>
</symbol>
<symbol id="pay-1" viewBox="0 0 32 32">
<path fill="none" stroke-linejoin="miter" stroke-linecap="butt" stroke-miterlimit="4" stroke-width="1.3061" d="M26.449 6.857h3.265c0.361 0 0.653 0.292 0.653 0.653v20.245c0 0.361-0.292 0.653-0.653 0.653h-28.082c-0.361 0-0.653-0.292-0.653-0.653v-20.245c0-0.361 0.292-0.653 0.653-0.653h1.306M26.449 6.857v-5.041c0-0.425-0.399-0.737-0.811-0.634l-22.699 5.675M26.449 6.857h-23.51"></path>
</symbol>
<symbol id="pay-2" viewBox="0 0 32 32">
<path fill="none" stroke="#fff" style="stroke: var(--color1, #fff)" stroke-linejoin="miter" stroke-linecap="butt" stroke-miterlimit="4" stroke-width="1.3333" d="M8.417 1.333h15c2.071 0 3.75 1.679 3.75 3.75v22.5c0 2.071-1.679 3.75-3.75 3.75h-15c-2.071 0-3.75-1.679-3.75-3.75v-22.5c0-2.071 1.679-3.75 3.75-3.75z"></path>
<path fill="none" stroke="#fff" style="stroke: var(--color1, #fff)" stroke-linejoin="miter" stroke-linecap="round" stroke-miterlimit="4" stroke-width="1.3333" d="M9.333 9.333h13.167"></path>
<path fill="none" stroke="#fff" style="stroke: var(--color1, #fff)" stroke-linejoin="miter" stroke-linecap="round" stroke-miterlimit="4" stroke-width="1.3333" d="M9.333 14h13.167"></path>
<path fill="none" stroke="#fff" style="stroke: var(--color1, #fff)" stroke-linejoin="miter" stroke-linecap="round" stroke-miterlimit="4" stroke-width="1.3333" d="M9.333 18.667h13.167"></path>
<path fill="none" stroke="#fff" style="stroke: var(--color1, #fff)" stroke-linejoin="miter" stroke-linecap="round" stroke-miterlimit="4" stroke-width="1.3333" d="M9.333 23.333h6.583"></path>
</symbol>
<symbol id="truck-1" viewBox="0 0 32 32">
<path stroke-linejoin="miter" stroke-linecap="butt" stroke-miterlimit="4" stroke-width="1.3333" d="M3.171 23h-1.504c-0.368 0-0.667-0.298-0.667-0.667v-16.667c0-0.368 0.298-0.667 0.667-0.667h20.667c0.368 0 0.667 0.298 0.667 0.667v15.504M8.829 23h12.341M23 11h3.039c0.608 0 1.182 0.276 1.562 0.751l2.961 3.702c0.284 0.355 0.438 0.795 0.438 1.249v4.298c0 1.105-0.895 2-2 2h-2.171M9 24c0 1.657-1.343 3-3 3s-3-1.343-3-3c0-1.657 1.343-3 3-3s3 1.343 3 3zM27 24c0 1.657-1.343 3-3 3s-3-1.343-3-3c0-1.657 1.343-3 3-3s3 1.343 3 3z"></path>
</symbol>
<symbol id="truck-2" viewBox="0 0 32 32">
<path stroke-linejoin="miter" stroke-linecap="butt" stroke-miterlimit="4" stroke-width="1.3333" d="M15.519 1.492c0.192-0.1 0.421-0.1 0.613 0l2.469 1.279c0.065 0.034 0.135 0.056 0.207 0.067l2.749 0.417c0.214 0.032 0.399 0.167 0.496 0.36l1.246 2.486c0.033 0.065 0.076 0.125 0.128 0.176l1.979 1.953c0.154 0.152 0.225 0.37 0.19 0.583l-0.453 2.743c-0.012 0.072-0.012 0.145 0 0.217l0.453 2.743c0.035 0.214-0.035 0.431-0.19 0.583l-1.979 1.953c-0.052 0.051-0.095 0.111-0.128 0.176l-1.246 2.486c-0.097 0.194-0.282 0.328-0.496 0.36l-2.749 0.417c-0.072 0.011-0.142 0.034-0.207 0.067l-2.469 1.279c-0.192 0.1-0.421 0.1-0.613 0l-2.469-1.279c-0.065-0.034-0.135-0.056-0.207-0.067l-2.749-0.417c-0.214-0.032-0.399-0.167-0.496-0.36l-1.246-2.486c-0.033-0.065-0.076-0.125-0.128-0.176l-1.979-1.953c-0.154-0.152-0.225-0.37-0.189-0.583l0.453-2.743c0.012-0.072 0.012-0.145 0-0.217l-0.453-2.743c-0.035-0.214 0.035-0.431 0.189-0.583l1.979-1.953c0.052-0.051 0.095-0.111 0.128-0.176l1.246-2.486c0.097-0.194 0.282-0.328 0.496-0.36l2.749-0.417c0.072-0.011 0.142-0.034 0.207-0.067l2.469-1.279z"></path>
<path stroke-linejoin="miter" stroke-linecap="butt" stroke-miterlimit="4" stroke-width="1.3333" d="M9.705 23.54c-0.403-0.061-0.767 0.251-0.767 0.659v5.614c0 0.434 0.408 0.752 0.828 0.647l5.898-1.474c0.106-0.027 0.217-0.027 0.323 0l5.898 1.474c0.421 0.105 0.828-0.213 0.828-0.647v-5.614c0-0.408-0.363-0.72-0.767-0.659l-2.6 0.394c-0.072 0.011-0.142 0.034-0.207 0.067l-3.008 1.558c-0.192 0.1-0.421 0.1-0.613 0l-3.008-1.558c-0.065-0.034-0.135-0.056-0.207-0.067l-2.6-0.394z"></path>
</symbol>
<symbol id="truck-3" viewBox="0 0 32 32">
<path stroke-linejoin="round" stroke-linecap="round" stroke-miterlimit="4" stroke-width="1.3333" d="M15.067 5.282c-6.563 0.499-11.733 5.983-11.733 12.674 0 7.020 5.691 12.711 12.711 12.711s12.711-5.691 12.711-12.711c0-6.691-5.17-12.175-11.733-12.674M15.067 5.282c0.323-0.025 0.649-0.037 0.978-0.037s0.655 0.013 0.978 0.037M15.067 5.282v-3.948M15.067 1.333h1.956M15.067 1.333h1.956M15.067 1.333h-1.956M17.022 1.333v3.948M9.2 17.956h6.844l-0-6.649"></path>
</symbol>
<symbol id="visa" viewBox="0 0 51 32">
<path fill="#fff" style="fill: var(--color1, #fff)" d="M38.716 17.696c0.303-0.702 1.334-3.333 1.334-3.333 0 0.058 0.303-0.702 0.425-1.111l0.243 1.053c0 0 0.667 2.865 0.788 3.45h-2.79v-0.058z"></path>
<path fill="#fff" style="fill: var(--color1, #fff)" d="M4.148 0c-2.291 0-4.148 1.791-4.148 4v24c0 2.209 1.857 4 4.148 4h41.481c2.291 0 4.148-1.791 4.148-4v-24c0-2.209-1.857-4-4.148-4h-41.481zM33.743 18.047c0 2.456-2.305 4.093-5.883 4.093-1.516 0-2.972-0.292-3.76-0.643l0.485-2.69 0.425 0.175c1.092 0.468 1.819 0.643 3.154 0.643 0.97 0 2.001-0.351 2.001-1.17 0-0.526-0.425-0.877-1.759-1.462-1.273-0.585-2.972-1.521-2.972-3.216 0-2.339 2.365-3.918 5.701-3.918 1.274 0 2.365 0.234 3.032 0.526l-0.485 2.573-0.243-0.234c-0.606-0.234-1.395-0.468-2.547-0.468-1.274 0.058-1.88 0.585-1.88 1.053 0 0.526 0.728 0.936 1.88 1.462 1.941 0.877 2.85 1.871 2.85 3.275zM42.84 10.035h-2.608c-0.788 0-1.395 0.234-1.759 0.994l-4.973 10.936h3.517c0 0 0.606-1.462 0.728-1.813h4.306c0.121 0.409 0.424 1.754 0.424 1.754h3.154l-2.79-11.871zM4.209 9.918l-0.061 0.234c4.063 0.936 6.732 3.216 7.884 6.023l-1.152-5.263c-0.182-0.76-0.728-0.994-1.455-0.994h-5.216zM19.37 10.035l-5.276 11.871h-3.578l-3.032-9.942c2.183 1.345 4.003 3.45 4.67 4.912l0.364 1.228 3.275-8.129h3.578v0.058zM24.101 9.977h-3.335l-2.123 11.93h3.335l2.123-11.93z"></path>
</symbol>
<symbol id="info" viewBox="0 0 16 16">
<path d="M8 7V13" stroke-width="1.5" stroke-linecap="square"/>
<path d="M8 4V4.2" stroke-width="1.5" stroke-linecap="square"/>
</symbol>
<symbol id="location" viewBox="0 0 24 24">
<path d="M11.3326 20.3318C11.702 20.7139 12.298 20.7139 12.6674 20.3318C14.3715 18.5688 18.75 13.6588 18.75 9.75C18.75 7.95979 18.0388 6.2429 16.773 4.97703C15.5071 3.71116 13.7902 3 12 3C10.2098 3 8.4929 3.71116 7.22703 4.97703C5.96116 6.2429 5.25 7.95979 5.25 9.75C5.25 13.6588 9.62852 18.5688 11.3326 20.3318ZM12 13.125C11.1049 13.125 10.2464 12.7694 9.61351 12.1365C8.98058 11.5036 8.625 10.6451 8.625 9.75C8.625 8.85489 8.98058 7.99645 9.61351 7.36351C10.2464 6.73058 11.1049 6.375 12 6.375C12.8951 6.375 13.7536 6.73058 14.3865 7.36351C15.0194 7.99645 15.375 8.85489 15.375 9.75C15.375 10.6451 15.0194 11.5036 14.3865 12.1365C13.7536 12.7694 12.8951 13.125 12 13.125Z"/>
</symbol>
<symbol id="telegram" viewBox="0 0 25 24">
<path fill-rule="evenodd" clip-rule="evenodd" d="M4.73741 10.9217C9.56923 8.81657 12.7912 7.42873 14.4033 6.75819C19.0063 4.84367 19.9627 4.5111 20.5861 4.50012C20.7232 4.4977 21.0298 4.53168 21.2284 4.69282C21.3961 4.82888 21.4422 5.01268 21.4643 5.14168C21.4864 5.27068 21.5139 5.56455 21.492 5.79416C21.2426 8.41499 20.1633 14.7751 19.6142 17.7104C19.3818 18.9525 18.9244 19.369 18.4815 19.4097C17.5189 19.4983 16.788 18.7736 15.8558 18.1625C14.397 17.2063 13.5729 16.611 12.1569 15.6779C10.5205 14.5995 11.5813 14.0068 12.5139 13.0382C12.758 12.7847 16.9988 8.92728 17.0809 8.57735C17.0912 8.53359 17.1007 8.37046 17.0038 8.28432C16.9069 8.19818 16.7639 8.22763 16.6606 8.25106C16.5143 8.28427 14.1839 9.82459 9.66938 12.872C9.0079 13.3262 8.40875 13.5476 7.87193 13.536C7.28013 13.5232 6.14175 13.2013 5.29548 12.9263C4.25749 12.5888 3.43252 12.4105 3.50436 11.8374C3.54178 11.539 3.95279 11.2337 4.73741 10.9217Z"/>
</symbol>
<symbol id="phone" viewBox="0 0 25 24">
<path fill-rule="evenodd" clip-rule="evenodd" d="M5.62125 3.57397C5.81811 3.37741 6.05449 3.22493 6.31473 3.12664C6.57497 3.02834 6.85313 2.98648 7.13078 3.00382C7.40842 3.02116 7.67921 3.0973 7.9252 3.22721C8.17119 3.35712 8.38677 3.53783 8.55764 3.75735L10.5771 6.35172C10.9472 6.82762 11.0778 7.44752 10.9315 8.03255L10.3161 10.4964C10.2843 10.624 10.286 10.7577 10.3211 10.8845C10.3562 11.0112 10.4234 11.1267 10.5164 11.2198L13.2806 13.9841C13.3738 14.0772 13.4895 14.1446 13.6165 14.1796C13.7435 14.2147 13.8774 14.2164 14.0051 14.1843L16.4679 13.5689C16.7566 13.4967 17.0579 13.4911 17.3491 13.5525C17.6403 13.6139 17.9137 13.7407 18.1487 13.9233L20.7431 15.9417C21.6757 16.6673 21.7612 18.0455 20.9265 18.8792L19.7631 20.0425C18.9306 20.875 17.6863 21.2407 16.5264 20.8323C13.5576 19.7877 10.862 18.0881 8.63977 15.8595C6.41136 13.6376 4.71177 10.9424 3.66704 7.97404C3.25977 6.81524 3.62541 5.56981 4.45795 4.73727L5.62125 3.57397Z"/>
</symbol>
<symbol id="clock" viewBox="0 0 24 24">
<path d="M21 12C21 14.3869 20.0518 16.6761 18.364 18.364C16.6761 20.0518 14.3869 21 12 21C9.61305 21 7.32387 20.0518 5.63604 18.364C3.94821 16.6761 3 14.3869 3 12C3 9.61305 3.94821 7.32387 5.63604 5.63604C7.32387 3.94821 9.61305 3 12 3C14.3869 3 16.6761 3.94821 18.364 5.63604C20.0518 7.32387 21 9.61305 21 12ZM12 6.9375C12 6.78832 11.9407 6.64524 11.8352 6.53975C11.7298 6.43426 11.5867 6.375 11.4375 6.375C11.2883 6.375 11.1452 6.43426 11.0398 6.53975C10.9343 6.64524 10.875 6.78832 10.875 6.9375V13.125C10.875 13.2241 10.9013 13.3215 10.9511 13.4073C11.0008 13.493 11.0724 13.5641 11.1585 13.6132L15.096 15.8632C15.2252 15.9331 15.3766 15.9496 15.5179 15.9093C15.6591 15.869 15.779 15.775 15.8518 15.6475C15.9247 15.5199 15.9448 15.369 15.9078 15.2268C15.8709 15.0847 15.7798 14.9626 15.654 14.8868L12 12.7987V6.9375Z" />
</symbol>
<symbol id="suffix" viewBox="0 0 32 32">
<path opacity="0.4" d="M11.3258 17.8824L0 14.6606L2.1573 8.0724L13.3034 12.6335L12.6202 0H19.6674L18.9483 12.8869L29.8787 8.43439L32 15.0588L20.4944 18.3167L28.0449 27.9095L22.2921 32L15.7483 21.4661L9.24045 31.6742L3.5236 27.7285L11.3258 17.8824Z" fill="white"/>
</symbol>
<symbol id="facebook" viewBox="0 0 16 16">
<path id="Vector" d="M16 8.04889C16 3.60361 12.4183 0 8 0C3.58172 0 0 3.60361 0 8.04889C0 12.0663 2.92547 15.3962 6.75 16V10.3755H4.71875V8.04889H6.75V6.27562C6.75 4.25837 7.94438 3.1441 9.77172 3.1441C10.6467 3.1441 11.5625 3.3013 11.5625 3.3013V5.28208H10.5538C9.56 5.28208 9.25 5.90257 9.25 6.53972V8.04889H11.4688L11.1141 10.3755H9.25V16C13.0745 15.3962 16 12.0663 16 8.04889Z" />
</symbol>
<symbol id="linkedin" viewBox="0 0 16 16">
<path id="Vector" d="M13.9637 1H2.03359C1.46211 1 1 1.45117 1 2.00898V13.9883C1 14.5461 1.46211 15 2.03359 15H13.9637C14.5352 15 15 14.5461 15 13.991V2.00898C15 1.45117 14.5352 1 13.9637 1ZM5.15352 12.9301H3.07539V6.24726H5.15352V12.9301ZM4.11445 5.33672C3.44727 5.33672 2.90859 4.79805 2.90859 4.13359C2.90859 3.46914 3.44727 2.93047 4.11445 2.93047C4.77891 2.93047 5.31758 3.46914 5.31758 4.13359C5.31758 4.79531 4.77891 5.33672 4.11445 5.33672ZM12.9301 12.9301H10.8547V9.68164C10.8547 8.90781 10.841 7.90977 9.77461 7.90977C8.69453 7.90977 8.53047 8.75469 8.53047 9.62695V12.9301H6.45781V6.24726H8.44844V7.16055H8.47578C8.75195 6.63555 9.43008 6.08047 10.4391 6.08047C12.5418 6.08047 12.9301 7.46406 12.9301 9.26328V12.9301Z"/>
</symbol>
<symbol id="telegram" viewBox="0 0 16 16">
<path d="M16 1.49595L13.4691 14.4172C13.4691 14.4172 13.115 15.313 12.1422 14.8834L6.3028 10.3492L6.27572 10.3358C7.0645 9.61856 13.181 4.04925 13.4483 3.79681C13.8621 3.40583 13.6052 3.17307 13.1247 3.46841L4.08993 9.27892L0.604327 8.09122C0.604327 8.09122 0.0557956 7.89362 0.00302555 7.46397C-0.0504389 7.03361 0.62238 6.80086 0.62238 6.80086L14.8321 1.1556C14.8321 1.1556 16 0.635942 16 1.49595Z" fill="#C4C4C4"/>
</symbol>
<symbol id="whatssap" viewBox="0 0 16 16">
<path id="Vector" d="M13.6585 2.33333C12.1533 0.833333 10.1463 0 8.02787 0C3.62369 0 0.0557483 3.55556 0.0557483 7.94444C0.0557483 9.33333 0.445993 10.7222 1.11498 11.8889L0 16L4.23694 14.8889C5.40767 15.5 6.68989 15.8333 8.02787 15.8333C12.4321 15.8333 16 12.2778 16 7.88889C15.9443 5.83333 15.1638 3.83333 13.6585 2.33333ZM11.8746 10.7778C11.7073 11.2222 10.9268 11.6667 10.5366 11.7222C10.2021 11.7778 9.7561 11.7778 9.31011 11.6667C9.03136 11.5556 8.64112 11.4444 8.19512 11.2222C6.18815 10.3889 4.90592 8.38889 4.79443 8.22222C4.68293 8.11111 3.95819 7.16667 3.95819 6.16667C3.95819 5.16667 4.45993 4.72222 4.62718 4.5C4.79443 4.27778 5.01742 4.27778 5.18467 4.27778C5.29617 4.27778 5.46341 4.27778 5.57491 4.27778C5.68641 4.27778 5.85366 4.22222 6.02091 4.61111C6.18815 5 6.5784 6 6.63415 6.05556C6.68989 6.16667 6.68989 6.27778 6.63415 6.38889C6.5784 6.5 6.52265 6.61111 6.41115 6.72222C6.29965 6.83333 6.18815 7 6.1324 7.05556C6.0209 7.16667 5.90941 7.27778 6.02091 7.44444C6.1324 7.66667 6.52265 8.27778 7.13589 8.83333C7.91638 9.5 8.52962 9.72222 8.75261 9.83333C8.97561 9.94445 9.08711 9.88889 9.1986 9.77778C9.3101 9.66667 9.70035 9.22222 9.81185 9C9.92335 8.77778 10.0906 8.83333 10.2578 8.88889C10.4251 8.94444 11.4286 9.44445 11.5958 9.55556C11.8188 9.66667 11.9303 9.72222 11.9861 9.77778C12.0418 9.94444 12.0418 10.3333 11.8746 10.7778Z" />
</symbol>
<symbol id="viber" viewBox="0 0 24 24">
<path id="Vector" d="M12.11 0.379766C9.38744 -0.126589 6.56021 -0.126589 3.8377 0.379766C2.63351 0.632943 1.11518 2.05074 0.853403 3.16472C0.382199 5.34204 0.382199 7.57 0.853403 9.74733C1.16754 10.8613 2.68586 12.2791 3.8377 12.5323C3.89005 12.5323 3.94241 12.5829 3.94241 12.6336V15.8236C3.94241 15.9755 4.15183 16.0768 4.25655 15.9249L5.82723 14.3552C5.82723 14.3552 7.08377 13.0893 7.29319 12.8867C7.29319 12.8867 7.34555 12.8361 7.39791 12.8361C8.96859 12.8867 10.5916 12.7348 12.1623 12.4816C13.3665 12.2285 14.8848 10.8107 15.1466 9.69669C15.6178 7.51937 15.6178 5.29141 15.1466 3.11408C14.8325 2.05074 13.3141 0.632943 12.11 0.379766ZM12.1623 9.89924C11.9005 10.4056 11.5864 10.8107 11.0628 11.0639C10.9058 11.1145 10.7487 11.1651 10.5916 11.2158C10.3822 11.1651 10.2251 11.1145 10.0681 11.0639C8.39267 10.4056 6.82199 9.49415 5.56545 8.17763C4.88482 7.4181 4.3089 6.55729 3.8377 5.64586C3.62827 5.19014 3.41885 4.78505 3.26178 4.32933C3.10471 3.92425 3.36649 3.51917 3.62827 3.21535C3.89005 2.91154 4.20419 2.709 4.57068 2.55709C4.83246 2.40518 5.09424 2.50646 5.30367 2.709C5.72251 3.21535 6.14136 3.72171 6.4555 4.2787C6.66492 4.63315 6.61256 5.03823 6.24607 5.29141C6.14136 5.34204 6.089 5.39268 5.98429 5.49395C5.93194 5.54458 5.82722 5.59522 5.77487 5.69649C5.67016 5.8484 5.67016 6.0003 5.72251 6.15221C6.14136 7.31683 6.9267 8.22826 8.13089 8.73462C8.34031 8.83589 8.49738 8.88653 8.75916 8.88653C9.12566 8.83589 9.28272 8.43081 9.5445 8.22826C9.80628 8.02572 10.1204 8.02572 10.4346 8.17763C10.6963 8.32954 10.9581 8.53208 11.2723 8.73462C11.534 8.93716 11.7958 9.08907 12.0576 9.29161C12.2147 9.39288 12.267 9.64606 12.1623 9.89924ZM9.96335 6.10158C9.85864 6.10158 9.91099 6.10158 9.96335 6.10158C9.75393 6.10158 9.70157 6.0003 9.64921 5.8484C9.64921 5.74713 9.64921 5.59522 9.59686 5.49395C9.5445 5.29141 9.43979 5.08887 9.23037 4.93696C9.12566 4.88632 9.02094 4.83569 8.91623 4.78505C8.75916 4.73442 8.65445 4.73442 8.49738 4.73442C8.34032 4.68378 8.28796 4.58251 8.28796 4.4306C8.28796 4.32933 8.44503 4.22806 8.54974 4.22806C9.38744 4.2787 10.0157 4.73442 10.1204 5.69649C10.1204 5.74713 10.1204 5.8484 10.1204 5.89903C10.1204 6.0003 10.0681 6.10158 9.96335 6.10158ZM9.43979 3.87361C9.17801 3.77234 8.91623 3.67107 8.60209 3.62044C8.49738 3.62044 8.34032 3.5698 8.2356 3.5698C8.07854 3.5698 7.97382 3.46853 8.02618 3.31662C8.02618 3.16472 8.13089 3.06345 8.28796 3.11408C8.81152 3.16472 9.28272 3.26599 9.75393 3.46853C10.6963 3.92425 11.2199 4.68378 11.377 5.69649C11.377 5.74713 11.377 5.79776 11.377 5.8484C11.377 5.94967 11.377 6.05094 11.377 6.20284C11.377 6.25348 11.377 6.30412 11.377 6.35475C11.3246 6.55729 10.9581 6.60793 10.9058 6.35475C10.9058 6.30412 10.8534 6.20285 10.8534 6.15221C10.8534 5.69649 10.7487 5.24077 10.5393 4.83569C10.2251 4.37997 9.85864 4.07616 9.43979 3.87361ZM12.267 6.91174C12.1099 6.91174 12.0052 6.75984 12.0052 6.60793C12.0052 6.30412 11.9529 6.0003 11.9005 5.69649C11.6911 4.07615 10.3298 2.75963 8.70681 2.50646C8.44503 2.45582 8.18325 2.45582 7.97382 2.40518C7.81676 2.40518 7.60733 2.40519 7.55497 2.20264C7.50262 2.05074 7.65969 1.89883 7.81675 1.89883C7.86911 1.89883 7.92147 1.89883 7.92147 1.89883C8.02618 1.89883 10.0681 1.94947 7.92147 1.89883C10.1204 1.94947 11.9529 3.36726 12.3194 5.49395C12.3717 5.8484 12.4241 6.20285 12.4241 6.60793C12.5288 6.75984 12.4241 6.91174 12.267 6.91174Z" />
</symbol>
</defs>
</svg>
